<svg xmlns="http://www.w3.org/2000/svg" width="1280" height="800"><linearGradient id="a" gradientUnits="userSpaceOnUse" x1="1083.43" y1="640.63" x2="1080.06" y2="531.31" gradientTransform="matrix(-1 0 0 1 1279.6 0)"><stop offset=".12" stop-color="#fff"/><stop offset=".26" stop-color="#d0d2d2"/><stop offset=".59" stop-color="#616868"/><stop offset=".82" stop-color="#1b2424"/><stop offset=".93" stop-color="#000a0a"/></linearGradient><path fill="url(#a)" d="M197.84 585.95l.02.02v-.01z"/><linearGradient id="b" gradientUnits="userSpaceOnUse" x1="1084.04" y1="680.97" x2="1078.02" y2="485.75" gradientTransform="matrix(-1 0 0 1 1279.6 0)"><stop offset=".12" stop-color="#fff"/><stop offset=".26" stop-color="#d0d2d2"/><stop offset=".59" stop-color="#616868"/><stop offset=".82" stop-color="#1b2424"/><stop offset=".93" stop-color="#000a0a"/></linearGradient><path fill="url(#b)" d="M198.55 583.34l.03.02z"/><path fill="#090E13" d="M1280 430.58c-2.18.23-4.7.9-5.66 1.77-1.85 1.66-2.34 1.86-2.54 1.01-.1-.35-.48-.44-1.17-.27l-1.03.28 1.13.53 1.12.54-1.53 1.12a6.64 6.64 0 01-2.77 1.2c-1.78.12-12.11.16-13.57.06-.68-.05-1.9.03-2.72.18-.93.17-1.6.1-1.78-.18-.15-.25-1.12-.45-2.16-.45a4.75 4.75 0 01-3.33-1.1c-1.59-1.21-3.02-1.08-6.75.64-1.11.5-2.1.66-3.14.5-.82-.15-2.23-.24-3.14-.22l-6.02.15c-4 .1-4.5.03-5.64-.81-1.12-.84-1.37-.88-2.53-.4-.98.4-2.84.46-7.94.22-3.65-.17-7.58-.3-8.71-.28l-4.9.06c-1.57 0-3.1.23-3.4.48-.4.32-.54.32-.54-.02 0-.25-.2-.46-.45-.46-.26 0-.34.3-.2.67.32.83-8.77.43-9.32-.4-.22-.34-.4-.35-.61-.02-.51.75-12.85 1.07-12.85.34 0-.32-.21-.59-.46-.59s-.35.28-.22.62c.21.54.07.54-1.25-.01-1.25-.52-1.75-.54-2.97-.12-1.64.58-1.73.58-13.65.98-7.3.24-8.74.2-10.52-.4-1.13-.37-2.31-.58-2.63-.47-.32.11-3.08.39-6.13.62l-5.55.4-1.02-1.17c-2.58-2.94-9.06-2.8-9.06.2 0 1.67-4.97 2.22-15.71 1.74-2.05-.1-2.8.02-2.88.42-.08.39-.58.23-1.74-.56-1.19-.81-1.8-1-2.26-.7-.65.4-3.71-1.64-6.91-4.62-1.4-1.28-8.3-2.07-8.96-1-.12.2-.75.37-1.39.37-.63 0-1.67.4-2.3.9-1.17.93-8.58 1.47-9.08.67-.12-.18-.66-.34-1.21-.34-.55 0-1-.14-1-.32 0-.19-.7-.57-1.54-.87-.85-.3-2.24-1-3.08-1.57-1.4-.94-1.66-.99-2.81-.51-.95.4-2.86.44-7.91.2-3.67-.16-7.59-.29-8.71-.27l-5 .05c-1.8.01-3.1.22-3.35.53-.6.7-24.6.64-26.32-.08-1.03-.43-1.54-.36-3.74.54-3.02 1.22-19.2 1.22-23.1 0-1.04-.32-2.15-.5-2.47-.4a67 67 0 01-6.13.63l-5.55.41-.9-1.09c-1.4-1.72-6.7-3.57-10-3.49-4.5.1-20.58.87-23.66 1.13-2.35.2-3 .12-3.44-.4-.7-.84-1.46-.82-4.18.11-1.9.65-2.4.68-3.45.22-3.41-1.48-11.85-.51-14.11 1.6-.92.87-1.44.93-10.9 1.21l-9.94.3-2.6-1.03c-2.3-.9-2.77-.97-4-.53-1.25.45-1.5.41-2.36-.4-1.18-1.1-1.37-1.1-1.63-.1-.23.88-5.34 1.21-6.31.4-2.4-2-6.82-3.06-7.32-1.76-.2.55-.63.62-2.3.4-1.29-.17-3-.04-4.74.35-2 .46-2.93.52-3.53.2a3.33 3.33 0 00-1.93-.2c-.6.13-2.5.3-4.18.4-1.7.08-4.44.29-6.08.46-2.4.23-3.14.17-3.7-.33-.8-.69-6.82-1.23-7.4-.66a7 7 0 01-2.17.74l-3.02.68c-.65.16-1.87.96-2.7 1.79l-1.5 1.5-3.93-.04c-3.37-.04-4.09-.18-5.07-.95-.63-.5-1.5-.92-1.91-.95a4.86 4.86 0 01-2-.47c-2-.82-7.37-.1-8.72 1.16-3.06 2.85-6.02 4.78-6.9 4.5-.48-.15-1.1-.08-1.37.15-.65.53-1.37.09-1.57-.98-.14-.7-.5-.82-2.62-.83-1.35 0-3.3-.33-4.31-.71a11.4 11.4 0 00-2.72-.71c-.48 0-1.36-.4-1.97-.87-1.27-1-2.98-.92-6.08.3-1.46.57-2.19.65-3.08.34-.88-.32-1.47-.24-2.58.32-1.9.97-2.93.92-8.14-.35a55.34 55.34 0 00-6.06-1.21l-6.77-.53c-4.38-.34-5.3-.31-6.36.24-.67.35-2.9.77-4.95.94-3.88.31-7.05 1.38-8.73 2.96-1.41 1.31-5.15 1.26-6.45-.1-2.5-2.62-4.54-3.17-6.65-1.78-.82.54-1.66.63-4.17.44-2-.16-3.45-.08-4 .22-.46.26-1.95.6-3.3.77-1.92.23-2.67.53-3.38 1.36-1.04 1.21-3.4 1.46-4.23.45-.36-.43-1.37-.62-3.44-.63-1.62-.01-3.87-.05-5-.07-10.9-.27-23.42 1.55-24.28 3.52-.29.65-.7.84-1.62.76a117 117 0 00-4.76-.23c-2.91-.09-3.73-.27-4.68-1.01-.63-.5-1.68-.91-2.3-.91s-1.27-.17-1.4-.38c-.65-1.06-7.56-.28-8.94 1.02a68.4 68.4 0 01-3.87 3.16c-1.76 1.35-2.72 2.43-3.2 3.6-.65 1.64-1.37 2.16-3.63 2.65a2.8 2.8 0 00-1.76 1.46c-.9 1.74-2.83 1.68-6.18-.2-2.23-1.24-2.63-1.35-3.07-.82-.74.89-1.48.76-3.96-.66a8.68 8.68 0 00-4.4-1.34c-3.53-.12-8.08-4.53-8.08-7.83 0-.96-.16-1.07-1.57-1.07-1.1 0-2.07-.38-3.28-1.27-1.33-.98-1.99-1.2-2.88-1.01-.87.19-1.36.04-1.92-.58-.5-.56-1.27-.84-2.26-.84-.82 0-1.7-.22-1.97-.48-.33-.33-.64-.35-1-.05-1.08.84-2.86.95-4.97.32-2.6-.77-4.9-.5-7.12.84-3.64 2.2-4.84 2.71-6.37 2.73-.9.01-1.72.19-1.85.38-.12.2-.74.37-1.37.37-.64 0-1.68.4-2.3.9-.96.75-1.78.93-4.69 1.02-1.94.06-4.08.16-4.76.23-.93.08-1.33-.1-1.62-.76-.86-1.97-13.38-3.79-24.29-3.52-1.13.02-3.37.06-4.99.07-1.8.01-3.1.2-3.36.52-.58.72-24.58.64-26.31-.08-1.03-.42-1.54-.35-3.74.54-3.02 1.23-19.2 1.23-23.1 0-1.04-.32-2.15-.5-2.47-.38-.32.1-3.07.39-6.13.61l-5.55.42-1.02-1.18c-2.58-2.94-9.05-2.8-9.05.2 0 1.27-1.77 1.75-6.58 1.82-10.68.14-11.02.11-13.09-1.29-1.39-.94-2.05-1.16-2.52-.87-.64.41-3.71-1.64-6.91-4.6-1.4-1.3-8.3-2.08-8.95-1.02-.13.2-.75.38-1.39.38-.63 0-1.67.4-2.3.9-1.18.92-8.59 1.47-9.09.66-.11-.18-.65-.33-1.2-.33-.56 0-1-.15-1-.33 0-.18-.7-.57-1.55-.86-.85-.3-2.23-1-3.08-1.57-1.39-.94-1.65-.99-2.8-.52-.96.4-2.87.45-7.92.22-3.66-.18-7.58-.3-8.7-.29l-5 .06c-1.81.01-3.1.21-3.36.53-.59.7-24.59.63-26.31-.09-1.04-.42-1.55-.35-3.74.54-3.02 1.23-19.2 1.23-23.1 0-1.04-.32-2.15-.5-2.47-.38-.32.11-3.08.39-6.13.61l-5.55.42-1.02-1.18c-2.58-2.95-9.05-2.8-9.05.2 0 1.27-1.77 1.75-6.58 1.82-10.64.14-11.03.1-13.05-1.26l-1.85-1.25-1.5.71c-1.65.8-6.37 1.1-7.59.47-1.05-.54-2.33-.14-4.13 1.3-2.19 1.74-3.9 2.03-4.87.84l-.76-.94-.62.88c-1.2 1.72-3.04.87-3.04-1.4 0-1.75-.85-2.4-2.7-2.04-1.63.3-2.65-.25-2.65-1.42 0-1.22-1.93-2.19-3.76-1.89-1.5.24-1.71.14-3.6-1.8-2.2-2.3-2.13-2.26-3.98-1.59-1.26.46-1.45.38-4.55-1.97-3.03-2.3-3.3-2.42-4.26-1.91-.58.3-1.6.44-2.35.31a3.2 3.2 0 00-2.38.46c-1.24.81-5.02.62-7.92-.42-1.3-.45-2.04-.5-2.84-.2-2.64 1-7.52 1.72-8.15 1.2-.61-.51-.85-2.92-.35-3.42.15-.15.33-1.43.41-2.85.08-1.41.33-4.14.55-6.07.68-5.8.12-13.57-1.46-20.58-.17-.77.04-1.4.76-2.27a6.41 6.41 0 001.25-3.36c.13-1.19.61-3 1.06-4.02.46-1.02.94-3 1.09-4.41.14-1.41.52-3.27.84-4.11.32-.86.58-2.17.58-2.92 0-.85.32-1.65.84-2.13a6.12 6.12 0 001.28-2.55c.3-1.2.82-2.03 1.54-2.48 2.99-1.87 4.13-3.04 4.4-4.54.15-.83.53-2.03.85-2.65.59-1.17.45-2.2-.8-6.06-.52-1.63-.47-9.88.07-11.79.2-.68.67-4 1.05-7.37s.86-6.92 1.07-7.88c.63-2.83.47-11.13-.25-13.68-1.29-4.55-1.46-6.09-1.05-9.14.27-2.01.26-4.04-.03-6.26a105.2 105.2 0 01-.5-9.67c-.13-10.28-2.4-15-7.65-15.84a6.73 6.73 0 01-3.2-1.48 5.69 5.69 0 00-1.74-1.18c-.22 0-2.1-.8-4.2-1.8-2.1-.98-4.14-1.9-4.55-2.05-1.72-.59-.03-9.29 1.98-10.2 1.8-.82 3.75-7.08 2.52-8.1-.32-.27-.66-1.72-.8-3.44-.74-8.85-5.53-12.69-14.27-11.45-3.93.55-7.75 5.03-8.4 9.83a297.3 297.3 0 01-.5 3.52c-.16 1.12-.1 1.5.23 1.31.25-.15.45-.07.45.18 0 .24-.32.4-.72.33-1-.17-1.28 3.8-.33 4.59.36.29.64 1.13.64 1.87 0 .99.21 1.4.82 1.55 1.09.29 1.8 2.12 1.73 4.5-.09 3.33-1.05 4.32-4.5 4.61-2.41.21-5.45 1.47-7.43 3.1a4.42 4.42 0 01-3.15 1.24c-1.34 0-2.03.33-3.63 1.7-3.57 3.06-4.21 5.3-5.02 17.62a43.64 43.64 0 01-.84 6.17c-.63 2.47-1.41 9.94-1.41 13.45a9.1 9.1 0 01-.69 3.53c-.8 1.54-1.04 21.62-.39 31.53.45 6.65.4 8.03-.33 10.82l-.67 2.55c-.06.22.03.74.2 1.15.19.4.24 1.33.12 2.05-.29 1.76 1.24 4.6 3.17 5.9.8.55 1.46.88 1.46.73 0-.15.82.4 1.82 1.22 2.52 2.06 4.84.9 2.62-1.3-.38-.4-.28-.5.47-.5.94 0 .95.05.65 2.77-.17 1.53-.28 3.8-.23 5.04.35 9.9.3 12.6-.3 14.1-.67 1.71-.35 2.25 1.87 3.18 1.5.62 1.91 2.3 1.14 4.71a51.88 51.88 0 00-1.25 5.76c-.33 2.04-.8 4.63-1.04 5.76-.27 1.28-.33 4.25-.16 7.91.38 8.04-.65 9.03-5.31 5.03-1.32-1.13-2.62-2.05-2.88-2.07-2.4-.1-4.42-.62-5.62-1.44-.8-.53-2.04-1.18-2.76-1.44-.73-.25-1.43-.79-1.56-1.2-.15-.48-.84-.8-1.76-.91l-1.52-.16v2.51c0 3.75-1.24 4.56-3.47 2.15a55.22 55.22 0 00-3.16-3.07l-1.94-1.75.27 2.14c.26 2.23-.37 3.61-1.67 3.61-.87 0-5.45-3.65-5.45-4.35 0-.44-.29-.53-1.13-.33-1.58.38-1.75.51-1.75 1.39 0 .43-.2.9-.43 1.04-.24.15-.33.77-.2 1.38.26 1.18-.58 3.29-1.67 4.2-.53.43-.97.4-2.53-.18l-1.9-.7-1.11 1.07c-.87.83-1.45 1.04-2.61.94-1.3-.1-1.6.05-2.3 1.2-.48.79-1.14 1.33-1.63 1.33-.64 0-.83.27-.83 1.15 0 1.3-.66 2.14-1.68 2.14-.38 0-.93.29-1.23.65-.67.8-3.84.62-7.91-.47l-2.81-.74-2.84 2.88-2.85 2.88.83 1.62c.46.88 1.55 2.72 2.44 4.07 2.6 4.02 2 5.14-2.73 5.14-2.84 0-2.89-.01-4.15-1.58-.91-1.14-1.56-1.57-2.23-1.5-.52.06-1.37.13-1.87.15-.68.04-.93.31-.93 1 0 2.16-1.96 2.52-4.62.85-1.7-1.08-1.72-1.08-3.58-.38-3.08 1.16-3.22 1.14-7.57-1.09-.51-.26-.92-.24-1.22.05-.24.25-1.12.45-1.94.45-.99 0-1.76.28-2.26.84-.56.62-1.05.77-1.91.58-.9-.2-1.56.03-2.89 1.01a5.32 5.32 0 01-3.28 1.27c-1.41 0-1.57.1-1.57 1.07 0 3.3-4.55 7.7-8.08 7.83a8.67 8.67 0 00-4.4 1.34c-2.49 1.43-3.22 1.55-3.97.65-.45-.55-.71-.51-2.2.36l-.04.02V800h1280V430.58zM182.77 349.51a48 48 0 00.16 2.05c.07.77-.1 1.52-.44 1.8-.48.39-.57.05-.57-2.05 0-2.17.78-3.82.85-1.8zm-5.35-51.5c.18 1.14.31 3.45.3 5.15-.01 2.83-.04 2.93-.34 1.23a36.07 36.07 0 01-.3-5.14c.02-3.1.04-3.17.34-1.23zm-45.35 56.45c-.69-.21-1.83-2.61-2.19-4.59-.43-2.4.69-1.74 1.33.8.28 1.1.7 2.08.94 2.16.62.2.54 1.82-.08 1.63zm3.38-37.33c-.22 0-.4.92-.4 2.03 0 1.23-.24 2.26-.6 2.62-.32.33-.49.7-.36.84.13.13-.04.51-.39.85-.8.81-1.41 5.7-.73 5.92 1.13.38 2.13 1.94 1.9 2.96a91.05 91.05 0 00-1.4 7.8l-.28 2.27-.7-1.71a6 6 0 00-1.12-1.98c-1.01-.63-.03-11.98 1.68-19.32.26-1.12.6-3.8.77-5.96.17-2.16.49-4.38.71-4.95.24-.57.42-1.77.41-2.67 0-.9.14-3.59.34-5.97l.35-4.31.32 2.88c.19 1.58.56 4.44.83 6.37.88 6.21.22 12.33-1.33 12.33zm24.68 93.64c.54 6.2.47 6.44-2.03 6.84-2.04.32-3.54-.24-5.37-2.01a11.43 11.43 0 00-2.96-2.03c-2.44-1.01-2.38-.65-2.51-15.23l-.06-5.76 1.48-2.88c.81-1.58 1.6-3.85 1.78-5.03.22-1.61.56-2.38 1.34-2.98.94-.75 1.02-1.03.8-2.88a6.62 6.62 0 01.52-3.8 18 18 0 001.04-4.43c.5-4.93 1.54-5.82 2.02-1.75.15 1.3.47 3.48.7 4.84.23 1.35.52 3.57.64 4.93.12 1.36.38 2.64.59 2.86.2.22.38.89.38 1.49s.55 2.9 1.23 5.1c1.42 4.6 1.5 6.58.58 12.82-.56 3.74-.59 5.23-.18 9.9z"/></svg>