<svg xmlns="http://www.w3.org/2000/svg" width="1280" height="800"><switch><g><radialGradient id="a" cx="488.941" cy="4134.252" r="855.055" gradientTransform="matrix(-.9997 0 0 .6802 1279.507 -2491.561)" gradientUnits="userSpaceOnUse"><stop offset="0" stop-color="#fff"/><stop offset=".195" stop-color="#84aeff"/><stop offset=".731" stop-color="#598194"/><stop offset=".989" stop-color="#466e66"/></radialGradient><path fill="url(#a)" d="M0 0h1280v800H0z"/><circle fill="#FFF" cx="797" cy="321.946" r="40.333"/><g><radialGradient id="b" cx="489.762" cy="1403.097" r="722.768" gradientTransform="matrix(-.9997 0 0 .8961 1279.506 -809.485)" gradientUnits="userSpaceOnUse"><stop offset=".039" stop-color="#fff"/><stop offset=".154" stop-color="#acc8ff"/><stop offset=".216" stop-color="#84aeff"/><stop offset=".288" stop-color="#7ca6ec"/><stop offset=".531" stop-color="#658eb3"/><stop offset=".74" stop-color="#547d89"/><stop offset=".902" stop-color="#4a726f"/><stop offset="1" stop-color="#466e66"/></radialGradient><path fill="url(#b)" d="M0 428.795h1280v376.969H0z"/></g><g><linearGradient id="c" gradientUnits="userSpaceOnUse" x1="796.122" y1="909.703" x2="782.8" y2="477.47" gradientTransform="matrix(-1 0 0 1 1279.6 0)"><stop offset=".121" stop-color="#fff"/><stop offset=".256" stop-color="#d0d2d2"/><stop offset=".592" stop-color="#616868"/><stop offset=".824" stop-color="#1b2424"/><stop offset=".931" stop-color="#000a0a"/></linearGradient><path fill="url(#c)" d="M495.473 524.154s-.086.026-.225.052l.1.082.125-.134z"/><linearGradient id="d" gradientUnits="userSpaceOnUse" x1="798.604" y1="910.183" x2="785.262" y2="477.309" gradientTransform="matrix(-1 0 0 1 1279.6 0)"><stop offset=".121" stop-color="#fff"/><stop offset=".256" stop-color="#d0d2d2"/><stop offset=".592" stop-color="#616868"/><stop offset=".824" stop-color="#1b2424"/><stop offset=".931" stop-color="#000a0a"/></linearGradient><path fill="url(#d)" d="M492.723 526.921l.082.063.091-.096z"/><linearGradient id="e" gradientUnits="userSpaceOnUse" x1="856.874" y1="906.488" x2="843.601" y2="475.854" gradientTransform="matrix(-1 0 0 1 1279.6 0)"><stop offset=".121" stop-color="#fff"/><stop offset=".256" stop-color="#d0d2d2"/><stop offset=".592" stop-color="#616868"/><stop offset=".824" stop-color="#1b2424"/><stop offset=".931" stop-color="#000a0a"/></linearGradient><path fill="url(#e)" d="M434.736 514.988c.065-.107.134-.219.208-.333-.147.077-.291.122-.291.24l.083.093z"/><linearGradient id="f" gradientUnits="userSpaceOnUse" x1="947.871" y1="906.176" x2="934.518" y2="472.939" gradientTransform="matrix(-1 0 0 1 1279.6 0)"><stop offset=".121" stop-color="#fff"/><stop offset=".256" stop-color="#d0d2d2"/><stop offset=".592" stop-color="#616868"/><stop offset=".824" stop-color="#1b2424"/><stop offset=".931" stop-color="#000a0a"/></linearGradient><path fill="url(#f)" d="M343.847 510.521c.043.06.087.115.139.16.048-.122-.078-.118-.139-.16z"/><linearGradient id="g" gradientUnits="userSpaceOnUse" x1="947.48" y1="902.343" x2="934.256" y2="473.317" gradientTransform="matrix(-1 0 0 1 1279.6 0)"><stop offset=".121" stop-color="#fff"/><stop offset=".256" stop-color="#d0d2d2"/><stop offset=".592" stop-color="#616868"/><stop offset=".824" stop-color="#1b2424"/><stop offset=".931" stop-color="#000a0a"/></linearGradient><path fill="url(#g)" d="M344.016 512.377l.238.2c.026-.2-.086-.237-.238-.2z"/><linearGradient id="h" gradientUnits="userSpaceOnUse" x1="978.081" y1="902.12" x2="964.834" y2="472.337" gradientTransform="matrix(-1 0 0 1 1279.6 0)"><stop offset=".121" stop-color="#fff"/><stop offset=".256" stop-color="#d0d2d2"/><stop offset=".592" stop-color="#616868"/><stop offset=".824" stop-color="#1b2424"/><stop offset=".931" stop-color="#000a0a"/></linearGradient><path fill="url(#h)" d="M314.089 498.037c-.073-.015-.151-.029-.229-.048a1.1 1.1 0 00.057.233c.056-.062.112-.121.172-.185z"/><linearGradient id="i" gradientUnits="userSpaceOnUse" x1="1285.484" y1="892.971" x2="1272.239" y2="463.227" gradientTransform="matrix(-1 0 0 1 1279.6 0)"><stop offset=".121" stop-color="#fff"/><stop offset=".256" stop-color="#d0d2d2"/><stop offset=".592" stop-color="#616868"/><stop offset=".824" stop-color="#1b2424"/><stop offset=".931" stop-color="#000a0a"/></linearGradient><path fill="url(#i)" d="M7.299 466.347l-.078.033c.022.07.048.148.078.229a1.272 1.272 0 010-.262z"/><linearGradient id="j" gradientUnits="userSpaceOnUse" x1="1043.193" y1="901.291" x2="1029.911" y2="470.358" gradientTransform="matrix(-1 0 0 1 1279.6 0)"><stop offset=".121" stop-color="#fff"/><stop offset=".256" stop-color="#d0d2d2"/><stop offset=".592" stop-color="#616868"/><stop offset=".824" stop-color="#1b2424"/><stop offset=".931" stop-color="#000a0a"/></linearGradient><path fill="url(#j)" d="M249.134 489.034c.104-.137.19-.289.264-.44l-.03-.004-.429.204h-.004l-.087.04.187.134.099.066z"/><linearGradient id="k" gradientUnits="userSpaceOnUse" x1="1110.766" y1="899.554" x2="1097.475" y2="468.349" gradientTransform="matrix(-1 0 0 1 1279.6 0)"><stop offset=".121" stop-color="#fff"/><stop offset=".256" stop-color="#d0d2d2"/><stop offset=".592" stop-color="#616868"/><stop offset=".824" stop-color="#1b2424"/><stop offset=".931" stop-color="#000a0a"/></linearGradient><path fill="url(#k)" d="M181.449 486.294l.204.133c.013-.056.026-.11.043-.174l-.247.041z"/><linearGradient id="l" gradientUnits="userSpaceOnUse" x1="1160.744" y1="896.731" x2="1147.498" y2="466.957" gradientTransform="matrix(-1 0 0 1 1279.6 0)"><stop offset=".121" stop-color="#fff"/><stop offset=".256" stop-color="#d0d2d2"/><stop offset=".592" stop-color="#616868"/><stop offset=".824" stop-color="#1b2424"/><stop offset=".931" stop-color="#000a0a"/></linearGradient><path fill="url(#l)" d="M129.461 546.809l.351.223a1.085 1.085 0 00-.187-.252l-.164.029z"/><linearGradient id="m" gradientUnits="userSpaceOnUse" x1="1164.765" y1="897.361" x2="1151.492" y2="466.744" gradientTransform="matrix(-1 0 0 1 1279.6 0)"><stop offset=".121" stop-color="#fff"/><stop offset=".256" stop-color="#d0d2d2"/><stop offset=".592" stop-color="#616868"/><stop offset=".824" stop-color="#1b2424"/><stop offset=".931" stop-color="#000a0a"/></linearGradient><path fill="url(#m)" d="M127.4 504.504c-.229.011-.546.093-.867.192-.017.008-.034.011-.052.019l.035.026.308.407.078.066.056-.081c.139-.203.29-.418.442-.629z"/><linearGradient id="n" gradientUnits="userSpaceOnUse" x1="955.62" y1="902.337" x2="942.392" y2="473.159" gradientTransform="matrix(-1 0 0 1 1279.6 0)"><stop offset=".121" stop-color="#fff"/><stop offset=".256" stop-color="#d0d2d2"/><stop offset=".592" stop-color="#616868"/><stop offset=".824" stop-color="#1b2424"/><stop offset=".931" stop-color="#000a0a"/></linearGradient><path fill="url(#n)" d="M334.426 564.326a.89.89 0 01.117-.107c.104-.07-.13-.052-.308-.026l.191.133z"/><linearGradient id="o" gradientUnits="userSpaceOnUse" x1="943.123" y1="903.607" x2="929.86" y2="473.287" gradientTransform="matrix(-1 0 0 1 1279.6 0)"><stop offset=".121" stop-color="#fff"/><stop offset=".256" stop-color="#d0d2d2"/><stop offset=".592" stop-color="#616868"/><stop offset=".824" stop-color="#1b2424"/><stop offset=".931" stop-color="#000a0a"/></linearGradient><path fill="url(#o)" d="M346.767 566.955c.057.104.108.204.16.308.026-.159-.035-.259-.16-.308z"/><linearGradient id="p" gradientUnits="userSpaceOnUse" x1="1259.984" y1="892.985" x2="1246.758" y2="463.878" gradientTransform="matrix(-1 0 0 1 1279.6 0)"><stop offset=".121" stop-color="#fff"/><stop offset=".256" stop-color="#d0d2d2"/><stop offset=".592" stop-color="#616868"/><stop offset=".824" stop-color="#1b2424"/><stop offset=".931" stop-color="#000a0a"/></linearGradient><path fill="url(#p)" d="M34.311 413.876l.108.2c.013-.049.022-.101.035-.145-.048-.022-.096-.036-.143-.055z"/><linearGradient id="q" gradientUnits="userSpaceOnUse" x1="1225.533" y1="894.62" x2="1212.29" y2="464.961" gradientTransform="matrix(-1 0 0 1 1279.6 0)"><stop offset=".121" stop-color="#fff"/><stop offset=".256" stop-color="#d0d2d2"/><stop offset=".592" stop-color="#616868"/><stop offset=".824" stop-color="#1b2424"/><stop offset=".931" stop-color="#000a0a"/></linearGradient><path fill="url(#q)" d="M68.755 412.791l.195.155.122.097a.252.252 0 00-.052-.148c-.053-.067-.144-.1-.265-.104z"/><linearGradient id="r" gradientUnits="userSpaceOnUse" x1="1141.999" y1="898.399" x2="1128.718" y2="467.491" gradientTransform="matrix(-1 0 0 1 1279.6 0)"><stop offset=".121" stop-color="#fff"/><stop offset=".256" stop-color="#d0d2d2"/><stop offset=".592" stop-color="#616868"/><stop offset=".824" stop-color="#1b2424"/><stop offset=".931" stop-color="#000a0a"/></linearGradient><path fill="url(#r)" d="M151.05 459.555l.147.163c.009-.13.009-.208.009-.208l-.156.045z"/><linearGradient id="s" gradientUnits="userSpaceOnUse" x1="1014.443" y1="902.509" x2="1001.15" y2="471.212" gradientTransform="matrix(-1 0 0 1 1279.6 0)"><stop offset=".121" stop-color="#fff"/><stop offset=".256" stop-color="#d0d2d2"/><stop offset=".592" stop-color="#616868"/><stop offset=".824" stop-color="#1b2424"/><stop offset=".931" stop-color="#000a0a"/></linearGradient><path fill="url(#s)" d="M277.934 483.516l.234.167a.895.895 0 01.035-.118c-.078-.012-.169-.03-.269-.049z"/><linearGradient id="t" gradientUnits="userSpaceOnUse" x1="772.283" y1="908.766" x2="759.018" y2="478.368" gradientTransform="matrix(-1 0 0 1 1279.6 0)"><stop offset=".121" stop-color="#fff"/><stop offset=".256" stop-color="#d0d2d2"/><stop offset=".592" stop-color="#616868"/><stop offset=".824" stop-color="#1b2424"/><stop offset=".931" stop-color="#000a0a"/></linearGradient><path fill="url(#t)" d="M518.829 528.843l.242.171c.035-.03.065-.056.095-.074.165-.12-.06-.123-.337-.097z"/><linearGradient id="u" gradientUnits="userSpaceOnUse" x1="708.59" y1="908.111" x2="695.414" y2="480.627" gradientTransform="matrix(-1 0 0 1 1279.6 0)"><stop offset=".121" stop-color="#fff"/><stop offset=".256" stop-color="#d0d2d2"/><stop offset=".592" stop-color="#616868"/><stop offset=".824" stop-color="#1b2424"/><stop offset=".931" stop-color="#000a0a"/></linearGradient><path fill="url(#u)" d="M582.373 536.628c.009.06.026.122.048.185.039-.052.083-.1.125-.151a5.911 5.911 0 00-.173-.034z"/><linearGradient id="v" gradientUnits="userSpaceOnUse" x1="685.087" y1="911.526" x2="671.814" y2="480.908" gradientTransform="matrix(-1 0 0 1 1279.6 0)"><stop offset=".121" stop-color="#fff"/><stop offset=".256" stop-color="#d0d2d2"/><stop offset=".592" stop-color="#616868"/><stop offset=".824" stop-color="#1b2424"/><stop offset=".931" stop-color="#000a0a"/></linearGradient><path fill="url(#v)" d="M605.949 542.579c.026-.037.057-.078.091-.118-.091-.019-.195-.033-.303-.056l.212.174z"/><linearGradient id="w" gradientUnits="userSpaceOnUse" x1="656.585" y1="913.276" x2="643.28" y2="481.588" gradientTransform="matrix(-1 0 0 1 1279.6 0)"><stop offset=".121" stop-color="#fff"/><stop offset=".256" stop-color="#d0d2d2"/><stop offset=".592" stop-color="#616868"/><stop offset=".824" stop-color="#1b2424"/><stop offset=".931" stop-color="#000a0a"/></linearGradient><path fill="url(#w)" d="M634.208 545.627l.229.219c.017-.074.03-.148.047-.219h-.276z"/><linearGradient id="x" gradientUnits="userSpaceOnUse" x1="645.254" y1="913.713" x2="631.948" y2="481.995" gradientTransform="matrix(-1 0 0 1 1279.6 0)"><stop offset=".121" stop-color="#fff"/><stop offset=".256" stop-color="#d0d2d2"/><stop offset=".592" stop-color="#616868"/><stop offset=".824" stop-color="#1b2424"/><stop offset=".931" stop-color="#000a0a"/></linearGradient><path fill="url(#x)" d="M646.154 527.702l.126.138c.021-.104.039-.204.057-.301-.096.049-.183.082-.183.163z"/><linearGradient id="y" gradientUnits="userSpaceOnUse" x1="614.082" y1="912.047" x2="600.866" y2="483.273" gradientTransform="matrix(-1 0 0 1 1279.6 0)"><stop offset=".121" stop-color="#fff"/><stop offset=".256" stop-color="#d0d2d2"/><stop offset=".592" stop-color="#616868"/><stop offset=".824" stop-color="#1b2424"/><stop offset=".931" stop-color="#000a0a"/></linearGradient><path fill="url(#y)" d="M676.727 544.872l.138.141.078-.141z"/><linearGradient id="z" gradientUnits="userSpaceOnUse" x1="558.483" y1="916.618" x2="545.159" y2="484.323" gradientTransform="matrix(-1 0 0 1 1279.6 0)"><stop offset=".121" stop-color="#fff"/><stop offset=".256" stop-color="#d0d2d2"/><stop offset=".592" stop-color="#616868"/><stop offset=".824" stop-color="#1b2424"/><stop offset=".931" stop-color="#000a0a"/></linearGradient><path fill="url(#z)" d="M732.011 563.526c.025-.041.052-.082.073-.122l-.16-.022c.03.044.06.096.087.144z"/><linearGradient id="A" gradientUnits="userSpaceOnUse" x1="532.252" y1="914.535" x2="519.035" y2="485.715" gradientTransform="matrix(-1 0 0 1 1279.6 0)"><stop offset=".121" stop-color="#fff"/><stop offset=".256" stop-color="#d0d2d2"/><stop offset=".592" stop-color="#616868"/><stop offset=".824" stop-color="#1b2424"/><stop offset=".931" stop-color="#000a0a"/></linearGradient><path fill="url(#A)" d="M758.472 557.464l-.238.04.139.111c.034-.052.065-.103.099-.151z"/><linearGradient id="B" gradientUnits="userSpaceOnUse" x1="531.117" y1="916.163" x2="517.841" y2="485.435" gradientTransform="matrix(-1 0 0 1 1279.6 0)"><stop offset=".121" stop-color="#fff"/><stop offset=".256" stop-color="#d0d2d2"/><stop offset=".592" stop-color="#616868"/><stop offset=".824" stop-color="#1b2424"/><stop offset=".931" stop-color="#000a0a"/></linearGradient><path fill="url(#B)" d="M759.521 554.297c.073.074.146.152.225.233-.001-.17-.092-.237-.225-.233z"/><linearGradient id="C" gradientUnits="userSpaceOnUse" x1="483.745" y1="917.269" x2="470.479" y2="486.871" gradientTransform="matrix(-1 0 0 1 1279.6 0)"><stop offset=".121" stop-color="#fff"/><stop offset=".256" stop-color="#d0d2d2"/><stop offset=".592" stop-color="#616868"/><stop offset=".824" stop-color="#1b2424"/><stop offset=".931" stop-color="#000a0a"/></linearGradient><path fill="url(#C)" d="M806.535 574.98h-.261l.229.215c.015-.073.023-.147.032-.215z"/><linearGradient id="D" gradientUnits="userSpaceOnUse" x1="511.303" y1="916.401" x2="498.039" y2="486.077" gradientTransform="matrix(-1 0 0 1 1279.6 0)"><stop offset=".121" stop-color="#fff"/><stop offset=".256" stop-color="#d0d2d2"/><stop offset=".592" stop-color="#616868"/><stop offset=".824" stop-color="#1b2424"/><stop offset=".931" stop-color="#000a0a"/></linearGradient><path fill="url(#D)" d="M779.155 566.489c.013-.052.025-.115.043-.186l-.221.041.178.145z"/><linearGradient id="E" gradientUnits="userSpaceOnUse" x1="496.66" y1="918.998" x2="483.297" y2="485.449" gradientTransform="matrix(-1 0 0 1 1279.6 0)"><stop offset=".121" stop-color="#fff"/><stop offset=".256" stop-color="#d0d2d2"/><stop offset=".592" stop-color="#616868"/><stop offset=".824" stop-color="#1b2424"/><stop offset=".931" stop-color="#000a0a"/></linearGradient><path fill="url(#E)" d="M792.02 622.512c.057-.074.108-.152.165-.23l-.199.026.034.204z"/><linearGradient id="F" gradientUnits="userSpaceOnUse" x1="633.786" y1="912.651" x2="620.526" y2="482.427" gradientTransform="matrix(-1 0 0 1 1279.6 0)"><stop offset=".121" stop-color="#fff"/><stop offset=".256" stop-color="#d0d2d2"/><stop offset=".592" stop-color="#616868"/><stop offset=".824" stop-color="#1b2424"/><stop offset=".931" stop-color="#000a0a"/></linearGradient><path fill="url(#F)" d="M654.372 638.129c.047-.06.095-.118.147-.186a1.05 1.05 0 01-.243-.066l-.233.041.329.211z"/><linearGradient id="G" gradientUnits="userSpaceOnUse" x1="671.84" y1="911.416" x2="658.585" y2="481.365" gradientTransform="matrix(-1 0 0 1 1279.6 0)"><stop offset=".121" stop-color="#fff"/><stop offset=".256" stop-color="#d0d2d2"/><stop offset=".592" stop-color="#616868"/><stop offset=".824" stop-color="#1b2424"/><stop offset=".931" stop-color="#000a0a"/></linearGradient><path fill="url(#G)" d="M616.601 625.367l.125-.086h-.294l.169.086z"/><linearGradient id="H" gradientUnits="userSpaceOnUse" x1="676.722" y1="911.329" x2="663.464" y2="481.199" gradientTransform="matrix(-1 0 0 1 1279.6 0)"><stop offset=".121" stop-color="#fff"/><stop offset=".256" stop-color="#d0d2d2"/><stop offset=".592" stop-color="#616868"/><stop offset=".824" stop-color="#1b2424"/><stop offset=".931" stop-color="#000a0a"/></linearGradient><path fill="url(#H)" d="M611.948 611.612l.126.122c.043-.008.121-.022.195-.078a.245.245 0 00.048-.1c-.022-.041-.083-.082-.052-.174l-.347.166.03.064z"/><linearGradient id="I" gradientUnits="userSpaceOnUse" x1="678.878" y1="911.305" x2="665.618" y2="481.09" gradientTransform="matrix(-1 0 0 1 1279.6 0)"><stop offset=".121" stop-color="#fff"/><stop offset=".256" stop-color="#d0d2d2"/><stop offset=".592" stop-color="#616868"/><stop offset=".824" stop-color="#1b2424"/><stop offset=".931" stop-color="#000a0a"/></linearGradient><path fill="url(#I)" d="M608.787 648.606c.052-.07.108-.142.165-.215-.33.067-.291.148-.165.215z"/><linearGradient id="J" gradientUnits="userSpaceOnUse" x1="1276.177" y1="554.827" x2="1268.956" y2="320.563" gradientTransform="matrix(-1 0 0 1 1279.6 0)"><stop offset=".121" stop-color="#fff"/><stop offset=".256" stop-color="#d0d2d2"/><stop offset=".592" stop-color="#616868"/><stop offset=".824" stop-color="#1b2424"/><stop offset=".931" stop-color="#000a0a"/></linearGradient><path fill="url(#J)" d="M7.074 437.667h-.078l.061.029.017-.029z"/><linearGradient id="K" gradientUnits="userSpaceOnUse" x1="1275.637" y1="489.87" x2="1272.989" y2="403.973" gradientTransform="matrix(-1 0 0 1 1279.6 0)"><stop offset=".121" stop-color="#fff"/><stop offset=".256" stop-color="#d0d2d2"/><stop offset=".592" stop-color="#616868"/><stop offset=".824" stop-color="#1b2424"/><stop offset=".931" stop-color="#000a0a"/></linearGradient><path fill="url(#K)" d="M5.285 446.922l.008-.011H5.28z"/><linearGradient id="L" gradientUnits="userSpaceOnUse" x1="483.604" y1="916.912" x2="470.301" y2="485.288" gradientTransform="matrix(-1 0 0 1 1279.6 0)"><stop offset=".121" stop-color="#fff"/><stop offset=".256" stop-color="#d0d2d2"/><stop offset=".592" stop-color="#616868"/><stop offset=".824" stop-color="#1b2424"/><stop offset=".931" stop-color="#000a0a"/></linearGradient><path fill="url(#L)" d="M806.773 566.118c.017.049.038.097.056.145.026-.081-.004-.118-.056-.145z"/><linearGradient id="M" gradientUnits="userSpaceOnUse" x1="882.921" y1="901.995" x2="873.294" y2="589.643" gradientTransform="matrix(-1 0 0 1 1279.6 0)"><stop offset=".121" stop-color="#fff"/><stop offset=".256" stop-color="#d0d2d2"/><stop offset=".592" stop-color="#616868"/><stop offset=".824" stop-color="#1b2424"/><stop offset=".931" stop-color="#000a0a"/></linearGradient><path fill="url(#M)" d="M408.868 507.222c-.004-.011 0-.025-.004-.036l-.039-.004.043.04z"/><linearGradient id="N" gradientUnits="userSpaceOnUse" x1="824.437" y1="902.049" x2="812.884" y2="527.227" gradientTransform="matrix(-1 0 0 1 1279.6 0)"><stop offset=".121" stop-color="#fff"/><stop offset=".256" stop-color="#d0d2d2"/><stop offset=".592" stop-color="#616868"/><stop offset=".824" stop-color="#1b2424"/><stop offset=".931" stop-color="#000a0a"/></linearGradient><path fill="url(#N)" d="M466.317 537.109l.061.044a.952.952 0 00.126-.044h-.187z"/><linearGradient id="O" gradientUnits="userSpaceOnUse" x1="805.673" y1="908.291" x2="792.378" y2="476.945" gradientTransform="matrix(-1 0 0 1 1279.6 0)"><stop offset=".121" stop-color="#fff"/><stop offset=".256" stop-color="#d0d2d2"/><stop offset=".592" stop-color="#616868"/><stop offset=".824" stop-color="#1b2424"/><stop offset=".931" stop-color="#000a0a"/></linearGradient><path fill="url(#O)" d="M483.717 588.584l.074.074c.017-.026.035-.049.052-.074h-.126z"/><linearGradient id="P" gradientUnits="userSpaceOnUse" x1="796.574" y1="898.257" x2="788.872" y2="648.375" gradientTransform="matrix(-1 0 0 1 1279.6 0)"><stop offset=".121" stop-color="#fff"/><stop offset=".256" stop-color="#d0d2d2"/><stop offset=".592" stop-color="#616868"/><stop offset=".824" stop-color="#1b2424"/><stop offset=".931" stop-color="#000a0a"/></linearGradient><path fill="url(#P)" d="M494.559 525.125l-.065-.012.044.033z"/><linearGradient id="Q" gradientUnits="userSpaceOnUse" x1="749.855" y1="569.533" x2="746.966" y2="475.828" gradientTransform="matrix(-1 0 0 1 1279.6 0)"><stop offset=".121" stop-color="#fff"/><stop offset=".256" stop-color="#d0d2d2"/><stop offset=".592" stop-color="#616868"/><stop offset=".824" stop-color="#1b2424"/><stop offset=".931" stop-color="#000a0a"/></linearGradient><path fill="url(#Q)" d="M531.183 522.669l.008.012.004-.012z"/><linearGradient id="R" gradientUnits="userSpaceOnUse" x1="685.028" y1="915.95" x2="671.567" y2="479.199" gradientTransform="matrix(-1 0 0 1 1279.6 0)"><stop offset=".121" stop-color="#fff"/><stop offset=".256" stop-color="#d0d2d2"/><stop offset=".592" stop-color="#616868"/><stop offset=".824" stop-color="#1b2424"/><stop offset=".931" stop-color="#000a0a"/></linearGradient><path fill="url(#R)" d="M606.014 542.631l.061.049c.022-.045.048-.086.069-.126a1.54 1.54 0 00-.13.077z"/><linearGradient id="S" gradientUnits="userSpaceOnUse" x1="670.076" y1="648.98" x2="663.578" y2="438.142" gradientTransform="matrix(-1 0 0 1 1279.6 0)"><stop offset=".121" stop-color="#fff"/><stop offset=".256" stop-color="#d0d2d2"/><stop offset=".592" stop-color="#616868"/><stop offset=".824" stop-color="#1b2424"/><stop offset=".931" stop-color="#000a0a"/></linearGradient><path fill="url(#S)" d="M612.797 543.535a.171.171 0 00-.047.015l.017.011.03-.026z"/><linearGradient id="T" gradientUnits="userSpaceOnUse" x1="647.534" y1="619.982" x2="642.721" y2="463.807" gradientTransform="matrix(-1 0 0 1 1279.6 0)"><stop offset=".121" stop-color="#fff"/><stop offset=".256" stop-color="#d0d2d2"/><stop offset=".592" stop-color="#616868"/><stop offset=".824" stop-color="#1b2424"/><stop offset=".931" stop-color="#000a0a"/></linearGradient><path fill="url(#T)" d="M634.485 541.879l-.026-.004.018.02z"/><linearGradient id="U" gradientUnits="userSpaceOnUse" x1="676.784" y1="914.867" x2="663.351" y2="479.038" gradientTransform="matrix(-1 0 0 1 1279.6 0)"><stop offset=".121" stop-color="#fff"/><stop offset=".256" stop-color="#d0d2d2"/><stop offset=".592" stop-color="#616868"/><stop offset=".824" stop-color="#1b2424"/><stop offset=".931" stop-color="#000a0a"/></linearGradient><path fill="url(#U)" d="M612.187 611.846c.004-.016 0-.026.004-.041-.021-.008-.047-.019-.069-.026l.065.067z"/><linearGradient id="V" gradientUnits="userSpaceOnUse" x1="961.845" y1="578.714" x2="956.309" y2="399.112" gradientTransform="matrix(-1 0 0 1 1279.6 0)"><stop offset=".121" stop-color="#fff"/><stop offset=".256" stop-color="#d0d2d2"/><stop offset=".592" stop-color="#616868"/><stop offset=".824" stop-color="#1b2424"/><stop offset=".931" stop-color="#000a0a"/></linearGradient><path fill="url(#V)" d="M320.539 488.89l-.03.004.022.019c.004-.009.008-.016.008-.023z"/><linearGradient id="W" gradientUnits="userSpaceOnUse" x1="936.6" y1="528.185" x2="935.637" y2="496.949" gradientTransform="matrix(-1 0 0 1 1279.6 0)"><stop offset=".121" stop-color="#fff"/><stop offset=".256" stop-color="#d0d2d2"/><stop offset=".592" stop-color="#616868"/><stop offset=".824" stop-color="#1b2424"/><stop offset=".931" stop-color="#000a0a"/></linearGradient><path fill="url(#W)" d="M343.483 512.566v-.003h-.004z"/><linearGradient id="X" gradientUnits="userSpaceOnUse" x1="946.925" y1="652.014" x2="939.223" y2="402.132" gradientTransform="matrix(-1 0 0 1 1279.6 0)"><stop offset=".121" stop-color="#fff"/><stop offset=".256" stop-color="#d0d2d2"/><stop offset=".592" stop-color="#616868"/><stop offset=".824" stop-color="#1b2424"/><stop offset=".931" stop-color="#000a0a"/></linearGradient><path fill="url(#X)" d="M336.505 527.043l.026.03c.004-.008.013-.019.018-.03h-.044z"/><linearGradient id="Y" gradientUnits="userSpaceOnUse" x1="955.533" y1="900.475" x2="942.389" y2="474.015" gradientTransform="matrix(-1 0 0 1 1279.6 0)"><stop offset=".121" stop-color="#fff"/><stop offset=".256" stop-color="#d0d2d2"/><stop offset=".592" stop-color="#616868"/><stop offset=".824" stop-color="#1b2424"/><stop offset=".931" stop-color="#000a0a"/></linearGradient><path fill="url(#Y)" d="M334.374 567.748c.004-.063.004-.1.004-.1l-.086.025-.022.008.009.007.095.06z"/><linearGradient id="Z" gradientUnits="userSpaceOnUse" x1="982.002" y1="902.801" x2="968.764" y2="473.317" gradientTransform="matrix(-1 0 0 1 1279.6 0)"><stop offset=".121" stop-color="#fff"/><stop offset=".256" stop-color="#d0d2d2"/><stop offset=".592" stop-color="#616868"/><stop offset=".824" stop-color="#1b2424"/><stop offset=".931" stop-color="#000a0a"/></linearGradient><path fill="url(#Z)" d="M310.317 491.146v-.048l-.061-.008z"/><linearGradient id="aa" gradientUnits="userSpaceOnUse" x1="1000.036" y1="902.196" x2="986.766" y2="471.642" gradientTransform="matrix(-1 0 0 1 1279.6 0)"><stop offset=".121" stop-color="#fff"/><stop offset=".256" stop-color="#d0d2d2"/><stop offset=".592" stop-color="#616868"/><stop offset=".824" stop-color="#1b2424"/><stop offset=".931" stop-color="#000a0a"/></linearGradient><path fill="url(#aa)" d="M291.925 502.896s-.052.015-.108.019l.056.037.052-.056z"/><linearGradient id="ab" gradientUnits="userSpaceOnUse" x1="1000.406" y1="904.56" x2="987.65" y2="490.694" gradientTransform="matrix(-1 0 0 1 1279.6 0)"><stop offset=".121" stop-color="#fff"/><stop offset=".256" stop-color="#d0d2d2"/><stop offset=".592" stop-color="#616868"/><stop offset=".824" stop-color="#1b2424"/><stop offset=".931" stop-color="#000a0a"/></linearGradient><path fill="url(#ab)" d="M291.553 502.744l.052.034c-.004-.016-.004-.034-.004-.052-.018.007-.036.015-.048.018z"/><linearGradient id="ac" gradientUnits="userSpaceOnUse" x1="985.341" y1="545.299" x2="982.693" y2="459.402" gradientTransform="matrix(-1 0 0 1 1279.6 0)"><stop offset=".121" stop-color="#fff"/><stop offset=".256" stop-color="#d0d2d2"/><stop offset=".592" stop-color="#616868"/><stop offset=".824" stop-color="#1b2424"/><stop offset=".931" stop-color="#000a0a"/></linearGradient><path fill="url(#ac)" d="M295.577 502.345l.008.007c.004-.003.004-.003.004-.011-.004.004-.008.004-.012.004z"/><linearGradient id="ad" gradientUnits="userSpaceOnUse" x1="1025.924" y1="613.717" x2="1018.944" y2="387.262" gradientTransform="matrix(-1 0 0 1 1279.6 0)"><stop offset=".121" stop-color="#fff"/><stop offset=".256" stop-color="#d0d2d2"/><stop offset=".592" stop-color="#616868"/><stop offset=".824" stop-color="#1b2424"/><stop offset=".931" stop-color="#000a0a"/></linearGradient><path fill="url(#ad)" d="M257.169 500.489l.021-.022-.047-.007z"/><linearGradient id="ae" gradientUnits="userSpaceOnUse" x1="1195.22" y1="896.311" x2="1181.961" y2="466.133" gradientTransform="matrix(-1 0 0 1 1279.6 0)"><stop offset=".121" stop-color="#fff"/><stop offset=".256" stop-color="#d0d2d2"/><stop offset=".592" stop-color="#616868"/><stop offset=".824" stop-color="#1b2424"/><stop offset=".931" stop-color="#000a0a"/></linearGradient><path fill="url(#ae)" d="M98.885 428.564c-.035-.016-.074-.03-.104-.041-.026-.012-.048-.019-.069-.026.026.037.056.074.083.107l.03.037c.021-.025.043-.051.06-.077z"/><linearGradient id="af" gradientUnits="userSpaceOnUse" x1="1198.454" y1="898.461" x2="1185.132" y2="466.23" gradientTransform="matrix(-1 0 0 1 1279.6 0)"><stop offset=".121" stop-color="#fff"/><stop offset=".256" stop-color="#d0d2d2"/><stop offset=".592" stop-color="#616868"/><stop offset=".824" stop-color="#1b2424"/><stop offset=".931" stop-color="#000a0a"/></linearGradient><path fill="url(#af)" d="M95.559 429.187l.039.1.065-.1h-.104z"/><linearGradient id="ag" gradientUnits="userSpaceOnUse" x1="1135.324" y1="899.705" x2="1122.016" y2="467.937" gradientTransform="matrix(-1 0 0 1 1279.6 0)"><stop offset=".121" stop-color="#fff"/><stop offset=".256" stop-color="#d0d2d2"/><stop offset=".592" stop-color="#616868"/><stop offset=".824" stop-color="#1b2424"/><stop offset=".931" stop-color="#000a0a"/></linearGradient><path fill="url(#ag)" d="M157.365 472.572l.087.056c.021-.029.043-.056.065-.081l-.152.025z"/><linearGradient id="ah" gradientUnits="userSpaceOnUse" x1="1083.433" y1="640.631" x2="1080.063" y2="531.308" gradientTransform="matrix(-1 0 0 1 1279.6 0)"><stop offset=".121" stop-color="#fff"/><stop offset=".256" stop-color="#d0d2d2"/><stop offset=".592" stop-color="#616868"/><stop offset=".824" stop-color="#1b2424"/><stop offset=".931" stop-color="#000a0a"/></linearGradient><path fill="url(#ah)" d="M197.839 585.954l.017.015.009-.011z"/><linearGradient id="ai" gradientUnits="userSpaceOnUse" x1="1084.039" y1="680.975" x2="1078.022" y2="485.755" gradientTransform="matrix(-1 0 0 1 1279.6 0)"><stop offset=".121" stop-color="#fff"/><stop offset=".256" stop-color="#d0d2d2"/><stop offset=".592" stop-color="#616868"/><stop offset=".824" stop-color="#1b2424"/><stop offset=".931" stop-color="#000a0a"/></linearGradient><path fill="url(#ai)" d="M198.554 583.34l.03.025v-.014z"/><linearGradient id="aj" gradientUnits="userSpaceOnUse" x1="1094.043" y1="900.076" x2="1080.77" y2="469.435" gradientTransform="matrix(-1 0 0 1 1279.6 0)"><stop offset=".121" stop-color="#fff"/><stop offset=".256" stop-color="#d0d2d2"/><stop offset=".592" stop-color="#616868"/><stop offset=".824" stop-color="#1b2424"/><stop offset=".931" stop-color="#000a0a"/></linearGradient><path fill="url(#aj)" d="M195.968 560.574l.017.104c.03-.033.057-.07.087-.104h-.104z"/><linearGradient id="ak" gradientUnits="userSpaceOnUse" x1="1136.685" y1="900.563" x2="1123.349" y2="467.885" gradientTransform="matrix(-1 0 0 1 1279.6 0)"><stop offset=".121" stop-color="#fff"/><stop offset=".256" stop-color="#d0d2d2"/><stop offset=".592" stop-color="#616868"/><stop offset=".824" stop-color="#1b2424"/><stop offset=".931" stop-color="#000a0a"/></linearGradient><path fill="url(#ak)" d="M154.637 520.732l.021-.022c0-.037.004-.07.004-.104l-.074-.011c.018.045.031.09.049.137z"/><linearGradient id="al" gradientUnits="userSpaceOnUse" x1="1168.334" y1="909.064" x2="1158.707" y2="596.713" gradientTransform="matrix(-1 0 0 1 1279.6 0)"><stop offset=".121" stop-color="#fff"/><stop offset=".256" stop-color="#d0d2d2"/><stop offset=".592" stop-color="#616868"/><stop offset=".824" stop-color="#1b2424"/><stop offset=".931" stop-color="#000a0a"/></linearGradient><path fill="url(#al)" d="M123.67 506.015c.017-.011.03-.025.043-.037-.021.008-.035.012-.047.019 0 .007.004.014.004.018z"/></g></g></switch></svg>