<svg xmlns="http://www.w3.org/2000/svg" width="1280" height="800"><linearGradient id="a" gradientUnits="userSpaceOnUse" x1="633.45" y1="318.49" x2="633.48" y2="317.28" gradientTransform="matrix(-1 0 0 1 1279.6 0)"><stop offset="0" stop-color="#fff"/><stop offset=".13" stop-color="#dedbd9"/><stop offset=".36" stop-color="#a79d99"/><stop offset=".57" stop-color="#7c6d66"/><stop offset=".76" stop-color="#5c4a42"/><stop offset=".91" stop-color="#49352b"/><stop offset="1" stop-color="#422d23"/></linearGradient><path fill="url(#a)" d="M648.53 316.18c-1.08.24-2.05.5-2.9.8-3.83 1.38-1.46.62 2.9-.8z"/><linearGradient id="b" gradientUnits="userSpaceOnUse" x1="1001.98" y1="353.06" x2="1002.04" y2="350.38" gradientTransform="matrix(-1 0 0 1 1279.6 0)"><stop offset="0" stop-color="#fff"/><stop offset=".07" stop-color="#faf9f9"/><stop offset=".16" stop-color="#ebe9e8"/><stop offset=".27" stop-color="#d3cecb"/><stop offset=".39" stop-color="#b1a8a4"/><stop offset=".52" stop-color="#857871"/><stop offset=".65" stop-color="#513e35"/><stop offset=".69" stop-color="#422d23"/></linearGradient><path fill="url(#b)" d="M276.88 352.4v.15c2.9-3.18.55-2.33 0-.15z"/><linearGradient id="c" gradientUnits="userSpaceOnUse" x1="635.81" y1="585.9" x2="642.42" y2="260.04"><stop offset="0" stop-color="#fff"/><stop offset=".51" stop-color="#83a0a2"/><stop offset=".91" stop-color="#295a5f"/></linearGradient><path fill="url(#c)" d="M1280 343.7c-.31-1.5-.68-4.76-.6-3.46l.23 2.48c.02.26.04.54.08.83l.05.65.01.1.08.78-.29.73-.04.12c-2.94 7.37-3.77 1.92-3.81-.14-1.25 4.16-1.25 1.8-1.98.75-.29-.42-.7-.63-1.35-.11-.32-.5-.64-.55-.96-.34-1.47.99-2.82 7.64-4.31.66-1.33.67-1.77-.42-2.84-.8-.57-.2-1.3-.22-2.42.32a4.39 4.39 0 01-.66-.08c-1.41-.31-2.27-1.3-3.88-1.1-.54.28-1.74-.15-2.73-.3-.4-.05-.76-.06-1.04.04a.78.78 0 00-.42.33c-4.02.03-2.88-4.7-6.2-.08-.9-2.96-.34-.39-2.7-.33-3.13-3.29-2.88-5.45-4.39-2.55l-.52 1.04c-.41-.96-.86-1.76-1.32-2.36-.6-.8-1.22-1.23-1.74-1.23-.37 0-.7.23-.96.7-1.52-.6-1.87 4.49-3.51 3.82-2.2-2.14-2.54 2.72-3.77-.6-.96.83-1.67-6.75-3.3-5.96-.28 1.1-1.88 1.68-3.72.01-2.37-2.78-3.42-3.08-4.86-.3-1.48-.45-3-1.2-4.56-2.36a24.23 24.23 0 01-4.74-4.95c-7.26-10.16-12.7-2.56-17.39-7.7-5.48-4.85-12.8-1.28-13.18-5.99-1.5-9.63-3.73.3-5.22-2.4 1.2-10.18-.83-1.83-3.12 1.28.41-.53-.14 5.35-2.52 5.47-1.48 1.24-3.26 1.12-4.32-2.71-.32-5.36-7.43 3.92-9.98 4.02-.7-3.82-1.86-2.9-3.25-1.06-.84 1.1-1.74 2.51-2.7 3.44v.03c-2.73 9.46-4.73 7.15-6.48 2.57-3.2-.47-5.89-6.42-6.5-1.82-2.01 4.92-5.14 6.94-7.69 7.49-3.6 2.18-2.39 1.49-3.77 2.69 1.13 1.52-2.43 1.64-3.77.31-.51-1.54-1.82 3.6-2.48 1.82-2.4 1.5-2.55-3.56-5.26 1.25-1.39 4.01-4.06-1.3-2.86 3.27-.86-.73-2.7-1.63-4.67.06-1.27-.52-2.52-1.01-3.84-.77s-2.74 1.21-4.32 3.63c-2.3-4.8-5.65 1.96-6.53-.6-1.1-1.12-3.35 11.49-8.89 6.62-.85.38-1.62.75-2.33 1.1-.86.42-1.62.83-2.33 1.2-.94.51-1.8.98-2.65 1.4a17.84 17.84 0 01-6.4 1.83l-.76.05c-4.54-.1-8.37 7.2-12.77 4.88-.18-1.4-2.44-11.29-1.07.33-.44-2.68-3.3-.35-5.6 3.13 1.32-6.24-3.4 1.46-4.6.17-.44.1-.86.16-1.25.2-1.77.18-3.02-.12-4.02-.23-1.29-.14-2.13.03-3.05 1.92a2.03 2.03 0 00-1.35-.5c-1.4-.03-3.19.88-4.97 1.17l-.32.04c-1.13 3.17-4.26-3.96-5.15-.21-1.4-5.96-2.95-7.24-4.36-6.13-.5.4-1 1.12-1.46 2.05-.27.55-.53 1.16-.77 1.82-1.4 3.45-1.86-10.86-1.78-6.48.26.95.13 2.17-1.12 3.4.47 2.4.71 3.84.8 4.57.1.9-.06.69-.3-.21-.34-1.24-.88-3.8-1.21-6.43-.13-5.98-.99-2.05-2.5.73a5.36 5.36 0 01-1.38 1.79c-.86.6-1.85.31-2.96-1.92-2.5-1.25-2.36-.05-6.61-1.04-.93.85-1.45 2.39-3.53-1.47-2.18-4.99-3.79 5.78-3.38 3.12-1.06-2.15-1.13-2.81-3.52 4.3.27 1.47-2.08-1.73-2.5-1.44-3.93-9.94-2.14.02-3.68-4.07.89-14.42-1.48-1.27-1.56-2.95.9-4.16-2.04 2.22-5.07 1.1 1.06-1.77.27-.95-1.87-5.7-.94 2.5-1.01 3.57-2.82 1.06-1.87 4.39-2.3-1.1-3.86 2.72-1.67 7.68-2.96-3.54-4.91-.7-3.2 4.68-5.87 4.48-5.31 5.51-.28-.1-.56-.06-.86.07-.18.08-.36.18-.53.3-1.45.97-3 3.07-4.04-.15-3.19-1.34-2.73-9.67-6.4-8.71-2.35-2.9-2.99-2.36-4.47-.77-2.78.56-1.84-2.68-4.47-.75-1.86-.76-1.44.33-4.39-.74l-3.04-.52-1.23-.2-.78.3a18.8 18.8 0 01-5.01 1.37c-.85.09-1.71.07-2.58-.1-2.09-.4-4.25-1.6-6.53-4.19-5.2-5-7.98 3.35-9-1.86-1.43 1.37-5.72 10-8.9-2.1-1.96.67-4.37-.15-6.71-1.11-2.56-3.35-3.74-3.8-6.28-1.99-2.2-5.73-2.44.15-3.16.19-1.24 4.97-2.12 1.05-4.13-2.1-2 1.15-2.9 1.9-4.44 2.45-.96 3.6-2.07-3.66-2.99-4.6-.26 4.46-1.56-1.26-2.8-1.65-1.2 1.02-2.19 1.84-4.44-.75-3.34-2.8-4-6.53-6.78-2.65-2.42 3-2.83-5.59-3.86-.06-.73-5.22-1.49-2.46-2.44-5.26-1.57 1.82-2.6-3.91-4.64-.7-2.27-4.53-3.2-1.26-4.1-3.78.07.7-2.77 3.13-5.24 1.35.74-2.27-.68-6.1-1.4-2.32-.9-1.53-1.54 1.8-3.32 2.62-1 2.34-1.95-3.44-2.2 1.48.06.3-2.22 1.32-3.53 1.96-2.54-2.84-3.95-2.3-6.38 1.62-.48-.53-1.43 2.24-2.35 4.43-.92 2.2-1.81 3.8-2.2.94-4.49-2.78-2.6-5.05-5.02-.23-1.52 3.21-3.47 13.41-5.76 7.55-1.62-.4-4.58.5-6.34 6.77-1.9 1.7-3.36 1.91-3.7-2.06-.99 9.96-1.94-5.39-3.04 2.2.36 3.32-3.96-2.8-5.26-1.3-2.05-1.12-3.52-1-5.25-.73s-3.71.69-6.8.14c-4.68 4.42-10.38-7.88-15.45-2.1-.23.93-.48 1.7-.76 2.34-.96 2.25-2.2 2.57-3.63 1.1-.68-.69-1.4-1.77-2.18-3.23-2.88-5.75-4.9.8-7.02-2.82 1.57 15.03-7.36 5.97-6.2 1.4-1.83-2.43-3.98-.01-4.32-1.34-2.05 3.82-3.24-.99-4.61-3.56-2.62 6.52-2.84 11.95-3.38-4.98-1.48.26-3.11-15.8-3.78-1.51-1.46.63-3.45-.09-5.24-.35-1.8-.25-3.42-.05-4.13 2.43-2.02-1.46-8 2.03-9.44-4.25-3.4-2.96-6.18-4.3-8.32-1.08.14-13.58-4.72-4.59-7.9.02-4.83-1.15-4.35-2.65-10.94-6.3-4.72-1.3-7.22-8.5-6.22-11.73-2.7 4.03-2.5 2.87-3.57 8.23-2.06 3.65.59 4.3-3.93 4.82-1.69-.56-3.75-3.35-6.06-8.56-.22-8.86-1.62-1.79-4.18.08-.15 2.32-6.01-3.93-6.5-4.18 1.86 2.25-1.07.49-4.23-2.2-2.65-5.6-3.77-4.33-3.86-2.47-.63-2.9-3.22-1.17-3.65 2.26-2.6.4-4.41-1.6-4.8-1.25-2.49 1.17-4.69 2.54-6.38 2.92-1.7.4-2.88-.2-3.33-2.96-6.74-8.45-6.03 1.5-10.2.3-1.87-3.88-4.9 6.5-6.85 1.4-2.68.89-4.66.62-7.93-.56-6.84-2.03-6.78-5.73-12.21.85-4.09-.04-5.14-6.9-7.48.38-2.4-4.34-1.53-.08-6.12.52-2.07 5.82-5.94 3.65-10.23 1.27-2.48-2.55-4.63-1.36-6.15 1.95-1.96 1.54-5.68 2.41-7.03-.32-4.89.78-4.18 6.74-7.05 4.49-1.75.84-3.65.44-7.93-2.9-3.26-3.22-9.7-4.93-15.64 1.12-2-1.38-4.77-.69-7.7.28-1.5-9.11-5.76-4.52-7.43 0-1.7-3.47-5.65 1.01-7.53 1.68 1.12-2.05-2.25-7.03-5.95-2.66-5 3.42-3.66-2.63-8.1-4.24-2.72-.54-5.15-.04-6.48 1.97-5.34 6.33-8.85-5.08-14.74-2.8-5.74-4-10.64-8.39-14.34-3.4-2.42-3.44-6.87 1.87-6.87-2.15-2.31 9.36-3.93 2.82-6.52-1.93.07 5.79-4.15 9.57-6.17-2.31-3.24 1.67-3.22 5.7-5.7-2.52a11.55 11.55 0 00-2.27-2.83c-1.7-1.52-3.33-1.86-2.93.1-2.23-5-4.19-3.5-4.62-2.93-.88 0-4.5 6.9-6.93-4a9.46 9.46 0 00-1.36-.91 6 6 0 00-.92-.4c-3.75-1.27-5.13 2.96-7.85-3.38-1.18.48-2.43-3.4-4.24-1.77-1.19 3.92-2.19-.07-3.83-1.44a1.8 1.8 0 00-.69-.38l-.23.7c-1.21 3.52-2.4 6.83-3.55 1.2l-.18-.96c-.15-.84-.3-1.84-.45-3.01-1.28-.5-4.66-1.11-5.24-1.63-1-3.62-3-4.84-5.04-5.01-2.03-.17-4.08.72-5.18 1.32-.56 1.57-2.02-.45-3.54-2.4l-.55-.69c-1.65-2.04-3.25-3.49-3.67.41-.39.4-.84.79-1.33 1.11a4.1 4.1 0 01-2.73.83c-1.24-.15-2.47-1.16-3.44-3.74.2 2.1-.19 7.19-.47-.84-3.06 5.56-4.6-3.22-7.43-2.35-2.49-11.97-5.38-.29-7.21-2.18a.16.16 0 01-.02-.04v.02c-.33 5.14-.94.15-2.39-2.42a8.58 8.58 0 00-.24-.4 2.9 2.9 0 00-.51-.59c-.76-.65-1.7-.45-2.88 1.68l-.27.36c-.45.55-.91.82-1.36.88-.6.09-1.17-.18-1.69-.57-1.15-.87-2.04-2.38-2.36-2.22-4.07-5.43-1.78 4.1-5.14-1.51-1.32 11.36-1.44-5.95-4.92-.94-1.6.11-2.5-.46-3.54-.96-1.04-.5-2.2-.9-4.27-.47-4.47 3.05-4.88.26-6.01.12-.49.96-3.97-1.31-6.82 2.63-.89-1.69-4.3 3.2-5.46 1.67-2.57-4.22-4.98 3.03-6.5 1.82-1.3 4.8-3.72.72-7.32 2.5-.68.4-4.12 1.44-7.72 1.37-1.42-1.9-5.1.81-7.4 4.15-2.72 3.19-4.15 4.78-8.73-.39-.82 4.35-2.1-2.53-3.9.76-1.34-.44-2.66-1.1-3.73-.56-2.64-5.08-5.58 1.6-7.54 2.96-1.86 1.71-5.77-.1-6.27-1.79-1.2-.44-3.93-5.53-5.92 3.85-5.31-.14-3.16-4.38-5.25.54-.68 9.37-3.54 2.45-5.2 1.96-2.36 4.14-3.8 4.9-5.23 4.73-1.07-8.14-1.84 1.35-5.22-.94-2.99.18-5.8 6.37-5.06 3.9-.4-.39-.8-.57-1.2-.6-.47-.05-.94.08-1.42.25l-.64.25-.26.1c-.8.3-1.6.49-2.39-.09-.18-.3-1.47-.92-2.45-.93-.58 0-1.04.2-1.08.83v.23c.02.2.07.42.16.69 0 .03.02.07.04.1.15.2.25.51.3.87a6.25 6.25 0 01.06 1.4c-.05.83-.24 1.36-.4.54-.04-.27-.1-.67-.13-1.24l-.02-.35a45.96 45.96 0 01-.08-3.15v-.7l-.16-.42a3.57 3.57 0 00-.22-.44c-1.7-3.15-2.11 8.74-4.06 4.53-1.45 1.65-2.5-.38-3.04-1.2.33-2.23.46-5.35-1.87 1.91.97-3.32.15-5.59-.8-6.02-.5-.23-1.04.03-1.4.88a5.2 5.2 0 00-.33 1.28l.06-.5c-.1.53-1.12 6.72-2.7 4.67-.71-.3-1.91-1.31-3.03-1.68l-.13-.04a2 2 0 00-.68-.1c-.12 0-.23.03-.33.06h-.01c-.21.06-.42.17-.6.35l-.06.06c-.17.19-.32.43-.45.75l-.14.42v.01c-1.02 1.7-1.87 2-2.61 1.62-.2-.1-.39-.25-.57-.43-1.58-1.57-2.56-5.64-3.3-2.85-1.3 6.93-2.37 2.59-4.2.48a4.41 4.41 0 00-.37-.39 2.26 2.26 0 00-.81-.5c-.77.74-1.36 1.35-1.86 1.77-.28.23-.52.4-.76.52-.24.11-.46.16-.68.14-.15 0-.3-.06-.46-.14a1.94 1.94 0 01-.22-.13c-.02 0-.04-.02-.06-.04-.37-.26-.77-.7-1.26-1.32l-.35-.45c-.32-.42-.68-.92-1.09-1.5-1.7 6.19-1.78-10.21-3.58-.25-2.73 11.43-2.14-1.53-3.82.18-2.23 2.18-3.3 2.21-4.13 1.77-.5-.27-.9-.7-1.4-.96a1.8 1.8 0 00-1.37-.14c-.66 1.93-1.87 1.98-3.22 1.67-1.35-.3-2.81-.95-3.98-.4-3.5 3.68-5.2-2.16-7.44 1.76-3.15 4.4-5.46 5.23-7.55 2.15-2.59-6.8-4.6-6.39-7.66-1.77-2.23 1.3-3.78 1.61-5.1 2.85l-.06.05c-.83.8-1.57 1.95-2.33 3.95a5.77 5.77 0 00-3.9-.22 12 12 0 00-3.33 1.67c-2.25 1.48-4.53 3.4-7.34 4-3.24 5.47-8.47 9.4-13.27 5.01-2.44 6.93-10 .37-11.25 3.8-.57.93-1.19 1.35-1.84 1.5l-.36.05c-.74.06-1.52-.17-2.33-.36l-.33-.08c-1.17-.26-2.4-.35-3.61.67-2.6.18-6 .4-9.97.63-7.9.46-18.02.98-28.5 1.47l-.19.01v140.31l25.16-.11h.2l140.05-.62h2.06l1.3-.01h1.37l15.47-.08h1.5l9.3-.04h.6l1-.01h.64l17.98-.08 1.78-.01 6.23-.03h1.85l8.84-.05h1.92l4.36-.02 1.9-.01 3.88-.02h2l5.32-.03 2.08-.01 45.48-.2 2.46-.01 8.08-.04h2.54l44.69-.2 2.92-.02 7.97-.03 7.33-.04 3.07-.01 3.1-.01 1.8-.01 3.14-.02 14.54-.06 3.29-.01 28.28-.13 3.68-.02 208.9-.92 5.39-.03 25.2-.1 601.36-2.65V343.7z"/><linearGradient id="d" gradientUnits="userSpaceOnUse" x1="641.55" y1="715.48" x2="639.43" y2="424.2" gradientTransform="matrix(-1 0 0 1 1279.6 0)"><stop offset="0" stop-color="#fff"/><stop offset=".51" stop-color="#83a0a2"/><stop offset=".91" stop-color="#295a5f"/></linearGradient><path fill="url(#d)" d="M0 445.76l54.28.56c6.17.07 11.77 1.27 18.84.2 5-3.3 13 4.57 19.46.2 6.2-2.95 13.92 5.42 20.04.2 7.46-9.82 10.46 1.45 20.58.22 2.42-16.26 15.05-5.13 21.1.22 7.97 11.16 16.52-6.19 21.6.22 7.34.38 12.83.09 22.07.23 5.64 3.72 13.47-7.13 22.5.23 10.3 5.66 14.42 8.4 22.9.24 8.5 5.76 14.95-4.06 23.28.24 5.72 1.88 14.62-.15 23.62.25 7.58 2.06 16.86 1.48 23.95.24 7.29 1.32 16.1.17 24.23.25L1280 459V337.57v-4.31c-9.67-4.77-16.88-.82-24.9 3.74-6.64 5.4-10.96 9.6-16.8 3.73-2.3 6.76-7.4-1.65-11.35 3.53.22-.9-8.02-7.5-8.53 3.16-2.3 6.03-3.15-8.73-8.35 2.62-3.42-13.14-4.77 10.19-10.81 1.92-1.47-6.28-3.92-4.48-6.76-1.87-1.42 1.3-2.94 2.8-4.5 3.58-1.54.79-3.12.86-4.65-.69-2-.42-9.57 7.1-8.1.02-1.52-6.45-3.74 3.25-4.74-5.9-.23.7-3.22-1.4-4.95-2.5-1.55.54-1.81 2.4-2.96 7.55-1.27 1.95-6.98 2.41-6.52-4.49-1.07 8.46-1.83-5.2-3.2 2.8.1-4.12-4.12 4.33-2.25-.85-3.14-3.87-5.1-4.13-5.59-3.56-1.65-11-4.59-5.43-3.35 1.43-2.27-6.52-1.56-7.93-3.72 4-.43-2.27-.83-3.14-1.16-3.33 1.76-4.63-1.6-4.98-3.81-4.73.3 1.23-4.23.33-2.97 4.47-1.14 2.5-3.2 3.64-3.3-.84-1.94-.5-5.1-1.18-5.24 3.1-1.08.4-1.6 5.27-3.07 4.22-.3 1.92-2.4 9.55-2.32 2.48-1.64 5.54-5.2-9.6-6.2-3.87-.26 5.64-.6 4.63-3.09 3.94-.08 0-3.76 7.05-3.54-3.1-1.03 1.08-3.78-8.89-5.33 2.94-1.58 4.1-3.22-4.82-4.39-6.76-1.56 8.5-2.47 3.33-2.87 5.36-1.83.51-2.6 5.26-2.54 4.63-.94 1.47-2.8 7.1-5.47 4.41-.91-.28-.72-2.35-4.34 1.38-3 9.57-2.12.9-3.81 2.38 2.1-1.84-4.82-.45-4.39-2.01-3.34 1.84-.83 11.84-4 5.56a9.89 9.89 0 01-2.04-2c-.94 2.05-3.34 4.39-4.79-.07.75 3.02-4 10.73-4.35.32-.6 1.84-1.81-4.4-2.56-3.85-2.8 1.77-1.7 7.08-3.06 4.13-2.72-.25-4 0-4.39.44-1.3-2.61-2.81-3.68-3.65 3.04-1.05-4.96-2.61 5.22-4.97-1.89-3.46-9-4.84-3.12-7.46-1.4-2.63 1.74-5.53 3.66-9.16-.19a17.46 17.46 0 00-5.16-1.92c-1.8-.35-2.66 1.61-7.39-.64.38-1.29-3.26-10.17-5.64-4.5-1.89 1.79-3.31 6.67-5.56 2.1-2.54 11.46-4.07 3.33-5.79 1.43.08-5.67-2.33-5.76-4.7-3.87 1.1 5.28-5.54-12.91-4.77-4.45-3.45-5.26-2.92 10.66-6.87 1.88-1.42-.64-3.85-9.72-5.7-2.93.37-8.7-5.32-4.74-4.35 1.62-1.85-8.62-4.02.05-4 .74-1.6-2.92-2.13-8.97-2.54-4.88-.47-2.54-4.23-3.52-6.86.33-2.92 3.96-1.4 5.1-3.34-2.26-2.12-11.73-1.33 4.78-2.87 1.18-1.93 2.4-5.93 1.35-7.02.47-1.67 2.63-3.12.75-3.9-1-1.4 3.35-3.13 4.17-3.91-2.43 2.13-.88-2.33-4.83-1.97-2.73-2.6-4-2.69-5.64-3.18-4.36-.48 1.28-.63 4.98-1.13 10.2-3.4-4.22-2.69 13.51-6.96 6.8-4.55 1.32-5.32 4.27-7.36-3.7-6.83 8.7-11.07 6.18-9.86-1.1-3.19-.82-5.41-7.28-3.37 4.31.1 10.66-3.35 4.89-4.38 5.1-.06.16-6.57-2.24-9.57-2.58-4.14 4.53-7.59.6-8.21 8.94-2.43-2.78-4.38 2.83-8.28-7.91-2.22 9.07-4.43-1.3-7.2 1.59-5.85 4.6-6.34 5.97-6.63-2.62-3.85 5.14-6.59 2.08-8.78.85-2.2-1.23-3.53-3.16-3.64-3.3-4 8.64-7.57-.64-11.42-2.91-2.7-.35-5.14.87-7.05 1.25-1.91.4-3.28-.05-3.81-3.7-1.4 3.87-5.17-5.2-5.47 4.47-3.24 5-1.88-.24-5.28-5.5-1.78-5.51-.7 5.53-3.5-2.62-5.22-.92-5.83-4.16-10.4 1.08-2.3 2.96-7.13-1.66-8.24.58-1.3 2.23-4.06-3.6-9.24-4.24-3.71-4.48-6.98 6.05-9.73 2.13-1.5-2.05-4.98-.65-7.5-6.51-2.58 2.03-6.8-4.93-7.6-2.41-1.65-11.03-5.1.04-5.56-1.26-3.9-4.67-4.53 4.57-4.04-5.33-1.07 1.82-1.36.73-1.2 3.8-3.54 5.13-2.15 3.35-2.32 1.95-.76-2.28-1.9-5.62-4.92-5.43-3.54-3.06-5.2-7.81-7.76-11.41-2.56-3.6-5.19-4.67-8.19 3.79-6-6-9.12-20.8-15.95-7.63-4.74-5-3.5-8.87-7.24-3.47.2-9.02-2.33-8.33-4.43 4.64-1.42 2.3-2.94-1.65-4.74-2.76-1.81-1.12-3.1-1.03-6.49 14.24-1.74 6.5-4.63 15.9-6.84 9.8-1.09-2.5-5.7 6.54-8.1 4.9-2.2 2.41-3.71 10.37-8.58 5.8.16 1.72-3.65 8.08-7.02 8.5-2.89 4.39-.87 1.46-5.29 9.27-2.1 11.03-6.27-.37-7.87.97.3-18.36-4.42-13.06-5.66-2.18-1.24-1.77-.4 5.37-2 4.76-2.59 9.36-2.4 7.65-5.53-2.65-1.53-11.17-8.22-.8-5.58.46-2.54 2.6-4.16 10.5-6.9 3.22.54 2.17-3.37 9.9-5.65-2.12-2.28-7.08-3.4 3.38-5.97 1.1 2.06-3.65-6.49.87-7.05-4.44-2.89-5.44-12.02 1.23-15.5-9.74-3.01-.71-6.45-.57-9.35-1.54-4.69-2.29-5.85-4.09-6.15-8.21-2.11-12.16-3.4-11.71-4.24-6-1.7-2.5-2.68 2.94-2.81 1.57.34 9.01-4.43 8.55-4.82-.82-3.89 9.74-2.23-2.54-6.4-1.83-2.12-13.19-4.6-5.19-5 1-1.85-5.97-2.57 18.67-6.1 6.79-1.42 3.97-2.86 5.88-7.32-5.14-3.1 6.67-3.04 1.04-6.47 1.93-4.17-4.46-2.9-7.41-6.36 1.73-.82 3-6.59-.65-9.16 3.7-4.76 3.82-5.07.04-6.2.65-1.97 8.23-4.14 10.88-6.41 6.9-1.74-4.74-5.3-3.74-5.81-3.47a41.87 41.87 0 01-3.27 3.16c.2 3.9-.14 2.55-1.04 1.13l-.2-.3c-.26.08-.37-.04-.27-.42-1-1.5-2.22-3-3.1-.68-2.82 2.68-7.82-4.42-13.89 5.7-1.37 0-3.62 6.31-7.04 3.03-2.63-5.57-6.6 6.1-8.3 3.14-1-4.95-3.57-.77-4.57 2.64-1.3.51-1.67 1.42-4.25.75-.79 4.11-1.79-6.75-2.21 1.82-.24-5.24-4.29-2.6-6.23-2.1-2.67 7.77-1.7-6.65-6.33 1.68-.5-1.4-4.65-1.47-7.28-2.77-2.8-3.3-6.14-3.46-8.53 2.1-5.35-6.5-4.74-7.17-4.21-.73-1.29-.7-4.59 11.85-5.51 3.85-3.13 1.78-5.3 13.43-5.15-1.37-3.12 9.87-7.05 3.6-7.04 7.4-2.27-3.14-6.97 1.76-9.43-4.5-2.7-7.24-5.28-7.82-8.04-4.8-1.6.93-3.25 2.39-4.88 3.88-3.52-2.34-3.49.88-4.67 4.06-2.99 8.95-4 3.31-7.82 2.7-1.96 4.7-4.24 1.88-6.18.5-3.27-2.6-5.35-7.02-5.63-4.65-.52-1.12-.89 2.76-.61 5.52-.6-.7-1.54-.28-1.82-1.48-1.25 3.36-1.39 7.02-3 6.72.4-6.7-1.65 2.12-5.57-.94-2.49-2.43-6.54 7.54-8.07 4.21-3.46 5.24-6.61 4.35-9.56 6.16-2.01-3.23-5.5-3.99-8.7-2.53-3.58 11.67-5.92 19.72-8.66 9.93-4.66 3.16-7.04-6.04-10.62-5.83-2.18 1.6-3.72-1.67-7.06 1.76-2.64 2.92-5.69 6.02-9.57 2.94-5.7-1.72-17.7 6.99-16.81 5.71-3.48-12.9-3.62 13.14-9.82 2.54-5.15.4-7.55-11.5-12.32 2.6-7.85-.9-8.65 11-8.88 2.04-3.66 3.96-5.95 2.1-10.27 2.26-4.8 3.02-7.7 3.1-12.26 2.2-4.4-1.99-9.74-1.13-14.86 1.88-4.81 3.8-10.42 2.11-18.05 1.28-6.7-1.36-12.85-4.94-21.83.41-3.55-10-8.9-1.39-9.68.1-6.7-3.14-12.58 10.37-12.8.3-1.22-.16-9.54.63-15.44.52-6.74 4.2-11.53 9.37-17.68.68-6.53-5.84-13.57.3-19.44.83-6.73.3-13.69.6-20.79.94-13.42.62-27.37 1.3-41.35 1.99v9.54zm1051.72-70.04c-.2 1.82-.41 3.11-.63 4 .09-1.12.3-2.65.63-4zm-5.23-1.22c-.29-.82-.62-1.74-.99-2.6a6.5 6.5 0 003.6 1.08 74.2 74.2 0 001.43 8.21c-1.47 1.8-3.09-10.06-4.04-6.7z"/><linearGradient id="e" gradientUnits="userSpaceOnUse" x1="1433.78" y1="110.78" x2="1432.78" y2="111.78"><stop offset="0" stop-color="#fff"/><stop offset=".16" stop-color="#83a0a2"/><stop offset=".27" stop-color="#295a5f"/></linearGradient><path fill="url(#e)" d="M1279.65 277.45c-.07.34-.07.81-.39.97l-.25.09c-.1.03-.18.08-.38.38-.19.28.09.4.19.5a.7.7 0 01-.19.28c-.63.3-1.26.15-.63.3l.33.1c-.14.32-.14.7-.08 1.07-.25.27-.27.42-.56.71-.32.32-.63.78-.63.78h.94s-.94.94-.94 1.1v.62c0 .16.63 0 0 .47s-.63 1.1-.63 1.1 1.26-.16.94 0c-.3.14-.9.74-.94.77.1-.04 1.56-.75 1.26 0-.3.76-.9 1.52-.94 1.56l.2-.04c-1 .53-2.1 2.86-2.1 2.86l2.21-.47s0 2.18-1.89 3.28-3.14 2.03-4.09 2.96c-.94.94 3.26-.95 1.57.79-4.09 4.21-.31 3.43-.31 3.43l-3.77 2.8c.24-.06 5.92-1.82 3.77.01-2.2 1.88-3.77 3.9-3.77 3.9s.4.03.88.11c-.04.24-.07.5-.27.6-.09.05-.15.06-.2.08-.07.02-.13.06-.28.28-.15.22.06.3.14.4a.54.54 0 01-.14.2c-.48.24-.96.12-.48.24l.25.06c-.11.25-.1.54-.06.82-.17.17-.21.3-.36.46-2.26 1.38-2.95 4.1-2.95 4.1l2.46-.98c.16 0 .28 0 .18.05-.23.11-.69.56-.72.6.07-.04 1.2-.58.96 0-.23.57-.69 1.14-.72 1.18l.15-.03c-.76.4-1.59 2.17-1.59 2.17l1.1-.24-.88.73-.37-.76-.03.06c-.09.2-.33.77-.37.94-.04.2-.04.49-.23.58-.07.04-.11.05-.15.06-.06.02-.1.04-.23.22a.22.22 0 00-.03.08l-.78.64h.63c-.08.2-.08.42-.05.64-.15.16-.16.25-.34.43l-.12.14c-.39.3-.72.58-1.01.87-.36.35.23.18.77.08l-.01.03v.38c0 .1.37 0 0 .28-.38.28-.38.66-.38.66l.07-.01c-.52.64-.7 1.06-.7 1.34a3.76 3.76 0 01-.7.87c-.1-.7-.66-1.73-2.05-3.32-.41-.47-1.18-1.15-1.32-1.8.97.13 1.68.2 1.68.2l-1.8-1.06-.7-.67-.72-.4 1.43-.18h.72s.71 0 .35-.17c-.35-.18-.71-.72-.71-.72s-1.07-.01-1.07-.45-.72-.79-.72-.79l2.14.18c-.71-.54-1.43-1.02-1.43-1.02v-.51c0-.43.72-.4 0-.95-.3-.23-.54-.59-.72-.92 0-.41-.12-.78-.28-1.1.1-.3.25-.83.25-1.26 0-.24-.06-.45-.2-.56-.48-.44-1.8-3.26-1.8-3.26l-.06.12c-.16.37-.63 1.45-.69 1.78-.08.39-.08.92-.44 1.1-.13.06-.21.08-.28.1-.12.04-.2.1-.44.43-.22.33.1.46.22.59a.84.84 0 01-.22.3c-.71.36-1.43.18-.71.36l.37.1c-.16.37-.16.8-.1 1.22-.28.3-.3.48-.63.81-.36.36-.72.9-.72.9h1.08s-.35.33-.65.66h-.02l-2.06-1.62c0-.73 3.84 0 0-4.4-.34-.39-.98-.95-1.1-1.5.8.12 1.4.18 1.4.18l-1.49-.88-.59-.55-.59-.33 1.18-.15h.6s.59 0 .29-.14c-.3-.15-.6-.59-.6-.59s-.87-.01-.87-.38-.6-.65-.6-.65l1.77.15c-.59-.44-1.18-.84-1.18-.84v-.42c0-.35.6-.34 0-.79a2.3 2.3 0 01-.6-.76c0-.33-.09-.64-.22-.9.08-.24.2-.69.2-1.04 0-.2-.05-.37-.16-.47-.4-.35-1.49-2.69-1.49-2.69l-.04.1c-.14.31-.52 1.2-.58 1.47-.06.32-.06.77-.36.91-.1.05-.17.07-.23.09-.1.03-.17.07-.36.35-.18.27.08.38.18.48-.05.11-.11.2-.18.25-.6.3-1.18.15-.6.3l.32.08c-.14.3-.13.67-.08 1-.23.26-.25.4-.53.68-.3.3-.59.73-.59.73h.89l-.4.41-1.81-.7-2.15-1.67c0-.76 3.98 0 0-4.56-.35-.4-1-.99-1.13-1.55.83.12 1.44.18 1.44.18l-1.53-.9-.62-.58-.6-.34 1.22-.15h.6s.62 0 .32-.15c-.31-.16-.62-.61-.62-.61s-.91-.02-.91-.39-.62-.68-.62-.68l1.84.16c-.61-.46-1.22-.88-1.22-.88v-.43c0-.37.6-.35 0-.82-.27-.2-.47-.5-.62-.78 0-.35-.1-.67-.24-.94.09-.25.21-.71.2-1.08 0-.2-.04-.38-.15-.48-.42-.37-1.54-2.79-1.54-2.79l-.05.11c-.14.32-.54 1.24-.6 1.52-.07.33-.07.79-.38.94-.1.06-.18.07-.24.1-.1.02-.17.07-.37.36-.19.27.08.38.18.5a.7.7 0 01-.18.26c-.61.3-1.22.15-.61.3l.32.09c-.14.31-.14.69-.08 1.04-.24.26-.27.42-.55.7-.3.3-.6.76-.6.76h.91s-.92.9-.92 1.06v.6c0 .16.61 0 0 .46s-.61 1.07-.61 1.07 1.22-.15.92 0c-.3.15-.89.72-.92.76.1-.05 1.52-.74 1.22 0s-.88 1.47-.91 1.52l.18-.05c-.97.52-2.02 2.79-2.02 2.79l2.14-.46s0 2.13-1.84 3.2c-1.83 1.06-3.06 1.97-3.98 2.88s3.18-.93 1.53.76c-1.3 1.34-1.77 2.15-1.84 2.65l-.4-.15-2.34-1.82c0-.83 4.34 0 0-4.97-.38-.44-1.1-1.07-1.23-1.68.9.13 1.57.2 1.57.2l-1.67-1-.5-.46h.02l-.03-.02-.16-.14-.66-.37 1.33-.17h.67s.67 0 .33-.17c-.33-.16-.66-.66-.66-.66s-1-.01-1-.42c0-.4-.67-.74-.67-.74l2 .17c-.67-.5-1.33-.95-1.33-.95v-.47c0-.4.66-.38 0-.89a2.6 2.6 0 01-.67-.85c0-.39-.11-.73-.26-1.02.09-.28.23-.78.22-1.18 0-.23-.05-.42-.17-.53-.46-.4-1.68-3.03-1.68-3.03l-.06.12a15.4 15.4 0 00-.64 1.65c-.08.36-.08.86-.41 1.03-.12.06-.2.07-.27.1-.11.03-.19.08-.4.4-.2.3.1.41.2.54a.77.77 0 01-.2.28c-.67.33-1.33.17-.67.33l.35.1-.06.2-2.78-1.38-1.77-1.17h5.61l-4.43-2.5-.89-.58 3.85.3-2.66-1.03-2.07-1.62c0-.73 3.84 0 0-4.4-.34-.39-.98-.95-1.1-1.5.8.12 1.4.18 1.4.18l-1.49-.88-.59-.55-.59-.33 1.18-.15h.6s.59 0 .29-.14c-.3-.15-.6-.59-.6-.59s-.87-.01-.87-.37-.6-.66-.6-.66l1.77.15c-.59-.44-1.18-.84-1.18-.84v-.42c0-.35.6-.34 0-.79a2.3 2.3 0 01-.59-.75 2 2 0 00-.23-.9c.08-.25.2-.7.2-1.05 0-.2-.05-.37-.16-.47-.4-.35-1.48-2.69-1.48-2.69l-.05.1c-.14.31-.52 1.2-.58 1.47-.06.33-.06.77-.36.91-.1.06-.17.07-.23.09-.1.03-.17.07-.36.35-.18.27.08.38.18.48-.05.11-.11.2-.18.26-.59.29-1.18.14-.59.29l.31.08c-.14.3-.13.67-.08 1-.23.26-.25.4-.52.68-.3.3-.6.73-.6.73h.9s-.9.88-.9 1.03v.58c0 .15.6 0 0 .44-.59.44-.59 1.03-.59 1.03s1.19-.14.89 0c-.29.14-.85.7-.88.73.08-.04 1.46-.7 1.18 0-.3.71-.86 1.43-.89 1.47l.18-.04c-.94.5-1.95 2.68-1.95 2.68l2.06-.44s0 2.05-1.77 3.08-2.95 1.9-3.84 2.79c-.89.88 3.06-.9 1.48.73-3.85 3.96-.3 3.23-.3 3.23l-3.54 2.64c.23-.07 5.57-1.72 3.54 0a27.3 27.3 0 00-2.44 2.38c-.08-.62-.57-1.54-1.82-2.97-.36-.42-1.04-1.02-1.17-1.6.86.12 1.49.18 1.49.18l-1.59-.94-.63-.59-.63-.35 1.26-.16h.64s.63 0 .31-.16c-.31-.15-.63-.62-.63-.62s-.94-.02-.94-.4c0-.39-.64-.7-.64-.7l1.9.15c-.64-.47-1.27-.9-1.27-.9v-.45c0-.37.63-.36 0-.84-.27-.2-.48-.51-.63-.8 0-.37-.1-.7-.25-.97.09-.27.22-.74.21-1.13 0-.2-.04-.39-.16-.5-.44-.37-1.6-2.87-1.6-2.87l-.05.11c-.14.33-.55 1.28-.61 1.57-.07.35-.07.82-.4.97-.1.06-.18.08-.24.1-.1.03-.18.08-.38.37-.2.3.08.4.18.52a.7.7 0 01-.18.27c-.64.31-1.27.16-.64.31l.34.1a1.9 1.9 0 00-.09 1.07c-.25.27-.27.43-.56.72-.32.31-.64.78-.64.78h.95s-.95.95-.95 1.1v.63c0 .16.64 0 0 .47-.63.47-.63 1.1-.63 1.1s1.27-.16.95 0c-.3.15-.91.75-.94.78.09-.04 1.56-.75 1.26 0-.31.77-.91 1.53-.95 1.57l.2-.04c-1 .53-2.1 2.87-2.1 2.87l2.21-.47s0 2.2-1.9 3.3l-.72.43a25.7 25.7 0 01-.9-1.72c.74-.18 1.17-.43 1.17-.43l-5.73-2.84-1.56-1.03h4.95l-3.9-2.2-.79-.51 3.39.25-2.35-.9-1.82-1.42c0-.65 3.39 0 0-3.88-.3-.34-.85-.83-.96-1.31.7.1 1.22.15 1.22.15l-1.3-.77-.52-.49-.52-.29 1.04-.13h.52s.52 0 .26-.13c-.26-.12-.52-.51-.52-.51s-.77-.02-.78-.33c0-.32-.52-.58-.52-.58l1.56.13c-.52-.39-1.04-.74-1.04-.74v-.37c0-.3.52-.3 0-.69a2 2 0 01-.52-.67c0-.3-.09-.56-.2-.79.07-.22.18-.6.17-.92 0-.18-.04-.33-.13-.41-.36-.31-1.32-2.37-1.32-2.37l-.04.1a12.1 12.1 0 00-.5 1.28c-.06.29-.06.68-.32.8l-.2.08c-.1.03-.16.07-.32.31s.07.33.15.43c-.04.1-.1.17-.15.22-.52.26-1.04.13-.52.26l.27.07c-.12.27-.12.59-.07.89-.2.22-.22.35-.46.59-.26.25-.52.64-.52.64h.78s-.78.78-.78.9v.52c0 .13.52 0 0 .4-.53.38-.53.9-.53.9s1.05-.13.78 0c-.25.12-.74.61-.77.64.08-.04 1.29-.62 1.04 0-.26.63-.75 1.25-.78 1.3l.16-.04c-.83.43-1.73 2.36-1.73 2.36l1.82-.39s0 1.8-1.56 2.71-2.6 1.68-3.38 2.46c-.78.77 2.7-.8 1.3.64-3.38 3.49-.26 2.84-.26 2.84l-3.12 2.33c.2-.06 4.9-1.52 3.12 0l-.8.71-.34-.72-.06.13c-.15.34-.54 1.23-.67 1.67-.78.82-1.25 1.44-1.25 1.44l.32.03c-.08.05-.16.16-.3.36-.22.33.1.46.22.6a.85.85 0 01-.22.3c-.73.37-1.47.2-.73.37l.38.1c-.12.3-.15.62-.13.94a6.13 6.13 0 00-2.4 3.37l1.45-.58c-.22.24-.4.47-.4.54v.73c0 .19.73 0 0 .55-.74.55-.74 1.27-.74 1.27s.69-.08 1-.08l-2.36 1.96h2.33c-.3.47-.57.82-.6.85l.23-.05c-.75.4-1.54 1.67-2.01 2.52-.44.27-.87.58-.99.81-.26.52-2.08 2.07-2.08 2.07h3.38s-.11.63-.34 1.2l-.02.01c-1.23.71-2.22 1.37-3.05 2l-.15-.26c0-.37-.1-.7-.25-.97.09-.27.22-.74.21-1.13 0-.2-.04-.4-.16-.5-.44-.38-1.6-2.89-1.6-2.89l-.06.11c-.1.25-.35.83-.5 1.23a2.29 2.29 0 00-.23-.66c.1-.27.23-.75.22-1.14 0-.21-.05-.4-.17-.5-.44-.39-1.61-2.92-1.61-2.92l-.05.12c-.15.33-.57 1.3-.62 1.58-.08.36-.08.83-.4 1l-.25.09c-.11.03-.19.08-.4.38-.19.29.1.4.2.52a.74.74 0 01-.2.27c-.63.32-1.27.16-.63.32l.33.1c-.14.32-.14.71-.08 1.08-.26.28-.28.44-.57.73-.32.32-.64.8-.64.8h.96s-.96.95-.96 1.1v.64c0 .16.64 0 0 .48s-.64 1.11-.64 1.11 1.28-.15.96 0c-.31.16-.93.76-.96.8.1-.05 1.59-.77 1.28 0-.31.77-.93 1.54-.96 1.59l.2-.05c-1.02.54-2.13 2.91-2.13 2.91l2.25-.47s0 2.22-1.93 3.33a20.03 20.03 0 00-4.16 3.03c-.34.33-.02.31.45.22-.1.26-.21.53-.24.65-.05.28-.05.65-.3.78l-.2.07c-.09.03-.15.06-.3.3-.16.23.06.32.14.41a.57.57 0 01-.15.21c-.5.25-1 .13-.5.25l.26.07c-.11.26-.1.57-.06.86-.2.22-.22.34-.45.57-.25.25-.5.62-.5.62h.75s-.75.75-.75.88v.5c0 .06.13.06.19.1l-.9.66.45-.13c-.24.3-.25.61-.25.61s1-.12.76 0-.73.6-.75.62c.07-.03 1.24-.6 1 0-.12.3-.3.61-.46.84l-3.8-1.89-.06-.27 3.35-.28-1.07-.6h.05l-2.95-1.67-.76-.6 2.62.2-1.98-.77-.17-.13c.2-.07.32-.14.32-.14l-.64-.32h4.3l-4.11-1.5c.1-.35-.07-.94-.9-1.96l2.22.27-3-1.75.66.08-1.1-.66-.44-.4-.44-.25.88-.1h.44s.44 0 .22-.12c-.22-.1-.44-.43-.44-.43s-.65-.02-.66-.28c0-.14-.11-.26-.23-.35l4.67.51-4.76-2.78-.14-.06a1.57 1.57 0 00-.15-.45c.05-.15.12-.39.14-.61 2.26.17 3.79-.68 3.79-.68l-6.16-3.06-1.68-1.1h5.32l-4.2-2.37-.84-.55 3.64.27-2.52-.97-1.96-1.53c0-.69 3.64 0 0-4.16-.32-.37-.92-.9-1.03-1.42.76.11 1.31.17 1.31.17l-1.4-.84-.56-.52-.56-.3 1.12-.15h.56s.56 0 .28-.14-.56-.55-.56-.55-.83-.02-.84-.36c0-.34-.56-.61-.56-.61l1.68.14c-.56-.42-1.12-.8-1.12-.8v-.4c0-.33.56-.32 0-.74a2.19 2.19 0 01-.56-.72c0-.32-.1-.6-.22-.85.08-.24.2-.66.2-1-.01-.18-.05-.34-.15-.43-.39-.34-1.41-2.55-1.41-2.55l-.05.1c-.13.29-.5 1.13-.54 1.39-.07.3-.07.72-.35.86-.1.05-.16.06-.22.08-.1.03-.16.07-.34.34-.17.25.08.35.17.45-.05.1-.1.19-.17.24-.56.28-1.12.14-.56.28l.3.08c-.13.29-.13.63-.08.95-.22.24-.24.38-.5.64-.28.27-.56.69-.56.69h.84s-.84.83-.84.97v.56c0 .14.56 0 0 .41s-.56.98-.56.98 1.12-.14.84 0c-.27.13-.8.66-.83.69.08-.04 1.38-.67 1.11 0-.27.67-.8 1.35-.83 1.39l.17-.04c-.9.47-1.86 2.54-1.86 2.54l1.96-.42s0 1.95-1.68 2.92a17.5 17.5 0 00-3.64 2.64c-.83.83 2.9-.86 1.4.7-3.63 3.74-.28 3.05-.28 3.05l-3.35 2.5c.21-.07 5.27-1.64 3.35 0-1.95 1.66-3.35 3.47-3.35 3.47s5.03.28 0 2.64c-2.38 1.11-3.08 3.89-3.08 3.89l2.8-1.11-.56 3.05-3.36 2.78h3.36l-2.24 2.91s-1.96.98-2.24 1.53a10.6 10.6 0 01-1.66 1.72l-.22-.17c0-.3 1.38-.07.45-1.42.43-.16.66-.3.66-.3l-1.51-.74a.65.65 0 01-.1-.2l.63.07-.66-.4-.27-.24-.27-.15.54-.07h.26s.27 0 .14-.06c-.14-.07-.27-.27-.27-.27s-.4 0-.4-.17-.27-.3-.27-.3l.8.07c-.26-.2-.53-.38-.53-.38v-.19c0-.16.27-.15 0-.35-.11-.09-.2-.22-.27-.34a.9.9 0 00-.1-.41c.03-.11.09-.31.09-.48 0-.08-.02-.16-.07-.2-.19-.17-.68-1.22-.68-1.22l-.02.05a6.38 6.38 0 00-.28.8l-.12-.07v-.09c0-.24.4-.23 0-.53-.18-.13-.31-.33-.4-.52 0-.23-.07-.44-.17-.62.06-.17.14-.47.14-.71 0-.14-.03-.26-.1-.32-.28-.25-1.02-1.84-1.02-1.84l-.04.07c-.09.2-.35.82-.39 1l-.04.25-2.5-.96-2.4-1.88c0-.85 4.45 0 0-5.1-.4-.45-1.14-1.1-1.28-1.74.94.14 1.62.2 1.62.2l-1.72-1.01-.69-.64-.68-.39 1.37-.17h.69s.68 0 .34-.17-.69-.68-.69-.68-1.02-.01-1.02-.43-.7-.76-.7-.76l2.07.17-1.37-.98v-.48c0-.41.68-.4 0-.91-.3-.22-.52-.56-.7-.88 0-.4-.1-.75-.26-1.05.1-.29.24-.8.23-1.21 0-.23-.05-.43-.18-.54-.47-.42-1.73-3.12-1.73-3.12l-.05.12c-.16.35-.6 1.39-.67 1.7-.08.37-.08.88-.42 1.05-.12.07-.2.08-.27.1-.12.04-.2.1-.42.42-.2.3.1.43.2.55a.78.78 0 01-.2.3c-.68.34-1.37.17-.68.34l.36.1c-.16.35-.16.77-.1 1.16-.26.3-.29.46-.6.78-.35.34-.7.85-.7.85h1.04s-1.03 1.02-1.03 1.2v.67c0 .17.69 0 0 .51s-.69 1.2-.69 1.2 1.37-.18 1.03 0c-.33.16-.99.8-1.02.84.1-.04 1.7-.82 1.36 0-.33.83-.98 1.65-1.02 1.7l.2-.04c-1.08.57-2.26 3.11-2.26 3.11l2.4-.5s0 2.37-2.06 3.57c-1.61.93-2.8 1.76-3.73 2.56a2.48 2.48 0 01-.8-.95c0-.37-.1-.7-.24-.98.08-.27.22-.75.21-1.13 0-.22-.05-.4-.17-.5-.43-.39-1.6-2.92-1.6-2.92l-.06.12c-.14.33-.56 1.3-.62 1.58-.07.35-.07.83-.4.99-.11.06-.18.07-.25.1-.1.03-.18.07-.39.37-.2.3.1.41.2.53a.73.73 0 01-.2.27c-.64.32-1.28.16-.64.32.1.02.23.05.34.09-.15.33-.14.72-.08 1.09-.26.27-.28.43-.58.72-.32.32-.64.8-.64.8h.96s-.96.95-.96 1.1v.64c0 .16.64 0 0 .48s-.64 1.11-.64 1.11 1.28-.16.96 0a5.8 5.8 0 00-.95.8c.1-.05 1.58-.77 1.27 0-.18.44-.46.89-.67 1.2l-.66-.26-2-1.57c0-.7 3.72 0 0-4.27-.34-.38-.95-.92-1.07-1.45.78.11 1.35.17 1.35.17l-1.43-.86-.58-.53-.57-.32 1.15-.14h.57s.57 0 .29-.15-.58-.56-.58-.56-.85-.02-.86-.37c0-.35-.57-.63-.57-.63l1.72.14c-.57-.43-1.15-.82-1.15-.82v-.4c0-.35.58-.33 0-.77a2.2 2.2 0 01-.57-.73c0-.33-.1-.63-.23-.88.08-.24.2-.67.2-1.01 0-.2-.05-.36-.15-.45-.4-.35-1.45-2.61-1.45-2.61l-.05.1c-.12.3-.5 1.16-.55 1.42-.07.31-.07.74-.36.88l-.22.09c-.1.03-.17.07-.35.34-.18.26.08.36.17.47-.05.1-.1.18-.17.24-.57.29-1.15.14-.57.29l.3.08c-.13.3-.13.64-.08.97-.23.25-.25.4-.51.65-.29.29-.57.72-.57.72h.86s-.86.85-.86 1v.56c0 .15.57 0 0 .43-.58.43-.58 1-.58 1s1.15-.15.86 0c-.28.13-.82.67-.85.7.08-.03 1.42-.68 1.14 0s-.83 1.39-.86 1.43l.18-.04c-.91.48-1.9 2.6-1.9 2.6l2-.42s0 2-1.71 2.99a17.9 17.9 0 00-3.73 2.7c-.86.86 2.97-.87 1.43.72-3.73 3.84-.29 3.13-.29 3.13l-3.43 2.56c.21-.07 5.4-1.67 3.43 0-2 1.71-3.44 3.56-3.44 3.56s5.17.29 0 2.71a5.93 5.93 0 00-2.7 2.82c-.2-.26-.43-.56-.72-.9-.3-.32-.83-.8-.93-1.26.68.1 1.18.15 1.18.15l-1.25-.74-.5-.47-.5-.28 1-.12h.5s.5 0 .25-.13c-.25-.12-.5-.5-.5-.5s-.75 0-.75-.3c0-.31-.5-.56-.5-.56l1.5.12c-.5-.37-1-.71-1-.71v-.35c0-.3.5-.29 0-.67-.22-.16-.38-.4-.5-.64 0-.29-.09-.55-.2-.76a3 3 0 00.17-.89c0-.17-.04-.3-.13-.4-.34-.3-1.26-2.27-1.26-2.27l-.04.1c-.11.25-.44 1-.49 1.23-.05.27-.05.65-.3.77-.1.05-.15.06-.2.07-.09.03-.14.07-.3.3-.16.23.06.32.14.41-.04.1-.09.17-.14.21-.5.25-1 .13-.5.25l.26.07c-.11.26-.11.57-.06.85-.2.22-.22.34-.45.57-.25.25-.5.62-.5.62h.75s-.75.75-.75.87v.5c0 .12.5 0 0 .37s-.5.87-.5.87 1-.13.75 0c-.24.12-.72.59-.75.62.08-.04 1.24-.6 1 0s-.72 1.2-.75 1.24l.15-.04c-.79.42-1.65 2.27-1.65 2.27l1.75-.37s0 1.74-1.5 2.6l-.4.24-.41-.29v-.51c0-.44.72-.42 0-.97-.31-.24-.55-.6-.73-.93 0-.42-.13-.8-.29-1.12.1-.3.25-.85.25-1.29 0-.24-.06-.45-.2-.57-.5-.44-1.83-3.3-1.83-3.3l-.06.12c-.16.38-.64 1.47-.7 1.8-.08.4-.08.94-.45 1.12-.13.07-.21.09-.29.11-.12.04-.2.1-.44.44-.22.33.1.46.22.59a.83.83 0 01-.22.31c-.72.36-1.45.18-.72.36l.38.1a2.2 2.2 0 00-.1 1.24c-.29.32-.31.5-.65.83-.36.36-.73.9-.73.9h1.1s-1.1 1.09-1.1 1.27v.72c0 .18.73 0 0 .54s-.73 1.27-.73 1.27 1.46-.18 1.1 0c-.36.17-1.05.85-1.1.9.12-.05 1.81-.87 1.46 0s-1.05 1.75-1.09 1.8l.22-.05c-1.15.61-2.4 3.3-2.4 3.3l2.54-.53s0 2.52-2.18 3.79l-1.15.7c.17-.7-.27-1.9-2.14-4.03-.43-.5-1.23-1.22-1.39-1.9 1.02.14 1.77.22 1.77.22l-1.88-1.12-.75-.7-.75-.42 1.5-.19h.75s.75 0 .38-.19-.75-.74-.75-.74-1.13-.02-1.13-.48c0-.46-.75-.83-.75-.83l2.25.19c-.75-.56-1.5-1.08-1.5-1.08v-.53c0-.45.75-.43 0-1a2.92 2.92 0 01-.75-.96c0-.43-.13-.82-.3-1.15.1-.31.26-.88.25-1.33 0-.25-.05-.47-.2-.6-.5-.45-1.89-3.41-1.89-3.41l-.06.13c-.17.39-.66 1.52-.73 1.86-.08.41-.08.97-.46 1.16-.13.07-.22.09-.3.11-.12.04-.21.1-.45.45-.23.34.1.48.22.61a.85.85 0 01-.22.32c-.75.38-1.5.19-.75.38l.4.1c-.18.39-.18.85-.1 1.28-.3.32-.33.51-.68.85a.38.38 0 00-.03.03l-2.53-1.42-.71-.47 3.1.23-2.15-.82-1.67-1.3c0-.6 3.1 0 0-3.55-.27-.32-.78-.77-.88-1.2.65.09 1.12.13 1.12.13l-1.2-.7-.47-.45-.47-.26.95-.12h.48s.47 0 .23-.12-.47-.47-.47-.47-.71-.02-.72-.3c0-.3-.48-.53-.48-.53l1.43.12c-.47-.36-.95-.68-.95-.68v-.34c0-.29.48-.27 0-.63-.2-.16-.36-.4-.48-.61 0-.28-.08-.52-.18-.73.06-.2.16-.56.16-.85 0-.15-.04-.3-.13-.37-.32-.29-1.2-2.17-1.2-2.17l-.03.09c-.11.24-.42.96-.47 1.18-.05.26-.05.61-.3.73l-.18.07c-.08.03-.13.06-.29.29-.14.21.07.3.14.38a.53.53 0 01-.14.2c-.47.24-.95.12-.47.24l.25.07c-.11.24-.11.54-.07.81-.19.2-.2.32-.42.54-.24.24-.48.6-.48.6h.72s-.72.7-.72.82v.47c0 .12.48 0 0 .36-.48.35-.48.83-.48.83s.96-.12.72 0c-.23.11-.69.56-.71.59.07-.04 1.18-.58.95 0-.23.57-.7 1.14-.72 1.18l.15-.03c-.76.4-1.58 2.16-1.58 2.16l1.67-.36s0 1.66-1.43 2.49-2.38 1.53-3.1 2.24c-.71.71 2.47-.72 1.2.6-3.1 3.19-.24 2.6-.24 2.6l-2.86 2.12c.18-.05 4.49-1.39 2.86 0-1.67 1.42-2.86 2.96-2.86 2.96s4.29.24 0 2.25c-.33.15-.62.34-.87.55l-3.83-2.16-.92-.6 3.98.3-2.75-1.06-2.14-1.67c0-.75 3.97 0 0-4.54-.35-.4-1-.99-1.13-1.55.83.12 1.43.18 1.43.18l-1.52-.9-.61-.58-.61-.34 1.22-.15h.6s.62 0 .31-.15-.6-.6-.6-.6-.92-.02-.92-.4c0-.36-.61-.67-.61-.67l1.83.15c-.61-.45-1.22-.87-1.22-.87v-.43c0-.36.6-.35 0-.81-.26-.2-.46-.5-.61-.79 0-.35-.1-.66-.24-.93.08-.25.2-.71.2-1.08 0-.2-.04-.38-.16-.48-.41-.37-1.53-2.78-1.53-2.78l-.05.1c-.14.32-.54 1.25-.6 1.52-.07.34-.07.8-.37.94-.11.06-.18.07-.24.1-.1.02-.18.07-.37.36-.19.27.08.38.18.5-.05.1-.11.2-.18.26-.61.3-1.22.15-.61.3l.32.08c-.14.32-.14.7-.08 1.04-.25.27-.27.42-.55.7-.3.3-.61.76-.61.76h.92s-.92.9-.92 1.06v.6c0 .15.61 0 0 .46-.61.45-.61 1.06-.61 1.06s1.22-.15.92 0c-.3.15-.88.72-.92.76.1-.05 1.52-.74 1.22 0-.3.73-.88 1.47-.91 1.51l.19-.04c-.97.51-2.03 2.77-2.03 2.77l2.14-.45s0 2.12-1.83 3.18-3.06 1.97-3.97 2.88c-.92.91 3.16-.93 1.53.76-3.98 4.1-.31 3.33-.31 3.33l-3.66 2.73c.23-.07 5.75-1.78 3.66 0-2.14 1.82-3.67 3.8-3.67 3.8s5.5.3 0 2.87c-2.6 1.22-3.36 4.25-3.36 4.25l3.06-1.21-.61 3.33-3.67 3.03h3.67l-2.44 3.19s-2.14 1.06-2.45 1.66c-.3.61-2.44 2.43-2.44 2.43h3.97s-.3 1.67-.92 2.27c-.44.44-1.84 1.52-2.58 2.08-.41-.71-.9-1.76-.9-1.76l-.04.1c-.12.26-.45 1.04-.5 1.27-.06.29-.06.67-.32.8l-.2.08c-.1.02-.15.06-.32.3-.15.24.07.33.16.43-.04.1-.1.17-.16.22-.51.25-1.03.12-.51.25l.27.08c-.12.26-.12.58-.07.88-.2.22-.22.34-.46.58-.26.26-.52.64-.52.64h.78s-.78.77-.78.9v.51c0 .13.52 0 0 .39-.52.38-.52.9-.52.9s1.04-.13.78 0c-.25.12-.75.6-.77.64.07-.04 1.28-.62 1.03 0s-.75 1.24-.77 1.28l.15-.03c-.82.43-1.7 2.34-1.7 2.34l1.8-.38s0 1.8-1.55 2.7c-1.55.89-2.59 1.66-3.36 2.43-.78.77 2.68-.79 1.3.64-3.37 3.47-.27 2.82-.27 2.82l-1.43 1.07-.02-.02c0-.27-.08-.5-.18-.71.06-.2.16-.55.15-.83 0-.16-.03-.29-.12-.37-.32-.28-1.17-2.12-1.17-2.12l-.04.08c-.1.24-.41.95-.45 1.16-.06.25-.06.6-.3.72l-.02.01-.7-.42-.6-.55-.58-.33 1.18-.14h.59s.6 0 .3-.15-.6-.59-.6-.59-.88-.01-.88-.37-.6-.65-.6-.65l1.78.14c-.6-.44-1.18-.84-1.18-.84v-.42c0-.35.59-.34 0-.78a2.28 2.28 0 01-.6-.76 2 2 0 00-.23-.9c.08-.25.2-.7.2-1.05 0-.2-.04-.37-.15-.46-.4-.36-1.49-2.7-1.49-2.7l-.05.11c-.13.3-.52 1.2-.57 1.47-.07.32-.07.76-.36.9-.11.06-.18.07-.24.1-.1.02-.16.07-.35.35-.18.27.08.37.17.48-.05.1-.1.2-.17.25-.6.3-1.19.15-.6.3l.32.08c-.14.3-.14.66-.08 1-.24.26-.26.4-.53.67-.3.3-.6.74-.6.74h.9s-.9.88-.9 1.02v.59c0 .15.6 0 0 .44-.58.44-.58 1.03-.58 1.03s1.18-.15.89 0c-.3.14-.86.7-.89.73.09-.05 1.47-.71 1.18 0-.29.7-.85 1.42-.88 1.46l.18-.04c-.94.5-1.96 2.69-1.96 2.69l2.07-.44s0 2.05-1.77 3.08c-1.78 1.02-2.96 1.9-3.85 2.78s3.07-.9 1.48.74c-3.84 3.96-.3 3.22-.3 3.22l-3.53 2.64c.22-.07 5.56-1.72 3.54 0-2.07 1.76-3.55 3.67-3.55 3.67s5.32.3 0 2.79c-2.51 1.18-3.25 4.1-3.25 4.1l2.95-1.17-.59 3.23-3.54 2.93h3.54l-2.36 3.08s-2.07 1.03-2.36 1.62c-.3.58-2.37 2.34-2.37 2.34h3.84s-.3 1.62-.88 2.2c-.6.59-2.96 2.35-2.96 2.35h2.37l-2.37 2.79s-3.84.44 2.37 0c6.2-.44 8.86-1.32 8.86-1.32h2.96l5.61 1.32 3.49.07-1.4 1.07h2.35l-2.35 2.77s-3.82.44 2.35 0 8.82-1.32 8.82-1.32h2.93l5.59 1.32 7.05.14s-4.4-.73 1.77-1.02c6.08-.29 13.6.85 13.8.88l-4.7-2.92-2.34-3.2-2.35-2.93h3.52l-4.11-2.19-.3-1.3 3.53-.3-3.94-2.24a19.7 19.7 0 002.46-.55h2.76l5.25 1.23 6.62.14s-4.14-.68 1.66-.96c2.14-.1 4.48-.01 6.57.14l-1.15.94h4.45l-2.97 3.87s-2.6 1.29-2.97 2.02c-.37.74-2.96 2.95-2.96 2.95h4.82s-.37 2.02-1.11 2.76a63 63 0 01-3.71 2.94h2.96l-2.96 3.5s-4.82.55 2.96 0c7.8-.55 11.13-1.66 11.13-1.66h3.7l7.06 1.66 8.9.19s-5.57-.92 2.22-1.3c7.68-.35 17.16 1.07 17.43 1.11l-5.93-3.68-2.97-4.05-2.97-3.68h4.45l-3.41-1.81 4.64 1.09 8.36.17s-5.22-.86 2.1-1.21c1.42-.07 2.92-.07 4.4-.03l-.54.64s-4.52.51 2.78 0c1.24-.1 2.36-.2 3.36-.3 3.56.3 6.23.7 6.36.72l-2.14-1.33c1.95-.35 2.86-.65 2.86-.65h3.47l6.61 1.56 5.31.1c-.18.6-.46 1.32-.83 1.69-.74.72-3.66 2.9-3.66 2.9h2.92l-2.92 3.45s-4.76.55 2.92 0c7.68-.54 10.98-1.63 10.98-1.63h3.65l6.95 1.63 8.78.18s-5.49-.9 2.2-1.27c1.82-.08 3.74-.07 5.62 0-.09.29-.22.6-.4.77-.37.37-1.85 1.47-1.85 1.47h1.48l-1.48 1.75s-2.4.27 1.48 0c3.9-.28 5.56-.83 5.56-.83h1.85l3.52.83 4.45.1s-2.78-.47 1.11-.65c3.84-.19 8.57.53 8.7.55l-2.96-1.84-1.48-2.02-1.27-1.58 1.16-.26h.85l-.28-.15.13-.04h3.2l6.1 1.43 7.7.16s-4.82-.8 1.91-1.12a48 48 0 011.96-.05c-.94.74-2.04 1.56-2.04 1.56h2.55l-2.55 3s-4.13.48 2.55 0c6.69-.47 9.55-1.42 9.55-1.42h3.19l6.05 1.42 7.64.16s-4.78-.79 1.9-1.1c6.6-.31 14.74.91 14.97.94l-5.1-3.16-2.54-3.47-.67-.83 1.38-.09c3.38-.24 4.83-.72 4.83-.72h1.61l3.06.72 2.6.06c-.52.48-.95.83-.95.83h4.87s-.37 2.05-1.12 2.79c-.75.74-3.75 2.97-3.75 2.97h3l-3 3.53s-4.86.56 3 0 11.23-1.67 11.23-1.67h3.74l7.11 1.67 8.98.19s-5.61-.93 2.25-1.3c1.51-.08 3.1-.07 4.66-.03V276.5c-.14.37-.3.78-.34.95z"/><g><linearGradient id="f" gradientUnits="userSpaceOnUse" x1="796.12" y1="909.7" x2="782.8" y2="477.47" gradientTransform="matrix(-1 0 0 1 1279.6 0)"><stop offset=".12" stop-color="#fff"/><stop offset=".26" stop-color="#d0d2d2"/><stop offset=".59" stop-color="#616868"/><stop offset=".82" stop-color="#1b2424"/><stop offset=".93" stop-color="#000a0a"/></linearGradient><path fill="url(#f)" d="M495.47 524.15l-.22.06.1.08.12-.14z"/><linearGradient id="g" gradientUnits="userSpaceOnUse" x1="798.6" y1="910.18" x2="785.26" y2="477.31" gradientTransform="matrix(-1 0 0 1 1279.6 0)"><stop offset=".12" stop-color="#fff"/><stop offset=".26" stop-color="#d0d2d2"/><stop offset=".59" stop-color="#616868"/><stop offset=".82" stop-color="#1b2424"/><stop offset=".93" stop-color="#000a0a"/></linearGradient><path fill="url(#g)" d="M492.72 526.92l.08.06.1-.1z"/><linearGradient id="h" gradientUnits="userSpaceOnUse" x1="856.87" y1="906.49" x2="843.6" y2="475.85" gradientTransform="matrix(-1 0 0 1 1279.6 0)"><stop offset=".12" stop-color="#fff"/><stop offset=".26" stop-color="#d0d2d2"/><stop offset=".59" stop-color="#616868"/><stop offset=".82" stop-color="#1b2424"/><stop offset=".93" stop-color="#000a0a"/></linearGradient><path fill="url(#h)" d="M434.74 514.99l.2-.33c-.14.07-.29.12-.29.24l.09.09z"/><linearGradient id="i" gradientUnits="userSpaceOnUse" x1="947.87" y1="906.18" x2="934.52" y2="472.94" gradientTransform="matrix(-1 0 0 1 1279.6 0)"><stop offset=".12" stop-color="#fff"/><stop offset=".26" stop-color="#d0d2d2"/><stop offset=".59" stop-color="#616868"/><stop offset=".82" stop-color="#1b2424"/><stop offset=".93" stop-color="#000a0a"/></linearGradient><path fill="url(#i)" d="M343.85 510.52a.9.9 0 00.14.16c.04-.12-.08-.12-.14-.16z"/><linearGradient id="j" gradientUnits="userSpaceOnUse" x1="947.48" y1="902.34" x2="934.26" y2="473.32" gradientTransform="matrix(-1 0 0 1 1279.6 0)"><stop offset=".12" stop-color="#fff"/><stop offset=".26" stop-color="#d0d2d2"/><stop offset=".59" stop-color="#616868"/><stop offset=".82" stop-color="#1b2424"/><stop offset=".93" stop-color="#000a0a"/></linearGradient><path fill="url(#j)" d="M344.02 512.38l.23.2c.03-.2-.08-.24-.23-.2z"/><linearGradient id="k" gradientUnits="userSpaceOnUse" x1="978.08" y1="902.12" x2="964.83" y2="472.34" gradientTransform="matrix(-1 0 0 1 1279.6 0)"><stop offset=".12" stop-color="#fff"/><stop offset=".26" stop-color="#d0d2d2"/><stop offset=".59" stop-color="#616868"/><stop offset=".82" stop-color="#1b2424"/><stop offset=".93" stop-color="#000a0a"/></linearGradient><path fill="url(#k)" d="M314.09 498.04l-.23-.05c0 .08.03.15.06.23l.17-.18z"/><linearGradient id="l" gradientUnits="userSpaceOnUse" x1="1285.48" y1="892.97" x2="1272.24" y2="463.23" gradientTransform="matrix(-1 0 0 1 1279.6 0)"><stop offset=".12" stop-color="#fff"/><stop offset=".26" stop-color="#d0d2d2"/><stop offset=".59" stop-color="#616868"/><stop offset=".82" stop-color="#1b2424"/><stop offset=".93" stop-color="#000a0a"/></linearGradient><path fill="url(#l)" d="M7.3 466.35l-.08.03.08.23v-.26z"/><linearGradient id="m" gradientUnits="userSpaceOnUse" x1="1043.19" y1="901.29" x2="1029.91" y2="470.36" gradientTransform="matrix(-1 0 0 1 1279.6 0)"><stop offset=".12" stop-color="#fff"/><stop offset=".26" stop-color="#d0d2d2"/><stop offset=".59" stop-color="#616868"/><stop offset=".82" stop-color="#1b2424"/><stop offset=".93" stop-color="#000a0a"/></linearGradient><path fill="url(#m)" d="M249.13 489.03c.1-.13.2-.28.27-.44h-.03l-.43.2-.1.04.2.14.1.06z"/><linearGradient id="n" gradientUnits="userSpaceOnUse" x1="1110.77" y1="899.55" x2="1097.48" y2="468.35" gradientTransform="matrix(-1 0 0 1 1279.6 0)"><stop offset=".12" stop-color="#fff"/><stop offset=".26" stop-color="#d0d2d2"/><stop offset=".59" stop-color="#616868"/><stop offset=".82" stop-color="#1b2424"/><stop offset=".93" stop-color="#000a0a"/></linearGradient><path fill="url(#n)" d="M181.45 486.3l.2.13.05-.18-.25.04z"/><linearGradient id="o" gradientUnits="userSpaceOnUse" x1="1160.74" y1="896.73" x2="1147.5" y2="466.96" gradientTransform="matrix(-1 0 0 1 1279.6 0)"><stop offset=".12" stop-color="#fff"/><stop offset=".26" stop-color="#d0d2d2"/><stop offset=".59" stop-color="#616868"/><stop offset=".82" stop-color="#1b2424"/><stop offset=".93" stop-color="#000a0a"/></linearGradient><path fill="url(#o)" d="M129.46 546.8l.35.23c-.05-.1-.11-.17-.18-.25l-.17.03z"/><linearGradient id="p" gradientUnits="userSpaceOnUse" x1="1164.76" y1="897.36" x2="1151.49" y2="466.74" gradientTransform="matrix(-1 0 0 1 1279.6 0)"><stop offset=".12" stop-color="#fff"/><stop offset=".26" stop-color="#d0d2d2"/><stop offset=".59" stop-color="#616868"/><stop offset=".82" stop-color="#1b2424"/><stop offset=".93" stop-color="#000a0a"/></linearGradient><path fill="url(#p)" d="M127.4 504.5c-.23.02-.55.1-.87.2-.01 0-.03 0-.05.02l.04.02.3.4.08.07.06-.08.44-.63z"/><linearGradient id="q" gradientUnits="userSpaceOnUse" x1="955.62" y1="902.34" x2="942.39" y2="473.16" gradientTransform="matrix(-1 0 0 1 1279.6 0)"><stop offset=".12" stop-color="#fff"/><stop offset=".26" stop-color="#d0d2d2"/><stop offset=".59" stop-color="#616868"/><stop offset=".82" stop-color="#1b2424"/><stop offset=".93" stop-color="#000a0a"/></linearGradient><path fill="url(#q)" d="M334.43 564.33a.89.89 0 01.11-.11c.1-.07-.13-.05-.3-.03l.19.14z"/><linearGradient id="r" gradientUnits="userSpaceOnUse" x1="943.12" y1="903.61" x2="929.86" y2="473.29" gradientTransform="matrix(-1 0 0 1 1279.6 0)"><stop offset=".12" stop-color="#fff"/><stop offset=".26" stop-color="#d0d2d2"/><stop offset=".59" stop-color="#616868"/><stop offset=".82" stop-color="#1b2424"/><stop offset=".93" stop-color="#000a0a"/></linearGradient><path fill="url(#r)" d="M346.77 566.96l.16.3c.02-.16-.04-.26-.16-.3z"/><linearGradient id="s" gradientUnits="userSpaceOnUse" x1="1259.98" y1="892.99" x2="1246.76" y2="463.88" gradientTransform="matrix(-1 0 0 1 1279.6 0)"><stop offset=".12" stop-color="#fff"/><stop offset=".26" stop-color="#d0d2d2"/><stop offset=".59" stop-color="#616868"/><stop offset=".82" stop-color="#1b2424"/><stop offset=".93" stop-color="#000a0a"/></linearGradient><path fill="url(#s)" d="M34.31 413.88l.1.2.04-.15-.14-.05z"/><linearGradient id="t" gradientUnits="userSpaceOnUse" x1="1225.53" y1="894.62" x2="1212.29" y2="464.96" gradientTransform="matrix(-1 0 0 1 1279.6 0)"><stop offset=".12" stop-color="#fff"/><stop offset=".26" stop-color="#d0d2d2"/><stop offset=".59" stop-color="#616868"/><stop offset=".82" stop-color="#1b2424"/><stop offset=".93" stop-color="#000a0a"/></linearGradient><path fill="url(#t)" d="M68.75 412.8l.2.15.12.1a.25.25 0 00-.05-.16c-.05-.06-.14-.1-.27-.1z"/><linearGradient id="u" gradientUnits="userSpaceOnUse" x1="1142" y1="898.4" x2="1128.72" y2="467.49" gradientTransform="matrix(-1 0 0 1 1279.6 0)"><stop offset=".12" stop-color="#fff"/><stop offset=".26" stop-color="#d0d2d2"/><stop offset=".59" stop-color="#616868"/><stop offset=".82" stop-color="#1b2424"/><stop offset=".93" stop-color="#000a0a"/></linearGradient><path fill="url(#u)" d="M151.05 459.56l.15.16v-.21l-.15.05z"/><linearGradient id="v" gradientUnits="userSpaceOnUse" x1="1014.44" y1="902.51" x2="1001.15" y2="471.21" gradientTransform="matrix(-1 0 0 1 1279.6 0)"><stop offset=".12" stop-color="#fff"/><stop offset=".26" stop-color="#d0d2d2"/><stop offset=".59" stop-color="#616868"/><stop offset=".82" stop-color="#1b2424"/><stop offset=".93" stop-color="#000a0a"/></linearGradient><path fill="url(#v)" d="M277.93 483.52l.24.16a.9.9 0 01.03-.12c-.07 0-.17-.02-.27-.04z"/><linearGradient id="w" gradientUnits="userSpaceOnUse" x1="772.28" y1="908.77" x2="759.02" y2="478.37" gradientTransform="matrix(-1 0 0 1 1279.6 0)"><stop offset=".12" stop-color="#fff"/><stop offset=".26" stop-color="#d0d2d2"/><stop offset=".59" stop-color="#616868"/><stop offset=".82" stop-color="#1b2424"/><stop offset=".93" stop-color="#000a0a"/></linearGradient><path fill="url(#w)" d="M518.83 528.84l.24.17.1-.07c.16-.12-.06-.12-.34-.1z"/><linearGradient id="x" gradientUnits="userSpaceOnUse" x1="708.59" y1="908.11" x2="695.41" y2="480.63" gradientTransform="matrix(-1 0 0 1 1279.6 0)"><stop offset=".12" stop-color="#fff"/><stop offset=".26" stop-color="#d0d2d2"/><stop offset=".59" stop-color="#616868"/><stop offset=".82" stop-color="#1b2424"/><stop offset=".93" stop-color="#000a0a"/></linearGradient><path fill="url(#x)" d="M582.37 536.63l.05.18.13-.15a5.91 5.91 0 00-.18-.03z"/><linearGradient id="y" gradientUnits="userSpaceOnUse" x1="685.09" y1="911.53" x2="671.81" y2="480.91" gradientTransform="matrix(-1 0 0 1 1279.6 0)"><stop offset=".12" stop-color="#fff"/><stop offset=".26" stop-color="#d0d2d2"/><stop offset=".59" stop-color="#616868"/><stop offset=".82" stop-color="#1b2424"/><stop offset=".93" stop-color="#000a0a"/></linearGradient><path fill="url(#y)" d="M605.95 542.58l.09-.12-.3-.06.2.18z"/><linearGradient id="z" gradientUnits="userSpaceOnUse" x1="656.59" y1="913.28" x2="643.28" y2="481.59" gradientTransform="matrix(-1 0 0 1 1279.6 0)"><stop offset=".12" stop-color="#fff"/><stop offset=".26" stop-color="#d0d2d2"/><stop offset=".59" stop-color="#616868"/><stop offset=".82" stop-color="#1b2424"/><stop offset=".93" stop-color="#000a0a"/></linearGradient><path fill="url(#z)" d="M634.2 545.63l.24.22.04-.22h-.27z"/><linearGradient id="A" gradientUnits="userSpaceOnUse" x1="645.25" y1="913.71" x2="631.95" y2="481.99" gradientTransform="matrix(-1 0 0 1 1279.6 0)"><stop offset=".12" stop-color="#fff"/><stop offset=".26" stop-color="#d0d2d2"/><stop offset=".59" stop-color="#616868"/><stop offset=".82" stop-color="#1b2424"/><stop offset=".93" stop-color="#000a0a"/></linearGradient><path fill="url(#A)" d="M646.15 527.7l.13.14.06-.3c-.1.05-.19.08-.19.16z"/><linearGradient id="B" gradientUnits="userSpaceOnUse" x1="614.08" y1="912.05" x2="600.87" y2="483.27" gradientTransform="matrix(-1 0 0 1 1279.6 0)"><stop offset=".12" stop-color="#fff"/><stop offset=".26" stop-color="#d0d2d2"/><stop offset=".59" stop-color="#616868"/><stop offset=".82" stop-color="#1b2424"/><stop offset=".93" stop-color="#000a0a"/></linearGradient><path fill="url(#B)" d="M676.73 544.87l.13.14.08-.14z"/><linearGradient id="C" gradientUnits="userSpaceOnUse" x1="558.48" y1="916.62" x2="545.16" y2="484.32" gradientTransform="matrix(-1 0 0 1 1279.6 0)"><stop offset=".12" stop-color="#fff"/><stop offset=".26" stop-color="#d0d2d2"/><stop offset=".59" stop-color="#616868"/><stop offset=".82" stop-color="#1b2424"/><stop offset=".93" stop-color="#000a0a"/></linearGradient><path fill="url(#C)" d="M732.01 563.53l.07-.13-.16-.02.1.15z"/><linearGradient id="D" gradientUnits="userSpaceOnUse" x1="532.25" y1="914.54" x2="519.03" y2="485.72" gradientTransform="matrix(-1 0 0 1 1279.6 0)"><stop offset=".12" stop-color="#fff"/><stop offset=".26" stop-color="#d0d2d2"/><stop offset=".59" stop-color="#616868"/><stop offset=".82" stop-color="#1b2424"/><stop offset=".93" stop-color="#000a0a"/></linearGradient><path fill="url(#D)" d="M758.47 557.46l-.24.04.14.12.1-.16z"/><linearGradient id="E" gradientUnits="userSpaceOnUse" x1="531.12" y1="916.16" x2="517.84" y2="485.44" gradientTransform="matrix(-1 0 0 1 1279.6 0)"><stop offset=".12" stop-color="#fff"/><stop offset=".26" stop-color="#d0d2d2"/><stop offset=".59" stop-color="#616868"/><stop offset=".82" stop-color="#1b2424"/><stop offset=".93" stop-color="#000a0a"/></linearGradient><path fill="url(#E)" d="M759.52 554.3l.23.23c0-.17-.1-.24-.23-.23z"/><linearGradient id="F" gradientUnits="userSpaceOnUse" x1="483.74" y1="917.27" x2="470.48" y2="486.87" gradientTransform="matrix(-1 0 0 1 1279.6 0)"><stop offset=".12" stop-color="#fff"/><stop offset=".26" stop-color="#d0d2d2"/><stop offset=".59" stop-color="#616868"/><stop offset=".82" stop-color="#1b2424"/><stop offset=".93" stop-color="#000a0a"/></linearGradient><path fill="url(#F)" d="M806.53 574.98h-.26l.23.21.03-.21z"/><linearGradient id="G" gradientUnits="userSpaceOnUse" x1="511.3" y1="916.4" x2="498.04" y2="486.08" gradientTransform="matrix(-1 0 0 1 1279.6 0)"><stop offset=".12" stop-color="#fff"/><stop offset=".26" stop-color="#d0d2d2"/><stop offset=".59" stop-color="#616868"/><stop offset=".82" stop-color="#1b2424"/><stop offset=".93" stop-color="#000a0a"/></linearGradient><path fill="url(#G)" d="M779.15 566.49l.05-.19-.22.04.17.15z"/><linearGradient id="H" gradientUnits="userSpaceOnUse" x1="496.66" y1="919" x2="483.3" y2="485.45" gradientTransform="matrix(-1 0 0 1 1279.6 0)"><stop offset=".12" stop-color="#fff"/><stop offset=".26" stop-color="#d0d2d2"/><stop offset=".59" stop-color="#616868"/><stop offset=".82" stop-color="#1b2424"/><stop offset=".93" stop-color="#000a0a"/></linearGradient><path fill="url(#H)" d="M792.02 622.51l.17-.23-.2.03.03.2z"/><linearGradient id="I" gradientUnits="userSpaceOnUse" x1="633.79" y1="912.65" x2="620.53" y2="482.43" gradientTransform="matrix(-1 0 0 1 1279.6 0)"><stop offset=".12" stop-color="#fff"/><stop offset=".26" stop-color="#d0d2d2"/><stop offset=".59" stop-color="#616868"/><stop offset=".82" stop-color="#1b2424"/><stop offset=".93" stop-color="#000a0a"/></linearGradient><path fill="url(#I)" d="M654.37 638.13l.15-.19a1.05 1.05 0 01-.24-.06l-.24.04.33.2z"/><linearGradient id="J" gradientUnits="userSpaceOnUse" x1="671.84" y1="911.42" x2="658.58" y2="481.36" gradientTransform="matrix(-1 0 0 1 1279.6 0)"><stop offset=".12" stop-color="#fff"/><stop offset=".26" stop-color="#d0d2d2"/><stop offset=".59" stop-color="#616868"/><stop offset=".82" stop-color="#1b2424"/><stop offset=".93" stop-color="#000a0a"/></linearGradient><path fill="url(#J)" d="M616.6 625.37l.13-.09h-.3l.17.09z"/><linearGradient id="K" gradientUnits="userSpaceOnUse" x1="676.72" y1="911.33" x2="663.46" y2="481.2" gradientTransform="matrix(-1 0 0 1 1279.6 0)"><stop offset=".12" stop-color="#fff"/><stop offset=".26" stop-color="#d0d2d2"/><stop offset=".59" stop-color="#616868"/><stop offset=".82" stop-color="#1b2424"/><stop offset=".93" stop-color="#000a0a"/></linearGradient><path fill="url(#K)" d="M611.95 611.61l.12.12c.05 0 .12-.02.2-.07a.25.25 0 00.05-.1c-.03-.05-.09-.09-.06-.18l-.34.17.03.06z"/><linearGradient id="L" gradientUnits="userSpaceOnUse" x1="678.88" y1="911.3" x2="665.62" y2="481.09" gradientTransform="matrix(-1 0 0 1 1279.6 0)"><stop offset=".12" stop-color="#fff"/><stop offset=".26" stop-color="#d0d2d2"/><stop offset=".59" stop-color="#616868"/><stop offset=".82" stop-color="#1b2424"/><stop offset=".93" stop-color="#000a0a"/></linearGradient><path fill="url(#L)" d="M608.79 648.6l.16-.2c-.33.06-.29.14-.16.2z"/><linearGradient id="M" gradientUnits="userSpaceOnUse" x1="1276.18" y1="554.83" x2="1268.96" y2="320.56" gradientTransform="matrix(-1 0 0 1 1279.6 0)"><stop offset=".12" stop-color="#fff"/><stop offset=".26" stop-color="#d0d2d2"/><stop offset=".59" stop-color="#616868"/><stop offset=".82" stop-color="#1b2424"/><stop offset=".93" stop-color="#000a0a"/></linearGradient><path fill="url(#M)" d="M7.07 437.67H7l.06.03.01-.03z"/><linearGradient id="N" gradientUnits="userSpaceOnUse" x1="1275.64" y1="489.87" x2="1272.99" y2="403.97" gradientTransform="matrix(-1 0 0 1 1279.6 0)"><stop offset=".12" stop-color="#fff"/><stop offset=".26" stop-color="#d0d2d2"/><stop offset=".59" stop-color="#616868"/><stop offset=".82" stop-color="#1b2424"/><stop offset=".93" stop-color="#000a0a"/></linearGradient><path fill="url(#N)" d="M5.29 446.92h-.01z"/><linearGradient id="O" gradientUnits="userSpaceOnUse" x1="483.6" y1="916.91" x2="470.3" y2="485.29" gradientTransform="matrix(-1 0 0 1 1279.6 0)"><stop offset=".12" stop-color="#fff"/><stop offset=".26" stop-color="#d0d2d2"/><stop offset=".59" stop-color="#616868"/><stop offset=".82" stop-color="#1b2424"/><stop offset=".93" stop-color="#000a0a"/></linearGradient><path fill="url(#O)" d="M806.77 566.12l.06.14c.02-.08 0-.12-.06-.14z"/><linearGradient id="P" gradientUnits="userSpaceOnUse" x1="882.92" y1="902" x2="873.29" y2="589.64" gradientTransform="matrix(-1 0 0 1 1279.6 0)"><stop offset=".12" stop-color="#fff"/><stop offset=".26" stop-color="#d0d2d2"/><stop offset=".59" stop-color="#616868"/><stop offset=".82" stop-color="#1b2424"/><stop offset=".93" stop-color="#000a0a"/></linearGradient><path fill="url(#P)" d="M408.87 507.22v-.03h-.05l.05.03z"/><linearGradient id="Q" gradientUnits="userSpaceOnUse" x1="824.44" y1="902.05" x2="812.88" y2="527.23" gradientTransform="matrix(-1 0 0 1 1279.6 0)"><stop offset=".12" stop-color="#fff"/><stop offset=".26" stop-color="#d0d2d2"/><stop offset=".59" stop-color="#616868"/><stop offset=".82" stop-color="#1b2424"/><stop offset=".93" stop-color="#000a0a"/></linearGradient><path fill="url(#Q)" d="M466.32 537.1l.06.05a.95.95 0 00.12-.04h-.18z"/><linearGradient id="R" gradientUnits="userSpaceOnUse" x1="805.67" y1="908.29" x2="792.38" y2="476.94" gradientTransform="matrix(-1 0 0 1 1279.6 0)"><stop offset=".12" stop-color="#fff"/><stop offset=".26" stop-color="#d0d2d2"/><stop offset=".59" stop-color="#616868"/><stop offset=".82" stop-color="#1b2424"/><stop offset=".93" stop-color="#000a0a"/></linearGradient><path fill="url(#R)" d="M483.72 588.58l.07.08.05-.08h-.12z"/><linearGradient id="S" gradientUnits="userSpaceOnUse" x1="796.57" y1="898.26" x2="788.87" y2="648.38" gradientTransform="matrix(-1 0 0 1 1279.6 0)"><stop offset=".12" stop-color="#fff"/><stop offset=".26" stop-color="#d0d2d2"/><stop offset=".59" stop-color="#616868"/><stop offset=".82" stop-color="#1b2424"/><stop offset=".93" stop-color="#000a0a"/></linearGradient><path fill="url(#S)" d="M494.56 525.13l-.07-.02.05.04z"/><linearGradient id="T" gradientUnits="userSpaceOnUse" x1="749.85" y1="569.53" x2="746.97" y2="475.83" gradientTransform="matrix(-1 0 0 1 1279.6 0)"><stop offset=".12" stop-color="#fff"/><stop offset=".26" stop-color="#d0d2d2"/><stop offset=".59" stop-color="#616868"/><stop offset=".82" stop-color="#1b2424"/><stop offset=".93" stop-color="#000a0a"/></linearGradient><path fill="url(#T)" d="M531.18 522.67l.01.01v-.01z"/><linearGradient id="U" gradientUnits="userSpaceOnUse" x1="685.03" y1="915.95" x2="671.57" y2="479.2" gradientTransform="matrix(-1 0 0 1 1279.6 0)"><stop offset=".12" stop-color="#fff"/><stop offset=".26" stop-color="#d0d2d2"/><stop offset=".59" stop-color="#616868"/><stop offset=".82" stop-color="#1b2424"/><stop offset=".93" stop-color="#000a0a"/></linearGradient><path fill="url(#U)" d="M606.01 542.63l.07.05.06-.13-.13.08z"/><linearGradient id="V" gradientUnits="userSpaceOnUse" x1="670.08" y1="648.98" x2="663.58" y2="438.14" gradientTransform="matrix(-1 0 0 1 1279.6 0)"><stop offset=".12" stop-color="#fff"/><stop offset=".26" stop-color="#d0d2d2"/><stop offset=".59" stop-color="#616868"/><stop offset=".82" stop-color="#1b2424"/><stop offset=".93" stop-color="#000a0a"/></linearGradient><path fill="url(#V)" d="M612.8 543.53l-.05.02.02.01.03-.02z"/><linearGradient id="W" gradientUnits="userSpaceOnUse" x1="647.53" y1="619.98" x2="642.72" y2="463.81" gradientTransform="matrix(-1 0 0 1 1279.6 0)"><stop offset=".12" stop-color="#fff"/><stop offset=".26" stop-color="#d0d2d2"/><stop offset=".59" stop-color="#616868"/><stop offset=".82" stop-color="#1b2424"/><stop offset=".93" stop-color="#000a0a"/></linearGradient><path fill="url(#W)" d="M634.49 541.88h-.03l.02.01z"/><linearGradient id="X" gradientUnits="userSpaceOnUse" x1="676.78" y1="914.87" x2="663.35" y2="479.04" gradientTransform="matrix(-1 0 0 1 1279.6 0)"><stop offset=".12" stop-color="#fff"/><stop offset=".26" stop-color="#d0d2d2"/><stop offset=".59" stop-color="#616868"/><stop offset=".82" stop-color="#1b2424"/><stop offset=".93" stop-color="#000a0a"/></linearGradient><path fill="url(#X)" d="M612.19 611.85v-.05l-.07-.02.07.07z"/><linearGradient id="Y" gradientUnits="userSpaceOnUse" x1="961.84" y1="578.71" x2="956.31" y2="399.11" gradientTransform="matrix(-1 0 0 1 1279.6 0)"><stop offset=".12" stop-color="#fff"/><stop offset=".26" stop-color="#d0d2d2"/><stop offset=".59" stop-color="#616868"/><stop offset=".82" stop-color="#1b2424"/><stop offset=".93" stop-color="#000a0a"/></linearGradient><path fill="url(#Y)" d="M320.54 488.89h-.03l.02.02v-.02z"/><linearGradient id="Z" gradientUnits="userSpaceOnUse" x1="936.6" y1="528.18" x2="935.64" y2="496.95" gradientTransform="matrix(-1 0 0 1 1279.6 0)"><stop offset=".12" stop-color="#fff"/><stop offset=".26" stop-color="#d0d2d2"/><stop offset=".59" stop-color="#616868"/><stop offset=".82" stop-color="#1b2424"/><stop offset=".93" stop-color="#000a0a"/></linearGradient><path fill="url(#Z)" d="M343.48 512.57z"/><linearGradient id="aa" gradientUnits="userSpaceOnUse" x1="946.92" y1="652.01" x2="939.22" y2="402.13" gradientTransform="matrix(-1 0 0 1 1279.6 0)"><stop offset=".12" stop-color="#fff"/><stop offset=".26" stop-color="#d0d2d2"/><stop offset=".59" stop-color="#616868"/><stop offset=".82" stop-color="#1b2424"/><stop offset=".93" stop-color="#000a0a"/></linearGradient><path fill="url(#aa)" d="M336.5 527.04l.03.03.02-.03h-.05z"/><linearGradient id="ab" gradientUnits="userSpaceOnUse" x1="955.53" y1="900.47" x2="942.39" y2="474.02" gradientTransform="matrix(-1 0 0 1 1279.6 0)"><stop offset=".12" stop-color="#fff"/><stop offset=".26" stop-color="#d0d2d2"/><stop offset=".59" stop-color="#616868"/><stop offset=".82" stop-color="#1b2424"/><stop offset=".93" stop-color="#000a0a"/></linearGradient><path fill="url(#ab)" d="M334.37 567.75v-.1l-.08.02-.02.01.1.07z"/><linearGradient id="ac" gradientUnits="userSpaceOnUse" x1="982" y1="902.8" x2="968.76" y2="473.32" gradientTransform="matrix(-1 0 0 1 1279.6 0)"><stop offset=".12" stop-color="#fff"/><stop offset=".26" stop-color="#d0d2d2"/><stop offset=".59" stop-color="#616868"/><stop offset=".82" stop-color="#1b2424"/><stop offset=".93" stop-color="#000a0a"/></linearGradient><path fill="url(#ac)" d="M310.32 491.15v-.05l-.06-.01z"/><linearGradient id="ad" gradientUnits="userSpaceOnUse" x1="1000.04" y1="902.2" x2="986.77" y2="471.64" gradientTransform="matrix(-1 0 0 1 1279.6 0)"><stop offset=".12" stop-color="#fff"/><stop offset=".26" stop-color="#d0d2d2"/><stop offset=".59" stop-color="#616868"/><stop offset=".82" stop-color="#1b2424"/><stop offset=".93" stop-color="#000a0a"/></linearGradient><path fill="url(#ad)" d="M291.93 502.9l-.11.02.05.03.06-.05z"/><linearGradient id="ae" gradientUnits="userSpaceOnUse" x1="1000.41" y1="904.56" x2="987.65" y2="490.69" gradientTransform="matrix(-1 0 0 1 1279.6 0)"><stop offset=".12" stop-color="#fff"/><stop offset=".26" stop-color="#d0d2d2"/><stop offset=".59" stop-color="#616868"/><stop offset=".82" stop-color="#1b2424"/><stop offset=".93" stop-color="#000a0a"/></linearGradient><path fill="url(#ae)" d="M291.55 502.74l.05.04v-.05l-.05.01z"/><linearGradient id="af" gradientUnits="userSpaceOnUse" x1="985.34" y1="545.3" x2="982.69" y2="459.4" gradientTransform="matrix(-1 0 0 1 1279.6 0)"><stop offset=".12" stop-color="#fff"/><stop offset=".26" stop-color="#d0d2d2"/><stop offset=".59" stop-color="#616868"/><stop offset=".82" stop-color="#1b2424"/><stop offset=".93" stop-color="#000a0a"/></linearGradient><path fill="url(#af)" d="M295.58 502.35z"/><linearGradient id="ag" gradientUnits="userSpaceOnUse" x1="1025.92" y1="613.72" x2="1018.94" y2="387.26" gradientTransform="matrix(-1 0 0 1 1279.6 0)"><stop offset=".12" stop-color="#fff"/><stop offset=".26" stop-color="#d0d2d2"/><stop offset=".59" stop-color="#616868"/><stop offset=".82" stop-color="#1b2424"/><stop offset=".93" stop-color="#000a0a"/></linearGradient><path fill="url(#ag)" d="M257.17 500.49l.02-.02-.05-.01z"/><linearGradient id="ah" gradientUnits="userSpaceOnUse" x1="1195.22" y1="896.31" x2="1181.96" y2="466.13" gradientTransform="matrix(-1 0 0 1 1279.6 0)"><stop offset=".12" stop-color="#fff"/><stop offset=".26" stop-color="#d0d2d2"/><stop offset=".59" stop-color="#616868"/><stop offset=".82" stop-color="#1b2424"/><stop offset=".93" stop-color="#000a0a"/></linearGradient><path fill="url(#ah)" d="M98.89 428.56l-.1-.04-.08-.02.09.1c0 .02.02.03.03.04l.06-.08z"/><linearGradient id="ai" gradientUnits="userSpaceOnUse" x1="1198.45" y1="898.46" x2="1185.13" y2="466.23" gradientTransform="matrix(-1 0 0 1 1279.6 0)"><stop offset=".12" stop-color="#fff"/><stop offset=".26" stop-color="#d0d2d2"/><stop offset=".59" stop-color="#616868"/><stop offset=".82" stop-color="#1b2424"/><stop offset=".93" stop-color="#000a0a"/></linearGradient><path fill="url(#ai)" d="M95.56 429.19l.04.1.06-.1h-.1z"/><linearGradient id="aj" gradientUnits="userSpaceOnUse" x1="1135.32" y1="899.71" x2="1122.02" y2="467.94" gradientTransform="matrix(-1 0 0 1 1279.6 0)"><stop offset=".12" stop-color="#fff"/><stop offset=".26" stop-color="#d0d2d2"/><stop offset=".59" stop-color="#616868"/><stop offset=".82" stop-color="#1b2424"/><stop offset=".93" stop-color="#000a0a"/></linearGradient><path fill="url(#aj)" d="M157.37 472.57l.08.06.07-.08-.16.02z"/><linearGradient id="ak" gradientUnits="userSpaceOnUse" x1="1083.43" y1="640.63" x2="1080.06" y2="531.31" gradientTransform="matrix(-1 0 0 1 1279.6 0)"><stop offset=".12" stop-color="#fff"/><stop offset=".26" stop-color="#d0d2d2"/><stop offset=".59" stop-color="#616868"/><stop offset=".82" stop-color="#1b2424"/><stop offset=".93" stop-color="#000a0a"/></linearGradient><path fill="url(#ak)" d="M197.84 585.95l.02.02v-.01z"/><linearGradient id="al" gradientUnits="userSpaceOnUse" x1="1084.04" y1="680.97" x2="1078.02" y2="485.75" gradientTransform="matrix(-1 0 0 1 1279.6 0)"><stop offset=".12" stop-color="#fff"/><stop offset=".26" stop-color="#d0d2d2"/><stop offset=".59" stop-color="#616868"/><stop offset=".82" stop-color="#1b2424"/><stop offset=".93" stop-color="#000a0a"/></linearGradient><path fill="url(#al)" d="M198.55 583.34l.03.02z"/><linearGradient id="am" gradientUnits="userSpaceOnUse" x1="1094.04" y1="900.08" x2="1080.77" y2="469.44" gradientTransform="matrix(-1 0 0 1 1279.6 0)"><stop offset=".12" stop-color="#fff"/><stop offset=".26" stop-color="#d0d2d2"/><stop offset=".59" stop-color="#616868"/><stop offset=".82" stop-color="#1b2424"/><stop offset=".93" stop-color="#000a0a"/></linearGradient><path fill="url(#am)" d="M195.97 560.57l.01.1.1-.1h-.11z"/><linearGradient id="an" gradientUnits="userSpaceOnUse" x1="1136.68" y1="900.56" x2="1123.35" y2="467.88" gradientTransform="matrix(-1 0 0 1 1279.6 0)"><stop offset=".12" stop-color="#fff"/><stop offset=".26" stop-color="#d0d2d2"/><stop offset=".59" stop-color="#616868"/><stop offset=".82" stop-color="#1b2424"/><stop offset=".93" stop-color="#000a0a"/></linearGradient><path fill="url(#an)" d="M154.64 520.73l.02-.02v-.1l-.07-.02.05.14z"/><linearGradient id="ao" gradientUnits="userSpaceOnUse" x1="1168.33" y1="909.06" x2="1158.71" y2="596.71" gradientTransform="matrix(-1 0 0 1 1279.6 0)"><stop offset=".12" stop-color="#fff"/><stop offset=".26" stop-color="#d0d2d2"/><stop offset=".59" stop-color="#616868"/><stop offset=".82" stop-color="#1b2424"/><stop offset=".93" stop-color="#000a0a"/></linearGradient><path fill="url(#ao)" d="M123.67 506.01c.02 0 .03-.02.04-.03l-.04.02v.01z"/></g></svg>