<svg xmlns="http://www.w3.org/2000/svg" width="1280" height="800"><switch><g><linearGradient id="a" gradientUnits="userSpaceOnUse" x1="626.508" y1="683.875" x2="659.715" y2="316.945" gradientTransform="matrix(-1 0 0 1 1279.6 0)"><stop offset="0" stop-color="#fff"/><stop offset=".54" stop-color="#738491"/><stop offset=".906" stop-color="#19344a"/></linearGradient><path fill="url(#a)" d="M659.027 748.909l-.105-.077c.035-.021.071.012.105.077z"/><linearGradient id="b" gradientUnits="userSpaceOnUse" x1="933.75" y1="788.52" x2="941.863" y2="510.663" gradientTransform="matrix(-1 0 0 1 1279.6 0)"><stop offset="0" stop-color="#fff"/><stop offset=".54" stop-color="#738491"/><stop offset=".906" stop-color="#19344a"/></linearGradient><path fill="url(#b)" d="M31.034 565.438a2635.963 2635.963 0 0127.523-3.604c1.249-.152 2.498-.304 3.761-.456.256-.041.525-.083.795-.11 2.541-.317 5.139-.635 7.765-.952.752-.097 1.504-.18 2.271-.276 4.727-.58 9.567-1.16 14.493-1.74h.014c3.378-.4 6.799-.801 10.249-1.215 3.478-.4 6.998-.801 10.532-1.216H108.48c.014-.014.028-.014.042-.014 10.078-1.159 20.355-2.319 30.674-3.479.185-.027.369-.041.554-.055.255-.042.511-.069.781-.097h.014c1.391-.166 2.796-.318 4.202-.47a1.12 1.12 0 01.227-.027 8902.6 8902.6 0 0118.056-2.017l5.976-.662c4.869-.539 9.695-1.077 14.479-1.603 4.5-.497 8.957-.98 13.357-1.464.809-.096 1.618-.193 2.413-.275.142-.015.298-.028.44-.042 9.113-1.008 17.984-1.988 26.444-2.927.355-.056.71-.083 1.065-.125 4.471-.497 8.829-.994 13.059-1.478 1.32-.138 2.625-.29 3.903-.428 9.16-1.04 17.639-2.021 25.219-2.923.766-.092 1.523-.184 2.266-.271 14.077-1.689 24.827-3.103 30.741-4.124 41.165-7.139-22.711-9.997 0-15.714 6.823-1.717 31.19-4.465 62.684-7.586 2.512-.253 5.072-.501 7.674-.759 7.471-.728 15.278-1.474 23.284-2.224 1.552-.151 3.108-.295 4.675-.446 2.181-.202 4.376-.405 6.582-.612l6.07-.566c2.016-.184 4.041-.372 6.071-.557 10.376-.962 20.885-1.919 31.28-2.863.469-.046.937-.087 1.406-.129 4.807-.437 9.581-.874 14.308-1.303.714-.063 1.429-.128 2.139-.192 22.664-2.063 44.055-4.01 61.438-5.676 3.359-.322 6.567-.635 9.61-.935 13.338-1.312 23.412-2.397 28.56-3.148h.01c.378-.041.748-.096 1.069-.151.17-.027.336-.056.497-.083 2.068-.345 3.804-.764 5.262-1.233.695-.23 1.329-.47 1.902-.718 4.585-2.012 5.371-4.755 5.03-7.494-.483-3.797-3.132-7.576-.847-9.38.875-.686 2.475-1.086 5.19-1.086 2.115 0 5.086-.176 8.668-.483.511-.047 1.036-.093 1.575-.144 4.774-.441 10.476-1.086 16.608-1.841 2.995-.373 6.094-.769 9.236-1.183l.577-.078 1.146-.152c5.219-.699 10.518-1.436 15.642-2.168 4.556-.648 8.976-1.293 13.064-1.896.095-.018.194-.032.293-.046l.384-.055c1.575-.235 3.099-.461 4.561-.677 10.438-1.569 17.673-2.711 17.673-2.711l-11.711-2.651-7.514-1.703-1.145-.258-1.202-.271-16.849-3.815-5.153-1.169-.114-.028-.019-.005-2.2-.497-10.873-2.458s-.738-.262-2.115-.745c-.005-.005-.009-.005-.014-.009h-.009a904.427 904.427 0 01-9.288-3.333c-3.151-1.146-6.842-2.485-10.901-3.99s-8.488-3.176-13.145-4.957c-3.648 4.073-7.821-.732-14.436-5.606-.824-1.975-1.604-3.452-2.385-4.57-3.279-4.736-6.53-2.651-12.42-1.45-2.2-1.133-4.074-1.795-5.806-2.361s-3.322-1.036-4.954-1.768c.497.097.866.138.866.138l-.923-.731-.369-.47-.369-.275.738-.125h.369s.369 0 .185-.124-.369-.497-.369-.497-.554-.014-.554-.317-.369-.553-.369-.553l1.107.124c-.369-.372-.738-.704-.738-.704v-.358c0-.305.369-.29 0-.663-.156-.166-.284-.414-.369-.636a2.15 2.15 0 00-.142-.772c.042-.208.127-.58.127-.884 0-.166-.028-.304-.099-.387-.255-.304-.937-2.265-.937-2.265s0 .027-.028.083c-.085.262-.327 1.008-.355 1.242-.042.263-.042.636-.227.76-.071.041-.113.055-.142.083-.071.014-.114.055-.228.29-.113.234.043.317.114.414a.559.559 0 01-.114.207c-.369.248-.738.124-.369.248.057.015.128.042.199.069-.085.263-.085.566-.057.856-.142.207-.156.331-.326.566a5.148 5.148 0 00-.369.607h.553s-.553.745-.553.87v.497c0 .124.369 0 0 .372-1.86-2.099-3.917-4.101-7.126-3.728-1.462-2.265-1.845 3.272-8.034-3.314-.128 2.9-.852 4.267-1.803 4.709l-.937-.746-1.704-1.035.682-.11c1.874.69 3.236-.346 3.236-.346l-3.748-2.513-1.022-.912h3.236l-2.555-1.946-.511-.456 2.214.221-1.533-.801-1.192-1.256c0-.566 2.215 0 0-3.425-.199-.304-.567-.746-.639-1.174.469.097.809.138.809.138l-.852-.677-.341-.442-.34-.249.681-.11h.341s.34 0 .17-.125c-.17-.11-.341-.456-.341-.456s-.511-.014-.511-.29c0-.276-.34-.511-.34-.511l1.022.125c-.341-.346-.682-.663-.682-.663v-.332c0-.276.341-.262 0-.607a1.454 1.454 0 01-.34-.594c0-.262-.071-.497-.142-.704.042-.193.114-.539.114-.815 0-.152-.029-.29-.085-.359-.227-.276-.866-2.099-.866-2.099s0 .028-.028.083c-.071.235-.298.939-.327 1.146-.042.249-.042.594-.213.705-.057.041-.099.055-.128.069-.057.027-.099.055-.213.276-.099.207.057.29.1.373a.356.356 0 01-.1.193c-.34.235-.681.125-.34.235.057.014.127.042.184.069-.085.235-.071.511-.042.773-.142.207-.156.317-.312.524-.17.235-.341.58-.341.58h.511s-.511.677-.511.801v.456c0 .11.341 0 0 .345-.341.331-.341.801-.341.801s.682-.125.511 0c-.142.097-.397.442-.482.552.156-.097.809-.497.653.014a5.197 5.197 0 01-.511 1.146c.014 0 .042-.014.114-.042-.54.387-1.136 2.099-1.136 2.099l1.192-.345s0 1.602-1.022 2.402a1.203 1.203 0 01-.142.125c-.127-.677-.227-1.216-.312-1.423 0-1.698-3.009 4.93-3.066-.663h1.704l-1.859-1.408c-.042-.097-.114-.152-.17-.138l-1.774-1.354c0-.359.014-.746.028-1.16l2.271.235-2.697-1.422-2.101-2.209c0-1.008 3.903 0 0-6.048-.355-.539-.994-1.312-1.122-2.058.823.166 1.419.235 1.419.235l-1.301-1.041-.004-.004-.199-.157-.61-.759-.596-.456 1.207-.193h.596s.61 0 .298-.207c-.298-.207-.596-.801-.596-.801s-.894-.028-.894-.525c-.014-.483-.61-.897-.61-.897l1.803.207c-.596-.607-1.192-1.16-1.192-1.16s-.014-.097-.014-.58.61-.456 0-1.077c-.256-.263-.44-.663-.596-1.036 0-.47-.1-.884-.227-1.243.071-.332.199-.953.199-1.436 0-.276-.043-.511-.156-.635-.412-.497-1.519-3.701-1.519-3.701s-.014.055-.042.138c-.142.428-.54 1.657-.582 2.016-.071.442-.071 1.05-.369 1.257a.824.824 0 01-.241.11c-.099.055-.17.11-.369.497-.185.359.085.511.185.663a1.302 1.302 0 01-.185.345c-.596.4-1.192.193-.596.4.1.027.213.069.313.11-.142.414-.128.911-.071 1.381-.241.359-.27.552-.539.925-.298.4-.61 1.008-.61 1.008h.908s-.908 1.215-.908 1.409v.814c0 .193.61 0 0 .594-.596.608-.596 1.422-.596 1.422s1.207-.207.908 0c-.298.193-.866.953-.908.994.099-.055 1.49-.967 1.207.014a7.283 7.283 0 01-.161.465c-.307.792-.709 1.491-.748 1.538a.73.73 0 00.185-.055c-.27.193-.539.58-.795 1.021l-2.441-1.85-.596-.552 2.612.276-.804-.418-.999-.521-1.419-1.491c0-.677 2.626 0 0-4.06-.227-.359-.667-.87-.738-1.367.54.097.937.152.937.152l-1.008-.801-.397-.511-.397-.304.795-.138h.412s.397 0 .199-.138c-.199-.125-.397-.539-.397-.539s-.61-.014-.61-.345-.397-.594-.397-.594l1.207.125c-.412-.4-.809-.773-.809-.773v-.387c0-.317.397-.304 0-.718-.17-.18-.298-.442-.397-.705 0-.304-.071-.594-.156-.829.043-.221.128-.635.128-.966a.971.971 0 00-.019-.207.488.488 0 00-.081-.221c-.284-.317-1.022-2.472-1.022-2.472s-.014.042-.028.097c-.085.276-.354 1.105-.397 1.354-.042.29-.042.704-.241.828-.071.056-.114.069-.156.083-.071.028-.113.069-.232.313-.004.005-.004.014-.009.019-.127.249.042.345.114.442a.709.709 0 01-.114.234c-.412.263-.809.138-.412.263l.213.083c-.085.276-.085.608-.057.925-.156.235-.17.373-.355.622a4.759 4.759 0 00-.397.676h.596s-.596.801-.596.939v.538c0 .138.397 0 0 .415-.412.4-.412.939-.412.939s.809-.138.61 0c-.17.124-.482.524-.582.649.185-.11.965-.566.781.028-.199.649-.582 1.312-.596 1.353 0 0 .042-.014.114-.042-.639.456-1.334 2.472-1.334 2.472l1.419-.4s0 1.892-1.221 2.831c-.913.718-1.59 1.354-2.129 1.975-.17.198-.331.396-.482.594-.61.815 2.086-.829 1.008.677-2.626 3.646-.199 2.969-.199 2.969l-2.413 2.431c.156-.056 3.79-1.588 2.413 0l-.383.456c-.213.083-.412.138-.625.221-.213.594-.44 1.091-.653 1.519-.255.373-.469.69-.596.911-2.626 3.19-5.706-4.115-9.142-7.898l.767.083c-.44-.442-.88-.856-.88-.856v-.415c0-.359.44-.345 0-.801-.024-.023-.042-.046-.062-.069-.17-.189-.293-.447-.393-.69 0-.345-.071-.649-.17-.912.057-.249.156-.704.156-1.063-.015-.208-.043-.373-.114-.47-.313-.359-1.122-2.72-1.122-2.72s-.014.042-.042.097c-.099.318-.383 1.215-.426 1.491-.042.318-.042.773-.27.912-.085.055-.128.069-.17.097-.085.027-.128.069-.27.359-.142.262.057.373.127.483a.702.702 0 01-.127.249c-.44.304-.88.152-.44.304.071.028.142.055.228.083-.1.304-.1.676-.057 1.021-.17.249-.199.401-.383.649a3.188 3.188 0 00-.965.037c-3.038.584-4.693 5.634-4.939 9.146a23.686 23.686 0 01-.667 4.35l-.242-.138-1.845-1.947c0-.883 3.421 0 0-5.302-.312-.47-.88-1.146-.979-1.809.71.138 1.235.221 1.235.221l-1.32-1.063-.525-.676-.525-.387 1.05-.18h.525s.539 0 .27-.18c-.27-.179-.525-.704-.525-.704s-.795-.014-.795-.456c0-.428-.525-.787-.525-.787l1.576.18a31.023 31.023 0 00-.417-.41c-.355-.345-.634-.612-.634-.612v-.497c0-.428.525-.415 0-.953-.227-.221-.397-.58-.525-.912a2.88 2.88 0 00-.213-1.091c.071-.29.184-.829.184-1.256 0-.249-.042-.442-.142-.566-.355-.428-1.32-3.245-1.32-3.245s-.028.056-.042.125c-.128.373-.468 1.45-.511 1.768-.071.4-.071.925-.327 1.104a.91.91 0 01-.213.097c-.085.042-.156.097-.327.428-.156.331.085.456.156.58-.042.138-.085.235-.156.304-.525.359-1.05.179-.525.359.085.027.185.069.284.097-.128.373-.128.801-.071 1.215-.213.304-.227.483-.469.815-.27.345-.525.884-.525.884h.78s-.78 1.063-.78 1.243v.704c0 .18.525 0 0 .525-.54.539-.54 1.243-.54 1.243s1.064-.18.795 0c-.255.166-.752.842-.781.884.071-.055 1.306-.856 1.05 0s-.766 1.712-.794 1.768c.014 0 .071-.028.17-.055-.837.607-1.76 3.245-1.76 3.245l1.859-.539s-.014.912-.355 1.892l-3.335-2.237c-.029-.055-.057-.097-.057-.097h-.099l-.767-.524c-.028-.456-.582-.829-.582-.829l1.746.193a50.244 50.244 0 00-1.164-1.119h3.293l-3.917-2.969a2.815 2.815 0 00-.185-.828c0-.028.014-.056.014-.069l2.668.262-2.498-1.298c0-.069.009-.138.009-.207.005-.028.005-.055.005-.083 0-.262-.042-.483-.156-.621-.199-.235-.554-1.105-.866-1.934.738-.456 1.249-1.436-1.008-4.929-.313-.498-.923-1.229-1.036-1.933.766.152 1.32.234 1.32.234l-1.405-1.146-.568-.704-.554-.428 1.122-.18h.568s.554 0 .284-.193c-.284-.193-.567-.76-.567-.76s-.838-.014-.852-.483c0-.456-.554-.843-.554-.843l1.689.193a41.098 41.098 0 00-.984-.948c-.095-.087-.152-.143-.152-.143v-.539c0-.014 0-.027.014-.042v-.014c.043-.4.535-.396-.014-.953-.241-.249-.426-.622-.554-.98 0-.442-.099-.829-.227-1.16.071-.318.199-.898.184-1.354 0-.249-.042-.469-.142-.594-.383-.469-1.419-3.466-1.419-3.466l-.043.124c-.127.401-.497 1.547-.553 1.892-.057.414-.057.98-.341 1.173-.1.069-.17.083-.227.111-.1.042-.156.097-.341.456-.17.345.071.483.17.621a.916.916 0 01-.17.332c-.568.373-1.121.18-.568.373.1.027.199.069.298.11-.128.387-.128.856-.071 1.298-.228.332-.242.511-.511.856-.27.386-.554.953-.554.953h.837s-.071.083-.156.221c-.133.18-.322.451-.469.681-.123.193-.213.359-.213.424v.759c0 .18.554 0 0 .566-.568.566-.568 1.325-.568 1.325s1.122-.193.852 0c-.284.18-.824.898-.852.939.085-.056 1.405-.912 1.122 0-.27.911-.809 1.836-.837 1.892.014 0 .071-.028.17-.055-.894.635-1.859 3.466-1.859 3.466l1.973-.566s0 2.638-1.689 3.963a24.432 24.432 0 00-2.167 1.878 15.476 15.476 0 00-1.51 1.712c-.837 1.146 2.924-1.16 1.42.953-3.677 5.109-.284 4.156-.284 4.156l-3.378 3.411c.213-.097 5.309-2.223 3.378 0-1.973 2.265-3.393 4.723-3.393 4.723s1.661.124 2.129.828a2.17 2.17 0 01-.752-.345c-1.107-.276-2.186-.704-3.222-1.091h.114l-1.789-1.353.767.069-2.101-1.091-.113-.083-.497-.524c.1-.014.185-.042.071-.11-.028-.028-.057-.056-.071-.083l2.598.276-2.058-1.077-.795-.842c.397-.249.695-.705.355-1.768.326-.497.27-1.464-1.15-3.659-.042-.069-.114-.152-.17-.235.213.028.341.042.341.042l-.653-.511c-.17-.276-.312-.566-.369-.856.625.125 1.079.18 1.079.18l-1.122-.898h.341s.483 0 .241-.151c-.241-.166-.482-.649-.482-.649s-.426-.014-.625-.193l.511-.083h.455s.454 0 .227-.166c-.17-.11-.341-.4-.412-.524h.085c-.081-.083-.161-.161-.236-.235-.388-.382-.715-.69-.715-.69v-.193l1.051.125c-.369-.373-.738-.718-.852-.829.015-.069.015-.138-.057-.249v-.249c0-.359.454-.345 0-.815-.199-.193-.355-.497-.468-.787 0-.359-.071-.676-.17-.939.057-.262.156-.718.156-1.091-.014-.207-.042-.387-.128-.483-.17-.194-.482-.98-.738-1.671 0-.005 0-.005-.004-.009-.223-.603-.407-1.123-.407-1.123s-.014.042-.028.11c-.042.11-.099.317-.17.539-.014-.042-.028-.055-.028-.055s-.014.042-.028.11v.005c-.118.336-.426 1.307-.468 1.597-.014.083-.028.18-.043.276-.071.055-.127.069-.17.083-.071.042-.128.083-.27.373-.085.166-.042.276.014.359h-.014c-.085.028-.142.083-.298.387a.474.474 0 00-.042.18c-.298.083-.455.028-.114.152.057.014.128.042.199.069.014.014.028.028.028.042a2.729 2.729 0 00-.057.345s0 .014-.014.014c-.468.317-.951.166-.468.317.071.028.156.069.241.097a2.542 2.542 0 00-.071.815c-.028.041-.057.083-.085.138-.227.304-.468.76-.468.76h.227l-.085.124c-.241.318-.482.801-.482.801h.412a.611.611 0 00-.071.138v.387c-.17.249-.341.525-.341.594v.649c-.114.276-.114.525-.114.525s.043-.014.1-.014c-.469.47-.469 1.091-.469 1.091s.965-.151.724 0c-.227.166-.695.773-.724.801.071-.028.809-.511.951-.276-.17.373-.326.663-.34.69 0-.014.057-.027.127-.055-.724.525-1.504 2.803-1.504 2.803l.127-.042c-.326.718-.553 1.381-.553 1.381l1.675-.483s0 .221-.042.539c-.199.497-.511.994-.979 1.353-1.363 1.077-2.285 1.989-2.967 2.914-.341.469.284.207.809.069a14.176 14.176 0 00-1.363 1.546c-.383.525.341.207.909.069-1.278 1.215-3.421 5.634-5.408-2.583-1.476.373-2.541 1.395-3.478 1.947l-.483-.511c0-.594 2.3 0 0-3.563-.213-.317-.582-.773-.653-1.215.468.097.823.138.823.138l-.88-.704-.355-.456-.355-.262.71-.125h.354s.355 0 .17-.11c-.17-.125-.354-.483-.354-.483s-.525-.014-.525-.304-.355-.525-.355-.525l1.064.125c-.354-.359-.709-.69-.709-.69v-.332c0-.29.355-.276 0-.635-.156-.166-.27-.4-.355-.621 0-.276-.057-.525-.142-.732.057-.193.127-.552.127-.842-.014-.166-.028-.304-.099-.373-.085-.101-.227-.419-.374-.782-.255-.631-.521-1.399-.521-1.399s-.014.028-.028.083c-.071.249-.312.966-.341 1.188l-.014.115c-.033.244-.052.521-.199.617-.071.042-.113.056-.142.069-.071.028-.1.069-.213.29-.114.221.042.304.099.387a.711.711 0 01-.099.207c-.355.235-.71.124-.355.235.057.027.113.042.185.069-.085.249-.085.539-.043.815-.142.207-.156.331-.326.552a3.4 3.4 0 00-.241.373 1.583 1.583 0 00-.128-.552c.057-.235.142-.649.142-.966 0-.18-.028-.345-.114-.428-.161-.198-.492-1.05-.729-1.699-.161-.437-.279-.787-.279-.787s-.014.042-.028.097c-.052.143-.137.414-.218.681-.08.276-.156.547-.18.672-.042.304-.042.704-.241.842-.071.042-.128.055-.17.069-.057.042-.113.069-.241.332-.114.249.057.345.128.442a.896.896 0 01-.128.235c-.397.276-.809.138-.397.276.071.014.142.042.213.069-.099.276-.099.621-.057.925-.156.234-.17.373-.355.621-.213.276-.412.677-.412.677h.61s-.61.814-.61.953v.373l-4.33-2.914-1.391-1.243h4.4l-3.208-2.435-.27-.203-.695-.621 3.023.304-2.087-1.091-1.49-1.546-.005-.004-.137-.147c0-.428.895-.387 1.221-1.008.284-.525.17-1.519-1.221-3.66-.27-.414-.767-1.008-.852-1.588.625.125 1.079.18 1.079.18l-1.149-.925-.469-.594-.468-.345.937-.152h.454s.468 0 .241-.152c-.241-.166-.468-.621-.468-.621s-.696-.028-.696-.4c0-.387-.468-.69-.468-.69l1.391.152c-.454-.47-.923-.898-.923-.898v-.442c0-.373.469-.359 0-.829-.199-.208-.355-.511-.468-.801 0-.359-.071-.69-.17-.966.057-.262.156-.732.156-1.104 0-.208-.042-.387-.128-.498-.313-.373-1.164-2.844-1.164-2.844s-.014.042-.042.11c-.099.318-.397 1.271-.44 1.546-.057.346-.057.815-.298.967-.071.055-.128.069-.17.097-.085.027-.142.083-.284.373s.057.4.128.511a.57.57 0 01-.128.262c-.468.318-.937.166-.468.318.085.027.156.055.241.083-.099.332-.099.705-.057 1.077-.185.263-.199.414-.412.704-.241.318-.468.773-.468.773h.695s-.1.133-.222.309c-.204.29-.473.686-.473.782v.622c0 .166.468 0 0 .469-.469.47-.469 1.091-.469 1.091s.937-.152.696 0c-.199.138-.596.635-.653.746.213-.124 1.107-.663.895.028-.227.759-.667 1.505-.696 1.561 0 0 .057-.028.142-.042-.156.11-.326.317-.482.566a5.71 5.71 0 01-.156-.317c0-.318-.057-.608-.156-.856.057-.234.142-.649.142-.994 0-.179-.028-.345-.114-.442-.284-.331-1.036-2.541-1.036-2.541s-.014.027-.042.097c-.085.29-.355 1.132-.397 1.381-.042.317-.042.732-.255.87-.071.042-.114.055-.156.083-.071.028-.128.069-.255.332-.128.249.057.359.127.456a.898.898 0 01-.127.235c-.412.276-.824.138-.412.276l.213.083c-.1.29-.085.635-.057.953-.156.249-.17.387-.369.635-.028.055-.071.11-.099.166a32.454 32.454 0 01-.596-1.561h.213s.412 0 .213-.138c-.213-.124-.412-.539-.412-.539s-.596-.014-.596-.331c0-.332-.397-.608-.397-.608l1.192.138c-.397-.4-.795-.773-.795-.773v-.387c0-.317.397-.304 0-.718-.17-.166-.298-.442-.397-.69 0-.244-.047-.469-.109-.677a1.417 1.417 0 00-.047-.152c.057-.221.142-.621.128-.953 0-.18-.028-.332-.1-.428-.27-.317-1.008-2.458-1.008-2.458s-.014.041-.028.097c-.099.276-.355 1.091-.397 1.339-.042.304-.042.704-.241.828a.44.44 0 01-.156.083c-.071.028-.113.069-.241.332-.127.234.057.331.114.428a.597.597 0 01-.114.235c-.397.276-.809.138-.397.276.057.014.128.042.199.069a1.4 1.4 0 00-.057.281 2.74 2.74 0 00.014.645c-.17.235-.185.359-.369.607-.199.276-.397.677-.397.677h.61s-.61.801-.61.939v.539c0 .138.397 0 0 .4s-.397.939-.397.939.795-.138.596 0c-.17.11-.482.524-.568.649.17-.11.951-.566.767.028-.028.11-.071.207-.099.317-.383.152-.639.069-.242.193a.472.472 0 00.128.055c-.17.415-.369.746-.383.773a.603.603 0 00.128-.042c-.639.456-1.32 2.458-1.32 2.458l1.349-.387c-.199.262-.625.856-.625.98v.649c0 .152.482 0 0 .469-.156.18-.27.359-.341.539-.057.055-.128.111-.185.166-.852.663-1.504 1.256-2.001 1.836l-.004.004a3.397 3.397 0 00-.279.313 3.988 3.988 0 00-.71.364c-1.036.63-2.148 1.685-3.137 2.191l-.525-.98-.767-1.284-.766-1.284h2.299l-2.683-1.919-.185-1.146 1.093-.124h.01l1.183-.138-1.888-1.436-.014-.014-.767-.594-1.533-1.67h4.017l-2.867-1.409-2.101-2.058 3.052.511-3.25-2.555-.341-.322-.61-.575 1.15-.511 3.435.511-3.251-2.568-1.902-1.146.767-.138c2.101.773 3.62-.373 3.62-.373l-4.202-2.831-1.15-1.022h3.634l-2.867-2.182-.568-.511 2.484.262-1.718-.897-1.349-1.409c0-.649 2.484 0 0-3.853-.213-.345-.625-.829-.695-1.298.511.097.894.152.894.152l-.951-.773-.383-.483-.383-.29.766-.125h.383s.369 0 .185-.124c-.185-.138-.383-.511-.383-.511s-.568-.014-.568-.331c0-.318-.383-.566-.383-.566l1.149.125c-.383-.387-.766-.746-.766-.746v-.359c0-.303.383-.29 0-.69a1.506 1.506 0 01-.322-.501c-.024-.051-.043-.106-.062-.161 0-.29-.071-.552-.156-.787a3.497 3.497 0 00.113-.662c.015-.083.015-.166.015-.249 0-.166-.028-.318-.1-.401-.255-.317-.965-2.347-.965-2.347s0 .028-.028.083c-.085.263-.326 1.05-.369 1.285-.042.276-.042.663-.227.787a.44.44 0 01-.156.083c-.071.028-.113.055-.227.304-.113.235.042.332.114.428a.757.757 0 01-.081.175c-.009.019-.023.032-.033.046-.127.097-.27.125-.369.152-.1.027-.171.027-.171.041 0 0 .043.014.156.056a.879.879 0 00.199.069c-.085.276-.085.594-.057.884-.081.129-.123.221-.175.327a1.502 1.502 0 01-.166.267c-.185.249-.383.635-.383.635h.582s-.582.773-.582.897v.511c0 .125.383 0 0 .387s-.383.897-.383.897.766-.124.582 0c-.184.125-.553.608-.567.635.057-.027.937-.621.752 0a6.503 6.503 0 01-.567 1.284s.042-.014.113-.042c-.596.442-1.263 2.348-1.263 2.348l1.334-.387s0 1.795-1.135 2.692c-1.15.898-1.917 1.671-2.484 2.444-.582.759 1.973-.787.951.635-2.484 3.466-.199 2.817-.199 2.817l-2.285 2.306c.142-.056 3.605-1.505 2.285 0-1.334 1.546-2.285 3.203-2.285 3.203s2.985.23.61 2.025c-.014.009-.028.023-.042.032-.01-.009-.014-.023-.019-.032-.09-.138-.137-.244-.137-.244s-.809-.014-.809-.47c0-.442-.554-.801-.554-.801l1.632.179c-.539-.552-1.079-1.049-1.079-1.049v-.511c0-.442.54-.428 0-.98-.241-.235-.412-.594-.554-.939a3.03 3.03 0 00-.213-1.119c.085-.304.199-.856.185-1.298 0-.249-.042-.456-.142-.58-.369-.442-1.363-3.328-1.363-3.328l-.042.124c-.127.373-.482 1.492-.525 1.823-.057.4-.057.939-.341 1.119-.085.069-.156.083-.213.11-.085.042-.156.097-.327.442-.156.332.071.456.17.594-.057.138-.099.249-.17.318-.539.359-1.079.179-.539.359.085.027.185.069.284.11-.128.373-.114.815-.071 1.243-.213.318-.227.497-.483.829-.27.373-.539.912-.539.912h.809s-.639.856-.781 1.173c-.426-1.008-.895-2.389-.895-2.389l-.042.124c-.128.387-.497 1.519-.54 1.851-.071.414-.071.966-.34 1.16-.1.069-.17.083-.213.11-.1.041-.17.083-.341.442-.17.345.071.469.17.607 0 .004-.005.004-.005.009-.052.133-.095.239-.166.308-.554.373-1.107.193-.554.373.085.042.185.069.298.11-.128.387-.128.842-.085 1.271-.213.317-.241.511-.482.842-.284.373-.554.939-.554.939h.823s-.823 1.104-.823 1.298v.732c0 .193.554 0 0 .566-.554.553-.554 1.298-.554 1.298s1.107-.193.824 0c-.27.179-.795.884-.824.925.085-.056 1.363-.898 1.107 0-.27.897-.809 1.795-.837 1.85.014 0 .071-.014.17-.042-.88.622-1.832 3.383-1.832 3.383l.397-.111c.114.18 1.051-.249 1.533-.262-.009.106-.019.249-.038.419a6.717 6.717 0 01-.09.575c-.639.884-1.05 1.588-1.292 2.126-.27-.58-.695-1.795-.695-1.795s0 .027-.014.083c-.085.221-.298.911-.327 1.118-.042.235-.042.58-.213.69-.057.042-.1.055-.128.069-.057.014-.099.055-.199.262-.042.083-.042.152-.014.193-.17-.028-.327-.069-.497-.11l-2.47-1.657-1.604-1.436h5.082l-.218-.166-3.799-2.873-.795-.718 3.478.359-2.413-1.256-1.874-1.975c0-.897 3.478 0 0-5.385-.298-.47-.88-1.16-.979-1.823.724.138 1.249.207 1.249.207l-.591-.474-.743-.603-.54-.677-.525-.4 1.065-.179h.539s.525 0 .27-.18c-.27-.179-.539-.718-.539-.718s-.795-.014-.795-.456c-.014-.442-.54-.801-.54-.801l1.604.18c-.539-.525-1.064-1.022-1.064-1.022s-.014-.083-.014-.511.54-.415 0-.967c-.227-.235-.397-.58-.525-.925a3.25 3.25 0 00-.213-1.104c.071-.304.185-.842.185-1.284-.014-.235-.042-.442-.142-.566-.231-.272-.7-1.478-1.017-2.353-.052-.147-.104-.285-.147-.409-.113-.318-.184-.525-.184-.525s-.015.055-.043.138c-.028.083-.071.221-.113.359-.014.037-.024.078-.038.12-.151.47-.336 1.073-.374 1.303-.057.4-.057.939-.327 1.118-.099.069-.156.083-.213.111-.085.027-.142.083-.312.428-.17.331.071.456.156.58a.949.949 0 01-.156.318c-.54.359-1.079.179-.54.359.085.027.185.055.284.097-.127.373-.127.814-.071 1.229-.213.317-.241.497-.483.829-.27.359-.539.897-.539.897h.809s-.809 1.077-.809 1.256v.704c0 .18.539 0 0 .539-.525.539-.525 1.257-.525 1.257s1.064-.18.795 0c-.255.179-.767.856-.795.897.071-.055 1.32-.87 1.064 0a6.835 6.835 0 01-.345.911c-.218.483-.431.847-.449.884 0 0 .057-.014.156-.055-.852.607-1.774 3.287-1.774 3.287l1.874-.539s0 2.513-1.604 3.77c-1.533 1.202-2.569 2.237-3.35 3.259a2.952 2.952 0 00-.113-.373c.071-.276.17-.76.17-1.16-.015-.207-.043-.4-.128-.511-.341-.387-1.221-2.969-1.221-2.969l-.042.124c-.071.235-.256.801-.369 1.215a12.42 12.42 0 00-.752-1.284c-.255-.387-.709-.953-.809-1.491.596.11 1.036.166 1.036.166l-1.093-.884-.44-.539-.44-.331.88-.152h.426s.44 0 .227-.138c-.227-.152-.44-.594-.44-.594s-.653-.014-.653-.373-.44-.649-.44-.649l1.306.138c-.426-.442-.866-.842-.866-.842v-.414c0-.359.44-.332 0-.787-.184-.193-.326-.483-.44-.759 0-.332-.071-.635-.17-.897.057-.249.156-.69.142-1.049 0-.194-.028-.359-.114-.456-.298-.359-1.093-2.692-1.093-2.692s-.014.042-.042.097c-.099.304-.383 1.201-.426 1.463-.042.332-.042.773-.27.912-.071.055-.127.069-.17.097-.071.027-.128.069-.256.345-.142.276.057.373.128.483a.992.992 0 01-.128.249c-.44.304-.88.152-.44.304a.906.906 0 01.227.083c-.099.304-.099.663-.057.994-.17.263-.185.401-.397.677-.213.29-.426.732-.426.732h.653s-.213.285-.393.557c-.142.207-.26.405-.26.465v.594c0 .152.426 0 0 .442-.44.442-.44 1.021-.44 1.021s.866-.138.653 0c-.185.125-.525.566-.625.705.199-.111 1.036-.622.837.027a7.228 7.228 0 01-.653 1.464.93.93 0 00.142-.042c-.483.345-.979 1.464-1.25 2.14l-.639-.511c-.156-.304-.326-.622-.497-.953l.426-.069h.468s.468 0 .241-.152a1.54 1.54 0 01-.355-.428c.142 0 .383-.041.185-.179-.284-.18-.553-.732-.553-.732s-.696-.027-.809-.387l1.292.138c-.468-.469-.937-.897-.937-.897v-.042l.724.069-.681-.663c.099-.207.34-.276-.042-.663-.128-.124-.228-.304-.313-.483.114-.235.369-.318-.071-.76-.029-.046-.066-.087-.104-.133a1.594 1.594 0 00-.08-.115c-.028-.11-.057-.207-.085-.304.057-.262.156-.732.156-1.118 0-.221-.042-.401-.128-.497-.085-.111-.227-.401-.369-.746.014-.166.042-.345.028-.497 0-.249-.028-.469-.142-.594-.369-.442-1.377-3.383-1.377-3.383s-.028.042-.057.124c-.114.387-.483 1.519-.525 1.851-.071.414-.071.966-.34 1.146-.1.069-.17.083-.213.11-.099.042-.156.097-.34.442-.17.345.071.47.17.607-.057.138-.1.249-.17.318-.554.373-1.107.193-.554.373.1.028.199.069.298.111-.127.373-.127.829-.071 1.256-.227.332-.241.511-.497.856-.005.009-.01.014-.019.023a5.9 5.9 0 00-.464.75c-.809.083-1.703.193-2.952-.483-1.737 2.564-5.271 1.349-6.794-.354-.492-.552-.771-1.16-.715-1.703 0 .124-.057.234-.127.359l-.313-.911s-.014.041-.042.11c-.1.317-.383 1.215-.426 1.491-.014.027-.014.042-.014.069a7.89 7.89 0 01-1.05.562c-1.897.856-4.552 1.404-5.139 1.151-.118-.501-.255-.897-.421-1.197-1.045-1.975-2.952-.037-4.703-.06-.015-.083-.057-.193-.213-.346-.227-.221-.383-.566-.511-.883 0-.387-.085-.746-.199-1.049.071-.276.17-.787.17-1.202 0-.235-.042-.428-.128-.539-.355-.414-1.277-3.121-1.277-3.121l-.042.125c-.114.345-.454 1.38-.497 1.698-.057.373-.057.884-.312 1.049-.015.014-.015.014-.029.014-1.263-2.886-3.619-4.032-5.933-3.59a5.315 5.315 0 00-1.562.552 2.944 2.944 0 00-.355.193c-.17.101-.34.207-.501.327a8.023 8.023 0 00-1.642 1.606c-.199-.138-.397-.525-.397-.525s-.596-.014-.596-.345c0-.331-.397-.594-.397-.594l1.207.138c-.412-.414-.809-.773-.809-.773v-.386c0-.318.397-.304 0-.718-.17-.18-.298-.442-.397-.69 0-.317-.071-.594-.156-.829a3.8 3.8 0 00.042-.184v-.004c.047-.23.095-.525.085-.778 0-.032 0-.06-.005-.087-.005-.143-.038-.258-.095-.327-.071-.083-.156-.276-.27-.511v-.014c-.327-.746-.738-1.947-.738-1.947s-.014.042-.028.097c-.057.161-.161.488-.251.792-.028.083-.052.166-.076.244-.028.125-.057.235-.071.304 0 .014-.005.028-.005.042-.038.295-.047.667-.236.801a.64.64 0 01-.156.069c-.071.027-.113.069-.241.332-.128.249.057.345.113.442a.729.729 0 01-.113.234c-.412.263-.809.125-.412.263.071.027.142.041.213.083-.085.276-.085.608-.042.912-.17.234-.185.373-.369.621-.199.263-.397.663-.397.663h.596s-.596.814-.596.939v.539c0 .138.397 0 0 .414-.397.4-.397.939-.397.939s.795-.138.596 0c-.156.11-.468.511-.568.635.17-.11.951-.566.767.028a6.497 6.497 0 01-.596 1.353c.014-.014.057-.028.127-.042-.639.456-1.334 2.458-1.334 2.458l1.405-.4s0 .363-.1.852c-.132.621-.43 1.44-1.107 1.965-1.192.939-2.001 1.74-2.598 2.554-.596.801 2.072-.828 1.008.663-.483.677-.795 1.201-.979 1.616-.709-.732-1.533-1.74-2.526-3.052.354 1.215.582 6.435-.185-.221-.454 5.51-.085 10.356-2.384 1.105-1.86 4.046-3.407-1.339-4.883.939.213-.69-.029-1.892-1.562-4.253-.241-.387-.667-.916-.895-1.455a2.041 2.041 0 01-.142-.465c.766.152 1.32.221 1.32.221l-1.405-1.132-.568-.718-.553-.415 1.121-.193h.568s.554 0 .284-.193c-.284-.18-.567-.746-.567-.746s-.838-.027-.852-.483c0-.469-.553-.842-.553-.842l1.689.179a23.96 23.96 0 00-.511-.492c-.355-.341-.625-.585-.625-.585v-.538c0-.456.568-.442 0-1.022a1.943 1.943 0 01-.354-.511l-.047-.101a3.685 3.685 0 01-.151-.354c0-.442-.1-.828-.227-1.174.071-.317.198-.883.184-1.339 0-.262-.042-.483-.142-.607-.383-.456-1.419-3.466-1.419-3.466s-.014.055-.042.138c-.128.4-.497 1.546-.554 1.892-.057.414-.057.98-.341 1.174-.099.069-.17.083-.227.11-.1.042-.156.097-.341.456-.17.345.071.483.17.622a.75.75 0 01-.17.317c-.568.387-1.121.193-.568.387.1.028.199.069.298.11-.128.387-.128.856-.071 1.284-.156.235-.213.4-.327.594-.014.032-.033.064-.052.097-.033.051-.076.11-.118.18-.284.373-.568.939-.568.939h.837s-.042.06-.118.156c-.222.322-.719 1.031-.719 1.169v.759c0 .193.568 0 0 .566-.567.566-.567 1.325-.567 1.325s1.135-.193.852 0c-.255.152-.682.732-.809.912.255-.152 1.334-.815 1.093.027-.213.7-.577 1.395-.752 1.712-.057.101-.095.166-.099.18a.704.704 0 00.17-.055c-.895.649-1.86 3.466-1.86 3.466l1.973-.566s0 2.638-1.689 3.963c-1.689 1.326-2.825 2.458-3.662 3.59-.852 1.146 2.91-1.16 1.405.953a18.879 18.879 0 00-1.012 1.547c-1.367 2.389-.412 2.702.246 2.679-1.562 1.754-3.208.428-5.167-1.381.383-.188.866-.437.658-1.367-.114-.506-.431-1.215-1.083-2.223-.227-.359-.653-.856-.724-1.354.525.11.923.166.923.166l-.994-.801-.383-.497-.397-.29.781-.138h.397s.397 0 .199-.124c-.199-.138-.397-.524-.397-.524s-.582-.014-.582-.345c0-.318-.397-.58-.397-.58l1.178.124-.781-.759v-.373c0-.317.383-.304 0-.704-.17-.18-.298-.442-.397-.677 0-.317-.071-.58-.156-.814.057-.221.142-.622.127-.953 0-.166-.028-.317-.099-.414-.175-.207-.554-1.188-.786-1.832-.123-.34-.208-.584-.208-.584s0 .042-.028.097l-.151.483c-.099.322-.203.681-.231.829-.043.29-.043.69-.242.828a.624.624 0 01-.156.069c-.057.027-.114.069-.228.317-.127.249.043.345.114.442-.042.097-.071.166-.114.221-.397.262-.794.138-.397.262.057.028.128.055.199.083-.085.262-.085.594-.042.897-.156.235-.17.359-.354.607-.199.262-.398.663-.398.663h.596s-.596.788-.596.925v.525c0 .124.398 0 0 .387-.383.4-.383.925-.383.925s.781-.124.583 0l-.242.235c-.057-.166-.085-.262-.085-.262l-.042.124c-.029.111-.085.29-.156.483l-.057.083s.015-.014.043-.028c-.071.221-.142.47-.213.69-2.148-2.541-5.318 1.418-7.438 3.586-.937.953-1.666 1.556-2.016 1.109-.014.055-.028.097-.042.152l-.738-.498-.923-.824-.482-.433h.17c.511.055.994.055 1.434 0h2.867l-.823-.621c.355-.18.554-.318.554-.318l-3.463-2.32 2.555.262-2.115-1.104-1.647-1.74c0-.415.838-.4 1.192-.967h.852l-.696-.525c.028-.607-.284-1.588-1.349-3.231 0-.014-.014-.014-.014-.014l.596.055-.852-.442c-.255-.373-.54-.801-.596-1.215.639.125 1.093.193 1.093.193l-.658-.539-.506-.414-.482-.594-.469-.345.951-.166h.468s.468 0 .227-.152c-.227-.166-.468-.635-.468-.635s-.695-.014-.695-.4c-.014-.387-.483-.705-.483-.705l1.419.166c-.468-.483-.937-.912-.937-.912s-.014-.069-.014-.456c0-.373.482-.359 0-.842-.199-.207-.355-.511-.469-.815 0-.359-.071-.69-.185-.966.071-.262.17-.746.17-1.132-.014-.207-.042-.387-.128-.497-.326-.387-1.192-2.886-1.192-2.886s-.014.042-.028.111c-.113.331-.412 1.284-.454 1.574-.042.276-.057.635-.185.842l-1.349-1.091-.582-.732-.582-.428 1.164-.207h.582s.582 0 .284-.193c-.284-.193-.582-.773-.582-.773s-.866-.027-.866-.497c0-.483-.582-.87-.582-.87l1.746.193c-.582-.594-1.164-1.132-1.164-1.132v-.553c0-.469.582-.456 0-1.049a1.827 1.827 0 01-.246-.308 3.83 3.83 0 01-.336-.7c0-.456-.1-.856-.228-1.202.071-.331.199-.925.185-1.395 0-.046 0-.092-.005-.133-.014-.203-.057-.373-.137-.488-.014-.014-.014-.028-.028-.042-.426-.58-1.448-3.535-1.448-3.535s-.014.042-.042.138c-.127.4-.511 1.588-.568 1.947-.014.097-.028.208-.042.318a3.066 3.066 0 01-.047.373c-.042.226-.118.423-.265.525-.1.069-.17.083-.228.11-.099.042-.17.097-.355.47-.184.359.071.511.171.649a.833.833 0 01-.171.332c-.582.386-1.164.193-.582.386l.298.125c-.123.382-.127.838-.076 1.271 0 .023 0 .046.005.069-.227.332-.255.525-.525.884-.284.4-.583.98-.583.98h.88s-.88 1.173-.88 1.367v.787c0 .193.583 0 0 .58-.582.594-.582 1.367-.582 1.367s1.164-.193.88 0c-.284.193-.837.939-.88.98.099-.055 1.448-.939 1.164 0-.284.953-.838 1.892-.866 1.96.014-.014.071-.027.185-.055-.937.649-1.931 3.563-1.931 3.563l2.03-.58s0 2.734-1.746 4.101a30.576 30.576 0 00-1.864 1.588 16.292 16.292 0 00-1.926 2.126c-.866 1.174 3.023-1.201 1.462.98-3.79 5.275-.298 4.294-.298 4.294l-.653.663c-.256-.069-.511-.138-.767-.179-.256-.663-.469-1.298-.469-1.298s-.014.042-.042.11c-.071.221-.227.732-.34 1.119a5.32 5.32 0 00-2.129.387c-.866.345-1.689.911-2.47 1.616a2.21 2.21 0 01-.327-.566 2.42 2.42 0 00-.128-.746c.042-.193.114-.566.114-.856 0-.166-.028-.304-.1-.387-.241-.29-.908-2.223-.908-2.223s-.014.027-.028.083c-.085.249-.313.994-.355 1.215-.028.263-.028.635-.213.746-.071.055-.114.055-.142.083-.071.014-.113.055-.227.29-.099.221.057.304.114.4a.725.725 0 01-.114.207c-.355.235-.724.11-.355.235.057.027.128.042.185.069-.085.249-.085.552-.042.842-.142.208-.156.318-.327.553a3.62 3.62 0 00-.354.607h.539s-.539.718-.539.842v.483c0 .124.354 0 0 .373a1.185 1.185 0 00-.327.575c-.042.157-.042.267-.042.267s.724-.124.54 0c-.156.111-.426.47-.511.594.114-.069.468-.29.625-.249-.809 1.16-1.59 2.417-2.371 3.714-1.789-3.217-4.783-1.353-7.211.442l-.61-.4.88.083-2.569-1.339-1.079-1.132 1.944.193-.951-.497h2.001l-2.456-1.864s0-.004.005-.004c.123-.208.208-.47.18-.824l1.264.138-1.349-.718c-.156-.566-.483-1.326-1.05-2.306.397-.318.61-.925-.284-2.555.029 0 .071.014.071.014l-.099-.083c-.142-.249-.298-.525-.497-.829-.242-.359-.667-.884-.752-1.381.554.11.951.166.951.166l-.454-.359c.085 0 .539-.014.269-.193-.284-.193-.567-.773-.567-.773s-.568-.014-.767-.276c.071-.014.113-.042.085-.083l.426-.069h.397s.412 0 .199-.138c-.199-.138-.397-.539-.397-.539s-.27-.014-.44-.125l.781.083a25.071 25.071 0 00-.88-.856l.738.083c-.397-.401-.795-.773-.795-.773s-.009-.051-.014-.271v-.115c0-.317.412-.304 0-.718-.17-.18-.298-.442-.397-.705 0-.304-.071-.594-.156-.828.057-.221.142-.635.142-.967-.014-.18-.042-.332-.113-.428-.071-.069-.156-.262-.27-.497 0-.042.015-.083.015-.11-.015-.262-.042-.483-.156-.607-.383-.47-1.434-3.507-1.434-3.507s-.014.055-.042.138c-.085.249-.256.801-.397 1.257-.313-.814-.596-1.629-.596-1.629s-.015.055-.043.125c-.113.373-.454 1.436-.497 1.767-.071.387-.071.912-.327 1.091a.893.893 0 01-.213.097c-.085.042-.142.097-.312.428-.015.042-.015.069-.028.097-.128-.055-.242-.138-.242-.276 0-.359-.44-.649-.44-.649l1.32.138c-.44-.442-.88-.842-.88-.842v-.414c0-.359.44-.345 0-.788-.185-.193-.326-.483-.44-.759 0-.345-.071-.649-.17-.911.056-.235.156-.69.142-1.049 0-.193-.028-.359-.114-.456-.298-.359-1.093-2.692-1.093-2.692s-.014.042-.042.097c-.1.317-.383 1.201-.426 1.478-.043.317-.043.759-.27.911a.909.909 0 01-.17.083c-.071.027-.127.069-.27.359-.127.262.071.373.142.47a.75.75 0 01-.142.262c-.426.29-.866.138-.426.29.071.027.142.055.227.083-.099.304-.099.663-.057 1.008-.185.249-.199.4-.397.677-.213.29-.44.731-.44.731h.667s-.667.884-.667 1.022v.594c0 .138.44 0 0 .442s-.44 1.022-.44 1.022.88-.138.667 0c-.185.138-.54.566-.625.704.185-.11 1.036-.622.837.027-.213.718-.625 1.422-.653 1.478.014 0 .057-.027.127-.041-.44.322-.918 1.344-1.197 2.03-.151.373-.251.649-.251.649l1.533-.442s0 2.058-1.306 3.093c-1.32 1.021-2.186 1.905-2.853 2.789-.653.884 2.271-.911 1.093.732-2.839 3.963-.213 3.231-.213 3.231l-.369.373-4.429-2.969-1.334-1.188h4.23l-3.335-2.541-.682-.594 2.896.29-2.001-1.036-1.561-1.643c0-.364.69-.373 1.06-.81.388-.456.421-1.386-1.06-3.678-.256-.387-.724-.967-.823-1.519.61.125 1.05.18 1.05.18l-1.107-.897-.454-.566-.44-.332.894-.152h.44s.44 0 .228-.138c-.228-.152-.455-.608-.455-.608s-.653-.014-.667-.373c0-.373-.44-.663-.44-.663l1.334.138c-.44-.442-.894-.856-.894-.856v-.428c0-.345.454-.332 0-.787-.185-.193-.327-.497-.44-.773 0-.345-.071-.663-.17-.925.057-.249.156-.704.142-1.063 0-.207-.028-.373-.114-.469-.298-.359-1.122-2.734-1.122-2.734s-.014.028-.028.097c-.113.318-.397 1.229-.44 1.491-.042.332-.042.787-.27.925-.085.055-.128.069-.185.097-.071.028-.114.069-.27.359-.128.276.071.373.142.483a.742.742 0 01-.142.262c-.44.29-.88.152-.44.29.071.028.156.056.241.097-.114.304-.1.677-.071 1.022-.17.262-.185.4-.397.677-.213.304-.44.746-.44.746h.667s-.667.897-.667 1.049v.594c0 .152.44 0 0 .456-.44.442-.44 1.036-.44 1.036s.88-.138.667 0c-.185.138-.539.58-.639.718.199-.11 1.064-.635.852.027-.213.732-.639 1.45-.653 1.492l.128-.042c-.71.511-1.476 2.734-1.476 2.734l1.561-.442s0 1.344-.691 2.417c-.17.262-.378.511-.644.718-.411.317-.766.621-1.093.925a13.481 13.481 0 00-.852-1.666c-.128-.221-.27-.451-.426-.695-.313-.483-.909-1.202-1.022-1.892.752.152 1.306.221 1.306.221l-1.391-1.119-.554-.704-.553-.414 1.107-.18h.554s.554 0 .284-.193c-.284-.18-.567-.746-.567-.746s-.824-.014-.824-.47c0-.456-.553-.828-.553-.828l1.661.179c-.554-.552-1.107-1.063-1.107-1.063v-.525c0-.456.554-.442 0-1.008-.241-.235-.426-.608-.553-.953 0-.428-.1-.828-.227-1.146.085-.317.199-.884.199-1.339-.014-.249-.043-.456-.156-.58-.369-.456-1.391-3.411-1.391-3.411l-.042.125c-.128.387-.497 1.519-.54 1.864-.071.414-.071.966-.341 1.16-.099.055-.17.083-.227.11-.085.028-.156.083-.326.442-.17.345.071.47.156.607a.988.988 0 01-.156.318c-.568.373-1.122.193-.568.373.099.042.199.069.298.111-.127.386-.127.842-.071 1.284-.227.317-.241.497-.497.842-.284.373-.553.939-.553.939h.823s-.823 1.119-.823 1.298v.746c0 .18.553 0 0 .552-.554.566-.554 1.312-.554 1.312s1.107-.193.823 0c-.27.18-.795.884-.823.925.085-.056 1.377-.898 1.107 0a9.12 9.12 0 01-.837 1.864c.015 0 .071-.027.17-.055-.445.322-.908 1.197-1.258 1.975-.341.759-.573 1.436-.573 1.436l1.945-.566s0 2.61-1.675 3.908l-.113.11v-.4c0-.442.554-.428 0-.994-.242-.249-.426-.621-.568-.98 0-.428-.085-.814-.213-1.146.071-.318.199-.884.185-1.353v-.023c-.005-.239-.047-.451-.142-.57-.383-.456-1.405-3.438-1.405-3.438s-.028.042-.057.138c-.127.386-.483 1.533-.54 1.864-.057.415-.057.98-.341 1.174-.004.005-.009.005-.014.009-.09.06-.161.074-.213.101-.085.042-.156.097-.34.456a.483.483 0 00-.057.244c.019.17.166.263.228.364a.838.838 0 01-.17.332c-.554.373-1.122.179-.554.373.085.028.185.069.298.11-.127.387-.127.856-.085 1.284-.213.332-.241.511-.497.856-.284.387-.554.939-.554.939h.837s-.468.621-.71 1.022a15.221 15.221 0 00-.908-1.574c-.313-.483-.895-1.188-1.008-1.864.738.152 1.277.221 1.277.221l-1.254-1.017-.109-.087-.539-.677-.412-.317-.128-.097 1.079-.18h.554s.54 0 .27-.179c-.151-.111-.303-.327-.407-.497-.08-.134-.132-.235-.132-.235s-.823-.028-.823-.47-.54-.814-.54-.814l1.632.18c-.554-.539-1.093-1.05-1.093-1.05v-.511c0-.442.539-.428 0-.98-.227-.235-.412-.607-.54-.953a3.34 3.34 0 00-.213-1.119c.071-.304.185-.856.185-1.298-.014-.249-.042-.47-.142-.58-.383-.442-1.377-3.355-1.377-3.355s-.014.055-.042.138c-.127.373-.482 1.491-.525 1.823-.071.4-.071.953-.341 1.132-.1.069-.156.083-.213.11-.1.027-.156.083-.327.428s.071.469.156.607a1.088 1.088 0 01-.156.317c-.27.166-.525.221-.667.249l-2.371-1.878-1.746-1.049c-.014-.055-.028-.11-.042-.152l.625-.11c2.144.787 3.705-.387 3.705-.387l-4.301-2.886-.497-.456c0-.207-.028-.4-.071-.594h3.108l-2.924-2.223-.412-.373a1.59 1.59 0 01-.085-.152l2.441.262-1.746-.925-1.377-1.436c0-.663 2.541 0 0-3.936-.227-.359-.639-.856-.724-1.339.525.097.923.152.923.152l-.979-.787-.397-.497-.383-.29.781-.125h.397s.383 0 .184-.138c-.184-.124-.383-.524-.383-.524s-.582-.014-.582-.332c-.014-.318-.397-.58-.397-.58l1.178.125-.781-.76s-.014-.055-.014-.373c0-.304.397-.29 0-.69-.156-.18-.284-.442-.383-.69 0-.29-.071-.566-.156-.801.057-.221.142-.621.128-.939 0-.166-.028-.317-.1-.414-.27-.317-.979-2.403-.979-2.403s-.014.042-.028.097c-.099.276-.355 1.063-.383 1.312-.042.29-.042.677-.241.815a.71.71 0 01-.156.069c-.071.028-.113.069-.241.317-.114.249.057.332.114.428a.528.528 0 01-.114.235c-.383.262-.781.124-.383.262.057.014.128.042.199.069-.085.276-.085.594-.042.898-.156.234-.17.359-.355.607a5.239 5.239 0 00-.397.649h.596s-.596.787-.596.925v.524c0 .125.397 0 0 .387-.383.4-.383.925-.383.925s.781-.138.582 0c-.156.11-.468.497-.553.635.17-.11.922-.566.752.014-.185.635-.568 1.271-.582 1.312 0 0 .043-.014.114-.042-.61.442-1.292 2.402-1.292 2.402l1.362-.386s0 1.836-1.164 2.748c-1.178.925-1.958 1.712-2.541 2.5-.596.787 2.03-.815.979.649-2.541 3.549-.199 2.886-.199 2.886l-2.342 2.361c.142-.069 3.676-1.546 2.342 0-1.377 1.574-2.342 3.273-2.342 3.273s3.506.262 0 2.499a2.97 2.97 0 00-.61.497l-1.32-1.063-.127-.166c.042-.014.042-.055-.042-.11-.242-.166-.483-.663-.483-.663s-.113 0-.241-.028l-.27-.207 1.164-.193h.596s.582 0 .284-.193c-.284-.193-.582-.787-.582-.787s-.866-.014-.866-.497c-.014-.483-.596-.87-.596-.87l1.76.193c-.596-.58-1.164-1.118-1.164-1.118s-.014-.097-.014-.566.582-.442 0-1.036c-.242-.262-.44-.649-.582-1.021 0-.442-.1-.856-.228-1.202.085-.331.199-.911.199-1.395 0-.262-.042-.483-.156-.621-.397-.47-1.462-3.59-1.462-3.59s-.029.055-.057.152c-.127.4-.511 1.588-.554 1.947-.071.428-.071 1.022-.369 1.215-.1.069-.17.083-.228.11-.099.042-.17.097-.354.47-.17.359.085.511.17.649a.746.746 0 01-.17.331c-.582.401-1.164.193-.582.401.099.027.199.069.312.11-.142.4-.142.884-.085 1.339-.227.332-.255.525-.497.856-.057.014-.071.028-.028.042-.284.4-.582.98-.582.98h.88s-.88 1.174-.88 1.367v.773c0 .208.596 0 0 .594-.582.594-.582 1.367-.582 1.367s.099-.014.227-.028c.014.014.042.014.085.028.071.027.156.055.256.097-.015.014-.015.027-.015.055-.17.18-.284.387-.34.566a2.03 2.03 0 00-.199.262c.014-.014.071-.042.142-.097-.057.221-.057.373-.057.373s.199-.042.397-.056v.014c-.199.276-.213.442-.426.746-.256.317-.497.814-.497.814h.738s-.738.967-.738 1.132v.18c-.567 1.063-1.022 2.375-1.022 2.375l.455-.138c-.085.235-.128.373-.128.373l.61-.18c-.175.193-.336.41-.383.474.147-.092 1.183-.746.965.023-.033.115-.076.23-.118.345a8.655 8.655 0 01-.62 1.271.89.89 0 00.156-.042c-.383.276-.781.994-1.079 1.657a19.13 19.13 0 00-1.434 1.339c-.78.731-1.419 1.422-1.93 2.112-2.2-1.063-3.62.276-4.911 1.229l-.327-.221-1.689-1.505h5.351l-4.23-3.217-.837-.759 3.662.373-2.541-1.325-.96-1.008-1.013-1.063c0-.953 3.662 0 0-5.675-.327-.511-.923-1.229-1.036-1.933.766.152 1.32.221 1.32.221l-1.405-1.132-.568-.704-.567-.428 1.135-.193h.554s.568 0 .284-.179c-.284-.193-.553-.76-.553-.76s-.852-.027-.852-.483c0-.47-.567-.843-.567-.843l1.689.193c-.554-.566-1.122-1.091-1.122-1.091v-.539c0-.456.568-.442 0-1.008-.241-.249-.426-.635-.567-.98 0-.442-.085-.829-.213-1.174.071-.317.185-.884.185-1.339 0-.262-.042-.483-.142-.607-.397-.456-1.419-3.466-1.419-3.466s-.029.055-.057.138c-.127.387-.497 1.547-.539 1.892-.071.414-.071.98-.355 1.173-.099.069-.156.083-.213.111-.099.042-.17.097-.341.456-.17.345.071.483.156.621a.968.968 0 01-.156.318c-.568.387-1.135.193-.568.387.085.027.199.069.298.11-.128.387-.128.856-.071 1.298-.227.318-.255.511-.511.856a7.945 7.945 0 00-.568.953h.852s-.852 1.132-.852 1.326v.746c0 .193.568 0 0 .566-.554.58-.554 1.326-.554 1.326s1.122-.179.838 0c-.27.193-.809.897-.838.953.085-.056 1.391-.912 1.122 0-.27.911-.809 1.836-.837 1.892 0 0 .071-.028.17-.055-.895.635-1.874 3.452-1.874 3.452l1.973-.566s0 2.651-1.689 3.977c-.137.105-.251.207-.374.308a2.427 2.427 0 01-.166.134c-.009-.019-.019-.032-.028-.051-.194-.317-.397-.658-.639-1.026-.327-.525-.951-1.271-1.079-2.002.795.152 1.377.235 1.377.235l-1.462-1.174-.582-.746-.582-.428 1.164-.208h.582s.582 0 .298-.193c-.298-.193-.582-.787-.582-.787s-.88-.014-.88-.498c0-.483-.582-.87-.582-.87l1.746.193c-.582-.58-1.164-1.119-1.164-1.119v-.566c0-.469.582-.456 0-1.049-.255-.249-.44-.649-.582-1.008 0-.456-.099-.87-.227-1.215.071-.317.199-.911.185-1.395 0-.262-.042-.497-.142-.622-.412-.469-1.476-3.59-1.476-3.59s-.014.041-.042.138c-.142.401-.525 1.602-.568 1.961-.071.428-.071 1.022-.369 1.215-.1.069-.17.083-.227.11-.1.042-.17.097-.355.47-.17.359.085.511.17.649a.726.726 0 01-.17.331c-.582.4-1.164.208-.582.4.1.028.199.069.313.111-.142.4-.142.884-.085 1.339-.227.345-.255.539-.525.897-.284.4-.582.98-.582.98h.88s-.88 1.174-.88 1.381v.773c0 .207.582 0 0 .594s-.582 1.367-.582 1.367 1.164-.193.88 0c-.284.193-.852.939-.88.98.085-.055 1.448-.939 1.164 0-.114.382-.27.764-.421 1.086-.222.488-.426.842-.444.875 0 0 .038-.009.104-.028.023-.004.042-.014.062-.023-.284.207-.577.649-.861 1.142-.17-.014-.724-.083-.724-.442 0-.207-.113-.387-.241-.525l.369.042-.019-.019c-.08-.078-.156-.166-.25-.244l1.192.124c-.525-.524-1.051-1.008-1.051-1.008v-.497c0-.373.402-.41.151-.773l-.004-.004a1.31 1.31 0 00-.147-.175c-.227-.235-.397-.58-.539-.912 0-.414-.085-.773-.199-1.091.071-.29.185-.829.17-1.256v-.055c-.005-.212-.038-.396-.128-.498-.104-.12-.26-.441-.426-.833a24.163 24.163 0 01-.322-.806c-.313-.81-.587-1.606-.587-1.606s-.014.055-.042.124c-.033.115-.09.29-.156.493-.09.285-.189.621-.255.888a6.49 6.49 0 01-.128-.359s-.014.042-.042.11c-.099.332-.412 1.298-.454 1.574-.014.097-.014.18-.028.276-.071.041-.142.11-.298.414-.071.138-.057.249-.014.332-.057.027-.099.041-.127.055-.085.042-.142.083-.284.387-.071.138-.057.234-.028.304-.284.083-.426.027-.071.152.071.028.142.055.227.083a1.01 1.01 0 01-.128.249c-.468.317-.951.152-.468.317.071.028.156.055.241.083-.113.331-.113.718-.057 1.091-.199.262-.213.428-.426.718-.242.318-.469.787-.469.787h.71s-.71.953-.71 1.105v.635c0 .151.469 0 0 .469-.468.469-.468 1.104-.468 1.104s.114-.014.241-.041v.11s.227-.042.454-.055c-.241.166-.667.732-.695.773a2.58 2.58 0 01.625-.317 7.139 7.139 0 00-.383.483c.042-.028.426-.276.724-.359 0 .055 0 .11-.028.193a2.044 2.044 0 01-.133.373.693.693 0 01-.038.097l-.185-.097-.497-.262-1.973-2.071c0-.953 3.662 0 0-5.675-.327-.497-.923-1.229-1.036-1.919.752.152 1.32.221 1.32.221l-1.405-1.132-.232-.294-.336-.423-.567-.415 1.135-.193h.554s.095 0 .189-.014c.119-.014.232-.055.142-.138-.009-.019-.028-.028-.047-.042-.284-.18-.568-.746-.568-.746s-.837-.028-.837-.483c0-.47-.567-.842-.567-.842l1.689.193c-.554-.566-1.122-1.091-1.122-1.091v-.539c0-.456.568-.442 0-1.008-.241-.249-.426-.621-.567-.98 0-.018 0-.041-.005-.06a3.114 3.114 0 00-.208-1.1c.071-.317.185-.884.185-1.354 0-.248-.042-.469-.142-.594-.383-.456-1.419-3.466-1.419-3.466s-.015.055-.043.138c-.127.387-.497 1.546-.553 1.878-.057.428-.057.994-.341 1.174a.653.653 0 01-.227.11c-.1.042-.156.097-.341.456-.17.345.071.483.17.622a.826.826 0 01-.17.332c-.568.373-1.122.193-.568.373.1.042.199.069.298.11-.128.387-.128.856-.071 1.298-.227.331-.241.511-.511.856a8.646 8.646 0 00-.501.847c-.033.064-.052.105-.052.105h.837s-.837 1.132-.837 1.326v.746c0 .193.554 0 0 .566-.568.566-.568 1.325-.568 1.325s1.122-.193.852 0c-.284.18-.823.898-.852.939.085-.055 1.405-.912 1.122.014-.27.911-.809 1.823-.837 1.878a.704.704 0 00.17-.055c-.894.649-1.859 3.466-1.859 3.466l1.973-.566s0 2.637-1.689 3.963c-.029.014-.057.042-.071.055-.113-.097-.185-.166-.185-.166v-.4c0-.331.412-.317 0-.746-.057-.069-.113-.152-.17-.234.028-.193.057-.401.057-.594-.014-.263-.043-.483-.156-.608-.071-.083-.156-.249-.255-.456.042-.221.085-.47.085-.704 0-.18-.028-.345-.113-.442-.284-.345-1.051-2.568-1.051-2.568s-.014.042-.028.097c-.099.29-.369 1.146-.412 1.408 0 .028-.014.069-.014.111-.071.249-.156.497-.213.704-.014.014-.014.041-.028.055-.071.042-.128.055-.17.083-.071.028-.114.069-.255.332-.128.263.057.359.127.456a.526.526 0 01-.127.249c-.412.276-.837.138-.412.276l.213.083c-.014.042-.014.11-.014.152-.1.042-.17.11-.341.47-.17.331.042.483.142.621-.042.097-.1.207-.213.359-.014.014-.014.028-.028.042-.54.318-1.037.152-.483.345.071.014.142.055.227.083a1.253 1.253 0 00-.127.234h.17a2.571 2.571 0 00-.057.746c-.071.11-.113.193-.113.234v.359c-.128.221-.185.4-.397.676a8.39 8.39 0 00-.582.98h.88s-.028.042-.076.106c-.218.29-.804 1.104-.804 1.261v.773c0 .193.582 0 0 .594-.582.58-.582 1.353-.582 1.353s.127-.014.284-.042c-.114.304-.185.525-.185.525l.397-.111c-.241.263-.468.58-.497.608.099-.055 1.448-.939 1.164 0-.085.29-.199.58-.313.856a.92.92 0 00-.709.166c-.029.456-.057.842-.085 1.201a16.315 16.315 0 00-1.874 1.753c-1.477-2.195-3.435-7.719-4.784-7.318-.009-.069-.023-.138-.033-.207a3.491 3.491 0 00-.151-.525c.01-.041.024-.092.033-.143.052-.221.109-.52.142-.814.019-.161.028-.318.023-.465 0-.263-.042-.498-.142-.622-.189-.226-.521-1.013-.823-1.8-.354-.92-.667-1.832-.667-1.832s-.028.055-.057.138c-.128.415-.511 1.616-.568 1.975-.071.442-.071 1.036-.369 1.229-.099.083-.17.097-.227.125-.099.041-.17.097-.355.469-.185.373.071.511.17.649a.861.861 0 01-.033.106.675.675 0 01-.137.239c-.596.4-1.178.193-.596.4.1.028.213.069.313.111-.128.414-.128.897-.071 1.353-.241.345-.255.539-.539.912-.028.055-.071.11-.114.166-.185-.497-.354-.98-.354-.98s-.015.027-.028.083c-.071.234-.298.939-.327 1.146-.043.249-.043.594-.213.718-.057.042-.1.042-.128.056-.071.027-.1.069-.213.276-.099.221.042.304.099.387-.014.042-.042.069-.057.11-.142-.193-.255-.428-.255-.428s-.682-.014-.682-.386c0-.373-.454-.677-.454-.677l1.363.152c-.454-.456-.909-.87-.909-.87v-.428c0-.373.455-.359 0-.815-.199-.207-.354-.511-.454-.787 0-.285-.052-.543-.127-.769-.014-.06-.038-.115-.057-.17.057-.262.156-.718.156-1.091 0-.207-.042-.373-.113-.483-.313-.359-1.15-2.789-1.15-2.789s-.014.042-.042.11c-.1.318-.398 1.243-.426 1.519-.057.345-.057.801-.284.953-.085.055-.142.069-.185.083-.071.027-.127.083-.27.373-.142.276.057.386.128.497a.662.662 0 01-.128.262c-.455.304-.909.152-.455.304.071.028.156.055.242.083a1.408 1.408 0 00-.076.327c-.023.23-.009.479.019.723-.185.262-.198.414-.412.69-.227.304-.454.759-.454.759h.681s-.681.912-.681 1.063v.607c0 .152.454 0 0 .456s-.454 1.063-.454 1.063.908-.152.681 0a2.505 2.505 0 00-.412.428l-.639-.594v-.386c0-.332.412-.318 0-.732-.17-.18-.298-.456-.397-.718 0-.317-.071-.594-.17-.842.057-.235.142-.649.142-.98 0-.179-.028-.345-.114-.428-.113-.143-.317-.626-.516-1.132-.26-.672-.506-1.381-.506-1.381s-.014.027-.028.097c-.09.249-.317.962-.383 1.279a1.065 1.065 0 01-.014.087c-.057.304-.057.718-.255.856-.071.041-.128.055-.156.069-.071.042-.128.069-.255.332-.128.262.057.359.127.456-.042.097-.085.18-.127.235-.412.276-.823.138-.412.276.071.028.142.042.213.083-.085.276-.085.622-.042.939-.17.235-.185.373-.369.622-.085.11-.156.221-.227.345l-.909-.608.128-.014-2.299-1.768c.752.138 1.306.221 1.306.221l-1.462-1.188-.34-.414h2.086l-.738-.562-.511-.391h.085s.582 0 .284-.193a2.078 2.078 0 01-.241-.249h1.604l-.095-.046-2.39-1.169 1.022.096-1.42-.731 1.235.138c-.582-.594-1.164-1.132-1.164-1.132s-.005-.032-.005-.143a7.439 7.439 0 01-.009-.423c0-.097.042-.18.071-.249l.426.069-.312-.249c.099-.138.156-.276-.185-.621-.242-.249-.44-.635-.582-1.008 0-.456-.1-.87-.227-1.215.071-.317.199-.897.199-1.367l1.561.235-2.129-1.685c-.412-.939-.909-2.348-1.036-2.707 1.376-.125 2.243-.773 2.243-.773l-3.492-2.333c.042-.221.085-.511.085-.746 0-.18-.028-.332-.099-.414-.128-.152-.341-.677-.54-1.202h1.945l-2.134-1.62-1.358-1.031-.709-.621 3.038.304-2.101-1.091-1.632-1.726c0-.525 1.419-.332 1.349-1.657a2.48 2.48 0 00-.081-.506 6.11 6.11 0 00-.511-1.229 17.017 17.017 0 00-.757-1.289c-.27-.414-.767-1.022-.866-1.602.639.124 1.093.193 1.093.193l-1.164-.939-.468-.594-.454-.345.922-.166h.468s.469 0 .242-.152c-.242-.152-.468-.621-.468-.621s-.696-.014-.696-.4c-.014-.387-.468-.69-.468-.69l1.391.152c-.468-.47-.922-.898-.922-.898s-.014-.069-.014-.456c0-.373.468-.359 0-.829-.185-.207-.341-.511-.454-.814 0-.359-.085-.677-.185-.953.057-.262.156-.746.156-1.119 0-.207-.042-.4-.128-.497-.17-.207-.497-1.026-.767-1.74-.227-.603-.412-1.132-.412-1.132s0 .042-.028.11c-.114.332-.412 1.284-.454 1.561-.057.359-.057.814-.284.98-.085.055-.142.069-.185.083-.085.042-.142.083-.284.387-.142.29.057.4.142.511a.747.747 0 01-.142.263c-.468.317-.937.166-.468.317.085.028.156.055.241.097-.095.304-.1.667-.062 1.013 0 .019.005.032.005.051-.024.032-.043.069-.062.096-.004.005-.004.009-.009.014-.123.211-.156.359-.341.607-.241.318-.468.787-.468.787h.696s-.535.718-.667.999a.253.253 0 00-.028.092v.622c0 .166.468 0 0 .469-.468.47-.468 1.091-.468 1.091s.937-.152.695 0c-.227.152-.667.746-.695.787.071-.042 1.164-.759.937 0-.227.76-.681 1.519-.695 1.561 0 0 .057-.014.142-.042-.54.382-1.112 1.726-1.382 2.426-.104.262-.166.433-.166.433l1.632-.47s0 .654-.232 1.432a1.174 1.174 0 01-.033.101c-.024.074-.047.147-.076.221-.198.552-.525 1.132-1.064 1.533-.057.042-.099.083-.156.138a39.606 39.606 0 01-.341-.939v-.014c-.014-.056-.028-.083-.028-.083s-.015.042-.043.11c-.042.138-.113.373-.184.635-.029.055-.043.11-.071.18-.033.133-.071.262-.104.377-.042.166-.076.308-.095.396 0 .028 0 .042-.014.055-.837.746-1.476 1.436-1.987 2.113-.473.622.752 0 1.259.014h.033c-.029.041-.043.069-.057.083-.009.004-.019.014-.028.019-.473.294-.913.152-.454.299.081.027.166.064.246.092.005.004.005.004.009.004-.071.193-.085.401-.085.622-.379.562-.653 1.022-.833 1.404v.005c-.303.621-.369 1.026-.312 1.289a.515.515 0 00.279.368c0 .014-.015.042-.015.042v.649c0 .055.071.069.142.097l-.052.051-.998 1.008-.989.994a14.3 14.3 0 011.164-.446c.146-.051.298-.097.449-.143.255-.042.695-.083.525.027-.227.152-.682.76-.71.801.028-.023.241-.161.459-.257.303-.138.625-.193.492.257-.057.152-.1.304-.156.442a28.62 28.62 0 00-2.243 3.231s.227.014.525.083c-.17.4-.27.704-.27.704l1.235-.359c.199.138.355.317.369.552-.014.11-.042.221-.057.345-.01.019-.014.037-.028.055-.17.35-.596.787-1.405 1.339a.59.59 0 01-.038-.092c-.038-.096-.071-.198-.104-.281.345-.11.625-.234.833-.345.27-.138.417-.249.417-.249l-.076-.05-2.422-1.629-.918-.617-.776-.525-1.372-.92-.128-.111-1.391-1.243h4.812l-3.804-2.886-.752-.677 3.293.345-2.286-1.188-1.774-1.878c0-.842 3.293 0 0-5.095-.104-.166-.251-.359-.393-.571-.236-.354-.473-.76-.544-1.155a23.1 23.1 0 001.192.207l-1.263-1.022-.085-.11-.426-.525-.062-.05-.436-.336.857-.143.151-.023h.511s.497 0 .255-.166c-.255-.18-.511-.677-.511-.677s-.752-.027-.752-.442c-.014-.414-.511-.759-.511-.759l1.519.179c-.511-.511-1.008-.98-1.008-.98s-.058-.1-.058-.5.511-.387 0-.912c-.213-.221-.383-.552-.497-.87 0-.4-.085-.746-.199-1.05.071-.276.17-.801.17-1.215 0-.221-.042-.414-.142-.525-.341-.414-1.263-3.121-1.263-3.121l-.043.125c-.113.345-.454 1.381-.497 1.698-.057.373-.057.884-.313 1.049a.632.632 0 01-.199.097c-.085.042-.142.083-.298.415-.156.304.057.428.142.552a.943.943 0 01-.142.29c-.511.345-1.022.179-.511.345.085.027.17.055.27.097-.128.345-.114.773-.071 1.16-.199.29-.213.47-.454.773a6.219 6.219 0 00-.506.852v.004h.762s-.719.958-.762 1.169c-.005.009-.005.014-.005.019v.677c0 .018.005.028.014.042.071.092.388.023.085.363a1.837 1.837 0 01-.1.106 1.62 1.62 0 00-.213.271c-.033.056-.066.111-.09.166a1.785 1.785 0 00-.185.63v.005c-.009.073-.009.115-.009.115l.204-.032c.279-.037.729-.083.549.032-.166.111-.44.442-.606.654l-.004.004c-.076.102-.133.17-.142.184l.137-.087c.019-.014.042-.023.066-.037a2.23 2.23 0 01.535-.235c.213-.042.369.014.27.359-.047.157-.1.313-.156.465a9.415 9.415 0 01-.501 1.068v.005c-.052.092-.09.152-.095.161 0 0 .047-.014.137-.037.005 0 .009-.004.019-.004-.005.004-.01.004-.014.009-.163.118-.327.317-.487.557v2.2l.586-.17s0 .322-.076.787a5.506 5.506 0 01-.51 1.598V570.27c4.029-.746 8.749-1.535 14.071-2.362l.284-.041c5.054-.773 10.647-1.588 16.68-2.429zM9.202 362.136l.923-.414c.028.014.099.014.185 0-.057.249-.085.4-.085.4l1.008-.539h.412c-.014.027-.497.676-.497.787v.221a9.18 9.18 0 00-.54.842l-.142-.11-1.264-1.187zm3.492-4.916c-.085.263-.17.553-.185.663v.069c-.425.318-.78.732-1.064 1.16l-.161-.125-.322-.249-1.736-1.054-.791-.479.984-.161.023-.004a5.489 5.489 0 003.252.18zm14.11-10.426a1.82 1.82 0 01-.042.193c-.043.29-.043.677-.242.815-.071.042-.114.055-.156.083h-.014l-1.027-.925-.18-.166h1.661zm2.441 5.855c-.071.235-.156.511-.241.773-.156-.027-.313-.11-.327-.29 0-.318-.383-.58-.383-.58l.951.097zm478.997 48.164h.752c-.326.649-.624 1.036-.752 0zm-11.015-11.544l1.221-.345s0 .511-.142 1.215a4.066 4.066 0 00-1.079-.87zm-2.924-1.974h2.995a19.63 19.63 0 00-.752 1.712c-.042-.014-.085-.014-.127-.014l-.909-.622-1.207-1.076zm-31.186 10.826l1.079.11-.213.663-.071-.055-.795-.718zm-10.717-3.038c.653.18 1.249.235 1.803.207-.397.318-.752.622-1.079.912-.199-.305-.497-.705-.724-1.119zm-47.481-8.41h.397s-.128.166-.255.345a2.582 2.582 0 01-.142-.29v-.055zm-7.778 3.742l.923-.151a4.884 4.884 0 002.399.262c-.525.414-1.037.801-1.533.98l-1.789-1.091zm-7.921-14.07l.109.014h.004l.582.069a6.48 6.48 0 01-.142.746.236.236 0 01-.128-.207c0-.221-.185-.428-.313-.524l-.004-.005c-.056-.066-.108-.093-.108-.093zm-4.571-3.204l.525-.097c-.043.138-.085.262-.128.4l-.397-.303zm-29.78-4.253l.511-.083a2.39 2.39 0 00-.27.262l-.241-.179zm-27.494 9.997c.667-.138 2.171-.814 1.164.607-.185.235-.326.456-.468.677a.804.804 0 00-.199-.262c-.199-.221-.355-.539-.482-.842-.001-.069-.015-.125-.015-.18zm-9.142-3.824l.142-.042c.227.027.383.055.383.055l-.156-.125 1.022-.29s-.014.98-.454 1.933a35.689 35.689 0 01-.937-1.531zm-43.506-12.497l.795-.125h.412s.042 0 .085-.014a9.07 9.07 0 00-.568.856l-.326-.414-.398-.303zm-18.524 11.75c0-.469.88-.469 1.349-1.035-.029.055-.057.097-.085.152a11.861 11.861 0 01-.71 1.463l-.554-.58zm-21.746 1.133c.227-.097.454-.125.355.221a3.057 3.057 0 01-.143.387c-.085-.222-.156-.442-.212-.608zM216.6 357.538c.554.097.994.166 1.207.207-.014.014-.028.055-.057.069-.085.056-.142.069-.185.097-.071.028-.128.069-.284.373-.142.29.071.4.142.524a.624.624 0 01-.099.193c-.299-.442-.639-.966-.724-1.463zm-50.192 21.541c.094-.037.198-.083.335-.138h.01c.738-.281 1.973-.7 2.323-.511-.322.046-.648.216-.984.534-.289.267-.582.649-.875 1.137l-.667-.539a3.468 3.468 0 00-.142-.483zm-2.613-1.271l.895-.138a4.9 4.9 0 002.839.166l-1.107 1.1-.057.06c-.009-.018-.019-.042-.033-.06-.331-.617-.956-.792-1.727-.631l-.81-.497zm-10.603-6.586c0-.235.241-.359.539-.497-.156.221-.298.428-.426.621l-.113-.124zm-14.265 4.184c0-.263.284-.373.596-.525-.185.235-.355.456-.383.483.085-.055 1.391-.912 1.122 0-.1.359-.256.718-.398 1.022l-.937-.98zm-6.913-8.686c.355-.221 1.136-.622.923.097a8.837 8.837 0 01-.227.649l-.696-.746zm-.44-.497c.028-.014.057-.042.085-.069h.724a9.008 9.008 0 00-.412.511l-.397-.442zm-.156-3.452l1.164.193c-.099.179-.185.317-.185.386v.732c0 .166.455.028.085.442l-.482-.483a10.129 10.129 0 00-.582-1.27zm-1.789-3.19c.738.152 1.277.221 1.277.221l-.71-.58.327-.152 2.896.442a3.83 3.83 0 000 .801c-.213.317-.227.497-.482.842-.27.359-.54.912-.54.912h.809s-.156.207-.326.456l-2.541-2.002-.582-.552a1.82 1.82 0 01-.128-.388zm-12.704 3.729l.312-.166-.071.539c-.071-.125-.156-.249-.241-.373zm-1.32-2.403c.511.097.909.152 1.15.193-.27.276-.483.594-.667.925-.228-.359-.426-.745-.483-1.118zm-11.001 11.64c.625-.18 1.519-.497 1.334.11-.156.221-.284.428-.412.622a4.065 4.065 0 01-.653-.58c-.099-.055-.184-.096-.269-.152zm-25.749-5.91c.397.083.724.138.951.166a6.44 6.44 0 01-.341 1.104c-.255-.386-.539-.828-.61-1.27zm-.014-.787l.53-.157.591-.175s0 .064-.005.18a7.065 7.065 0 01-.123.939l-.771-.612-.222-.175zm-1.121-1.119l.809-.138c-.085.207-.17.387-.241.566l-.029-.028-.539-.4zm-4.741 2.113a.65.65 0 00.142-.041 2.23 2.23 0 00-.383.414l-.185-.138-.852-.76 1.476.152c-.099.221-.184.36-.198.373zm-1.547 3.452h.27c-.014.055-.028.083-.028.083l.298-.083h1.107a4.272 4.272 0 01-.397 1.119l-1.25-1.119zm-28.007.58l.909-.152h.17c.042.014.071.027.113.042-.085.234-.085.524-.057.787-.071.11-.114.207-.156.304l-.071-.055-.455-.58-.453-.346zm-4.854 2.113l.809-.138h.27a.85.85 0 01-.085.166c.014 0 .057-.027.142-.042-.156.111-.313.304-.469.552-.042-.014-.071-.014-.099-.027l-.17-.193-.398-.318zm0-1.781l.909.11c-.071.083-.128.166-.142.166.028-.014.142-.083.284-.152l.17.014-.071-.069c.298-.152.667-.249.525.221a6.545 6.545 0 01-.426 1.035c-.128-.166-.227-.359-.227-.359s-.61-.014-.625-.359c0-.331-.397-.607-.397-.607zm-4.443-.773a4.095 4.095 0 001.363-.456h.412s-.61.814-.61.953v.552c0 .138.412 0 0 .415a1.286 1.286 0 00-.313.497c-.128-.512-.398-1.161-.852-1.961z"/><linearGradient id="c" gradientUnits="userSpaceOnUse" x1="1249.239" y1="740.286" x2="1282.418" y2="373.661" gradientTransform="matrix(-1 0 0 1 1279.6 0)"><stop offset="0" stop-color="#fff"/><stop offset=".54" stop-color="#738491"/><stop offset=".906" stop-color="#19344a"/></linearGradient><path fill="url(#c)" d="M0 587.844c.24.13.472.261.714.391 1.717.926 3.492 1.851 5.309 2.762.01.005.024.01.033.019a306.645 306.645 0 0010.367 4.967c1.046.483 2.082.952 3.099 1.408.119.055.237.105.355.161 1.065.479 2.101.938 3.109 1.386 7.963 3.493 13.967 5.882 13.967 5.882S22.109 608.029 0 613.106v-25.262z"/><linearGradient id="d" gradientUnits="userSpaceOnUse" x1="1112.773" y1="728.656" x2="1146.016" y2="361.323" gradientTransform="matrix(-1 0 0 1 1279.6 0)"><stop offset="0" stop-color="#fff"/><stop offset=".54" stop-color="#738491"/><stop offset=".906" stop-color="#19344a"/></linearGradient><path fill="url(#d)" d="M133.263 358.987l.213.166c.014-.028.014-.056.014-.083a.772.772 0 00-.227-.083z"/><linearGradient id="e" gradientUnits="userSpaceOnUse" x1="1070.979" y1="723.615" x2="1104.109" y2="357.534" gradientTransform="matrix(-1 0 0 1 1279.6 0)"><stop offset="0" stop-color="#fff"/><stop offset=".54" stop-color="#738491"/><stop offset=".906" stop-color="#19344a"/></linearGradient><path fill="url(#e)" d="M176.06 362.688c-.071-.042-.142-.055-.213-.083l.199.152c.014-.028.014-.055.014-.069z"/><linearGradient id="f" gradientUnits="userSpaceOnUse" x1="1070.934" y1="724.882" x2="1104.179" y2="357.522" gradientTransform="matrix(-1 0 0 1 1279.6 0)"><stop offset="0" stop-color="#fff"/><stop offset=".54" stop-color="#738491"/><stop offset=".906" stop-color="#19344a"/></linearGradient><path fill="url(#f)" d="M175.605 362.426l.057.042a1.53 1.53 0 00.454-.125l-.511.083z"/><linearGradient id="g" gradientUnits="userSpaceOnUse" x1="869.383" y1="447.541" x2="879.945" y2="330.83" gradientTransform="matrix(-1 0 0 1 1279.6 0)"><stop offset="0" stop-color="#fff"/><stop offset=".54" stop-color="#738491"/><stop offset=".906" stop-color="#19344a"/></linearGradient><path fill="url(#g)" d="M404.948 389.172h-.029l.015.015z"/><linearGradient id="h" gradientUnits="userSpaceOnUse" x1="860.814" y1="703.731" x2="893.852" y2="338.669" gradientTransform="matrix(-1 0 0 1 1279.6 0)"><stop offset="0" stop-color="#fff"/><stop offset=".54" stop-color="#738491"/><stop offset=".906" stop-color="#19344a"/></linearGradient><path fill="url(#h)" d="M389.348 378.236l.015.014c.014-.042.042-.083.057-.138l-.071.014h-.009l-.118.027.118.078.008.005z"/><linearGradient id="i" gradientUnits="userSpaceOnUse" x1="1130.134" y1="730.096" x2="1163.367" y2="362.879" gradientTransform="matrix(-1 0 0 1 1279.6 0)"><stop offset="0" stop-color="#fff"/><stop offset=".54" stop-color="#738491"/><stop offset=".906" stop-color="#19344a"/></linearGradient><path fill="url(#i)" d="M116.84 368.653h-.128a.254.254 0 00-.028.11l.057.069.099-.179z"/><linearGradient id="j" gradientUnits="userSpaceOnUse" x1="1215.594" y1="736.699" x2="1248.726" y2="370.588" gradientTransform="matrix(-1 0 0 1 1279.6 0)"><stop offset="0" stop-color="#fff"/><stop offset=".54" stop-color="#738491"/><stop offset=".906" stop-color="#19344a"/></linearGradient><path fill="url(#j)" d="M29.061 352.276c.071.069.156.152.227.235.028-.083.057-.152.071-.193 0-.028.014-.028.014-.055-.1.013-.199.013-.312.013z"/><linearGradient id="k" gradientUnits="userSpaceOnUse" x1="1199.997" y1="736.18" x2="1233.207" y2="369.21" gradientTransform="matrix(-1 0 0 1 1279.6 0)"><stop offset="0" stop-color="#fff"/><stop offset=".54" stop-color="#738491"/><stop offset=".906" stop-color="#19344a"/></linearGradient><path fill="url(#k)" d="M46.378 369.427c.014.014.014.041.028.055a.347.347 0 01.042-.055h-.07z"/><linearGradient id="l" gradientUnits="userSpaceOnUse" x1="863.19" y1="705.649" x2="896.399" y2="338.696" gradientTransform="matrix(-1 0 0 1 1279.6 0)"><stop offset="0" stop-color="#fff"/><stop offset=".54" stop-color="#738491"/><stop offset=".906" stop-color="#19344a"/></linearGradient><path fill="url(#l)" d="M386.452 375.102a.106.106 0 01.028.056l.057-.056h-.085z"/><linearGradient id="m" gradientUnits="userSpaceOnUse" x1="884.028" y1="438.219" x2="895.295" y2="313.728" gradientTransform="matrix(-1 0 0 1 1279.6 0)"><stop offset="0" stop-color="#fff"/><stop offset=".54" stop-color="#738491"/><stop offset=".906" stop-color="#19344a"/></linearGradient><path fill="url(#m)" d="M389.944 375.958h-.015l.015.014v-.014z"/><linearGradient id="n" gradientUnits="userSpaceOnUse" x1="746.102" y1="691.756" x2="778.95" y2="328.789" gradientTransform="matrix(-1 0 0 1 1279.6 0)"><stop offset="0" stop-color="#fff"/><stop offset=".54" stop-color="#738491"/><stop offset=".906" stop-color="#19344a"/></linearGradient><path fill="url(#n)" d="M506.567 396.574l.042.042c.128.014.27.014.397.014l-.439-.056z"/><linearGradient id="o" gradientUnits="userSpaceOnUse" x1="1265.044" y1="370.321" x2="1268.565" y2="331.417" gradientTransform="matrix(-1 0 0 1 1279.6 0)"><stop offset="0" stop-color="#fff"/><stop offset=".54" stop-color="#738491"/><stop offset=".906" stop-color="#19344a"/></linearGradient><path fill="url(#o)" d="M12.793 350.868l.005-.005v.005z"/><g><linearGradient id="p" gradientUnits="userSpaceOnUse" x1="856.874" y1="906.488" x2="843.601" y2="475.854" gradientTransform="matrix(-1 0 0 1 1279.6 0)"><stop offset=".121" stop-color="#fff"/><stop offset=".256" stop-color="#d0d2d2"/><stop offset=".592" stop-color="#616868"/><stop offset=".824" stop-color="#1b2424"/><stop offset=".931" stop-color="#000a0a"/></linearGradient><path fill="url(#p)" d="M434.736 514.988c.065-.107.134-.219.208-.333-.147.077-.291.122-.291.24l.083.093z"/><linearGradient id="q" gradientUnits="userSpaceOnUse" x1="947.871" y1="906.176" x2="934.518" y2="472.939" gradientTransform="matrix(-1 0 0 1 1279.6 0)"><stop offset=".121" stop-color="#fff"/><stop offset=".256" stop-color="#d0d2d2"/><stop offset=".592" stop-color="#616868"/><stop offset=".824" stop-color="#1b2424"/><stop offset=".931" stop-color="#000a0a"/></linearGradient><path fill="url(#q)" d="M343.847 510.521c.043.06.087.115.139.16.048-.122-.078-.118-.139-.16z"/><linearGradient id="r" gradientUnits="userSpaceOnUse" x1="947.48" y1="902.343" x2="934.256" y2="473.317" gradientTransform="matrix(-1 0 0 1 1279.6 0)"><stop offset=".121" stop-color="#fff"/><stop offset=".256" stop-color="#d0d2d2"/><stop offset=".592" stop-color="#616868"/><stop offset=".824" stop-color="#1b2424"/><stop offset=".931" stop-color="#000a0a"/></linearGradient><path fill="url(#r)" d="M344.016 512.377l.238.2c.026-.2-.086-.237-.238-.2z"/><linearGradient id="s" gradientUnits="userSpaceOnUse" x1="978.081" y1="902.12" x2="964.834" y2="472.337" gradientTransform="matrix(-1 0 0 1 1279.6 0)"><stop offset=".121" stop-color="#fff"/><stop offset=".256" stop-color="#d0d2d2"/><stop offset=".592" stop-color="#616868"/><stop offset=".824" stop-color="#1b2424"/><stop offset=".931" stop-color="#000a0a"/></linearGradient><path fill="url(#s)" d="M314.089 498.037c-.073-.015-.151-.029-.229-.048a1.1 1.1 0 00.057.233c.056-.062.112-.121.172-.185z"/><linearGradient id="t" gradientUnits="userSpaceOnUse" x1="1285.484" y1="892.971" x2="1272.239" y2="463.227" gradientTransform="matrix(-1 0 0 1 1279.6 0)"><stop offset=".121" stop-color="#fff"/><stop offset=".256" stop-color="#d0d2d2"/><stop offset=".592" stop-color="#616868"/><stop offset=".824" stop-color="#1b2424"/><stop offset=".931" stop-color="#000a0a"/></linearGradient><path fill="url(#t)" d="M7.299 466.347l-.078.033c.022.07.048.148.078.229a1.272 1.272 0 010-.262z"/><linearGradient id="u" gradientUnits="userSpaceOnUse" x1="1043.193" y1="901.291" x2="1029.911" y2="470.358" gradientTransform="matrix(-1 0 0 1 1279.6 0)"><stop offset=".121" stop-color="#fff"/><stop offset=".256" stop-color="#d0d2d2"/><stop offset=".592" stop-color="#616868"/><stop offset=".824" stop-color="#1b2424"/><stop offset=".931" stop-color="#000a0a"/></linearGradient><path fill="url(#u)" d="M249.134 489.034c.104-.137.19-.289.264-.44l-.03-.004-.429.204h-.004l-.087.04.187.134.099.066z"/><linearGradient id="v" gradientUnits="userSpaceOnUse" x1="1110.766" y1="899.554" x2="1097.475" y2="468.349" gradientTransform="matrix(-1 0 0 1 1279.6 0)"><stop offset=".121" stop-color="#fff"/><stop offset=".256" stop-color="#d0d2d2"/><stop offset=".592" stop-color="#616868"/><stop offset=".824" stop-color="#1b2424"/><stop offset=".931" stop-color="#000a0a"/></linearGradient><path fill="url(#v)" d="M181.449 486.294l.204.133c.013-.056.026-.11.043-.174l-.247.041z"/><linearGradient id="w" gradientUnits="userSpaceOnUse" x1="1160.744" y1="896.731" x2="1147.498" y2="466.957" gradientTransform="matrix(-1 0 0 1 1279.6 0)"><stop offset=".121" stop-color="#fff"/><stop offset=".256" stop-color="#d0d2d2"/><stop offset=".592" stop-color="#616868"/><stop offset=".824" stop-color="#1b2424"/><stop offset=".931" stop-color="#000a0a"/></linearGradient><path fill="url(#w)" d="M129.461 546.809l.351.223a1.085 1.085 0 00-.187-.252l-.164.029z"/><linearGradient id="x" gradientUnits="userSpaceOnUse" x1="1164.765" y1="897.361" x2="1151.492" y2="466.744" gradientTransform="matrix(-1 0 0 1 1279.6 0)"><stop offset=".121" stop-color="#fff"/><stop offset=".256" stop-color="#d0d2d2"/><stop offset=".592" stop-color="#616868"/><stop offset=".824" stop-color="#1b2424"/><stop offset=".931" stop-color="#000a0a"/></linearGradient><path fill="url(#x)" d="M127.4 504.504c-.229.011-.546.093-.867.192-.017.008-.034.011-.052.019l.035.026.308.407.078.066.056-.081c.139-.203.29-.418.442-.629z"/><linearGradient id="y" gradientUnits="userSpaceOnUse" x1="955.62" y1="902.337" x2="942.392" y2="473.159" gradientTransform="matrix(-1 0 0 1 1279.6 0)"><stop offset=".121" stop-color="#fff"/><stop offset=".256" stop-color="#d0d2d2"/><stop offset=".592" stop-color="#616868"/><stop offset=".824" stop-color="#1b2424"/><stop offset=".931" stop-color="#000a0a"/></linearGradient><path fill="url(#y)" d="M334.426 564.326a.89.89 0 01.117-.107c.104-.07-.13-.052-.308-.026l.191.133z"/><linearGradient id="z" gradientUnits="userSpaceOnUse" x1="943.123" y1="903.607" x2="929.86" y2="473.287" gradientTransform="matrix(-1 0 0 1 1279.6 0)"><stop offset=".121" stop-color="#fff"/><stop offset=".256" stop-color="#d0d2d2"/><stop offset=".592" stop-color="#616868"/><stop offset=".824" stop-color="#1b2424"/><stop offset=".931" stop-color="#000a0a"/></linearGradient><path fill="url(#z)" d="M346.767 566.955c.057.104.108.204.16.308.026-.159-.035-.259-.16-.308z"/><linearGradient id="A" gradientUnits="userSpaceOnUse" x1="1259.984" y1="892.985" x2="1246.758" y2="463.878" gradientTransform="matrix(-1 0 0 1 1279.6 0)"><stop offset=".121" stop-color="#fff"/><stop offset=".256" stop-color="#d0d2d2"/><stop offset=".592" stop-color="#616868"/><stop offset=".824" stop-color="#1b2424"/><stop offset=".931" stop-color="#000a0a"/></linearGradient><path fill="url(#A)" d="M34.311 413.876l.108.2c.013-.049.022-.101.035-.145-.048-.022-.096-.036-.143-.055z"/><linearGradient id="B" gradientUnits="userSpaceOnUse" x1="1225.533" y1="894.62" x2="1212.29" y2="464.961" gradientTransform="matrix(-1 0 0 1 1279.6 0)"><stop offset=".121" stop-color="#fff"/><stop offset=".256" stop-color="#d0d2d2"/><stop offset=".592" stop-color="#616868"/><stop offset=".824" stop-color="#1b2424"/><stop offset=".931" stop-color="#000a0a"/></linearGradient><path fill="url(#B)" d="M68.755 412.791l.195.155.122.097a.252.252 0 00-.052-.148c-.053-.067-.144-.1-.265-.104z"/><linearGradient id="C" gradientUnits="userSpaceOnUse" x1="1141.999" y1="898.399" x2="1128.718" y2="467.491" gradientTransform="matrix(-1 0 0 1 1279.6 0)"><stop offset=".121" stop-color="#fff"/><stop offset=".256" stop-color="#d0d2d2"/><stop offset=".592" stop-color="#616868"/><stop offset=".824" stop-color="#1b2424"/><stop offset=".931" stop-color="#000a0a"/></linearGradient><path fill="url(#C)" d="M151.05 459.555l.147.163c.009-.13.009-.208.009-.208l-.156.045z"/><linearGradient id="D" gradientUnits="userSpaceOnUse" x1="1014.443" y1="902.509" x2="1001.15" y2="471.212" gradientTransform="matrix(-1 0 0 1 1279.6 0)"><stop offset=".121" stop-color="#fff"/><stop offset=".256" stop-color="#d0d2d2"/><stop offset=".592" stop-color="#616868"/><stop offset=".824" stop-color="#1b2424"/><stop offset=".931" stop-color="#000a0a"/></linearGradient><path fill="url(#D)" d="M277.934 483.516l.234.167a.895.895 0 01.035-.118c-.078-.012-.169-.03-.269-.049z"/><linearGradient id="E" gradientUnits="userSpaceOnUse" x1="1276.177" y1="554.827" x2="1268.956" y2="320.563" gradientTransform="matrix(-1 0 0 1 1279.6 0)"><stop offset=".121" stop-color="#fff"/><stop offset=".256" stop-color="#d0d2d2"/><stop offset=".592" stop-color="#616868"/><stop offset=".824" stop-color="#1b2424"/><stop offset=".931" stop-color="#000a0a"/></linearGradient><path fill="url(#E)" d="M7.074 437.667h-.078l.061.029.017-.029z"/><linearGradient id="F" gradientUnits="userSpaceOnUse" x1="1275.637" y1="489.87" x2="1272.989" y2="403.973" gradientTransform="matrix(-1 0 0 1 1279.6 0)"><stop offset=".121" stop-color="#fff"/><stop offset=".256" stop-color="#d0d2d2"/><stop offset=".592" stop-color="#616868"/><stop offset=".824" stop-color="#1b2424"/><stop offset=".931" stop-color="#000a0a"/></linearGradient><path fill="url(#F)" d="M5.285 446.922l.008-.011H5.28z"/><linearGradient id="G" gradientUnits="userSpaceOnUse" x1="882.921" y1="901.995" x2="873.294" y2="589.643" gradientTransform="matrix(-1 0 0 1 1279.6 0)"><stop offset=".121" stop-color="#fff"/><stop offset=".256" stop-color="#d0d2d2"/><stop offset=".592" stop-color="#616868"/><stop offset=".824" stop-color="#1b2424"/><stop offset=".931" stop-color="#000a0a"/></linearGradient><path fill="url(#G)" d="M408.868 507.222c-.004-.011 0-.025-.004-.036l-.039-.004.043.04z"/><linearGradient id="H" gradientUnits="userSpaceOnUse" x1="824.437" y1="902.049" x2="812.884" y2="527.227" gradientTransform="matrix(-1 0 0 1 1279.6 0)"><stop offset=".121" stop-color="#fff"/><stop offset=".256" stop-color="#d0d2d2"/><stop offset=".592" stop-color="#616868"/><stop offset=".824" stop-color="#1b2424"/><stop offset=".931" stop-color="#000a0a"/></linearGradient><path fill="url(#H)" d="M466.317 537.109l.061.044a.952.952 0 00.126-.044h-.187z"/><linearGradient id="I" gradientUnits="userSpaceOnUse" x1="805.673" y1="908.291" x2="792.378" y2="476.945" gradientTransform="matrix(-1 0 0 1 1279.6 0)"><stop offset=".121" stop-color="#fff"/><stop offset=".256" stop-color="#d0d2d2"/><stop offset=".592" stop-color="#616868"/><stop offset=".824" stop-color="#1b2424"/><stop offset=".931" stop-color="#000a0a"/></linearGradient><path fill="url(#I)" d="M483.717 588.584l.074.074c.017-.026.035-.049.052-.074h-.126z"/><linearGradient id="J" gradientUnits="userSpaceOnUse" x1="961.845" y1="578.714" x2="956.309" y2="399.112" gradientTransform="matrix(-1 0 0 1 1279.6 0)"><stop offset=".121" stop-color="#fff"/><stop offset=".256" stop-color="#d0d2d2"/><stop offset=".592" stop-color="#616868"/><stop offset=".824" stop-color="#1b2424"/><stop offset=".931" stop-color="#000a0a"/></linearGradient><path fill="url(#J)" d="M320.539 488.89l-.03.004.022.019c.004-.009.008-.016.008-.023z"/><linearGradient id="K" gradientUnits="userSpaceOnUse" x1="936.6" y1="528.185" x2="935.637" y2="496.949" gradientTransform="matrix(-1 0 0 1 1279.6 0)"><stop offset=".121" stop-color="#fff"/><stop offset=".256" stop-color="#d0d2d2"/><stop offset=".592" stop-color="#616868"/><stop offset=".824" stop-color="#1b2424"/><stop offset=".931" stop-color="#000a0a"/></linearGradient><path fill="url(#K)" d="M343.483 512.566v-.003h-.004z"/><linearGradient id="L" gradientUnits="userSpaceOnUse" x1="946.925" y1="652.014" x2="939.223" y2="402.132" gradientTransform="matrix(-1 0 0 1 1279.6 0)"><stop offset=".121" stop-color="#fff"/><stop offset=".256" stop-color="#d0d2d2"/><stop offset=".592" stop-color="#616868"/><stop offset=".824" stop-color="#1b2424"/><stop offset=".931" stop-color="#000a0a"/></linearGradient><path fill="url(#L)" d="M336.505 527.043l.026.03c.004-.008.013-.019.018-.03h-.044z"/><linearGradient id="M" gradientUnits="userSpaceOnUse" x1="955.533" y1="900.475" x2="942.389" y2="474.015" gradientTransform="matrix(-1 0 0 1 1279.6 0)"><stop offset=".121" stop-color="#fff"/><stop offset=".256" stop-color="#d0d2d2"/><stop offset=".592" stop-color="#616868"/><stop offset=".824" stop-color="#1b2424"/><stop offset=".931" stop-color="#000a0a"/></linearGradient><path fill="url(#M)" d="M334.374 567.748c.004-.063.004-.1.004-.1l-.086.025-.022.008.009.007.095.06z"/><linearGradient id="N" gradientUnits="userSpaceOnUse" x1="982.002" y1="902.801" x2="968.764" y2="473.317" gradientTransform="matrix(-1 0 0 1 1279.6 0)"><stop offset=".121" stop-color="#fff"/><stop offset=".256" stop-color="#d0d2d2"/><stop offset=".592" stop-color="#616868"/><stop offset=".824" stop-color="#1b2424"/><stop offset=".931" stop-color="#000a0a"/></linearGradient><path fill="url(#N)" d="M310.317 491.146v-.048l-.061-.008z"/><linearGradient id="O" gradientUnits="userSpaceOnUse" x1="1000.036" y1="902.196" x2="986.766" y2="471.642" gradientTransform="matrix(-1 0 0 1 1279.6 0)"><stop offset=".121" stop-color="#fff"/><stop offset=".256" stop-color="#d0d2d2"/><stop offset=".592" stop-color="#616868"/><stop offset=".824" stop-color="#1b2424"/><stop offset=".931" stop-color="#000a0a"/></linearGradient><path fill="url(#O)" d="M291.925 502.896s-.052.015-.108.019l.056.037.052-.056z"/><linearGradient id="P" gradientUnits="userSpaceOnUse" x1="1000.406" y1="904.56" x2="987.65" y2="490.694" gradientTransform="matrix(-1 0 0 1 1279.6 0)"><stop offset=".121" stop-color="#fff"/><stop offset=".256" stop-color="#d0d2d2"/><stop offset=".592" stop-color="#616868"/><stop offset=".824" stop-color="#1b2424"/><stop offset=".931" stop-color="#000a0a"/></linearGradient><path fill="url(#P)" d="M291.553 502.744l.052.034c-.004-.016-.004-.034-.004-.052-.018.007-.036.015-.048.018z"/><linearGradient id="Q" gradientUnits="userSpaceOnUse" x1="985.341" y1="545.299" x2="982.693" y2="459.402" gradientTransform="matrix(-1 0 0 1 1279.6 0)"><stop offset=".121" stop-color="#fff"/><stop offset=".256" stop-color="#d0d2d2"/><stop offset=".592" stop-color="#616868"/><stop offset=".824" stop-color="#1b2424"/><stop offset=".931" stop-color="#000a0a"/></linearGradient><path fill="url(#Q)" d="M295.577 502.345l.008.007c.004-.003.004-.003.004-.011-.004.004-.008.004-.012.004z"/><linearGradient id="R" gradientUnits="userSpaceOnUse" x1="1025.924" y1="613.717" x2="1018.944" y2="387.262" gradientTransform="matrix(-1 0 0 1 1279.6 0)"><stop offset=".121" stop-color="#fff"/><stop offset=".256" stop-color="#d0d2d2"/><stop offset=".592" stop-color="#616868"/><stop offset=".824" stop-color="#1b2424"/><stop offset=".931" stop-color="#000a0a"/></linearGradient><path fill="url(#R)" d="M257.169 500.489l.021-.022-.047-.007z"/><linearGradient id="S" gradientUnits="userSpaceOnUse" x1="1195.22" y1="896.311" x2="1181.961" y2="466.133" gradientTransform="matrix(-1 0 0 1 1279.6 0)"><stop offset=".121" stop-color="#fff"/><stop offset=".256" stop-color="#d0d2d2"/><stop offset=".592" stop-color="#616868"/><stop offset=".824" stop-color="#1b2424"/><stop offset=".931" stop-color="#000a0a"/></linearGradient><path fill="url(#S)" d="M98.885 428.564c-.035-.016-.074-.03-.104-.041-.026-.012-.048-.019-.069-.026.026.037.056.074.083.107l.03.037c.021-.025.043-.051.06-.077z"/><linearGradient id="T" gradientUnits="userSpaceOnUse" x1="1198.454" y1="898.461" x2="1185.132" y2="466.23" gradientTransform="matrix(-1 0 0 1 1279.6 0)"><stop offset=".121" stop-color="#fff"/><stop offset=".256" stop-color="#d0d2d2"/><stop offset=".592" stop-color="#616868"/><stop offset=".824" stop-color="#1b2424"/><stop offset=".931" stop-color="#000a0a"/></linearGradient><path fill="url(#T)" d="M95.559 429.187l.039.1.065-.1h-.104z"/><linearGradient id="U" gradientUnits="userSpaceOnUse" x1="1135.324" y1="899.705" x2="1122.016" y2="467.937" gradientTransform="matrix(-1 0 0 1 1279.6 0)"><stop offset=".121" stop-color="#fff"/><stop offset=".256" stop-color="#d0d2d2"/><stop offset=".592" stop-color="#616868"/><stop offset=".824" stop-color="#1b2424"/><stop offset=".931" stop-color="#000a0a"/></linearGradient><path fill="url(#U)" d="M157.365 472.572l.087.056c.021-.029.043-.056.065-.081l-.152.025z"/><linearGradient id="V" gradientUnits="userSpaceOnUse" x1="1083.433" y1="640.631" x2="1080.063" y2="531.308" gradientTransform="matrix(-1 0 0 1 1279.6 0)"><stop offset=".121" stop-color="#fff"/><stop offset=".256" stop-color="#d0d2d2"/><stop offset=".592" stop-color="#616868"/><stop offset=".824" stop-color="#1b2424"/><stop offset=".931" stop-color="#000a0a"/></linearGradient><path fill="url(#V)" d="M197.839 585.954l.017.015.009-.011z"/><linearGradient id="W" gradientUnits="userSpaceOnUse" x1="1084.039" y1="680.975" x2="1078.022" y2="485.755" gradientTransform="matrix(-1 0 0 1 1279.6 0)"><stop offset=".121" stop-color="#fff"/><stop offset=".256" stop-color="#d0d2d2"/><stop offset=".592" stop-color="#616868"/><stop offset=".824" stop-color="#1b2424"/><stop offset=".931" stop-color="#000a0a"/></linearGradient><path fill="url(#W)" d="M198.554 583.34l.03.025v-.014z"/><linearGradient id="X" gradientUnits="userSpaceOnUse" x1="1094.043" y1="900.076" x2="1080.77" y2="469.435" gradientTransform="matrix(-1 0 0 1 1279.6 0)"><stop offset=".121" stop-color="#fff"/><stop offset=".256" stop-color="#d0d2d2"/><stop offset=".592" stop-color="#616868"/><stop offset=".824" stop-color="#1b2424"/><stop offset=".931" stop-color="#000a0a"/></linearGradient><path fill="url(#X)" d="M195.968 560.574l.017.104c.03-.033.057-.07.087-.104h-.104z"/><linearGradient id="Y" gradientUnits="userSpaceOnUse" x1="1136.685" y1="900.563" x2="1123.349" y2="467.885" gradientTransform="matrix(-1 0 0 1 1279.6 0)"><stop offset=".121" stop-color="#fff"/><stop offset=".256" stop-color="#d0d2d2"/><stop offset=".592" stop-color="#616868"/><stop offset=".824" stop-color="#1b2424"/><stop offset=".931" stop-color="#000a0a"/></linearGradient><path fill="url(#Y)" d="M154.637 520.732l.021-.022c0-.037.004-.07.004-.104l-.074-.011c.018.045.031.09.049.137z"/><linearGradient id="Z" gradientUnits="userSpaceOnUse" x1="1168.334" y1="909.064" x2="1158.707" y2="596.713" gradientTransform="matrix(-1 0 0 1 1279.6 0)"><stop offset=".121" stop-color="#fff"/><stop offset=".256" stop-color="#d0d2d2"/><stop offset=".592" stop-color="#616868"/><stop offset=".824" stop-color="#1b2424"/><stop offset=".931" stop-color="#000a0a"/></linearGradient><path fill="url(#Z)" d="M123.67 506.015c.017-.011.03-.025.043-.037-.021.008-.035.012-.047.019 0 .007.004.014.004.018z"/></g></g></switch></svg>