<svg xmlns="http://www.w3.org/2000/svg" width="1280" height="800"><switch><g><linearGradient id="a" gradientUnits="userSpaceOnUse" x1="158.435" y1="962.256" x2="274.818" y2="473.053" gradientTransform="matrix(-1 0 0 1 1279.6 0)"><stop offset="0" stop-color="#fff"/><stop offset=".36" stop-color="#6a737e"/><stop offset=".589" stop-color="#101e30"/></linearGradient><path fill="url(#a)" d="M1280 755.334v-466.39c-.148-.439-.292-.85-.373-1.081l-.072-.197s-1.655 4.404-2.273 5.078c-.167.183-.23.504-.234.875-.01.675.181 1.513.303 1.977a4.467 4.467 0 00-.353 1.704c-.221.521-.519 1.072-.902 1.432-.901.845 0 .817 0 1.482 0 .662-.005.79-.005.79s-.896.762-1.799 1.593l2.706-.277s-.902.554-.907 1.233c-.004.679-1.348.706-1.348.706s-.451.831-.902 1.108c-.451.277.451.277.451.277h.902l1.804.277-.902.621-.901 1.042-2.256 1.662s.896-.11 2.12-.331c-.185 1.024-1.149 2.087-1.669 2.823-5.863 8.31 0 6.925 0 8.31l-3.157 3.047-4.06 1.939 5.863-.554-1.354 1.108-4.688 3.264-.009-.021c.164-.229.615-.456.303-1.031-.328-.601-.445-.692-.62-.758-.102-.041-.22-.072-.404-.186-.512-.314-.512-1.257-.63-1.952-.092-.572-.763-2.484-.993-3.138-.051-.142-.082-.223-.082-.223s-1.879 4.999-2.58 5.763c-.189.208-.261.572-.267.994-.01.766.206 1.717.344 2.244a5.076 5.076 0 00-.399 1.935c-.251.591-.589 1.216-1.024 1.625-1.023.958 0 .927 0 1.682 0 .751-.005.896-.005.896s-1.019.865-2.043 1.808l2.958-.303-.685.42s.059.04.17.106c-.213.238-.398.535-.4.861-.005.77-1.531.802-1.531.802s-.181.332-.435.668c-1.805-1.787-1.807-4.62-1.807-4.62l2.769.729s-1.364-3.62-2.618-4.441c.143.039.229.065.241.068-.043-.073-.798-1.25-1.182-2.426s1.459-.073 1.577-.002c-.043-.058-.799-.976-1.182-1.211-.396-.243 1.186 0 1.186 0s0-.971-.791-1.7c-.79-.729 0-.486 0-.729v-.971c0-.243-1.186-1.7-1.186-1.7h1.186s-.395-.729-.79-1.214c-.364-.449-.392-.689-.708-1.109.075-.563.079-1.163-.103-1.666.142-.051.284-.097.415-.139.791-.243 0 0-.791-.485a1.144 1.144 0 01-.233-.418c.127-.177.475-.352.233-.796-.253-.463-.344-.534-.479-.585-.079-.032-.17-.056-.313-.144-.395-.243-.395-.971-.486-1.508-.07-.442-.589-1.918-.767-2.423l-.063-.172s-1.451 3.861-1.992 4.451c-.146.161-.202.442-.206.768-.008.591.158 1.326.266 1.733-.176.428-.31.933-.31 1.494-.193.457-.454.939-.79 1.255-.791.74 0 .716 0 1.299 0 .581-.004.692-.004.692s-.787.668-1.578 1.396l2.372-.243s-.79.486-.794 1.081c-.005.595-1.183.619-1.183.619s-.396.729-.791.971c-.396.243.396.243.396.243h.791l1.581.243-.79.544-.791.913-1.978 1.457s.786-.096 1.859-.289c-.162.897-1.008 1.829-1.464 2.475-1.685 2.388-2.261 3.859-2.279 4.806-.142-.206-.229-.263-.341-.305-.098-.039-.21-.069-.385-.177-.487-.299-.487-1.196-.6-1.857-.088-.544-.726-2.363-.944-2.985l-.078-.212s-1.788 4.755-2.455 5.482c-.18.197-.248.544-.253.945-.01.729.195 1.633.327 2.135a4.825 4.825 0 00-.381 1.84c-.238.562-.56 1.157-.974 1.546-.975.912 0 .882 0 1.6 0 .715-.005.852-.005.852s-.97.823-1.943 1.72l2.922-.299s-.974.598-.979 1.331c-.005.733-1.456.763-1.456.763s-.487.897-.975 1.196c-.486.299.487.299.487.299h.974l1.948.299-.974.67-.975 1.124-2.435 1.794s.839-.104 2.017-.309l-2.106 1.293s.494.34 1.356.662c-.281.385-.565.741-.779 1.045-1.102 1.56-1.813 2.798-2.248 3.796a.498.498 0 00-.045-.108c-.186-.341-.253-.393-.352-.43-.058-.023-.125-.041-.229-.105-.29-.178-.29-.713-.356-1.108-.053-.324-.434-1.409-.563-1.78l-.047-.126s-1.065 2.836-1.464 3.269c-.107.118-.148.325-.15.563-.007.435.116.974.194 1.273a2.887 2.887 0 00-.227 1.097c-.143.335-.334.69-.581.922-.581.544 0 .526 0 .954 0 .426-.003.508-.003.508s-.578.491-1.159 1.026l1.743-.179s-.581.357-.584.794-.868.455-.868.455-.291.535-.581.713.29.178.29.178h.581l1.162.179-.581.399-.581.67-1.452 1.07s.577-.071 1.365-.212c-.002.012-.007.024-.01.037l-1.047.5.904-.085c-.236.508-.664 1-.922 1.366-1.458 2.065-1.788 3.199-1.646 3.865l-.771.536h1.053c.485.502 1.364.519 1.364.949l-2.033 1.962-1.181.564c-.14-.2-.3-.416-.484-.652-1.141-1.455 1.701.131 1.063-.653-.639-.783-1.488-1.566-2.764-2.48-1.276-.914-1.276-2.742-1.276-2.742l1.488.392s-.733-1.946-1.407-2.388l.13.037c-.023-.039-.43-.672-.636-1.304s.784-.04.848-.001c-.023-.031-.429-.525-.635-.651-.213-.13.638 0 .638 0s0-.522-.426-.914c-.425-.392 0-.261 0-.392v-.522c0-.13-.638-.914-.638-.914h.638s-.212-.392-.425-.653c-.195-.242-.211-.371-.381-.597.041-.303.043-.625-.055-.896.076-.027.152-.052.223-.075.426-.13 0 0-.425-.261a.616.616 0 01-.126-.225c.068-.095.256-.189.126-.428-.136-.25-.185-.288-.257-.315-.043-.017-.092-.03-.169-.077-.212-.131-.212-.522-.261-.811-.039-.238-.317-1.031-.412-1.303-.021-.059-.035-.093-.035-.093s-.779 2.076-1.071 2.393c-.078.086-.108.238-.11.413-.004.318.085.713.143.932-.095.23-.166.502-.166.803-.104.246-.244.505-.425.675-.426.398 0 .385 0 .698 0 .312-.003.372-.003.372s-.423.359-.848.751l1.275-.131s-.425.261-.428.581c-.002.32-.635.333-.635.333s-.213.392-.426.522c-.212.13.213.13.213.13h.425l.851.13-.425.292-.426.491-1.063.784s.422-.052.999-.156c-.087.482-.542.984-.786 1.331-.161.228-.301.438-.426.636-.222-.365-.464-.683-.699-.837.086.023.139.04.146.041-.026-.044-.482-.754-.713-1.463-.231-.709.88-.044.951-.001-.025-.035-.481-.589-.713-.731-.238-.146.716 0 .716 0s0-.586-.478-1.026c-.477-.439 0-.293 0-.439v-.586c0-.146-.716-1.026-.716-1.026h.716s-.238-.439-.477-.732c-.22-.271-.236-.416-.428-.669.046-.34.048-.702-.062-1.005.086-.031.172-.059.25-.083.478-.146 0 0-.477-.293a.67.67 0 01-.141-.252c.076-.107.286-.212.141-.48-.153-.28-.208-.322-.289-.353-.048-.019-.103-.034-.188-.086-.238-.146-.238-.586-.293-.91-.043-.267-.355-1.158-.463-1.462l-.038-.104s-.876 2.33-1.203 2.686c-.088.097-.121.267-.124.463-.005.357.096.8.16 1.046a2.388 2.388 0 00-.187.901c-.116.275-.274.567-.477.757-.478.447 0 .432 0 .784 0 .351-.003.418-.003.418s-.475.403-.951.842l1.431-.146s-.477.293-.479.652c-.002.359-.713.374-.713.374s-.238.439-.478.586c-.238.146.239.146.239.146h.477l.954.146-.477.328-.478.551-1.192.879s.474-.058 1.121-.174c-.098.542-.608 1.104-.883 1.493-3.102 4.395 0 3.663 0 4.395l-1.67 1.612-2.147 1.025 3.102-.293-.716.586-3.491 2.43c-.152-.202-.296-.378-.296-.378h.664s-.222-.408-.442-.68c-.204-.251-.22-.386-.396-.621.042-.315.044-.651-.058-.933.08-.029.159-.055.232-.078.442-.136 0 0-.442-.272a.634.634 0 01-.131-.234c.07-.099.266-.197.131-.446-.142-.26-.193-.299-.268-.328-.045-.018-.096-.031-.176-.08-.221-.136-.221-.544-.272-.844-.039-.248-.329-1.074-.429-1.357l-.036-.096s-.812 2.161-1.115 2.492c-.082.09-.113.248-.115.43-.004.331.089.742.148.97a2.202 2.202 0 00-.173.836c-.108.255-.254.526-.442.703-.442.415 0 .401 0 .728 0 .325-.003.387-.003.387s-.439.374-.883.782l1.328-.136s-.442.272-.445.604c-.002.333-.661.347-.661.347s-.222.408-.442.543c-.222.136.221.136.221.136h.443l.885.136-.442.305-.442.511-1.107.815s.439-.054 1.041-.162c-.09.497-.554 1.012-.811 1.373a40.393 40.393 0 00-.867-.638c-.978-.7-1.537-1.697-1.86-2.613.546-.213.902-.776.364-2.121l1.88.495s-1.323-3.512-2.539-4.308c.139.038.223.063.234.066-.024-.04-.263-.413-.534-.934.729.186 1.273.285.776-.325a20.284 20.284 0 00-1.389-1.529c.259-.327 1.437.378 1.53.433-.043-.057-.775-.947-1.147-1.175-.384-.236 1.15 0 1.15 0s0-.942-.767-1.649c-.768-.707 0-.471 0-.707v-.942c0-.235-1.15-1.648-1.15-1.648h1.15s-.384-.707-.768-1.178c-.353-.436-.379-.669-.686-1.077.072-.546.076-1.128-.101-1.615.139-.05.276-.094.403-.134.767-.236 0 0-.768-.471a1.113 1.113 0 01-.226-.405c.122-.172.46-.341.226-.772-.245-.45-.333-.518-.464-.567-.076-.031-.165-.054-.303-.139-.384-.235-.384-.942-.472-1.462-.069-.429-.571-1.861-.744-2.351-.038-.106-.062-.167-.062-.167s-1.407 3.745-1.933 4.317a.707.707 0 00-.144.289c-.428-.732-.905-1.386-1.368-1.69.155.042.25.072.263.074-.047-.079-.871-1.363-1.289-2.645s1.591-.08 1.721-.003c-.048-.063-.871-1.064-1.289-1.321-.432-.265 1.293 0 1.293 0s0-1.06-.862-1.854 0-.529 0-.794v-1.059c0-.265-1.293-1.854-1.293-1.854h1.293s-.431-.794-.862-1.324c-.396-.49-.427-.752-.771-1.21.082-.614.086-1.269-.112-1.816.155-.056.311-.106.453-.151.862-.265 0 0-.863-.53a1.247 1.247 0 01-.254-.456c.138-.193.518-.384.254-.868-.275-.506-.375-.583-.521-.638-.086-.035-.186-.061-.341-.156-.431-.265-.431-1.059-.53-1.645-.077-.482-.642-2.092-.836-2.643l-.069-.188s-1.212 3.224-1.91 4.46a1.959 1.959 0 01-.615-.24.955.955 0 01-.196-.351c.106-.149.398-.296.196-.669-.213-.39-.29-.449-.402-.492-.066-.026-.144-.047-.263-.12-.332-.204-.332-.816-.409-1.268-.06-.372-.495-1.613-.645-2.037l-.053-.145s-1.22 3.246-1.676 3.741c-.122.135-.169.372-.173.645-.006.498.134 1.115.224 1.458a3.31 3.31 0 00-.26 1.255c-.163.384-.383.79-.665 1.055-.664.623 0 .602 0 1.092 0 .488-.003.582-.003.582s-.661.561-1.326 1.174l1.994-.205s-.665.408-.668.909c-.004.5-.994.521-.994.521s-.332.612-.665.816c-.332.204.333.204.333.204h.665l1.329.204-.665.457-.664.768-1.662 1.225s.66-.081 1.563-.243c-.137.754-.848 1.538-1.23 2.08-4.32 6.124 0 5.103 0 6.124l-2.326 2.245-2.991 1.429 4.32-.408-.997.816-4.051 2.82c-1.557-1.852-3.607-3.717-6.621-5.876-3.166-2.268-3.166-6.804-3.166-6.804l3.693.972s-1.82-4.831-3.492-5.926c.189.052.306.087.321.091-.058-.097-1.065-1.668-1.577-3.237-.512-1.568 1.947-.097 2.104-.003-.058-.078-1.065-1.303-1.577-1.617-.527-.324 1.583 0 1.583 0s0-1.296-1.056-2.268c-1.055-.972 0-.648 0-.972v-1.296c0-.324-1.582-2.268-1.582-2.268h1.582s-.527-.972-1.055-1.62c-.485-.599-.522-.92-.944-1.48.1-.751.105-1.552-.138-2.223.19-.068.38-.129.555-.185 1.055-.324 0 0-1.056-.648a1.532 1.532 0 01-.312-.558c.169-.236.634-.47.312-1.063-.337-.619-.459-.713-.639-.781-.105-.042-.227-.075-.416-.191-.528-.324-.528-1.296-.649-2.012-.095-.59-.786-2.56-1.023-3.233l-.084-.23s-1.937 5.152-2.659 5.939c-.195.214-.27.59-.274 1.024-.011.789.212 1.77.354 2.313a5.245 5.245 0 00-.412 1.993c-.258.609-.606 1.254-1.055 1.675-1.056.988 0 .956 0 1.733 0 .774-.006.923-.006.923s-.416.354-.987.857c-.377-.503-.761-.975-.761-.975h1.483s-.494-.911-.989-1.519c-.455-.562-.489-.862-.885-1.388.094-.705.099-1.455-.129-2.083.178-.064.356-.122.52-.173.989-.304 0 0-.989-.607a1.45 1.45 0 01-.292-.522c.158-.222.594-.44.292-.996-.316-.58-.431-.668-.599-.732-.099-.04-.213-.07-.391-.179-.494-.304-.494-1.215-.608-1.886-.089-.553-.736-2.399-.959-3.031l-.079-.215s-1.815 4.829-2.492 5.566c-.184.201-.253.553-.258.96-.01.74.198 1.658.332 2.168a4.906 4.906 0 00-.386 1.868c-.243.571-.569 1.175-.989 1.57-.989.926 0 .896 0 1.625 0 .726-.005.866-.005.866s-.984.835-1.974 1.746l2.968-.304s-.989.607-.994 1.352-1.479.774-1.479.774-.494.911-.988 1.215c-.495.304.494.304.494.304h.989l1.979.303-.989.681-.989 1.142-2.473 1.822s.982-.121 2.325-.362c-.203 1.123-1.261 2.288-1.831 3.095-6.429 9.111 0 7.592 0 9.111l-3.461 3.341-3.907 1.866c-1.045-1.104-2.367-2.24-4.149-3.517-2.317-1.661-2.317-4.981-2.317-4.981l2.704.711s-1.333-3.536-2.558-4.338c.14.038.225.064.236.066-.043-.071-.78-1.222-1.155-2.37-.374-1.148 1.426-.071 1.541-.002-.042-.057-.78-.954-1.154-1.184-.387-.237 1.158 0 1.158 0s0-.949-.772-1.66 0-.474 0-.711v-.949c0-.237-1.158-1.661-1.158-1.661h1.158s-.386-.711-.772-1.186c-.354-.439-.382-.674-.69-1.084.073-.55.076-1.136-.102-1.627.14-.049.278-.095.406-.135.772-.237 0 0-.772-.475a1.113 1.113 0 01-.228-.408c.123-.173.463-.344.228-.778-.247-.453-.336-.522-.468-.572-.077-.031-.166-.055-.305-.14-.387-.237-.387-.949-.476-1.473-.069-.432-.575-1.874-.749-2.367l-.062-.168s-1.418 3.771-1.946 4.348c-.144.156-.197.432-.201.75-.008.578.155 1.295.259 1.693a3.85 3.85 0 00-.302 1.459c-.189.446-.443.918-.771 1.227-.773.723 0 .7 0 1.269 0 .567-.004.676-.004.676s-.77.652-1.542 1.364l2.317-.237s-.771.475-.775 1.056-1.155.604-1.155.604-.387.712-.772.949c-.387.237.386.237.386.237h.772l1.545.237-.771.531-.773.892-1.931 1.423s.767-.094 1.815-.283c-.158.876-.984 1.787-1.43 2.417-5.021 7.115 0 5.93 0 7.115l-2.703 2.609-3.476 1.661 5.021-.475-1.158.949-5.794 4.032h7.339l-2.317 1.897-8.497 5.218s3.09 2.134 7.338.711l1.545.237-3.862 2.135-6.565 4.744 6.952-.949 2.317.949-1.932 1.661-6.565 4.743 6.18-.948-4.249 3.795-1.938.872a7.484 7.484 0 00-.534-.776c-.361-.445-.389-.684-.702-1.1.074-.559.078-1.153-.102-1.651.141-.051.282-.097.411-.138.784-.24 0 0-.784-.481a1.137 1.137 0 01-.231-.414c.126-.176.471-.349.231-.79-.25-.459-.341-.529-.474-.58-.079-.031-.169-.055-.31-.142-.393-.241-.393-.963-.482-1.495-.071-.438-.584-1.902-.761-2.402l-.063-.171s-1.438 3.828-1.976 4.413c-.146.159-.2.438-.204.761-.008.586.157 1.315.263 1.718a3.9 3.9 0 00-.306 1.481c-.171.402-.398.819-.681 1.128-.603-1.409-1.799-3.925-2.926-4.663.181.049.291.083.307.086-.056-.093-1.015-1.588-1.501-3.081-.487-1.493 1.853-.093 2.003-.003-.055-.074-1.014-1.24-1.501-1.539-.502-.308 1.506 0 1.506 0s0-1.233-1.004-2.158c-1.004-.925 0-.617 0-.925v-1.233c0-.308-1.507-2.158-1.507-2.158h1.507s-.502-.925-1.004-1.542c-.462-.57-.497-.876-.899-1.409.096-.715.101-1.477-.131-2.115.182-.065.362-.124.527-.176 1.005-.309 0 0-1.004-.617a1.453 1.453 0 01-.296-.53c.16-.225.603-.447.296-1.012-.321-.589-.437-.678-.607-.743-.101-.04-.216-.071-.396-.182-.502-.309-.502-1.233-.618-1.915-.09-.561-.748-2.436-.974-3.078l-.08-.219s-1.844 4.903-2.531 5.652c-.186.204-.256.561-.261.974-.011.751.201 1.684.337 2.201a4.974 4.974 0 00-.393 1.897c-.246.58-.577 1.193-1.004 1.594-1.005.94 0 .91 0 1.65 0 .737-.005.878-.005.878s-1 .848-2.004 1.773l3.013-.309s-1.004.617-1.009 1.373c-.005.755-1.502.786-1.502.786s-.502.925-1.004 1.233.502.308.502.308h1.004l2.009.309-1.004.69-1.005 1.16-2.51 1.85s.997-.123 2.36-.368c-.206 1.14-1.28 2.324-1.858 3.143-6.527 9.251 0 7.709 0 9.251l-3.515 3.392-2.12 1.013a27.475 27.475 0 00-1.756-2.477c-2.569-3.277 3.831.295 2.395-1.47s-3.353-3.529-6.226-5.588c-2.873-2.06-2.873-6.176-2.873-6.176l3.352.882s-1.652-4.385-3.17-5.379c.172.047.277.08.292.083-.053-.088-.968-1.515-1.432-2.938-.465-1.423 1.767-.088 1.91-.003-.053-.071-.967-1.183-1.432-1.468-.479-.294 1.437 0 1.437 0s0-1.176-.957-2.059c-.958-.882 0-.588 0-.882v-1.176c0-.294-1.438-2.059-1.438-2.059h1.438s-.479-.882-.958-1.471c-.44-.544-.475-.835-.857-1.344.091-.683.096-1.409-.125-2.018.173-.062.345-.118.503-.167.958-.294 0 0-.958-.588a1.407 1.407 0 01-.282-.506c.153-.215.575-.426.282-.965-.306-.562-.416-.647-.579-.708-.096-.039-.206-.068-.378-.174-.479-.294-.479-1.176-.589-1.826-.087-.535-.714-2.323-.93-2.935l-.076-.209s-1.758 4.676-2.414 5.391c-.177.194-.244.535-.249.929-.01.716.192 1.606.321 2.099a4.752 4.752 0 00-.374 1.81c-.234.553-.551 1.138-.958 1.521-.957.897 0 .867 0 1.573 0 .703-.004.838-.004.838s-.953.809-1.911 1.691l2.873-.294s-.958.588-.962 1.309c-.006.72-1.433.75-1.433.75s-.479.882-.958 1.176c-.479.294.479.294.479.294h.958l1.915.294-.958.659-.957 1.106-2.395 1.764s.951-.117 2.251-.351c-.196 1.087-1.221 2.216-1.772 2.998-6.226 8.823 0 7.353 0 8.823l-3.353 3.234-4.31 2.06 6.226-.589-1.437 1.177-7.184 4.999h9.099l-2.873 2.354-.877.538c-.285-.008-.573-.017-.856-.022a181.922 181.922 0 00-5.736-.047c-.397-1.428-1.659-5.066-4.541-6.737-7.675-4.451 0-4.976 0-4.976s-2.132-3.403-5.116-6.546c-2.921-3.077 4.784-.128 5.107-.006l-5.107-4.708s5.116 1.309-.427-5.761c-2.288-2.918 3.411.262 2.132-1.31-1.279-1.571-2.984-3.142-5.543-4.975s-2.559-5.499-2.559-5.499l2.985.786s-1.472-3.904-2.823-4.79c.153.042.247.071.26.074-.047-.079-.861-1.349-1.274-2.616-.414-1.267 1.573-.079 1.701-.002-.047-.063-.861-1.053-1.275-1.307-.426-.262 1.279 0 1.279 0s0-1.047-.853-1.833 0-.524 0-.786v-1.047c0-.262-1.279-1.833-1.279-1.833h1.279s-.427-.786-.853-1.31c-.393-.484-.422-.743-.764-1.196.081-.607.086-1.254-.11-1.796.153-.055.307-.105.447-.149.853-.262 0 0-.853-.523a1.237 1.237 0 01-.252-.451c.137-.191.512-.38.252-.859-.272-.5-.371-.576-.516-.631-.086-.034-.184-.061-.337-.155-.427-.262-.427-1.047-.524-1.626-.077-.477-.636-2.069-.827-2.613l-.068-.186s-1.565 4.164-2.149 4.8c-.157.173-.217.477-.222.828-.009.638.171 1.43.286 1.869a4.242 4.242 0 00-.333 1.611c-.209.492-.49 1.013-.853 1.354-.853.798 0 .772 0 1.401v.241c-.652-1.282-1.475-2.625-2.265-3.142.192.052.309.088.325.091-.059-.098-1.076-1.685-1.593-3.268-.517-1.583 1.966-.098 2.125-.003-.059-.079-1.075-1.315-1.593-1.632-.532-.327 1.599 0 1.599 0s0-1.309-1.065-2.29 0-.654 0-.981v-1.308c0-.327-1.598-2.29-1.598-2.29h1.598s-.533-.981-1.065-1.636c-.49-.605-.527-.929-.953-1.495.101-.759.106-1.567-.139-2.244.191-.069.384-.131.56-.187 1.064-.327 0 0-1.065-.654-.123-.127-.229-.317-.314-.563.17-.239.639-.474.314-1.073-.341-.625-.464-.72-.645-.789-.106-.042-.229-.075-.421-.193-.533-.327-.533-1.309-.655-2.031-.096-.596-.794-2.584-1.033-3.265l-.086-.232s-1.954 5.201-2.685 5.996c-.197.216-.271.595-.276 1.034-.011.797.214 1.786.357 2.335a5.283 5.283 0 00-.416 2.012c-.262.615-.613 1.266-1.065 1.691-1.065.998 0 .965 0 1.75 0 .782-.006.932-.006.932s-1.06.9-2.125 1.881l3.196-.327s-1.065.654-1.071 1.456c-.005.801-1.593.834-1.593.834s-.532.981-1.064 1.309c-.533.327.532.327.532.327h1.065l2.131.327-1.065.732-1.065 1.23-2.663 1.963s1.058-.13 2.504-.39c-.219 1.209-1.358 2.464-1.972 3.334-6.925 9.813 0 8.178 0 9.813l-3.729 3.599-.337.161c-.29-.22-.589-.443-.909-.672-2.146-1.538-2.146-4.615-2.146-4.615l2.505.659s-1.234-3.276-2.369-4.02c.129.035.207.06.218.062-.039-.066-.723-1.131-1.069-2.195-.348-1.063 1.32-.066 1.428-.002-.039-.053-.723-.883-1.07-1.097-.357-.22 1.073 0 1.073 0s0-.879-.715-1.539c-.716-.659 0-.439 0-.659v-.879c0-.22-1.074-1.538-1.074-1.538h1.074s-.358-.66-.716-1.099c-.329-.407-.354-.624-.641-1.004.067-.51.071-1.052-.093-1.507.129-.046.257-.088.375-.125.716-.22 0 0-.716-.439a1.043 1.043 0 01-.211-.378c.115-.16.43-.319.211-.721-.229-.42-.311-.483-.433-.53-.071-.028-.154-.05-.282-.129-.358-.22-.358-.879-.44-1.365-.064-.4-.533-1.736-.694-2.193l-.058-.156s-1.313 3.494-1.804 4.028c-.132.145-.182.4-.186.695-.008.535.144 1.2.24 1.568a3.556 3.556 0 00-.279 1.352c-.176.413-.412.851-.716 1.136-.716.67 0 .648 0 1.175 0 .525-.004.626-.004.626s-.712.604-1.428 1.264l2.147-.22s-.716.439-.72.978-1.07.561-1.07.561-.357.659-.715.879c-.358.22.357.22.357.22h.716l1.432.22-.716.492-.716.826-1.789 1.319s.711-.087 1.682-.262c-.146.813-.912 1.656-1.324 2.24-4.652 6.593 0 5.494 0 6.593l-2.505 2.417-3.221 1.539 4.652-.439-1.074.879-5.367 3.736h6.799l-2.146 1.758-7.873 4.835s2.862 1.978 6.799.659l1.432.22-3.578 1.978-5.147 3.718c-.033-.209-.054-.428-.086-.621-.066-.413-.551-1.792-.717-2.263l-.059-.161s-1.355 3.605-1.861 4.156a.776.776 0 00-.159.378c-.691-1.549-1.841-3.808-2.929-4.521.194.053.313.089.329.093-.06-.099-1.09-1.706-1.613-3.309-.522-1.604 1.99-.1 2.152-.003-.06-.08-1.09-1.332-1.612-1.653-.54-.332 1.618 0 1.618 0s0-1.325-1.079-2.319 0-.663 0-.994v-1.325c0-.331-1.618-2.319-1.618-2.319h1.618s-.539-.994-1.079-1.656c-.496-.613-.534-.941-.966-1.514.104-.769.108-1.587-.14-2.272.194-.07.388-.133.566-.189 1.079-.331 0 0-1.079-.663-.124-.129-.231-.321-.318-.57.173-.242.647-.48.318-1.086-.345-.633-.469-.729-.652-.798-.108-.043-.232-.076-.427-.195-.539-.331-.539-1.325-.663-2.057-.097-.603-.804-2.617-1.047-3.306l-.086-.235s-1.979 5.267-2.719 6.072c-.199.219-.275.603-.28 1.047-.011.807.217 1.809.362 2.365a5.35 5.35 0 00-.422 2.038 6.356 6.356 0 01-.711 1.291c-.456-.744-.952-1.389-1.436-1.705.181.05.291.083.307.087-.056-.093-1.015-1.588-1.501-3.081-.487-1.492 1.853-.093 2.003-.003-.056-.074-1.015-1.24-1.501-1.539-.502-.309 1.506 0 1.506 0s0-1.233-1.004-2.159c-1.004-.925 0-.617 0-.925v-1.233c0-.309-1.507-2.159-1.507-2.159h1.507s-.502-.925-1.004-1.542c-.462-.57-.497-.875-.899-1.409.096-.715.101-1.477-.13-2.115.181-.064.361-.123.526-.176 1.005-.308 0 0-1.004-.617a1.453 1.453 0 01-.296-.53c.16-.225.603-.447.296-1.011-.321-.589-.437-.678-.607-.743-.101-.04-.216-.071-.396-.182-.502-.309-.502-1.233-.617-1.915-.091-.561-.748-2.436-.975-3.077l-.08-.219s-1.843 4.903-2.531 5.652c-.186.203-.256.561-.261.974-.01.751.201 1.684.337 2.201a4.987 4.987 0 00-.392 1.896c-.246.58-.578 1.193-1.005 1.594-1.004.94 0 .91 0 1.649 0 .737-.005.879-.005.879s-.999.848-2.003 1.773l3.013-.308s-1.005.617-1.01 1.372-1.501.786-1.501.786-.502.925-1.004 1.233c-.502.309.502.309.502.309h1.004l2.009.308-1.005.691-1.004 1.159-2.511 1.85s.998-.123 2.36-.368c-.205 1.14-1.279 2.323-1.857 3.143-6.527 9.25 0 7.708 0 9.25l-3.516 3.392-4.519 2.158 6.527-.617-1.506 1.233-7.532 5.242h9.54l-3.013 2.467-11.046 6.783s4.017 2.774 9.54.925l2.008.309-5.021 2.774-3.563 2.574a66.276 66.276 0 00-.517-1.513l-.07-.19s-.604 1.609-1.21 3.001l-3.176 2.295 2.124-.29c-.11.183-.159.446-.162.749-.01.652.175 1.463.292 1.912a4.346 4.346 0 00-.341 1.647c-.213.504-.501 1.036-.872 1.385-.872.816 0 .79 0 1.433 0 .64-.004.763-.004.763s-.868.737-1.74 1.54l2.616-.268s-.872.536-.876 1.192c-.005.656-1.304.683-1.304.683s-.437.804-.873 1.071c-.436.268.437.268.437.268h.872l1.744.268-.872.601-.265.306-4.793 2.158h2.208l-.203.149s.408-.051 1.039-.149h.966c-.246.937-1.095 1.889-1.568 2.56-2.347 3.326-2.748 5.043-2.416 6.012l-.528.371.769.078c.688.902 2.176.888 2.176 1.573l-3.053 2.946-3.925 1.875 3.29-.311c-.647.19-1.293.383-1.932.578-.171.044-.327.099-.497.154-.44.132-.866.264-1.306.407a83.14 83.14 0 00-1.067.335c-.233-.492-.64-1.13-1.292-1.962-1.383-1.764 2.062.158 1.288-.792-.772-.949-1.804-1.898-3.35-3.006-1.546-1.108-1.546-3.323-1.546-3.323l1.804.475s-.889-2.359-1.706-2.895c.093.025.149.043.157.044-.028-.047-.521-.814-.771-1.581-.25-.766.951-.047 1.028-.001-.028-.038-.521-.637-.771-.79-.258-.158.773 0 .773 0s0-.633-.516-1.107 0-.316 0-.475v-.634c0-.158-.773-1.107-.773-1.107h.773s-.258-.475-.516-.791c-.237-.293-.255-.449-.461-.724.049-.367.051-.758-.067-1.085.093-.033.186-.063.271-.091.516-.158 0 0-.516-.316a.744.744 0 01-.151-.272c.082-.115.309-.229.151-.519-.164-.303-.224-.349-.312-.382-.052-.021-.11-.036-.203-.093-.258-.158-.258-.633-.317-.982-.046-.288-.384-1.251-.5-1.58l-.041-.112s-.945 2.517-1.299 2.901c-.096.104-.132.287-.134.5-.006.385.104.863.173 1.129a2.57 2.57 0 00-.201.974c-.127.298-.297.612-.516.818-.516.482 0 .467 0 .847 0 .378-.003.451-.003.451s-.238.202-.552.48a61.137 61.137 0 00-1.356-1.003c-3.221-2.309-3.221-6.925-3.221-6.925l3.758.989s-1.853-4.916-3.555-6.03c.193.053.312.089.328.092-.06-.099-1.085-1.698-1.605-3.294s1.981-.099 2.143-.003c-.06-.079-1.085-1.325-1.605-1.646-.537-.33 1.61 0 1.61 0s0-1.319-1.073-2.308c-1.074-.989 0-.66 0-.989v-1.319c0-.33-1.611-2.308-1.611-2.308h1.611s-.537-.989-1.074-1.649c-.494-.609-.531-.936-.961-1.507.102-.765.107-1.579-.14-2.262.193-.069.387-.132.563-.188 1.074-.33 0 0-1.073-.66-.124-.128-.231-.319-.317-.566.172-.241.645-.479.317-1.082-.344-.63-.468-.726-.65-.795-.107-.042-.23-.075-.424-.194-.537-.329-.537-1.318-.66-2.047-.097-.601-.801-2.605-1.042-3.291l-.086-.234s-1.971 5.243-2.706 6.044c-.198.218-.273.601-.279 1.042-.011.804.216 1.801.36 2.354a5.348 5.348 0 00-.419 2.028c-.264.62-.618 1.276-1.074 1.705-1.073 1.006 0 .973 0 1.764 0 .788-.006.94-.006.94s-1.067.906-2.142 1.896l3.222-.33s-1.074.66-1.08 1.468c-.005.808-1.604.841-1.604.841s-.537.989-1.074 1.318c-.537.33.537.33.537.33h1.074l2.147.33-1.074.738-1.073 1.239-2.686 1.979s1.067-.131 2.524-.393c-.22 1.219-1.368 2.484-1.987 3.36-6.979 9.892 0 8.243 0 9.892l-3.758 3.627-4.833 2.309 6.98-.66-1.611 1.319-8.054 5.605h10.202l-3.222 2.638-11.813 7.254s4.296 2.968 10.201.989l2.148.33-4.644 2.565c-1.848.41-3.71.817-5.573 1.217-7.141 1.524-14.313 2.967-20.835 4.162-.29-.393-.611-.787-.611-.787h1.066s-.355-.654-.711-1.091c-.327-.403-.352-.619-.636-.997.067-.506.071-1.045-.093-1.496.128-.046.256-.088.373-.125.711-.218 0 0-.711-.436a1.049 1.049 0 01-.209-.376c.113-.159.426-.316.209-.715-.227-.417-.309-.48-.43-.526-.07-.028-.152-.05-.28-.129-.355-.218-.355-.872-.437-1.354-.064-.397-.53-1.724-.689-2.178l-.057-.154s-1.305 3.469-1.791 3.999c-.131.144-.182.396-.185.689-.008.531.143 1.191.238 1.558a3.523 3.523 0 00-.277 1.342c-.174.41-.409.844-.711 1.128-.71.665 0 .644 0 1.167 0 .521-.003.622-.003.622s-.616.522-1.275 1.124c-3.847.641-7.313 1.158-10.215 1.508-2.044.253-3.804.418-5.224.495-3.25.165.44.693 8.432 1.508 2.154.217 4.622.456 7.349.714l-1.55 1.142s.705-.087 1.67-.26c-.146.807-.905 1.644-1.315 2.224-4.618 6.545 0 5.454 0 6.545l-2.486 2.399-3.197 1.527 4.618-.437-1.065.873-5.329 3.709h6.75l-2.132 1.745-5.851 3.593a10.553 10.553 0 01-.627-1.473c-.417-1.279 1.589-.079 1.718-.002-.048-.063-.869-1.063-1.287-1.319-.431-.265 1.291 0 1.291 0s0-1.058-.86-1.851c-.861-.793 0-.528 0-.793v-1.058c0-.264-1.291-1.85-1.291-1.85h1.291s-.431-.793-.861-1.322c-.396-.488-.426-.75-.771-1.208.082-.613.087-1.266-.111-1.813.154-.056.31-.106.452-.151.86-.264 0 0-.861-.528a1.259 1.259 0 01-.254-.455c.138-.192.517-.383.254-.867-.275-.505-.374-.581-.521-.637-.086-.034-.186-.061-.341-.156-.43-.264-.43-1.057-.529-1.642-.077-.48-.642-2.088-.835-2.638l-.068-.188s-1.58 4.203-2.17 4.845c-.159.175-.22.481-.224.836-.009.644.173 1.443.289 1.887a4.282 4.282 0 00-.336 1.626c-.212.497-.495 1.023-.861 1.367-.86.806 0 .779 0 1.414 0 .632-.004.753-.004.753s-.856.727-1.718 1.521l2.583-.265s-.861.528-.865 1.176c-.005.648-1.287.675-1.287.675s-.431.793-.861 1.057c-.431.265.431.265.431.265h.861l1.722.265-.861.592-.86.994-2.152 1.586s.854-.105 2.023-.315c-.177.978-1.098 1.992-1.594 2.694-5.596 7.93 0 6.608 0 7.93l-3.013 2.908-1.225.585c-.313-.733-.944-2.07-1.54-2.46.095.026.152.044.16.045-.028-.048-.53-.831-.786-1.612-.255-.781.971-.049 1.05-.002-.029-.039-.531-.649-.786-.806-.264-.161.788 0 .788 0s0-.646-.525-1.13c-.526-.484 0-.323 0-.484v-.646c0-.162-.789-1.131-.789-1.131h.789s-.263-.484-.526-.807c-.241-.299-.26-.459-.47-.738.05-.374.052-.773-.068-1.107.095-.034.189-.064.275-.092.526-.162 0 0-.525-.323a.75.75 0 01-.155-.277c.084-.118.315-.234.155-.529-.168-.309-.229-.355-.318-.39-.053-.021-.113-.037-.208-.095-.263-.162-.263-.646-.323-1.003-.047-.294-.392-1.275-.51-1.611l-.042-.114s-.965 2.566-1.325 2.959c-.097.106-.134.294-.137.51-.005.394.105.882.177 1.153-.117.284-.205.62-.205.993-.129.303-.303.624-.526.834-.525.493 0 .477 0 .864 0 .386-.003.46-.003.46s-.522.444-1.049.929l1.578-.162s-.526.323-.529.719c-.002.396-.786.411-.786.411s-.263.485-.525.646.263.161.263.161h.526l1.052.161-.526.362-.525.606-1.314.969s.521-.063 1.235-.192c-.107.597-.67 1.217-.973 1.646-3.418 4.844 0 4.036 0 4.844l-1.841 1.776-2.366 1.13 3.418-.323-.788.646-3.944 2.744h4.995l-1.577 1.292-5.784 3.552s2.104 1.453 4.996.484l1.051.161-2.629 1.453-4.469 3.229 4.731-.646 1.578.646-1.314 1.13-4.47 3.229 4.206-.646-2.892 2.583-1.659.747a26.864 26.864 0 00-1.37-1.047c-1.656-1.187-1.656-3.56-1.656-3.56l1.932.509s-.952-2.527-1.826-3.1c.099.026.159.045.168.047-.03-.051-.558-.873-.825-1.693s1.019-.051 1.102-.001c-.031-.041-.558-.682-.825-.846-.276-.17.828 0 .828 0s0-.679-.553-1.187c-.552-.509 0-.339 0-.509v-.678c0-.17-.828-1.187-.828-1.187h.828s-.275-.509-.552-.848c-.254-.313-.273-.481-.494-.774.053-.394.056-.812-.071-1.163.099-.035.198-.067.289-.097.553-.169 0 0-.552-.339a.807.807 0 01-.163-.291c.089-.124.332-.246.163-.556-.177-.324-.24-.373-.334-.409-.055-.021-.118-.039-.218-.1-.276-.17-.276-.678-.34-1.053-.049-.309-.411-1.339-.535-1.691l-.044-.12s-1.013 2.694-1.392 3.106c-.102.112-.141.309-.144.536-.005.412.111.925.186 1.209a2.758 2.758 0 00-.216 1.043c-.135.318-.317.656-.552.876-.552.518 0 .5 0 .907 0 .405-.003.483-.003.483s-.549.466-1.101.975l1.655-.17s-.552.339-.555.754-.825.433-.825.433-.275.508-.552.678c-.275.17.276.17.276.17h.552l1.104.169-.552.38-.552.637-1.38 1.018s.548-.067 1.298-.202c-.113.626-.704 1.277-1.021 1.728-3.589 5.085 0 4.237 0 5.085l-1.933 1.864-2.483 1.187 3.588-.34-.828.679-4.14 2.881h5.243l-1.655 1.355-4.041 2.482a5.95 5.95 0 00-.286-.178c-7.68-4.454 0-4.979 0-4.979s-2.134-3.406-5.12-6.55c-2.923-3.079 4.787-.129 5.111-.006l-5.111-4.711s5.12 1.311-.427-5.765c-2.289-2.92 3.413.262 2.134-1.31-1.28-1.572-2.987-3.145-5.547-4.979-2.561-1.834-2.561-5.503-2.561-5.503l2.987.786s-1.473-3.906-2.825-4.792c.154.042.248.07.261.073-.047-.079-.862-1.35-1.275-2.617-.414-1.269 1.574-.079 1.702-.003-.047-.063-.862-1.054-1.276-1.308-.426-.262 1.28 0 1.28 0s0-1.048-.854-1.834c-.853-.786 0-.524 0-.786V505.2c0-.263-1.279-1.834-1.279-1.834h1.279s-.427-.786-.853-1.311c-.393-.484-.423-.744-.764-1.197.081-.608.085-1.255-.111-1.798.153-.055.307-.104.448-.149.853-.262 0 0-.854-.523a1.23 1.23 0 01-.252-.451c.137-.191.512-.38.252-.859-.273-.5-.371-.576-.517-.631-.085-.034-.184-.061-.337-.155-.427-.262-.427-1.048-.524-1.627-.077-.477-.636-2.07-.828-2.615l-.068-.186s-1.565 4.166-2.15 4.803c-.158.173-.218.477-.222.828-.009.638.171 1.431.286 1.87a4.251 4.251 0 00-.333 1.612c-.209.492-.491 1.014-.854 1.354-.854.799 0 .772 0 1.401 0 .627-.004.747-.004.747s-.85.721-1.703 1.507l2.561-.263s-.854.524-.857 1.166c-.005.643-1.276.668-1.276.668s-.427.786-.853 1.049c-.427.262.426.262.426.262h.854l1.707.262-.854.587-.854.985-2.133 1.572s.847-.104 2.006-.313c-.175.969-1.088 1.975-1.579 2.671-5.547 7.86 0 6.551 0 7.86l-2.987 2.882-3.84 1.835 5.547-.524-1.28 1.048-6.4 4.455h8.107l-2.561 2.096-9.387 5.765s3.414 2.357 8.107.786l1.706.262-4.267 2.358-7.253 5.24 7.68-1.048 2.561 1.048-2.134 1.834-7.253 5.24 6.826-1.048-4.693 4.192-6.399 2.882h8.959l-3.413 3.406-5.973 4.192 5.12.524-.427 2.358-5.974 3.93h5.12l-.374.574c-16.623 4.851-29.369 10.174-31.476 15.631-1.155 2.994 84.092 5.705 95.333 9.084 6.913 2.069 26.924-.465 35 1.758 3.563.98 40.028 2.159 35.334 3.81-8.334 2.931 24.024-.867 28.666 1.465 4.667 2.345 6.441 3.717 2.334 4.103-2.325.219-1.133 4.163-4.667 5.274-3.108.969-13.55 1.939-17.667 2.931-39.205 9.444-120.498 14.287-163.536 33.55a123.634 123.634 0 00-5.266 2.499C692.613 676.741 1280 755.334 1280 755.334zM859.314 478.798c-.022-.038-.256-.403-.516-.907 6.023.559 12.858 1.184 20.133 1.864l.586.055-3.382 2.442 8.061-1.237c-.03.146-.053.298-.068.453l-5.308 4.741-8.053 3.627h10.323c-.05.043-.101.083-.151.114-.452.277.453.277.453.277h.258l-3.903 3.895-5.655 3.97a1.393 1.393 0 01-.248-.121c-.435-.268-.435-1.069-.535-1.659-.078-.486-.647-2.11-.844-2.666l-.069-.189s-1.596 4.247-2.192 4.896c-.16.176-.222.485-.226.844-.005.308.035.65.089.974l-3.775-3.48s4.264 1.091-.355-4.8c-1.906-2.431 2.843.219 1.777-1.091-1.066-1.309-2.487-2.618-4.619-4.146-2.131-1.526-2.131-4.581-2.131-4.581l2.486.654s-1.226-3.253-2.352-3.99c.128.034.206.058.216.061zm182.615-58.164c-.964.015-1.913.038-2.846.07l-.234-1.583 3.08 1.513z"/><g><linearGradient id="b" gradientUnits="userSpaceOnUse" x1="856.874" y1="906.488" x2="843.601" y2="475.854" gradientTransform="matrix(-1 0 0 1 1279.6 0)"><stop offset=".121" stop-color="#fff"/><stop offset=".256" stop-color="#d0d2d2"/><stop offset=".592" stop-color="#616868"/><stop offset=".824" stop-color="#1b2424"/><stop offset=".931" stop-color="#000a0a"/></linearGradient><path fill="url(#b)" d="M434.736 514.988c.065-.107.134-.219.208-.333-.147.077-.291.122-.291.24l.083.093z"/><linearGradient id="c" gradientUnits="userSpaceOnUse" x1="947.871" y1="906.176" x2="934.518" y2="472.939" gradientTransform="matrix(-1 0 0 1 1279.6 0)"><stop offset=".121" stop-color="#fff"/><stop offset=".256" stop-color="#d0d2d2"/><stop offset=".592" stop-color="#616868"/><stop offset=".824" stop-color="#1b2424"/><stop offset=".931" stop-color="#000a0a"/></linearGradient><path fill="url(#c)" d="M343.847 510.521c.043.06.087.115.139.16.048-.122-.078-.118-.139-.16z"/><linearGradient id="d" gradientUnits="userSpaceOnUse" x1="947.48" y1="902.343" x2="934.256" y2="473.317" gradientTransform="matrix(-1 0 0 1 1279.6 0)"><stop offset=".121" stop-color="#fff"/><stop offset=".256" stop-color="#d0d2d2"/><stop offset=".592" stop-color="#616868"/><stop offset=".824" stop-color="#1b2424"/><stop offset=".931" stop-color="#000a0a"/></linearGradient><path fill="url(#d)" d="M344.016 512.377l.238.2c.026-.2-.086-.237-.238-.2z"/><linearGradient id="e" gradientUnits="userSpaceOnUse" x1="978.081" y1="902.12" x2="964.834" y2="472.337" gradientTransform="matrix(-1 0 0 1 1279.6 0)"><stop offset=".121" stop-color="#fff"/><stop offset=".256" stop-color="#d0d2d2"/><stop offset=".592" stop-color="#616868"/><stop offset=".824" stop-color="#1b2424"/><stop offset=".931" stop-color="#000a0a"/></linearGradient><path fill="url(#e)" d="M314.089 498.037c-.073-.015-.151-.029-.229-.048a1.1 1.1 0 00.057.233c.056-.062.112-.121.172-.185z"/><linearGradient id="f" gradientUnits="userSpaceOnUse" x1="1285.484" y1="892.971" x2="1272.239" y2="463.227" gradientTransform="matrix(-1 0 0 1 1279.6 0)"><stop offset=".121" stop-color="#fff"/><stop offset=".256" stop-color="#d0d2d2"/><stop offset=".592" stop-color="#616868"/><stop offset=".824" stop-color="#1b2424"/><stop offset=".931" stop-color="#000a0a"/></linearGradient><path fill="url(#f)" d="M7.299 466.347l-.078.033c.022.07.048.148.078.229a1.272 1.272 0 010-.262z"/><linearGradient id="g" gradientUnits="userSpaceOnUse" x1="1043.193" y1="901.291" x2="1029.911" y2="470.358" gradientTransform="matrix(-1 0 0 1 1279.6 0)"><stop offset=".121" stop-color="#fff"/><stop offset=".256" stop-color="#d0d2d2"/><stop offset=".592" stop-color="#616868"/><stop offset=".824" stop-color="#1b2424"/><stop offset=".931" stop-color="#000a0a"/></linearGradient><path fill="url(#g)" d="M249.134 489.034c.104-.137.19-.289.264-.44l-.03-.004-.429.204h-.004l-.087.04.187.134.099.066z"/><linearGradient id="h" gradientUnits="userSpaceOnUse" x1="1110.766" y1="899.554" x2="1097.475" y2="468.349" gradientTransform="matrix(-1 0 0 1 1279.6 0)"><stop offset=".121" stop-color="#fff"/><stop offset=".256" stop-color="#d0d2d2"/><stop offset=".592" stop-color="#616868"/><stop offset=".824" stop-color="#1b2424"/><stop offset=".931" stop-color="#000a0a"/></linearGradient><path fill="url(#h)" d="M181.449 486.294l.204.133c.013-.056.026-.11.043-.174l-.247.041z"/><linearGradient id="i" gradientUnits="userSpaceOnUse" x1="1160.744" y1="896.731" x2="1147.498" y2="466.957" gradientTransform="matrix(-1 0 0 1 1279.6 0)"><stop offset=".121" stop-color="#fff"/><stop offset=".256" stop-color="#d0d2d2"/><stop offset=".592" stop-color="#616868"/><stop offset=".824" stop-color="#1b2424"/><stop offset=".931" stop-color="#000a0a"/></linearGradient><path fill="url(#i)" d="M129.461 546.809l.351.223a1.085 1.085 0 00-.187-.252l-.164.029z"/><linearGradient id="j" gradientUnits="userSpaceOnUse" x1="1164.765" y1="897.361" x2="1151.492" y2="466.744" gradientTransform="matrix(-1 0 0 1 1279.6 0)"><stop offset=".121" stop-color="#fff"/><stop offset=".256" stop-color="#d0d2d2"/><stop offset=".592" stop-color="#616868"/><stop offset=".824" stop-color="#1b2424"/><stop offset=".931" stop-color="#000a0a"/></linearGradient><path fill="url(#j)" d="M127.4 504.504c-.229.011-.546.093-.867.192-.017.008-.034.011-.052.019l.035.026.308.407.078.066.056-.081c.139-.203.29-.418.442-.629z"/><linearGradient id="k" gradientUnits="userSpaceOnUse" x1="955.62" y1="902.337" x2="942.392" y2="473.159" gradientTransform="matrix(-1 0 0 1 1279.6 0)"><stop offset=".121" stop-color="#fff"/><stop offset=".256" stop-color="#d0d2d2"/><stop offset=".592" stop-color="#616868"/><stop offset=".824" stop-color="#1b2424"/><stop offset=".931" stop-color="#000a0a"/></linearGradient><path fill="url(#k)" d="M334.426 564.326a.89.89 0 01.117-.107c.104-.07-.13-.052-.308-.026l.191.133z"/><linearGradient id="l" gradientUnits="userSpaceOnUse" x1="943.123" y1="903.607" x2="929.86" y2="473.287" gradientTransform="matrix(-1 0 0 1 1279.6 0)"><stop offset=".121" stop-color="#fff"/><stop offset=".256" stop-color="#d0d2d2"/><stop offset=".592" stop-color="#616868"/><stop offset=".824" stop-color="#1b2424"/><stop offset=".931" stop-color="#000a0a"/></linearGradient><path fill="url(#l)" d="M346.767 566.955c.057.104.108.204.16.308.026-.159-.035-.259-.16-.308z"/><linearGradient id="m" gradientUnits="userSpaceOnUse" x1="1259.984" y1="892.985" x2="1246.758" y2="463.878" gradientTransform="matrix(-1 0 0 1 1279.6 0)"><stop offset=".121" stop-color="#fff"/><stop offset=".256" stop-color="#d0d2d2"/><stop offset=".592" stop-color="#616868"/><stop offset=".824" stop-color="#1b2424"/><stop offset=".931" stop-color="#000a0a"/></linearGradient><path fill="url(#m)" d="M34.311 413.876l.108.2c.013-.049.022-.101.035-.145-.048-.022-.096-.036-.143-.055z"/><linearGradient id="n" gradientUnits="userSpaceOnUse" x1="1225.533" y1="894.62" x2="1212.29" y2="464.961" gradientTransform="matrix(-1 0 0 1 1279.6 0)"><stop offset=".121" stop-color="#fff"/><stop offset=".256" stop-color="#d0d2d2"/><stop offset=".592" stop-color="#616868"/><stop offset=".824" stop-color="#1b2424"/><stop offset=".931" stop-color="#000a0a"/></linearGradient><path fill="url(#n)" d="M68.755 412.791l.195.155.122.097a.252.252 0 00-.052-.148c-.053-.067-.144-.1-.265-.104z"/><linearGradient id="o" gradientUnits="userSpaceOnUse" x1="1141.999" y1="898.399" x2="1128.718" y2="467.491" gradientTransform="matrix(-1 0 0 1 1279.6 0)"><stop offset=".121" stop-color="#fff"/><stop offset=".256" stop-color="#d0d2d2"/><stop offset=".592" stop-color="#616868"/><stop offset=".824" stop-color="#1b2424"/><stop offset=".931" stop-color="#000a0a"/></linearGradient><path fill="url(#o)" d="M151.05 459.555l.147.163c.009-.13.009-.208.009-.208l-.156.045z"/><linearGradient id="p" gradientUnits="userSpaceOnUse" x1="1014.443" y1="902.509" x2="1001.15" y2="471.212" gradientTransform="matrix(-1 0 0 1 1279.6 0)"><stop offset=".121" stop-color="#fff"/><stop offset=".256" stop-color="#d0d2d2"/><stop offset=".592" stop-color="#616868"/><stop offset=".824" stop-color="#1b2424"/><stop offset=".931" stop-color="#000a0a"/></linearGradient><path fill="url(#p)" d="M277.934 483.516l.234.167a.895.895 0 01.035-.118c-.078-.012-.169-.03-.269-.049z"/><linearGradient id="q" gradientUnits="userSpaceOnUse" x1="708.59" y1="908.111" x2="695.414" y2="480.627" gradientTransform="matrix(-1 0 0 1 1279.6 0)"><stop offset=".121" stop-color="#fff"/><stop offset=".256" stop-color="#d0d2d2"/><stop offset=".592" stop-color="#616868"/><stop offset=".824" stop-color="#1b2424"/><stop offset=".931" stop-color="#000a0a"/></linearGradient><path fill="url(#q)" d="M582.373 536.628c.009.06.026.122.048.185.039-.052.083-.1.125-.151a5.911 5.911 0 00-.173-.034z"/><linearGradient id="r" gradientUnits="userSpaceOnUse" x1="685.087" y1="911.526" x2="671.814" y2="480.908" gradientTransform="matrix(-1 0 0 1 1279.6 0)"><stop offset=".121" stop-color="#fff"/><stop offset=".256" stop-color="#d0d2d2"/><stop offset=".592" stop-color="#616868"/><stop offset=".824" stop-color="#1b2424"/><stop offset=".931" stop-color="#000a0a"/></linearGradient><path fill="url(#r)" d="M605.949 542.579c.026-.037.057-.078.091-.118-.091-.019-.195-.033-.303-.056l.212.174z"/><linearGradient id="s" gradientUnits="userSpaceOnUse" x1="656.585" y1="913.276" x2="643.28" y2="481.588" gradientTransform="matrix(-1 0 0 1 1279.6 0)"><stop offset=".121" stop-color="#fff"/><stop offset=".256" stop-color="#d0d2d2"/><stop offset=".592" stop-color="#616868"/><stop offset=".824" stop-color="#1b2424"/><stop offset=".931" stop-color="#000a0a"/></linearGradient><path fill="url(#s)" d="M634.208 545.627l.229.219c.017-.074.03-.148.047-.219h-.276z"/><linearGradient id="t" gradientUnits="userSpaceOnUse" x1="645.254" y1="913.713" x2="631.948" y2="481.995" gradientTransform="matrix(-1 0 0 1 1279.6 0)"><stop offset=".121" stop-color="#fff"/><stop offset=".256" stop-color="#d0d2d2"/><stop offset=".592" stop-color="#616868"/><stop offset=".824" stop-color="#1b2424"/><stop offset=".931" stop-color="#000a0a"/></linearGradient><path fill="url(#t)" d="M646.154 527.702l.126.138c.021-.104.039-.204.057-.301-.096.049-.183.082-.183.163z"/><linearGradient id="u" gradientUnits="userSpaceOnUse" x1="614.082" y1="912.047" x2="600.866" y2="483.273" gradientTransform="matrix(-1 0 0 1 1279.6 0)"><stop offset=".121" stop-color="#fff"/><stop offset=".256" stop-color="#d0d2d2"/><stop offset=".592" stop-color="#616868"/><stop offset=".824" stop-color="#1b2424"/><stop offset=".931" stop-color="#000a0a"/></linearGradient><path fill="url(#u)" d="M676.727 544.872l.138.141.078-.141z"/><linearGradient id="v" gradientUnits="userSpaceOnUse" x1="558.483" y1="916.618" x2="545.159" y2="484.323" gradientTransform="matrix(-1 0 0 1 1279.6 0)"><stop offset=".121" stop-color="#fff"/><stop offset=".256" stop-color="#d0d2d2"/><stop offset=".592" stop-color="#616868"/><stop offset=".824" stop-color="#1b2424"/><stop offset=".931" stop-color="#000a0a"/></linearGradient><path fill="url(#v)" d="M732.011 563.526c.025-.041.052-.082.073-.122l-.16-.022c.03.044.06.096.087.144z"/><linearGradient id="w" gradientUnits="userSpaceOnUse" x1="532.252" y1="914.535" x2="519.035" y2="485.715" gradientTransform="matrix(-1 0 0 1 1279.6 0)"><stop offset=".121" stop-color="#fff"/><stop offset=".256" stop-color="#d0d2d2"/><stop offset=".592" stop-color="#616868"/><stop offset=".824" stop-color="#1b2424"/><stop offset=".931" stop-color="#000a0a"/></linearGradient><path fill="url(#w)" d="M758.472 557.464l-.238.04.139.111c.034-.052.065-.103.099-.151z"/><linearGradient id="x" gradientUnits="userSpaceOnUse" x1="531.117" y1="916.163" x2="517.841" y2="485.435" gradientTransform="matrix(-1 0 0 1 1279.6 0)"><stop offset=".121" stop-color="#fff"/><stop offset=".256" stop-color="#d0d2d2"/><stop offset=".592" stop-color="#616868"/><stop offset=".824" stop-color="#1b2424"/><stop offset=".931" stop-color="#000a0a"/></linearGradient><path fill="url(#x)" d="M759.521 554.297c.073.074.146.152.225.233-.001-.17-.092-.237-.225-.233z"/><linearGradient id="y" gradientUnits="userSpaceOnUse" x1="483.745" y1="917.269" x2="470.479" y2="486.871" gradientTransform="matrix(-1 0 0 1 1279.6 0)"><stop offset=".121" stop-color="#fff"/><stop offset=".256" stop-color="#d0d2d2"/><stop offset=".592" stop-color="#616868"/><stop offset=".824" stop-color="#1b2424"/><stop offset=".931" stop-color="#000a0a"/></linearGradient><path fill="url(#y)" d="M806.535 574.98h-.261l.229.215c.015-.073.023-.147.032-.215z"/><linearGradient id="z" gradientUnits="userSpaceOnUse" x1="511.303" y1="916.401" x2="498.039" y2="486.077" gradientTransform="matrix(-1 0 0 1 1279.6 0)"><stop offset=".121" stop-color="#fff"/><stop offset=".256" stop-color="#d0d2d2"/><stop offset=".592" stop-color="#616868"/><stop offset=".824" stop-color="#1b2424"/><stop offset=".931" stop-color="#000a0a"/></linearGradient><path fill="url(#z)" d="M779.155 566.489c.013-.052.025-.115.043-.186l-.221.041.178.145z"/><linearGradient id="A" gradientUnits="userSpaceOnUse" x1="496.66" y1="918.998" x2="483.297" y2="485.449" gradientTransform="matrix(-1 0 0 1 1279.6 0)"><stop offset=".121" stop-color="#fff"/><stop offset=".256" stop-color="#d0d2d2"/><stop offset=".592" stop-color="#616868"/><stop offset=".824" stop-color="#1b2424"/><stop offset=".931" stop-color="#000a0a"/></linearGradient><path fill="url(#A)" d="M792.02 622.512c.057-.074.108-.152.165-.23l-.199.026.034.204z"/><linearGradient id="B" gradientUnits="userSpaceOnUse" x1="633.786" y1="912.651" x2="620.526" y2="482.427" gradientTransform="matrix(-1 0 0 1 1279.6 0)"><stop offset=".121" stop-color="#fff"/><stop offset=".256" stop-color="#d0d2d2"/><stop offset=".592" stop-color="#616868"/><stop offset=".824" stop-color="#1b2424"/><stop offset=".931" stop-color="#000a0a"/></linearGradient><path fill="url(#B)" d="M654.372 638.129c.047-.06.095-.118.147-.186a1.05 1.05 0 01-.243-.066l-.233.041.329.211z"/><linearGradient id="C" gradientUnits="userSpaceOnUse" x1="671.84" y1="911.416" x2="658.585" y2="481.365" gradientTransform="matrix(-1 0 0 1 1279.6 0)"><stop offset=".121" stop-color="#fff"/><stop offset=".256" stop-color="#d0d2d2"/><stop offset=".592" stop-color="#616868"/><stop offset=".824" stop-color="#1b2424"/><stop offset=".931" stop-color="#000a0a"/></linearGradient><path fill="url(#C)" d="M616.601 625.367l.125-.086h-.294l.169.086z"/><linearGradient id="D" gradientUnits="userSpaceOnUse" x1="676.722" y1="911.329" x2="663.464" y2="481.199" gradientTransform="matrix(-1 0 0 1 1279.6 0)"><stop offset=".121" stop-color="#fff"/><stop offset=".256" stop-color="#d0d2d2"/><stop offset=".592" stop-color="#616868"/><stop offset=".824" stop-color="#1b2424"/><stop offset=".931" stop-color="#000a0a"/></linearGradient><path fill="url(#D)" d="M611.948 611.612l.126.122c.043-.008.121-.022.195-.078a.245.245 0 00.048-.1c-.022-.041-.083-.082-.052-.174l-.347.166.03.064z"/><linearGradient id="E" gradientUnits="userSpaceOnUse" x1="678.878" y1="911.305" x2="665.618" y2="481.09" gradientTransform="matrix(-1 0 0 1 1279.6 0)"><stop offset=".121" stop-color="#fff"/><stop offset=".256" stop-color="#d0d2d2"/><stop offset=".592" stop-color="#616868"/><stop offset=".824" stop-color="#1b2424"/><stop offset=".931" stop-color="#000a0a"/></linearGradient><path fill="url(#E)" d="M608.787 648.606c.052-.07.108-.142.165-.215-.33.067-.291.148-.165.215z"/><linearGradient id="F" gradientUnits="userSpaceOnUse" x1="1276.177" y1="554.827" x2="1268.956" y2="320.563" gradientTransform="matrix(-1 0 0 1 1279.6 0)"><stop offset=".121" stop-color="#fff"/><stop offset=".256" stop-color="#d0d2d2"/><stop offset=".592" stop-color="#616868"/><stop offset=".824" stop-color="#1b2424"/><stop offset=".931" stop-color="#000a0a"/></linearGradient><path fill="url(#F)" d="M7.074 437.667h-.078l.061.029.017-.029z"/><linearGradient id="G" gradientUnits="userSpaceOnUse" x1="1275.637" y1="489.87" x2="1272.989" y2="403.973" gradientTransform="matrix(-1 0 0 1 1279.6 0)"><stop offset=".121" stop-color="#fff"/><stop offset=".256" stop-color="#d0d2d2"/><stop offset=".592" stop-color="#616868"/><stop offset=".824" stop-color="#1b2424"/><stop offset=".931" stop-color="#000a0a"/></linearGradient><path fill="url(#G)" d="M5.285 446.922l.008-.011H5.28z"/><linearGradient id="H" gradientUnits="userSpaceOnUse" x1="483.604" y1="916.912" x2="470.301" y2="485.288" gradientTransform="matrix(-1 0 0 1 1279.6 0)"><stop offset=".121" stop-color="#fff"/><stop offset=".256" stop-color="#d0d2d2"/><stop offset=".592" stop-color="#616868"/><stop offset=".824" stop-color="#1b2424"/><stop offset=".931" stop-color="#000a0a"/></linearGradient><path fill="url(#H)" d="M806.773 566.118c.017.049.038.097.056.145.026-.081-.004-.118-.056-.145z"/><linearGradient id="I" gradientUnits="userSpaceOnUse" x1="882.921" y1="901.995" x2="873.294" y2="589.643" gradientTransform="matrix(-1 0 0 1 1279.6 0)"><stop offset=".121" stop-color="#fff"/><stop offset=".256" stop-color="#d0d2d2"/><stop offset=".592" stop-color="#616868"/><stop offset=".824" stop-color="#1b2424"/><stop offset=".931" stop-color="#000a0a"/></linearGradient><path fill="url(#I)" d="M408.868 507.222c-.004-.011 0-.025-.004-.036l-.039-.004.043.04z"/><linearGradient id="J" gradientUnits="userSpaceOnUse" x1="824.437" y1="902.049" x2="812.884" y2="527.227" gradientTransform="matrix(-1 0 0 1 1279.6 0)"><stop offset=".121" stop-color="#fff"/><stop offset=".256" stop-color="#d0d2d2"/><stop offset=".592" stop-color="#616868"/><stop offset=".824" stop-color="#1b2424"/><stop offset=".931" stop-color="#000a0a"/></linearGradient><path fill="url(#J)" d="M466.317 537.109l.061.044a.952.952 0 00.126-.044h-.187z"/><linearGradient id="K" gradientUnits="userSpaceOnUse" x1="805.673" y1="908.291" x2="792.378" y2="476.945" gradientTransform="matrix(-1 0 0 1 1279.6 0)"><stop offset=".121" stop-color="#fff"/><stop offset=".256" stop-color="#d0d2d2"/><stop offset=".592" stop-color="#616868"/><stop offset=".824" stop-color="#1b2424"/><stop offset=".931" stop-color="#000a0a"/></linearGradient><path fill="url(#K)" d="M483.717 588.584l.074.074c.017-.026.035-.049.052-.074h-.126z"/><linearGradient id="L" gradientUnits="userSpaceOnUse" x1="685.028" y1="915.95" x2="671.567" y2="479.199" gradientTransform="matrix(-1 0 0 1 1279.6 0)"><stop offset=".121" stop-color="#fff"/><stop offset=".256" stop-color="#d0d2d2"/><stop offset=".592" stop-color="#616868"/><stop offset=".824" stop-color="#1b2424"/><stop offset=".931" stop-color="#000a0a"/></linearGradient><path fill="url(#L)" d="M606.014 542.631l.061.049c.022-.045.048-.086.069-.126a1.54 1.54 0 00-.13.077z"/><linearGradient id="M" gradientUnits="userSpaceOnUse" x1="670.076" y1="648.98" x2="663.578" y2="438.142" gradientTransform="matrix(-1 0 0 1 1279.6 0)"><stop offset=".121" stop-color="#fff"/><stop offset=".256" stop-color="#d0d2d2"/><stop offset=".592" stop-color="#616868"/><stop offset=".824" stop-color="#1b2424"/><stop offset=".931" stop-color="#000a0a"/></linearGradient><path fill="url(#M)" d="M612.797 543.535a.171.171 0 00-.047.015l.017.011.03-.026z"/><linearGradient id="N" gradientUnits="userSpaceOnUse" x1="647.534" y1="619.982" x2="642.721" y2="463.807" gradientTransform="matrix(-1 0 0 1 1279.6 0)"><stop offset=".121" stop-color="#fff"/><stop offset=".256" stop-color="#d0d2d2"/><stop offset=".592" stop-color="#616868"/><stop offset=".824" stop-color="#1b2424"/><stop offset=".931" stop-color="#000a0a"/></linearGradient><path fill="url(#N)" d="M634.485 541.879l-.026-.004.018.02z"/><linearGradient id="O" gradientUnits="userSpaceOnUse" x1="676.784" y1="914.867" x2="663.351" y2="479.038" gradientTransform="matrix(-1 0 0 1 1279.6 0)"><stop offset=".121" stop-color="#fff"/><stop offset=".256" stop-color="#d0d2d2"/><stop offset=".592" stop-color="#616868"/><stop offset=".824" stop-color="#1b2424"/><stop offset=".931" stop-color="#000a0a"/></linearGradient><path fill="url(#O)" d="M612.187 611.846c.004-.016 0-.026.004-.041-.021-.008-.047-.019-.069-.026l.065.067z"/><linearGradient id="P" gradientUnits="userSpaceOnUse" x1="961.845" y1="578.714" x2="956.309" y2="399.112" gradientTransform="matrix(-1 0 0 1 1279.6 0)"><stop offset=".121" stop-color="#fff"/><stop offset=".256" stop-color="#d0d2d2"/><stop offset=".592" stop-color="#616868"/><stop offset=".824" stop-color="#1b2424"/><stop offset=".931" stop-color="#000a0a"/></linearGradient><path fill="url(#P)" d="M320.539 488.89l-.03.004.022.019c.004-.009.008-.016.008-.023z"/><linearGradient id="Q" gradientUnits="userSpaceOnUse" x1="936.6" y1="528.185" x2="935.637" y2="496.949" gradientTransform="matrix(-1 0 0 1 1279.6 0)"><stop offset=".121" stop-color="#fff"/><stop offset=".256" stop-color="#d0d2d2"/><stop offset=".592" stop-color="#616868"/><stop offset=".824" stop-color="#1b2424"/><stop offset=".931" stop-color="#000a0a"/></linearGradient><path fill="url(#Q)" d="M343.483 512.566v-.003h-.004z"/><linearGradient id="R" gradientUnits="userSpaceOnUse" x1="946.925" y1="652.014" x2="939.223" y2="402.132" gradientTransform="matrix(-1 0 0 1 1279.6 0)"><stop offset=".121" stop-color="#fff"/><stop offset=".256" stop-color="#d0d2d2"/><stop offset=".592" stop-color="#616868"/><stop offset=".824" stop-color="#1b2424"/><stop offset=".931" stop-color="#000a0a"/></linearGradient><path fill="url(#R)" d="M336.505 527.043l.026.03c.004-.008.013-.019.018-.03h-.044z"/><linearGradient id="S" gradientUnits="userSpaceOnUse" x1="955.533" y1="900.475" x2="942.389" y2="474.015" gradientTransform="matrix(-1 0 0 1 1279.6 0)"><stop offset=".121" stop-color="#fff"/><stop offset=".256" stop-color="#d0d2d2"/><stop offset=".592" stop-color="#616868"/><stop offset=".824" stop-color="#1b2424"/><stop offset=".931" stop-color="#000a0a"/></linearGradient><path fill="url(#S)" d="M334.374 567.748c.004-.063.004-.1.004-.1l-.086.025-.022.008.009.007.095.06z"/><linearGradient id="T" gradientUnits="userSpaceOnUse" x1="982.002" y1="902.801" x2="968.764" y2="473.317" gradientTransform="matrix(-1 0 0 1 1279.6 0)"><stop offset=".121" stop-color="#fff"/><stop offset=".256" stop-color="#d0d2d2"/><stop offset=".592" stop-color="#616868"/><stop offset=".824" stop-color="#1b2424"/><stop offset=".931" stop-color="#000a0a"/></linearGradient><path fill="url(#T)" d="M310.317 491.146v-.048l-.061-.008z"/><linearGradient id="U" gradientUnits="userSpaceOnUse" x1="1000.036" y1="902.196" x2="986.766" y2="471.642" gradientTransform="matrix(-1 0 0 1 1279.6 0)"><stop offset=".121" stop-color="#fff"/><stop offset=".256" stop-color="#d0d2d2"/><stop offset=".592" stop-color="#616868"/><stop offset=".824" stop-color="#1b2424"/><stop offset=".931" stop-color="#000a0a"/></linearGradient><path fill="url(#U)" d="M291.925 502.896s-.052.015-.108.019l.056.037.052-.056z"/><linearGradient id="V" gradientUnits="userSpaceOnUse" x1="1000.406" y1="904.56" x2="987.65" y2="490.694" gradientTransform="matrix(-1 0 0 1 1279.6 0)"><stop offset=".121" stop-color="#fff"/><stop offset=".256" stop-color="#d0d2d2"/><stop offset=".592" stop-color="#616868"/><stop offset=".824" stop-color="#1b2424"/><stop offset=".931" stop-color="#000a0a"/></linearGradient><path fill="url(#V)" d="M291.553 502.744l.052.034c-.004-.016-.004-.034-.004-.052-.018.007-.036.015-.048.018z"/><linearGradient id="W" gradientUnits="userSpaceOnUse" x1="985.341" y1="545.299" x2="982.693" y2="459.402" gradientTransform="matrix(-1 0 0 1 1279.6 0)"><stop offset=".121" stop-color="#fff"/><stop offset=".256" stop-color="#d0d2d2"/><stop offset=".592" stop-color="#616868"/><stop offset=".824" stop-color="#1b2424"/><stop offset=".931" stop-color="#000a0a"/></linearGradient><path fill="url(#W)" d="M295.577 502.345l.008.007c.004-.003.004-.003.004-.011-.004.004-.008.004-.012.004z"/><linearGradient id="X" gradientUnits="userSpaceOnUse" x1="1025.924" y1="613.717" x2="1018.944" y2="387.262" gradientTransform="matrix(-1 0 0 1 1279.6 0)"><stop offset=".121" stop-color="#fff"/><stop offset=".256" stop-color="#d0d2d2"/><stop offset=".592" stop-color="#616868"/><stop offset=".824" stop-color="#1b2424"/><stop offset=".931" stop-color="#000a0a"/></linearGradient><path fill="url(#X)" d="M257.169 500.489l.021-.022-.047-.007z"/><linearGradient id="Y" gradientUnits="userSpaceOnUse" x1="1195.22" y1="896.311" x2="1181.961" y2="466.133" gradientTransform="matrix(-1 0 0 1 1279.6 0)"><stop offset=".121" stop-color="#fff"/><stop offset=".256" stop-color="#d0d2d2"/><stop offset=".592" stop-color="#616868"/><stop offset=".824" stop-color="#1b2424"/><stop offset=".931" stop-color="#000a0a"/></linearGradient><path fill="url(#Y)" d="M98.885 428.564c-.035-.016-.074-.03-.104-.041-.026-.012-.048-.019-.069-.026.026.037.056.074.083.107l.03.037c.021-.025.043-.051.06-.077z"/><linearGradient id="Z" gradientUnits="userSpaceOnUse" x1="1198.454" y1="898.461" x2="1185.132" y2="466.23" gradientTransform="matrix(-1 0 0 1 1279.6 0)"><stop offset=".121" stop-color="#fff"/><stop offset=".256" stop-color="#d0d2d2"/><stop offset=".592" stop-color="#616868"/><stop offset=".824" stop-color="#1b2424"/><stop offset=".931" stop-color="#000a0a"/></linearGradient><path fill="url(#Z)" d="M95.559 429.187l.039.1.065-.1h-.104z"/><linearGradient id="aa" gradientUnits="userSpaceOnUse" x1="1135.324" y1="899.705" x2="1122.016" y2="467.937" gradientTransform="matrix(-1 0 0 1 1279.6 0)"><stop offset=".121" stop-color="#fff"/><stop offset=".256" stop-color="#d0d2d2"/><stop offset=".592" stop-color="#616868"/><stop offset=".824" stop-color="#1b2424"/><stop offset=".931" stop-color="#000a0a"/></linearGradient><path fill="url(#aa)" d="M157.365 472.572l.087.056c.021-.029.043-.056.065-.081l-.152.025z"/><linearGradient id="ab" gradientUnits="userSpaceOnUse" x1="1083.433" y1="640.631" x2="1080.063" y2="531.308" gradientTransform="matrix(-1 0 0 1 1279.6 0)"><stop offset=".121" stop-color="#fff"/><stop offset=".256" stop-color="#d0d2d2"/><stop offset=".592" stop-color="#616868"/><stop offset=".824" stop-color="#1b2424"/><stop offset=".931" stop-color="#000a0a"/></linearGradient><path fill="url(#ab)" d="M197.839 585.954l.017.015.009-.011z"/><linearGradient id="ac" gradientUnits="userSpaceOnUse" x1="1084.039" y1="680.975" x2="1078.022" y2="485.755" gradientTransform="matrix(-1 0 0 1 1279.6 0)"><stop offset=".121" stop-color="#fff"/><stop offset=".256" stop-color="#d0d2d2"/><stop offset=".592" stop-color="#616868"/><stop offset=".824" stop-color="#1b2424"/><stop offset=".931" stop-color="#000a0a"/></linearGradient><path fill="url(#ac)" d="M198.554 583.34l.03.025v-.014z"/><linearGradient id="ad" gradientUnits="userSpaceOnUse" x1="1094.043" y1="900.076" x2="1080.77" y2="469.435" gradientTransform="matrix(-1 0 0 1 1279.6 0)"><stop offset=".121" stop-color="#fff"/><stop offset=".256" stop-color="#d0d2d2"/><stop offset=".592" stop-color="#616868"/><stop offset=".824" stop-color="#1b2424"/><stop offset=".931" stop-color="#000a0a"/></linearGradient><path fill="url(#ad)" d="M195.968 560.574l.017.104c.03-.033.057-.07.087-.104h-.104z"/><linearGradient id="ae" gradientUnits="userSpaceOnUse" x1="1136.685" y1="900.563" x2="1123.349" y2="467.885" gradientTransform="matrix(-1 0 0 1 1279.6 0)"><stop offset=".121" stop-color="#fff"/><stop offset=".256" stop-color="#d0d2d2"/><stop offset=".592" stop-color="#616868"/><stop offset=".824" stop-color="#1b2424"/><stop offset=".931" stop-color="#000a0a"/></linearGradient><path fill="url(#ae)" d="M154.637 520.732l.021-.022c0-.037.004-.07.004-.104l-.074-.011c.018.045.031.09.049.137z"/><linearGradient id="af" gradientUnits="userSpaceOnUse" x1="1168.334" y1="909.064" x2="1158.707" y2="596.713" gradientTransform="matrix(-1 0 0 1 1279.6 0)"><stop offset=".121" stop-color="#fff"/><stop offset=".256" stop-color="#d0d2d2"/><stop offset=".592" stop-color="#616868"/><stop offset=".824" stop-color="#1b2424"/><stop offset=".931" stop-color="#000a0a"/></linearGradient><path fill="url(#af)" d="M123.67 506.015c.017-.011.03-.025.043-.037-.021.008-.035.012-.047.019 0 .007.004.014.004.018z"/><linearGradient id="ag" gradientUnits="userSpaceOnUse" x1="1030.584" y1="1038.08" x2="1035.171" y2="728.479" gradientTransform="matrix(-1 0 0 1 1279.6 0)"><stop offset="0" stop-color="#fff"/><stop offset=".554" stop-color="#6a737e"/><stop offset=".906" stop-color="#101e30"/></linearGradient><path fill="url(#ag)" d="M0 440.834l.136 295.833c30.31-17 56.388-15.564 62.664-15.667 20.434-.333 31.482-22.762 54.831-23.333 68.112-1.667 118.175-7 128.392-13.667 9.041-5.899-37.122-23.666-36.1-39.666 0 0 53.105-3.764 71.456-5.396 3.627-.322 7-1.964 9.411-4.636 3.999-4.43-15.126-15.309-14.41-15.309h64.574c26.918 0 40.98-5.283 40.98-5.283s2.547-1.563 6.729-3.79c2.918.409 2.537-1.334 2.537-1.334 6.75-3.479 38.214-3.569 48.261-6.587 0 0-.63-5.666 10.217-5.666 10.85 0 37.121-5.667 37.121-5.667s-9.239-4.713-15.669-6.033c-6.43-1.323-15.268-2.906-24.912-7.14-9.642-4.227-25.311-8.721-38.167-12.947-9.021-2.97-12.897-3.206-21.49-4.359l4.209.123s-4.175-.964 1.666-1.347c1.723-.113 3.569-.06 5.313.073 4.087.31 7.625 1.054 7.765 1.08l-4.448-3.85-.055-.113-.868-1.637-1.305-2.483-2.224-3.847h3.334l-3.893-2.891-.276-1.736 3.334-.384-3.893-3.08-2.227-2.506h5.844l-4.172-2.11-2.421-2.44-.644-.643 1.587.276 2.868.493-1.332-1.083-3.402-2.767-1.386-1.347 1.666-.773 5.013.773-4.734-3.851-2.779-1.736 1.11-.19c3.062 1.153 5.289-.58 5.289-.58l-6.124-4.229-1.668-1.543h5.286l-4.175-3.277-.831-.767 3.613.387-2.5-1.35-1.948-2.113c0-.964 3.617 0 0-5.777-.327-.513-.919-1.253-1.032-1.963.752.153 1.308.233 1.308.233l-1.393-1.163-.123-.16-.433-.563-.558-.427 1.113-.193h.559s.559 0 .276-.193a.803.803 0 01-.167-.156v-.004c-.214-.243-.388-.609-.388-.609s-.831-.021-.834-.49c0-.474-.558-.86-.558-.86l1.672.193c-.559-.573-1.114-1.104-1.114-1.104v-.553c0-.464.555-.44 0-1.03-.231-.247-.422-.633-.558-.99 0-.443-.092-.85-.211-1.183.072-.324.191-.91.181-1.377 0-.26-.041-.48-.143-.61-.381-.467-1.4-3.526-1.4-3.526l-.044.133c-.126.4-.491 1.574-.545 1.924-.058.43-.058 1.003-.337 1.196-.102.07-.167.09-.225.113-.095.04-.157.097-.334.464-.17.354.075.486.16.63a.887.887 0 01-.16.33c-.559.383-1.114.193-.559.383.092.037.194.074.29.117-.123.396-.123.873-.068 1.32-.222.329-.245.522-.498.876-.279.387-.555.96-.555.96h.831s-.831 1.16-.831 1.354v.767c0 .193.555 0 0 .577-.559.58-.559 1.35-.559 1.35s1.113-.193.834 0c-.272.184-.8.913-.834.964.085-.061 1.382-.934 1.113 0-.272.926-.8 1.863-.831 1.92l.167-.054c-.882.653-1.842 3.526-1.842 3.526l1.952-.58s0 2.69-1.672 4.044c-1.625 1.31-2.725 2.446-3.552 3.566a.894.894 0 00-.061.09c-.262.363-.082.377.252.3.726-.173 2.156-.81 1.134.66-.174.243-.331.48-.47.7-2.844 4.413.191 3.54.191 3.54l-3.331 3.46c.194-.083 4.461-1.923 3.661-.46v.003c-.003.007-.007.023-.021.03-.068.123-.17.267-.31.43-1.945 2.313-3.338 4.811-3.338 4.811s5.01.387 0 3.66c-2.367 1.546-3.062 5.39-3.062 5.39l2.782-1.54-.551 4.237-3.059 3.522-.47-.517c0-1.316 4.948 0 0-7.906-.439-.7-1.253-1.707-1.41-2.68v-.007c.024.003.055.013.082.017.994.196 1.709.297 1.709.297l-1.911-1.58-.739-.967-.021-.027-.763-.59 1.522-.26h.766s.763 0 .382-.264c-.17-.119-.334-.33-.467-.543-.177-.264-.3-.517-.3-.517s-1.134-.023-1.134-.67c0-.273-.136-.523-.3-.72a2.394 2.394 0 00-.344-.354c-.071-.063-.126-.101-.126-.101l.201.023 2.087.24a68.236 68.236 0 00-1.349-1.347c-.112-.106-.17-.17-.17-.17s-.007-.12-.007-.75.759-.604 0-1.406c-.324-.344-.572-.867-.763-1.363 0-.607-.133-1.157-.296-1.62.105-.44.262-1.243.252-1.884-.003-.354-.055-.66-.194-.833-.524-.637-1.921-4.83-1.921-4.83s-.02.066-.064.189c-.167.547-.667 2.147-.736 2.631-.088.576-.088 1.373-.47 1.63-.136.1-.225.123-.303.16a.439.439 0 00-.136.09v.006c-.085.08-.174.224-.323.537-.232.486.102.67.225.863a1.28 1.28 0 01-.225.457c-.76.523-1.526.26-.76.523.123.046.266.097.402.153-.18.546-.174 1.196-.102 1.81-.3.453-.334.713-.681 1.203-.385.527-.766 1.317-.766 1.317h1.147s-1.147 1.579-1.147 1.843v1.057c0 .26.766 0 0 .793-.763.791-.763 1.844-.763 1.844s1.529-.264 1.145 0c-.364.25-1.097 1.25-1.134 1.313.112-.08 1.887-1.273 1.519 0-.375 1.276-1.1 2.557-1.141 2.634.01 0 .096-.03.235-.074-.586.431-1.189 1.561-1.659 2.62a1.817 1.817 0 00-.071.174c-.085.187-.157.373-.235.547v.003c-.337.83-.559 1.483-.559 1.483l.593-.18 2.071-.614s0 2.284-1.117 4.154a5.019 5.019 0 01-1.168 1.376c-1.843 1.493-3.191 2.817-4.247 4.097l-.296-.24-3.017-2.456-3.566-2.22 1.424-.25c2.02.76 3.76.546 4.965.153 1.141-.364 1.812-.894 1.812-.894l-1.239-.86-6.607-4.569-.889-.813-1.253-1.16h6.784l-5.354-4.193-.303-.287-.763-.703 1.117.116 3.518.381-2.792-1.504-.419-.223-2.493-2.717c0-1.233 4.631 0 0-7.403-.416-.66-1.179-1.604-1.321-2.517.963.196 1.675.293 1.675.293l-1.788-1.48-.708-.93-.715-.553 1.423-.244h.719s.715 0 .354-.246c-.354-.25-.711-.987-.711-.987s-1.066-.026-1.069-.633c0-.604-.715-1.094-.715-1.094l2.142.243c-.719-.739-1.427-1.416-1.427-1.416v-.703c0-.594.708-.567 0-1.327-.307-.316-.539-.807-.715-1.273a4.44 4.44 0 00-.276-1.517c.092-.413.245-1.16.238-1.76-.007-.333-.058-.617-.187-.78-.491-.6-1.795-4.523-1.795-4.523s-.021.067-.058.174c-.163.51-.633 2.013-.694 2.463-.085.547-.085 1.287-.439 1.53-.133.094-.208.116-.283.15-.123.053-.201.123-.433.593-.214.45.099.63.214.807-.058.19-.132.33-.214.427-.708.493-1.423.247-.708.493.113.044.242.09.372.144-.164.507-.16 1.12-.092 1.69-.286.43-.313.673-.644 1.13-.351.489-.708 1.233-.708 1.233h1.073s-1.073 1.483-1.073 1.727v.649a18.776 18.776 0 00-.909-1.606c-.313-.5-.892-1.217-1.001-1.91.735.15 1.273.224 1.273.224l-1.359-1.127-.538-.706-.542-.417 1.08-.187h.545s.542 0 .272-.19c-.272-.189-.542-.75-.542-.75s-.811-.017-.814-.477c0-.46-.542-.833-.542-.833l1.625.189c-.545-.566-1.083-1.083-1.083-1.083v-.53c0-.453.538-.433 0-1.007-.228-.243-.409-.616-.542-.973 0-.431-.092-.82-.214-1.15.075-.316.19-.88.184-1.337 0-.253-.041-.47-.143-.593-.368-.457-1.365-3.44-1.365-3.44l-.044.137c-.119.387-.473 1.527-.524 1.87-.058.413-.058.977-.331 1.163-.102.067-.16.087-.214.11-.092.04-.157.097-.327.457-.17.34.072.477.157.609a.867.867 0 01-.157.323c-.545.377-1.086.188-.545.377.089.03.191.063.283.104-.119.39-.119.854-.068 1.29-.218.32-.235.51-.487.856-.269.377-.542.94-.542.94h.814s-.814 1.12-.814 1.31v.75c0 .19.542 0 0 .563-.542.56-.542 1.313-.542 1.313s1.083-.19.814 0c-.262.184-.78.894-.811.937.079-.057 1.342-.906 1.08.003-.262.903-.783 1.813-.807 1.867l.16-.05c-.854.633-1.792 3.43-1.792 3.43l1.897-.561s0 2.624-1.625 3.938c-1.628 1.31-2.708 2.437-3.521 3.563-.817 1.124 2.806-1.152 1.349.938-.065.1-.13.189-.194.286l-2.823-1.956-.899-.83h2.847l-2.248-1.764-.451-.415 1.951.21-1.349-.729-1.052-1.141c0-.517 1.948 0 0-3.109-.167-.276-.494-.674-.548-1.061.405.084.702.131.702.131l-.753-.624-.296-.39-.3-.233.596-.106h.3s.3 0 .153-.101c-.153-.106-.3-.416-.3-.416s-.449-.011-.449-.264-.3-.46-.3-.46l.896.1c-.3-.31-.596-.597-.596-.597v-.29c0-.253.296-.246 0-.56-.13-.134-.229-.337-.3-.533 0-.24-.048-.457-.119-.641.037-.176.105-.489.102-.739 0-.141-.021-.261-.082-.334-.201-.246-.752-1.896-.752-1.896s-.007.03-.021.073c-.068.221-.269.851-.293 1.033-.037.233-.037.544-.187.65-.055.037-.089.043-.119.06-.051.023-.082.051-.181.25-.088.188.041.261.088.341a.496.496 0 01-.088.177c-.3.206-.599.1-.3.206.051.021.105.037.16.061-.071.216-.071.47-.038.71-.123.18-.133.283-.272.477a4.141 4.141 0 00-.299.517h.449s-.449.623-.449.727v.417c0 .1.299 0 0 .31-.3.31-.3.724-.3.724s.599-.101.45 0c-.137.097-.396.45-.439.51.095-.054.732-.47.589.01-.146.504-.436 1.007-.449 1.04.007 0 .037-.017.095-.033-.474.35-.995 1.896-.995 1.896l1.049-.31s0 1.45-.903 2.18c-.896.724-1.499 1.347-1.944 1.97-.45.624 1.553-.637.752.517-1.955 2.801-.153 2.284-.153 2.284l-1.798 1.859c.119-.047 2.827-1.213 1.798.007-1.049 1.247-1.801 2.59-1.801 2.59s2.701.214 0 1.97c-1.274.837-1.648 2.907-1.648 2.907l1.502-.83-.303 2.28-1.795 2.076h1.795l-1.199 2.18s-1.045.728-1.195 1.141c-.007.017-.017.026-.024.043-.041-.656-.327-1.58-1.019-2.883-.071-.141-.15-.283-.231-.437-.197-.337-.409-.7-.654-1.091a.833.833 0 01-.055-.076l1.833.283-1.792-1.46-1.12-.913-.065-.04c-.007-.037-.021-.08-.024-.124.208.044.402.077.576.114l.01.003c.582.106.971.156.971.156l-1.274-1.057c1.229.03 2.037-.593 2.037-.593l-1.917-1.33h.157s.664 0 .334-.227c-.334-.227-.665-.917-.665-.917s-.984-.02-.991-.583a.866.866 0 00-.14-.447v-.006a1.44 1.44 0 00-.034-.054h1.706l-.388-.304.177.021a51.528 51.528 0 00-1.321-1.313v-.657l.072-.063.606.063-.589-.313c.153-.271.412-.38-.088-.91-.283-.294-.498-.75-.664-1.184 0-.526-.109-1.007-.262-1.406.099-.387.231-1.08.228-1.634-.007-.31-.051-.573-.174-.727-.453-.557-1.665-4.196-1.665-4.196l-.058.163c-.021.08-.058.189-.092.313l-.402-.394s-.007-.06-.007-.34c0-.287.344-.273 0-.637-.146-.153-.255-.39-.341-.613a2.13 2.13 0 00-.136-.727c.048-.2.119-.561.116-.851 0-.156-.023-.293-.088-.373-.235-.29-.868-2.17-.868-2.17l-.024.08c-.079.246-.303.967-.334 1.187-.038.257-.038.613-.208.73a.425.425 0 01-.136.069c-.058.03-.103.063-.208.287-.105.22.048.303.102.39a.775.775 0 01-.102.21c-.344.233-.685.117-.344.233.054.021.119.043.181.063-.079.253-.079.543-.044.82-.14.203-.15.319-.307.543-.17.233-.344.59-.344.59h.514s-.514.71-.514.833v.471c0 .12.344 0 0 .359-.344.354-.344.827-.344.827s.688-.117.518 0c-.156.106-.456.514-.507.583.099-.063.841-.543.678.007-.167.58-.494 1.153-.511 1.19.003-.004.044-.017.102-.037-.545.407-1.134 2.177-1.134 2.177l1.199-.36s0 1.66-1.029 2.49c-1.028.83-1.713 1.54-2.227 2.253-.514.711 1.778-.727.854.594-2.159 3.097-.31 2.644-.177 2.617l-1.876 1.949-4.897-3.39-2.224-2.05h7.046l-3.174-2.49c.504.07.875.144.937.156l-.937-.816-.48-.899-.466-.817h.708l-.269-.203 1.825.193-1.921-1.033.188-.023-.831-.65-.47-.533h1.236l-.878-.449-.654-.657.947.167-1.005-.813-.296-.293.354-.16 1.066.16-1.008-.817-.589-.366.242-.044c.647.244 1.121-.119 1.121-.119l-1.305-.9-.061-.057c.024-.087.038-.177.054-.271h.777l-.773-.606c-.007-.073-.014-.146-.023-.223l.5.053-.531-.286-.017-.021a6.776 6.776 0 00-.16-.604c.14-.113.211-.34-.238-1.05-.068-.113-.191-.27-.215-.42.16.033.272.05.272.05l-.29-.246-.123-.153-.116-.094.238-.04h.113s.119 0 .064-.043c-.064-.037-.123-.16-.123-.16s-.177-.004-.177-.106c0-.097-.116-.181-.116-.181l.351.044a4.51 4.51 0 00-.235-.237v-.116c0-.101.123-.09 0-.22a.748.748 0 01-.116-.21.798.798 0 00-.044-.25c.014-.067.041-.193.037-.297 0-.05-.007-.097-.034-.127-.079-.1-.296-.75-.296-.75s0 .014-.007.03a4.307 4.307 0 00-.112.406c-.017.09-.017.214-.072.25a.1.1 0 01-.051.03c-.021.007-.034.023-.072.1-.034.073.017.101.038.13-.014.034-.021.057-.038.074-.119.079-.235.043-.119.079.021.011.041.014.065.021a.616.616 0 00-.017.287.918.918 0 00-.062.1c-.123-.214-.262-.437-.402-.667-.426-.68-1.219-1.666-1.369-2.613 1.001.203 1.744.304 1.744.304l-1.859-1.537-.746-.967-.739-.573 1.485-.253h.739s.746 0 .378-.26c-.378-.257-.749-1.027-.749-1.027s-1.101-.029-1.104-.649c-.01-.63-.75-1.146-.75-1.146l2.224.256c-.739-.77-1.475-1.477-1.475-1.477s-.01-.12-.01-.727c0-.62.746-.59 0-1.373-.313-.33-.559-.844-.739-1.33 0-.59-.123-1.12-.29-1.577.103-.43.259-1.203.255-1.829-.01-.344-.061-.644-.194-.813-.514-.62-1.873-4.7-1.873-4.7s-.024.063-.058.184c-.17.533-.657 2.09-.722 2.56-.082.57-.082 1.337-.453 1.594-.133.093-.221.116-.293.153-.126.05-.208.123-.45.616-.225.467.099.653.222.84-.062.193-.136.34-.222.44-.742.517-1.481.257-.742.517.119.043.255.09.392.146-.17.53-.167 1.163-.099 1.757-.3.446-.324.7-.664 1.17-.368.517-.739 1.287-.739 1.287h1.11s-1.11 1.539-1.11 1.793v1.03c0 .253.739 0 0 .767l-.007.007a1.413 1.413 0 00-.286-.394c-.316-.337-.562-.847-.749-1.334a4.54 4.54 0 00-.293-1.586c.102-.434.262-1.21.255-1.841-.01-.343-.061-.64-.194-.81-.515-.627-1.88-4.724-1.88-4.724l-.058.181c-.167.536-.657 2.106-.722 2.573-.088.569-.088 1.343-.456 1.6-.14.094-.222.12-.296.15-.126.06-.211.13-.453.62-.225.473.106.663.222.847-.062.193-.133.343-.222.443-.742.517-1.485.256-.742.517.119.043.255.093.388.146-.167.533-.167 1.17-.095 1.764-.198.3-.276.506-.402.753l-.576-.561s-.003-.086-.003-.546.559-.443 0-1.03c-.235-.247-.419-.63-.555-.99 0-.446-.092-.843-.214-1.184.075-.323.19-.906.184-1.373 0-.26-.041-.479-.14-.606-.381-.467-1.403-3.523-1.403-3.523s-.017.047-.044.134c-.126.403-.49 1.569-.535 1.92-.068.423-.068 1.003-.344 1.196-.103.066-.167.087-.222.11-.092.036-.157.097-.333.463-.174.354.071.49.16.63a.92.92 0 01-.16.334c-.559.38-1.114.193-.559.38.092.036.19.073.293.109a2.408 2.408 0 00-.105.697l-2.684-1.86-1.665-1.533h5.275l-4.169-3.267-.831-.773 3.606.387-2.493-1.344-1.948-2.113c0-.963 3.613 0 0-5.767-.32-.51-.913-1.243-1.022-1.953.75.153 1.301.224 1.301.224l-1.386-1.15-.559-.72-.555-.43 1.114-.193h.555s.552 0 .272-.19c-.272-.193-.552-.767-.552-.767s-.831-.026-.831-.493c-.003-.47-.559-.856-.559-.856l1.669.193c-.555-.577-1.11-1.107-1.11-1.107s-.003-.086-.003-.546c0-.461.559-.44 0-1.027-.238-.246-.419-.633-.555-.993 0-.44-.092-.847-.221-1.18.082-.323.197-.903.19-1.374 0-.256-.041-.479-.146-.606-.375-.467-1.396-3.523-1.396-3.523l-.044.141c-.126.399-.49 1.563-.538 1.913-.068.427-.068 1.003-.344 1.196-.099.067-.164.087-.218.113-.096.04-.157.094-.334.46-.17.354.072.494.16.631a.965.965 0 01-.16.333c-.555.387-1.114.193-.555.387.088.026.188.066.29.106-.129.396-.129.873-.068 1.32-.225.33-.245.52-.504.876-.276.384-.555.957-.555.957h.838s-.838 1.156-.838 1.347v.771c0 .189.555 0 0 .576-.551.577-.551 1.344-.551 1.344s1.106-.19.831 0c-.266.187-.8.909-.831.956.082-.053 1.375-.923 1.106 0-.266.934-.797 1.863-.831 1.924l.174-.057c-.882.649-1.835 3.513-1.835 3.513l1.938-.569s0 2.687-1.662 4.029c-1.669 1.347-2.779 2.494-3.606 3.65-.838 1.153 2.874-1.18 1.386.96-3.613 5.187-.283 4.227-.283 4.227l-3.327 3.453c.218-.09 5.231-2.253 3.327.004-1.941 2.303-3.331 4.807-3.331 4.807s4.172.323 1.073 2.866c-.409-1.12-.732-2.097-.732-2.097s-.027.073-.068.203c-.082.261-.225.721-.371 1.204l-6.246-4.32a4.556 4.556 0 00-.266-1.193c.102-.42.252-1.18.245-1.793-.003-.334-.054-.624-.19-.79a2.322 2.322 0 01-.225-.377h2.667c.088.017.153.026.16.03l-.034-.03h.746l-3.382-2.653-.793-1.517-1.076-1.863 3.085.337-2.912-1.57-.542-.406-.15-.9 1.737-.2-2.023-1.6-1.161-1.304h3.041l-2.173-1.1-.416-.417c.105-.257.167-.57.157-.953l.988.166-1.056-.85c-.103-.587-.334-1.297-.722-2.167l2.061.32-2.459-2.003-.726-.457c-.099-.163-.201-.337-.313-.517l.17-.03c1.597.604 2.749-.297 2.749-.297l-3.181-2.203-.872-.803h.184c.674.12 1.113.183 1.113.183l-.223-.188h1.676l-2.169-1.704-.433-.396 1.88.2-1.301-.703-1.015-1.101v-.013h.283s.869 0 .433-.3c-.048-.034-.092-.077-.14-.12.337-.261.521-.82-.576-2.567-.068-.106-.157-.236-.245-.369l.528.053c-.228-.233-.453-.463-.664-.673.31.057.528.09.528.09l-.726-.601-.289-.376-.29-.224.579-.104h.293s.286 0 .143-.104c-.143-.093-.29-.396-.29-.396s-.436-.01-.436-.253-.29-.45-.29-.45l.872.104c-.293-.3-.582-.573-.582-.573v-.29c0-.237.289-.227 0-.53-.123-.133-.215-.333-.29-.523 0-.224-.048-.437-.112-.609.037-.167.102-.471.099-.714 0-.14-.024-.253-.079-.316-.194-.247-.725-1.837-.725-1.837l-.024.073c-.068.207-.255.816-.283.997-.031.196-.034.453-.14.576a6.229 6.229 0 00-.235-.847c.112-.5.3-1.413.286-2.14-.003-.4-.065-.75-.225-.946-.592-.733-2.179-5.504-2.179-5.504l-.075.214c-.19.626-.763 2.449-.838 2.996-.102.66-.102 1.561-.535 1.863-.156.11-.259.134-.347.174-.143.066-.245.153-.521.727-.266.547.116.763.255.983a1.553 1.553 0 01-.255.517c-.865.597-1.73.303-.865.597.143.05.3.109.457.177-.201.616-.201 1.356-.119 2.057-.344.517-.372.813-.77 1.37-.432.6-.872 1.5-.872 1.5h1.304s-1.304 1.803-1.304 2.097v1.203c0 .3.872 0 0 .899-.869.897-.869 2.101-.869 2.101s1.74-.3 1.308 0c-.422.29-1.257 1.427-1.305 1.496.133-.083 2.156-1.446 1.737.004-.422 1.453-1.253 2.91-1.301 2.996.014-.003.109-.036.266-.083-1.373 1.017-2.871 5.49-2.871 5.49l3.035-.9s0 4.197-2.599 6.3c-2.605 2.101-4.342 3.9-5.643 5.704-1.297 1.796 4.496-1.847 2.173 1.496-5.64 8.101-.433 6.604-.433 6.604l-4.008 4.156-3.518-2.426-.637-.597c-.17-.407-.382-.86-.644-1.354h5.861l-5.279-4.144-1.059-.974 4.581.483-3.171-1.703-2.462-2.68c0-1.217 4.577 0 0-7.307-.409-.65-1.161-1.587-1.308-2.487.957.193 1.655.29 1.655.29l-1.761-1.463-.701-.913-.708-.547 1.41-.24h.708s.705 0 .351-.247c-.351-.246-.708-.973-.708-.973s-1.049-.027-1.049-.624c-.003-.597-.712-1.079-.712-1.079l2.118.239a64.3 64.3 0 00-1.406-1.399s-.003-.113-.003-.693c0-.584.701-.567 0-1.311-.296-.313-.535-.797-.708-1.257 0-.563-.112-1.069-.269-1.5.092-.403.238-1.143.235-1.736-.003-.326-.054-.606-.181-.767-.487-.597-1.777-4.467-1.777-4.467l-.055.17c-.157.507-.623 1.987-.688 2.434-.075.537-.075 1.267-.429 1.514-.129.086-.211.113-.279.14-.12.057-.205.123-.429.587-.211.45.092.626.208.803a1.103 1.103 0 01-.208.417c-.702.49-1.41.243-.702.49.119.04.245.087.368.137-.16.507-.157 1.106-.088 1.673-.279.417-.31.66-.63 1.113-.357.483-.708 1.221-.708 1.221h1.059s-1.059 1.456-1.059 1.703v.973c0 .244.708 0 0 .733-.702.73-.702 1.707-.702 1.707s1.41-.247 1.052 0c-.337.233-1.012 1.153-1.049 1.213.105-.069 1.744-1.176 1.406.004-.133.446-.31.896-.483 1.286-.333.07-.463.044-.082.177-.246.54-.47.931-.491.974a2.59 2.59 0 01.211-.073c-.181.133-.368.356-.559.62l-3.808-3.104-2.37-1.483.947-.16c2.612.983 4.512-.493 4.512-.493l-5.228-3.613-1.427-1.316h4.512l-3.559-2.794-.712-.653 3.085.327-2.132-1.146-1.669-1.811c0-.823 3.096 0 0-4.927-.269-.439-.776-1.069-.875-1.677.647.131 1.117.197 1.117.197l-1.188-.987-.47-.616-.474-.366.943-.164h.474s.453 0 .255-.153l-.014-.017c-.242-.163-.48-.653-.48-.653s-.705-.02-.705-.42c0-.403-.474-.729-.474-.729l1.417.163c-.474-.493-.943-.943-.943-.943v-.47c0-.181.092-.271.157-.363.075-.12.095-.237-.157-.514-.205-.217-.361-.544-.474-.851 0-.38-.085-.716-.19-1.013.044-.214.119-.563.149-.9.007-.083.01-.166.01-.243v-.03c-.003-.213-.034-.406-.123-.517-.327-.396-1.199-3.01-1.199-3.01s-.017.043-.041.12c-.102.337-.415 1.34-.456 1.633-.055.367-.055.86-.293 1.021-.085.063-.143.08-.191.104-.078.033-.136.076-.289.393a.094.094 0 00-.007.03.335.335 0 00-.021.257c.038.11.126.184.173.253a.724.724 0 01-.146.28c-.473.326-.945.167-.476.326l.199.321a3.242 3.242 0 00-.005.902c-.191.283-.208.443-.422.75-.242.33-.477.823-.477.823h.708s-.317.44-.524.784c-.105.166-.184.31-.184.363v.656c0 .167.477 0 0 .493-.477.497-.477 1.153-.477 1.153s.954-.17.712 0c-.14.097-.378.377-.538.584-.092.126-.16.22-.174.236.034-.023.269-.18.497-.283.167-.07.334-.117.422-.05.065.04.085.143.034.333-.232.793-.685 1.59-.712 1.64a1.47 1.47 0 01.143-.046c-.749.553-1.57 3.006-1.57 3.006l1.662-.493s0 2.297-1.423 3.447c-1.427 1.153-2.381 2.136-3.085 3.123-.715.983 2.458-1.01 1.185.823-3.085 4.434-.238 3.613-.238 3.613l-2.006 2.073-7.574-5.24-2.316-2.14h7.339l-5.796-4.543-1.158-1.07 5.023.536-3.477-1.873-1.192-1.297-1.396-1.513-.119-.124c0-1.329 4.952-.02.112-7.85-.038-.057-.071-.12-.112-.173-.443-.711-1.274-1.733-1.431-2.724 1.053.21 1.822.32 1.822.32l-1.577-1.304-.358-.3-.606-.79-.164-.224-.776-.597 1.546-.267h.773s.77 0 .385-.267c-.385-.264-.773-1.07-.773-1.07s-1.151-.023-1.151-.68c0-.1-.017-.193-.055-.283-.167-.517-.725-.907-.725-.907l2.319.271c-.773-.804-1.54-1.533-1.54-1.533s-.003-.13-.003-.771c0-.64.77-.616 0-1.427-.331-.35-.589-.88-.776-1.38a4.73 4.73 0 00-.303-1.646c.105-.446.266-1.257.262-1.906-.007-.36-.062-.67-.204-.847-.528-.65-1.948-4.9-1.948-4.9l-.058.19c-.177.557-.682 2.18-.75 2.67-.088.59-.088 1.39-.477 1.659-.139.097-.228.12-.31.157-.126.057-.214.133-.463.644-.235.486.103.68.232.876-.065.2-.14.354-.232.46-.773.537-1.542.264-.773.537.126.043.266.097.405.15-.177.553-.177 1.213-.102 1.836-.307.46-.334.724-.688 1.221-.385.533-.773 1.34-.773 1.34h1.158s-1.158 1.6-1.158 1.866v1.07c0 .184.357.113.344.31-.01.087-.099.237-.344.494-.773.8-.773 1.866-.773 1.866s1.546-.267 1.162 0c-.153.106-.358.33-.559.566-.143.17-.283.347-.395.487-.109.153-.194.263-.201.283.027-.023.222-.153.46-.283.48-.264 1.147-.544 1.131.003-.003.077-.021.17-.051.28-.378 1.293-1.114 2.59-1.154 2.67.01 0 .092-.03.235-.073-.49.37-1.001 1.223-1.434 2.123-.647 1.34-1.127 2.764-1.127 2.764l2.708-.797s0 3.74-2.316 5.61c-1.709 1.38-2.997 2.609-4.022 3.81-.041.054-.089.106-.136.163-.313.37-.6.737-.865 1.106-1.161 1.607 4.001-1.643 1.928 1.337-1.839 2.646-2.377 4.141-2.33 4.974a.214.214 0 01-.031-.054c-.507-.81-1.447-1.977-1.631-3.106 1.195.247 2.07.367 2.07.367l-2.2-1.83-.885-1.144-.879-.684 1.764-.307h.879s.882 0 .443-.304c-.041-.026-.075-.06-.113-.086-.017-.021-.037-.037-.051-.054-.385-.377-.722-1.08-.722-1.08s-1.308-.03-1.318-.776c-.003-.743-.882-1.354-.882-1.354l2.643.304c-.879-.914-1.761-1.75-1.761-1.75s-.003-.144-.003-.87c0-.73.885-.7 0-1.634-.371-.396-.661-.996-.879-1.576 0-.7-.149-1.337-.34-1.87.061-.294.15-.71.211-1.16.051-.337.085-.696.082-1.017-.003-.406-.065-.764-.232-.963-.303-.374-.854-1.771-1.341-3.074-.474-1.303-.879-2.51-.879-2.51l-.064.217c-.143.453-.47 1.51-.678 2.29-.089.316-.153.59-.181.75-.099.677-.099 1.59-.545 1.896-.157.11-.259.137-.34.177-.153.063-.252.153-.535.733-.272.557.116.78.259 1a1.473 1.473 0 01-.259.523c-.882.61-1.764.304-.882.61.146.053.303.109.46.176-.201.631-.201 1.381-.116 2.087-.347.527-.381.83-.787 1.394-.439.61-.875 1.52-.875 1.52h1.318s-1.318 1.83-1.318 2.137v1.221c0 .303.875 0 0 .91-.886.916-.886 2.133-.886 2.133s1.761-.304 1.322 0c-.177.127-.429.4-.661.68-.33.394-.626.797-.657.841.133-.087 2.183-1.471 1.757.006-.082.271-.17.54-.266.804a17.395 17.395 0 01-1.052 2.24c.017 0 .112-.037.272-.087-.317.23-.644.646-.947 1.15a.206.206 0 01-.024-.044 1.12 1.12 0 00-.075-.399c.031-.107.071-.307.064-.464 0-.09-.014-.166-.047-.21-.129-.156-.474-1.189-.474-1.189l-.017.043a7.176 7.176 0 00-.184.653c-.021.14-.021.337-.113.403a.343.343 0 01-.071.037c-.038.017-.061.036-.116.156-.058.123.027.167.051.213a.316.316 0 01-.051.113c-.191.134-.378.067-.191.134.034.007.065.02.102.033a.943.943 0 00-.03.45c-.075.11-.079.173-.164.297-.095.133-.191.326-.191.326h.283s-.283.394-.283.453v.261c0 .066.191 0 0 .196-.187.196-.187.453-.187.453s.378-.063.283 0c-.096.067-.269.311-.283.33.027-.023.466-.313.378 0-.092.304-.262.61-.279.646.007 0 .027-.006.055-.013-.296.217-.627 1.187-.627 1.187l.385-.113c-.106.297-.164.47-.164.47l.385-.116c-.065.3-.201.689-.514.937-.562.453-.937.847-1.223 1.236-.279.394.977-.403.47.33-1.219 1.753-.092 1.43-.092 1.43l-1.127 1.174c.072-.033 1.774-.767 1.127 0-.657.78-1.127 1.627-1.127 1.627s.698.06.746.39c-1.686 1.514-2.933 2.89-3.93 4.27-.852 1.174 1.284.061 2.289.023l-.521.594h.94c-.079.22-.231.514-.504.899-.229.337-.439.647-.63.947a.687.687 0 00-.177.24c-.099.256-.756 1.04-.756 1.04h.136c-.33.573-.583 1.083-.77 1.529l-.3-.25-.565-.733-.562-.437 1.127-.193h.562s.565 0 .283-.196c-.283-.197-.562-.78-.562-.78s-.841-.02-.848-.5c0-.477-.562-.87-.562-.87l1.689.197c-.562-.587-1.127-1.12-1.127-1.12v-.563c0-.467.565-.443 0-1.04-.238-.257-.426-.646-.562-1.014a3.6 3.6 0 00-.225-1.2c.079-.329.201-.92.191-1.393-.003-.264-.041-.483-.143-.62-.395-.474-1.427-3.573-1.427-3.573l-.047.133c-.126.407-.494 1.597-.548 1.957-.062.427-.062 1.01-.344 1.207a.718.718 0 01-.225.113c-.092.043-.16.103-.337.47-.174.36.071.5.167.646-.047.14-.102.257-.167.333-.562.391-1.131.193-.562.391.092.036.19.069.289.113-.125.403-.125.883-.075 1.337-.225.336-.245.533-.5.893a5.105 5.105 0 00-.327.527c-.276-.667-.705-1.483-1.328-2.474-.351-.563-1.001-1.373-1.127-2.15.824.17 1.431.25 1.431.25l-1.526-1.26-.603-.79-.61-.474 1.212-.216h.61s.613 0 .306-.207c-.306-.21-.606-.847-.606-.847s-.909-.021-.913-.537c0-.513-.61-.939-.61-.939l1.822.213c-.61-.633-1.212-1.213-1.212-1.213v-.601c0-.369.323-.456.262-.729-.024-.104-.103-.23-.262-.4-.262-.27-.463-.689-.61-1.086 0-.483-.105-.927-.242-1.297.085-.356.214-.993.205-1.504 0-.286-.044-.529-.157-.67-.129-.153-.32-.573-.521-1.083-.47-1.156-1.012-2.776-1.012-2.776s-.027.05-.051.146c-.14.443-.538 1.72-.592 2.106-.027.203-.048.44-.085.66-.044.28-.119.526-.289.646-.109.077-.181.101-.239.123-.102.044-.18.107-.371.511-.188.383.085.536.181.689-.048.163-.112.28-.181.363-.613.424-1.223.21-.613.424l.323.116c-.136.437-.136.957-.082 1.443-.242.37-.259.58-.542.97-.31.421-.61 1.054-.61 1.054h.91s-.91 1.267-.91 1.474v.847c0 .206.61 0 0 .633-.613.63-.613 1.471-.613 1.471s1.223-.207.913 0c-.29.203-.875 1.003-.909 1.053.088-.063 1.512-1.017 1.219.004-.296 1.02-.875 2.043-.913 2.109.007-.01.078-.026.184-.063-.964.71-2.013 3.854-2.013 3.854l2.132-.63s0 2.95-1.829 4.427-3.051 2.74-3.961 4.007a.696.696 0 00-.102.166l-1.233-1.066-.759-1.45-.766-1.323h1.147l-1.338-.986-.092-.6 1.141-.134-1.338-1.057-.759-.854h2.006l-1.437-.733-1.049-1.053 1.529.263-1.621-1.319-.477-.46.568-.267 1.72.267-1.621-1.327-.957-.593.381-.067c1.049.396 1.815-.196 1.815-.196l-2.101-1.453-.572-.527h1.815l-1.437-1.126-.283-.261 1.239.131-.858-.464-.664-.724c0-.333 1.236 0 0-1.986-.116-.173-.324-.427-.358-.673.259.057.45.079.45.079l-.48-.393-.188-.247-.194-.15.382-.063h.194s.194 0 .092-.067c-.092-.069-.187-.267-.187-.267s-.286-.003-.286-.166c0-.16-.194-.301-.194-.301l.576.07-.381-.383v-.184c0-.161.188-.15 0-.356a.911.911 0 01-.194-.341c0-.153-.03-.286-.071-.406.024-.11.064-.31.061-.47 0-.09-.01-.167-.051-.21a1.543 1.543 0 01-.146-.311c-.153-.363-.331-.903-.331-.903s-.003.021-.017.05c-.048.137-.167.54-.188.657-.021.149-.021.347-.112.413-.038.021-.062.03-.082.04-.031.01-.051.03-.112.157-.058.119.024.17.058.216a.334.334 0 01-.058.113c-.187.134-.381.067-.187.134.03.014.061.023.095.04a1.11 1.11 0 00-.024.453c-.082.113-.085.18-.174.3-.092.13-.187.327-.187.327h.29s-.29.399-.29.467v.267c0 .063.187 0 0 .196-.194.197-.194.464-.194.464s.381-.067.29 0c-.095.06-.276.31-.29.326.034-.02.474-.32.381 0-.085.307-.262.62-.276.657a.192.192 0 00.051-.018c-.3.224-.63 1.214-.63 1.214l.667-.203s0 .927-.576 1.39c-.576.464-.95.856-1.24 1.254-.286.396.991-.404.48.329a4.907 4.907 0 00-.453.761c-.426.92.354.693.354.693l-1.147 1.189c.038-.017.443-.189.787-.286-.01.217.116.35.215.467-.208.263-.392.52-.545.75-.551.213-.93.083-.333.293.034.014.078.023.116.04-.15.236-.238.383-.238.383s.221.021.419.097a4.49 4.49 0 00-.041.887 3.705 3.705 0 01-.378.277c-.811.529-1.045 1.847-1.045 1.847l.749-.417a10.572 10.572 0 00-.677 1.193h.712l-.021.153-1.148 1.32h.586c-.082.14-.129.25-.129.3v.95l-.071.14s-.48.326-.685.59c-.395-.39-.678-.667-.678-.667s-.007-.113-.007-.699c0-.59.715-.567 0-1.317a3.168 3.168 0 01-.402-.583 6.11 6.11 0 01-.307-.689c0-.567-.123-1.077-.279-1.511.092-.416.245-1.16.242-1.76-.003-.33-.054-.613-.187-.776a1.045 1.045 0 01-.153-.243c-.562-1.044-1.642-4.268-1.642-4.268s-.021.063-.055.174c-.16.514-.626 2.007-.688 2.457-.085.543-.085 1.283-.442 1.526-.126.09-.208.113-.279.144-.123.053-.201.126-.426.593-.221.453.092.63.208.811a1.57 1.57 0 01-.208.427c-.715.486-1.427.243-.715.486.12.043.246.09.372.146a2.976 2.976 0 00-.103.477c-.054.387-.037.804.01 1.21-.279.42-.31.67-.637 1.12a8.6 8.6 0 00-.514.851c-.116.22-.194.38-.194.38h.76c-.003.013-.003.017-.007.02-.085.174.034.247.075.316-.041.057-.088.131-.136.2-.252.146-.477.07-.218.157.023.013.058.02.088.036-.276.407-.562.867-.562.993v.983c0 .077.062.107.129.13a.51.51 0 00-.071.167v.38l-.004.009a2.352 2.352 0 00-.51.734l-1.471-.79-.205-.229.463-.077h.691s.688 0 .344-.239c-.344-.237-.688-.954-.688-.954s-.933-.022-1.021-.522c-.007-.027-.007-.054-.007-.08-.003-.25-.126-.471-.266-.65.095-.087.184-.196.252-.333l.572.063.814.097c-.194-.197-.389-.391-.559-.57-.007-.004-.007-.007-.007-.007a91.45 91.45 0 00-.763-.747 2.364 2.364 0 00-.047-.189v-.537c0-.573.685-.543 0-1.276-.293-.307-.524-.783-.691-1.227 0-.55-.116-1.05-.266-1.467.088-.396.231-1.12.228-1.703-.003-.316-.051-.594-.177-.75-.477-.58-1.74-4.37-1.74-4.37s-.017.066-.051.173c-.027.074-.055.171-.089.28-.027-.033-.047-.063-.078-.1-.218-.224-.388-.573-.507-.903a3.2 3.2 0 00-.198-1.077c.068-.3.174-.826.17-1.257 0-.229-.041-.437-.133-.55-.348-.427-1.277-3.217-1.277-3.217s-.013.051-.037.13c-.116.364-.45 1.427-.494 1.747-.061.39-.061.913-.313 1.09-.092.063-.15.08-.198.101-.088.036-.143.09-.31.427-.157.316.068.442.153.573a.79.79 0 01-.153.3c-.504.35-1.012.177-.504.35.082.03.17.066.269.101-.123.363-.119.796-.068 1.199-.208.307-.222.48-.457.807-.252.351-.504.874-.504.874h.759s-.759 1.053-.759 1.227v.703c0 .174.504 0 0 .523a1.811 1.811 0 00-.419.729l-4.387-3.033-1.358-1.256h4.301l-3.399-2.66-.678-.627 2.946.31-2.037-1.093-1.587-1.72c0-.784 2.942 0 0-4.7-.262-.414-.743-1.017-.838-1.594.62.127 1.066.184 1.066.184l-1.134-.934-.453-.59-.446-.35.899-.16h.453s.453 0 .225-.157c-.225-.156-.453-.623-.453-.623s-.671-.02-.671-.403c-.007-.38-.453-.693-.453-.693l1.352.156c-.453-.473-.899-.899-.899-.899s-.007-.077-.007-.446c0-.377.453-.36 0-.841-.194-.206-.337-.517-.446-.807 0-.363-.082-.693-.18-.967.058-.26.156-.732.153-1.116-.007-.21-.038-.39-.123-.497-.092-.116-.231-.42-.385-.793-.347-.863-.752-2.076-.752-2.076l-.034.113c-.105.323-.402 1.276-.439 1.56-.02.127-.03.27-.051.403-.034.243-.085.47-.231.573-.079.054-.129.066-.181.09-.075.037-.126.08-.269.377-.14.287.058.403.129.517a.805.805 0 01-.129.271c-.453.307-.906.149-.453.307.072.029.157.06.238.097-.102.319-.102.706-.061 1.069-.177.271-.194.427-.402.714-.228.316-.453.783-.453.783h.678s-.678.939-.678 1.097v.63c0 .007.003.017.007.026-.007.097-.017.224-.075.267-.021.017-.038.021-.055.03-.021.007-.034.023-.071.106-.044.08.017.113.037.146-.013.03-.03.057-.037.074-.133.09-.262.046-.133.09.021.007.044.013.068.023-.007.029-.007.066-.017.097-.088.173-.126.347-.157.473-.044.077-.088.164-.088.164h.072c-.007.039-.007.066-.007.066s.041-.01.092-.014c-.055.077-.157.227-.157.26v.177c0 .047.133 0 0 .134-.126.133-.126.313-.126.313s.259-.044.191 0c-.058.04-.157.173-.184.213.062-.036.307-.193.252.007-.061.217-.188.43-.19.446 0 0 .01-.007.034-.013-.204.149-.425.813-.425.813l.449-.134s0 .627-.385.934c-.385.313-.644.58-.834.85-.194.267.661-.276.317.224-.834 1.2-.062.974-.062.974l-.773.803c.051-.02 1.212-.52.773.004-.449.533-.773 1.109-.773 1.109s1.161.09 0 .851c-.548.356-.708 1.243-.708 1.243l.545-.3c-.79.723-1.396 1.396-1.883 2.063-.678.94 2.35-.96 1.134.787-.034.043-.058.087-.089.13-.102.09-.194.187-.221.26-.061.181-.514.714-.514.714h.112c-1.723 2.977.487 2.343.487 2.343l-2.718 2.811c.173-.073 4.267-1.834 2.718.003-1.587 1.88-2.718 3.917-2.718 3.917s4.076.316 0 2.974a4.104 4.104 0 00-.586.482l-.507-.42-.388-.5-.378-.293.767-.134h.378s.381 0 .191-.133c-.191-.13-.382-.526-.382-.526s-.569-.017-.569-.341c-.006-.323-.385-.59-.385-.59l1.145.134c-.378-.396-.76-.764-.76-.764s-.006-.06-.006-.376c0-.317.388-.304 0-.707-.16-.17-.286-.437-.378-.684 0-.307-.064-.583-.153-.816.054-.22.136-.623.129-.943 0-.177-.027-.33-.096-.417-.262-.323-.97-2.427-.97-2.427s-.007.037-.031.09c-.082.277-.334 1.084-.371 1.324-.038.29-.038.689-.232.826a.47.47 0 01-.153.073c-.064.03-.109.07-.228.323-.116.24.051.337.109.431a.603.603 0 01-.109.229c-.381.267-.77.13-.381.267.064.021.126.044.198.07-.089.28-.082.604-.044.913-.157.224-.17.356-.348.604-.194.267-.381.663-.381.663h.576s-.576.79-.576.924v.529c0 .131.381 0 0 .4-.385.396-.385.923-.385.923s.766-.133.572 0c-.184.131-.548.631-.569.66.055-.04.943-.637.763 0-.187.641-.555 1.287-.575 1.327.007 0 .054-.021.123-.04-.606.446-1.271 2.423-1.271 2.423l1.342-.399s0 .583-.204 1.257c-.157.529-.439 1.119-.943 1.522-1.151.931-1.917 1.724-2.493 2.514-.575.797 1.985-.813.96.667-2.408 3.446-.34 2.95-.197 2.913l-2.285 2.373c.146-.057 3.6-1.546 2.292.007a20.677 20.677 0 00-1.127 1.48c-.678.956-1.114 1.733-1.162 1.813l-.361-.311-.446-.856-1.965-3.724-2.404-4.166h3.61l-4.07-3.023h.627l-.641-.323-.18-.094-.252-1.56 3.617-.417-4.216-3.337-1.369-1.533 1.41.217-1.706-1.391h5.575l-4.516-2.289-.667-.677c.32-.157.504-.297.504-.297l-2.551-1.76-.596-.601 4.822.83-5.122-4.163-1.481-1.437 2.074.227-1.216-.653.923-.431 5.422.834-5.115-4.167-2.994-1.859.004-.021 1.182-.2c3.311 1.25 5.718-.626 5.718-.626l-6.627-4.58-1.666-1.54a.636.636 0 00-.105-.134h5.684l-4.516-3.543-.899-.83 3.913.416-2.708-1.456-1.066-1.16-1.042-1.134c0-.92 3.055-.213 1.063-4.35-.262-.547-.61-1.17-1.063-1.903-.333-.53-.957-1.307-1.104-2.057-.007-.02-.007-.043-.01-.066.119.026.239.05.348.066.633.123 1.066.187 1.066.187l-.208-.18-1.297-1.073-.603-.78-.599-.47 1.202-.207h.603s.603 0 .296-.206c-.296-.211-.599-.834-.599-.834s-.896-.023-.896-.533c-.007-.507-.606-.93-.606-.93l1.805.213c-.603-.623-1.199-1.2-1.199-1.2s-.007-.093-.007-.593.603-.48 0-1.113c-.255-.271-.456-.684-.599-1.077 0-.483-.105-.916-.238-1.283.082-.35.204-.977.201-1.49 0-.273-.044-.517-.157-.656-.412-.503-1.515-3.816-1.515-3.816s-.017.053-.051.149c-.136.431-.524 1.697-.586 2.073-.068.467-.068 1.091-.368 1.301-.105.073-.174.093-.235.119-.105.044-.174.107-.364.504-.188.38.078.526.173.68a1.04 1.04 0 01-.173.36c-.603.416-1.213.213-.603.416.099.04.208.077.313.12-.14.431-.14.947-.079 1.431-.242.356-.262.566-.538.949-.307.417-.603 1.044-.603 1.044h.906s-.906 1.25-.906 1.46v.833c0 .203.603 0 0 .624-.603.626-.603 1.456-.603 1.456s1.206-.206.899 0c-.283.203-.861.99-.896 1.037.089-.061 1.495-1.004 1.202.01a10.055 10.055 0 01-.565 1.427c-.177.37-.316.62-.333.646.007 0 .071-.023.184-.054-.732.544-1.516 2.494-1.843 3.374l-.153.437 1.458-.434.651-.189s0 .069-.003.196c-.038.673-.276 2.943-1.802 4.173-.572.471-1.09.91-1.55 1.344-.998.917-1.747 1.764-2.367 2.616-.902 1.247 3.123-1.279 1.502 1.044-3.91 5.623-.296 4.587-.296 4.587l-3.606 3.743c.231-.104 5.67-2.443 3.606.003-2.108 2.497-3.613 5.207-3.613 5.207s5.422.416 0 3.96c-.62.406-1.131.956-1.553 1.553l-1.406-.966-1.764-1.631.405.063-.095-.083h5.336l-4.479-3.507-.892-.826 3.875.413-2.684-1.443-2.091-2.267c0-1.033 3.882 0 0-6.19-.341-.546-.981-1.336-1.1-2.106a22.98 22.98 0 001.403.247l-1.491-1.237-.596-.776-.596-.457 1.192-.213h.596s.593 0 .296-.203c-.296-.207-.596-.827-.596-.827s-.885-.017-.892-.523a.752.752 0 00-.024-.18c-.112-.427-.572-.74-.572-.74l1.788.207c-.596-.62-1.192-1.187-1.192-1.187v-.587c0-.493.596-.48 0-1.106-.255-.264-.453-.677-.596-1.066 0-.407-.078-.773-.18-1.107a.946.946 0 00-.055-.16c.082-.347.205-.97.201-1.47 0-.276-.044-.517-.157-.653-.177-.217-.498-.986-.787-1.77-.375-.99-.711-2.014-.711-2.014s-.021.05-.051.15c-.116.366-.419 1.35-.535 1.853-.021.08-.037.153-.041.204-.071.456-.071 1.073-.368 1.283-.105.069-.174.093-.238.12-.095.043-.164.103-.357.496-.184.377.082.527.177.681a1.171 1.171 0 01-.177.353c-.6.41-1.192.204-.6.41.102.033.205.073.313.117a1.646 1.646 0 00-.079.39c-.051.33-.041.684.003 1.026-.242.357-.262.563-.535.943-.296.41-.596 1.03-.596 1.03h.892s-.892 1.24-.892 1.443v.827c0 .163.371.069.238.326a1.5 1.5 0 01-.238.293c-.6.617-.6 1.44-.6 1.44s1.195-.203.899 0c-.296.2-.862.983-.893 1.03.089-.061 1.478-.993 1.188.007-.29.996-.861 1.996-.892 2.057.01 0 .071-.023.184-.057-.947.699-1.976 3.772-1.976 3.772l2.088-.616s0 2.887-1.792 4.33c-1.788 1.443-2.98 2.684-3.875 3.92-.893 1.24 3.089-1.271 1.492 1.036-3.876 5.563-.296 4.534-.296 4.534l-1.522 1.58c-.095-.16-.194-.324-.3-.487-.442-.717-1.273-1.743-1.43-2.733 1.045.217 1.815.317 1.815.317l-1.935-1.601-.77-1.007-.085-.066c-.075-.224-.15-.437-.211-.613l1.066-.19h.776s.773 0 .385-.267c-.385-.267-.77-1.069-.77-1.069s-1.158-.027-1.158-.681c-.003-.656-.777-1.193-.777-1.193l2.319.267c-.776-.8-1.542-1.536-1.542-1.536s-.003-.123-.003-.76c0-.647.77-.617 0-1.437-.331-.351-.583-.877-.773-1.384a4.82 4.82 0 00-.303-1.644c.102-.45.269-1.26.255-1.913 0-.356-.055-.667-.198-.844-.429-.523-1.437-3.396-1.808-4.486-.085-.264-.14-.423-.14-.423s-.027.073-.065.193c-.021.063-.038.143-.068.229-.215.68-.617 2.01-.681 2.44a2.979 2.979 0 01-.022.205zm378.266 118.127c.395-.137.729-.287.995-.424l3.354 1.097a275.934 275.934 0 01-4.349-.673zm-8.524-14.334l.498.057-.15.267-.348-.324zm-.371-3.377h2.759l-1.036 1.874-1.723-1.874zm-14.784 4.347l-.507-.409c.364-.041.599.045.507.409zm-1.778 10.143c1.138-.26 1.938-.193 1.271.827l-.903-.46-.368-.367zm-3.559-3.583l.313.054 3.627.626-1.607 1.67-2.04-2.057-.293-.293zm-2.142-5.677l2.142-.986 2.997.46 2.009.31c-.041.07-.085.134-.136.207-1.376 1.977-2.013 3.3-2.224 4.18l-1.444-1.18-1.56-1.264-1.784-1.727zm-13.037-36.296c0-.273.296-.39.633-.553-.225.279-.412.536-.432.566.105-.073 1.768-1.19 1.417 0a10.06 10.06 0 01-.457 1.243l-1.161-1.256zm-10.976 5.35a9.9 9.9 0 00-.644 1.199l-.351-.283-1.499-.933.6-.101c.75.281 1.4.244 1.894.118zm.405 3.083l-1.086 1.133-.61-.5-.756-.723.902-.417.208.037c.188.803 1.342.47 1.342.47zm.422 2.637c-.003.156-.129.396-.422.743-.072.083-.14.17-.215.264l-1.011-1.021c.214-.066.422-.123.62-.166l1.028.18zm-10.744 39.173c.194-.02.416-.033.664-.057.354-.036.77-.076 1.257-.123.14-.014.272-.03.405-.043l2.224.387-.701-.57c4.315-.59 6.208-1.46 6.208-1.46h1.046v.017l-1.468 1.687a212.387 212.387 0 00-8.034 1.773l-.504-.507-1.097-1.104zm-1.359-12.046l-1.117-.827.068-.017c.436.167.858.28 1.26.356.344.063.674.101.991.11a6.522 6.522 0 002.142-.264c-.027.05-.047.094-.064.13-.157.434-.845 1.354-1.403 2.063-.116.144-.221.277-.32.396l-.617-.503-1.09-.677-.599-.373-.436-.273-.071-.123h1.256zm4.639 2.489s-.116.87-.348 1.684l-2.063-1.684h2.411zm-4.029 8.804l.77.133-.242.397-.528-.53zm-1.986-5.267l1.662-.773.324-.146.439.069 2.425.374.14.02c-.024.033-.051.063-.075.101-.783.93-2.425 2.637-2.425 2.637h2.166l-.719 1.18-1.447-1.18-.834-.677-1.656-1.605zm-1.427-18.556c.017 0 .027 0 .044-.004l.507-.053a22.664 22.664 0 001.798-.273l1.063.113-.453-.24c1.083-.253 1.577-.479 1.577-.479h1.499l2.854.933 1.825.054-.292 2.224-3.252 3.746h3.252l-2.173 3.937s-.375.264-.821.62l-2.755-1.909c.419.073.678.13.712.137l-2.748-2.37-1.206-2.304h3.637l-3.419-2.68h.303l-1.399-1.047-.553-.405zm-1.846-4.524c.129-.236.487-.36.865-.554h1.757c-.051.297-.19 1.107-.436 1.447a1.849 1.849 0 01-.576.672l-.136-.109-.589-.471-.885-.985zm-5.459-25.94l.671.08c-.064.2-.133.431-.197.653-.072-.046-.126-.109-.126-.203-.007-.293-.348-.53-.348-.53zm-5.895 15.79l-1.209-.836c.752-.307 2.772-1.057 1.785.113-.198.239-.389.484-.576.723zm-3.314 11.85h1.321l-.412.743-.909-.743zm-2.146-2.03l2.224-1.026 1.304.2-.061.483-1.744 2.01-1.723-1.667zm-1.113-7.44l1.485-.26c1.757.664 3.31.613 4.505.344.589.26.947.83-.899 2.036a3.192 3.192 0 00-.752.707l-.63-.521-3.709-2.306zm-11.123-31.553a1.745 1.745 0 00-.303.273c-.208-.203-.344-.337-.358-.347.402-.049.89-.089.661.074zm-1.413 1.149l.364.04c-.034.044-.054.08-.061.087a2.75 2.75 0 00.119-.08l1.338.153a10.957 10.957 0 01-.569 1.464c-.235-.09-.439-.247-.443-.517.001-.629-.748-1.147-.748-1.147zm-6.082-1.182l.524-.09a9.716 9.716 0 00-.205.333l-.319-.243zm0-2.5l.852.097a6.782 6.782 0 00-.337.54c-.134-.368-.515-.637-.515-.637zm-5.552 4.509l1.471-.677c-.279.714-.613 1.311-.637 1.354.003 0 .065-.021.167-.05a1.436 1.436 0 00-.181.166l-.82-.793zm-.831-5.573l1.104-.187c.395.144.767.246 1.131.307-.164.25-.293.483-.293.56v.533l-1.942-1.213zm-22.122 9.23l1.137-.196h.726s.729 0 .364-.25c-.364-.253-.729-1.003-.729-1.003s-.718-.021-.98-.37a8.862 8.862 0 005.071-.8 8.788 8.788 0 00-.129.563c-.003.063-.014.131-.021.197-1.342 1.223-2.02 3.166-2.306 4.213l-2.091-1.706-1.042-.648zm-5.467-12.253h1.917c-.01.007-.014.017-.027.02-.129.091-.214.114-.283.15-.123.05-.208.123-.436.6-.047.091-.064.174-.078.24l-1.093-1.01zm-18.581 8.78l-2.506-1.733c2.23-.813 5.367-1.69 3.31.757-.276.319-.542.646-.804.976zm-1.43 9.693l-2.438-1.914 2.908.447c.082.394-.034.881-.47 1.467zm-2.909.677h2.316c-.307.303-.678.626-1.134.977l-1.093-.894-.089-.083zm-2.731-8.68l1.41-.25c1.7.646 3.194.584 4.339.307a58.377 58.377 0 00-1.723 2.54l-.504-.406-3.522-2.191zm-14.474-17.38h1.24c-.245.2-.48.403-.712.594l-.528-.594zm-1.185-4.437l3.801.663-1.104-.903 1.304-.387h.732c-.007.104-.014.24-.031.4-.364.526-.943 1.387-.943 1.58v1.13c0 .083.071.116.146.144-.085.173-.177.35-.286.517l-1.008-.51-2.611-2.634zm-1.427-3.773l1.427-.656 3.958.604c-.678 1.026-1.298 2.636-1.553 3.346l-2.636-2.143-1.196-1.151zm-12.454 72.429l-.637-.319-.058-.063.715.236-.02.146zm-1.441 1.811h1.206l-.031.21-.416.486-.759-.696zm-1.178-67.08l-1.856-1.5 2.214-1.224-.358 2.724zm-3.045 1.486l2.091.363-.807.931-1.284-1.294zm-2.319-6.146l2.319-1.066 2.823.434c-1.138 1.263-1.625 3.103-1.754 3.687l-1.458-1.181-1.93-1.874zm-1.158-7.75l1.543-.267c4.25 1.604 7.342-.804 7.342-.804l-.412-.286c.708-.24 1.488-.443 1.761-.297-.085.16-.136.264-.136.264h.218c-.037.137-.146.319-.351.563-1.662 1.97-2.847 4.103-2.847 4.103s3.6.277.875 2.487l-4.131-3.356-3.862-2.407zm-17.535-3.543c.351.06.477.286.211.77a8.11 8.11 0 00-.211-.77zm-1.656-3.45c.576.283 1.417.043 1.417.043l-.879.914a69.37 69.37 0 00-.538-.957zm-11.381 1.596l.255-.073s0 .18-.027.49a3.81 3.81 0 00-.228-.417zm-6.358 20.344l-.467.486c-.068-.123-.149-.25-.225-.384.385-.016.692-.102.692-.102zm-.923 5.59c0-.58 1.267-.477 1.566-1.487.119.24-.041.67-.644 1.38-.16.193-.32.387-.48.584l-.442-.477zm-.937 62.679l-.218.394c-.16-.127-.163-.27.218-.394zm-2.05 2.208l.787.08-.231.43-.556-.51zm-2.936-79.148s-.146.193-.31.44a7.157 7.157 0 00-.133-.44h.443zm-.739 4.71c.32-.116.589-.116.453.367a.775.775 0 00-.027.094l-.426-.461zm-.576-.623c.272-.043.971-.144.746.017-.102.067-.245.217-.381.374l-.365-.391zm-.626-.687c0-.477.811-.526 1.332-1.017-.003.066-.068.167-.238.354-.436.443-.531 1.003-.559 1.246l-.535-.583zm-15.158 18.84l1.297.141c.583.283.991.746.603 1.5l-.8-.627-1.1-1.014zm-1.1-4.059c0-.764 1.73-.606 2.057-2.03 1.57-.573 3.767-1.184 2.319.53a35.082 35.082 0 00-2.558 3.479l-1.818-1.979zm-1.356-10.187c.991.199 1.723.3 1.723.3l-1.308-1.077c1.941-.086 4.223.394 4.288.403l-.068-.066c.715-.104 2.605-1.033 1.4.696-3.964 5.693-.303 4.637-.303 4.637l-2.285 2.374c-.119-.99-.695-2.454-2.091-4.684-.419-.677-1.202-1.646-1.356-2.583zm-8.174-2.997s.096-.014.239-.04c-.041.14-.092.271-.153.35 0 0-.003.014-.01.018-.313-.054-.773-.197-.776-.601a.883.883 0 00-.106-.406h.92c-.114.389-.114.679-.114.679zm4.857 83.984l-3.787-3.08-1.202-.753 3.726.109 1.9.62 2.193.066c-.634.724-1.591 1.717-1.591 1.717h1.591c-.017.054-.024.106-.041.157l-1.206 1.983c-1.703.296-3.385.597-5.051.89l-.143-.12v-.076c0-.16.198-.157 0-.363a1.067 1.067 0 01-.201-.357c0-.156-.027-.3-.079-.42.024-.116.068-.323.068-.486 0-.09-.014-.177-.051-.22a1.246 1.246 0 01-.14-.283l4.014.616zm-5.35-81.324c.116-.01.242-.023.385-.037.436-.043.804-.093 1.134-.153-.235.544-.47.987-.583 1.204l-.436-.367-.5-.647zm-.923-.827l1.148-.199-.45.743-.698-.544zm0-3.196l.998.113c-.164.22-.341.437-.412.526-.205-.379-.586-.639-.586-.639zm-6.229 5.673h.286l-.003.011h.225c-.038.16-.089.343-.167.523-.027-.054-.058-.101-.092-.16a21.9 21.9 0 00-.249-.374zm-1.423-3.576l1.376.146c-.126.4-.126.71-.126.71s.661-.113.964-.109c-.038.113-.089.22-.136.316-.126.14-.27.303-.402.467l-1.382-1.15-.294-.38zm-9.536-6.253l1.72-.514s0 1.58-.783 2.833c-.263-.483-.648-1.51-.937-2.319zm-2.633-.691l1.359-.623 1.631.246c-.191.45-.327.83-.381.99-.208-.58-.358-1.023-.358-1.023s-.017.05-.041.14c-.116.364-.419 1.337-.528 1.817l-.555-.453-1.127-1.094zm-.678-4.54l.902-.156c2.371.896 4.128-.341 4.288-.46.116 0 .177.017.092.076-.245.174-.732.833-.756.877.071-.054 1.253-.851 1.008 0a8.901 8.901 0 01-.759 1.75c.014 0 .064-.021.157-.047-.242.18-.491.54-.719.957l-1.952-1.591-2.261-1.406zm-23.192 23.304c.211.02 1.928.22 1.407 1.216l-1.407-1.216zm-.616 3.016c-.167.18-.32.373-.453.573l-.844-.727c.445.047.881.104 1.297.154zm.402 2.147l-.385 2.91-1.127 1.297-1.349-1.07-1.039-1.163h2.721l-1.941-.987-1.427-1.434 2.074.357-1.631-1.327c1.148.13 2.159.283 2.909.413-.531 1.03-.719 2.057-.719 2.057l1.914-1.053zm-1.914 4.673l-.592.684-.099-.606.691-.078zm1.529.884l-.606 1.1-1.481-1.097v-.003h2.087zm-.743 1.349l-.531.964-.555-.964h1.086zm-.517 13.764h.627l-.181.326-.446-.326zm-1.291-2.2c.759-.08 1.434-.184 2.016-.283l-.099.75-1.158 1.337-.528-.391-.231-1.413zm-1.819-6.491c.17-.017.361-.036.593-.053l.395-.021h1.158c.037.007.078.007.119.014-.003.05-.16 1.19-.47 1.797l-.841-.67-.954-1.067zM23.819 465.37c.181.044.368.077.542.097l-.105.817c-.034-.19-.085-.347-.17-.454a2.541 2.541 0 01-.267-.46zM7.09 462.684c1.08-.267 1.856-.213.858.964-.078.1-.157.193-.235.293-.17-.384-.374-.804-.623-1.257z"/></g></g></switch></svg>