<svg xmlns="http://www.w3.org/2000/svg" width="1280" height="800"><switch><g><linearGradient id="a" gradientUnits="userSpaceOnUse" x1="772.283" y1="908.766" x2="759.018" y2="478.368" gradientTransform="matrix(-1 0 0 1 1279.6 0)"><stop offset=".121" stop-color="#fff"/><stop offset=".256" stop-color="#d0d2d2"/><stop offset=".592" stop-color="#616868"/><stop offset=".824" stop-color="#1b2424"/><stop offset=".931" stop-color="#000a0a"/></linearGradient><path fill="url(#a)" d="M518.829 528.843l.242.171c.035-.03.065-.056.095-.074.165-.12-.06-.123-.337-.097z"/><linearGradient id="b" gradientUnits="userSpaceOnUse" x1="708.59" y1="908.111" x2="695.414" y2="480.627" gradientTransform="matrix(-1 0 0 1 1279.6 0)"><stop offset=".121" stop-color="#fff"/><stop offset=".256" stop-color="#d0d2d2"/><stop offset=".592" stop-color="#616868"/><stop offset=".824" stop-color="#1b2424"/><stop offset=".931" stop-color="#000a0a"/></linearGradient><path fill="url(#b)" d="M582.373 536.628c.009.06.026.122.048.185.039-.052.083-.1.125-.151a5.911 5.911 0 00-.173-.034z"/><linearGradient id="c" gradientUnits="userSpaceOnUse" x1="685.087" y1="911.526" x2="671.814" y2="480.908" gradientTransform="matrix(-1 0 0 1 1279.6 0)"><stop offset=".121" stop-color="#fff"/><stop offset=".256" stop-color="#d0d2d2"/><stop offset=".592" stop-color="#616868"/><stop offset=".824" stop-color="#1b2424"/><stop offset=".931" stop-color="#000a0a"/></linearGradient><path fill="url(#c)" d="M605.949 542.579c.026-.037.057-.078.091-.118-.091-.019-.195-.033-.303-.056l.212.174z"/><linearGradient id="d" gradientUnits="userSpaceOnUse" x1="656.585" y1="913.276" x2="643.28" y2="481.588" gradientTransform="matrix(-1 0 0 1 1279.6 0)"><stop offset=".121" stop-color="#fff"/><stop offset=".256" stop-color="#d0d2d2"/><stop offset=".592" stop-color="#616868"/><stop offset=".824" stop-color="#1b2424"/><stop offset=".931" stop-color="#000a0a"/></linearGradient><path fill="url(#d)" d="M634.208 545.627l.229.219c.017-.074.03-.148.047-.219h-.276z"/><linearGradient id="e" gradientUnits="userSpaceOnUse" x1="645.254" y1="913.713" x2="631.948" y2="481.995" gradientTransform="matrix(-1 0 0 1 1279.6 0)"><stop offset=".121" stop-color="#fff"/><stop offset=".256" stop-color="#d0d2d2"/><stop offset=".592" stop-color="#616868"/><stop offset=".824" stop-color="#1b2424"/><stop offset=".931" stop-color="#000a0a"/></linearGradient><path fill="url(#e)" d="M646.154 527.702l.126.138c.021-.104.039-.204.057-.301-.096.049-.183.082-.183.163z"/><linearGradient id="f" gradientUnits="userSpaceOnUse" x1="614.082" y1="912.047" x2="600.866" y2="483.273" gradientTransform="matrix(-1 0 0 1 1279.6 0)"><stop offset=".121" stop-color="#fff"/><stop offset=".256" stop-color="#d0d2d2"/><stop offset=".592" stop-color="#616868"/><stop offset=".824" stop-color="#1b2424"/><stop offset=".931" stop-color="#000a0a"/></linearGradient><path fill="url(#f)" d="M676.727 544.872l.138.141.078-.141z"/><linearGradient id="g" gradientUnits="userSpaceOnUse" x1="558.483" y1="916.618" x2="545.159" y2="484.323" gradientTransform="matrix(-1 0 0 1 1279.6 0)"><stop offset=".121" stop-color="#fff"/><stop offset=".256" stop-color="#d0d2d2"/><stop offset=".592" stop-color="#616868"/><stop offset=".824" stop-color="#1b2424"/><stop offset=".931" stop-color="#000a0a"/></linearGradient><path fill="url(#g)" d="M732.011 563.526c.025-.041.052-.082.073-.122l-.16-.022c.03.044.06.096.087.144z"/><linearGradient id="h" gradientUnits="userSpaceOnUse" x1="532.252" y1="914.535" x2="519.035" y2="485.715" gradientTransform="matrix(-1 0 0 1 1279.6 0)"><stop offset=".121" stop-color="#fff"/><stop offset=".256" stop-color="#d0d2d2"/><stop offset=".592" stop-color="#616868"/><stop offset=".824" stop-color="#1b2424"/><stop offset=".931" stop-color="#000a0a"/></linearGradient><path fill="url(#h)" d="M758.472 557.464l-.238.04.139.111c.034-.052.065-.103.099-.151z"/><linearGradient id="i" gradientUnits="userSpaceOnUse" x1="531.117" y1="916.163" x2="517.841" y2="485.435" gradientTransform="matrix(-1 0 0 1 1279.6 0)"><stop offset=".121" stop-color="#fff"/><stop offset=".256" stop-color="#d0d2d2"/><stop offset=".592" stop-color="#616868"/><stop offset=".824" stop-color="#1b2424"/><stop offset=".931" stop-color="#000a0a"/></linearGradient><path fill="url(#i)" d="M759.521 554.297c.073.074.146.152.225.233-.001-.17-.092-.237-.225-.233z"/><linearGradient id="j" gradientUnits="userSpaceOnUse" x1="483.745" y1="917.269" x2="470.479" y2="486.871" gradientTransform="matrix(-1 0 0 1 1279.6 0)"><stop offset=".121" stop-color="#fff"/><stop offset=".256" stop-color="#d0d2d2"/><stop offset=".592" stop-color="#616868"/><stop offset=".824" stop-color="#1b2424"/><stop offset=".931" stop-color="#000a0a"/></linearGradient><path fill="url(#j)" d="M806.535 574.98h-.261l.229.215c.015-.073.023-.147.032-.215z"/><linearGradient id="k" gradientUnits="userSpaceOnUse" x1="511.303" y1="916.401" x2="498.039" y2="486.077" gradientTransform="matrix(-1 0 0 1 1279.6 0)"><stop offset=".121" stop-color="#fff"/><stop offset=".256" stop-color="#d0d2d2"/><stop offset=".592" stop-color="#616868"/><stop offset=".824" stop-color="#1b2424"/><stop offset=".931" stop-color="#000a0a"/></linearGradient><path fill="url(#k)" d="M779.155 566.489c.013-.052.025-.115.043-.186l-.221.041.178.145z"/><linearGradient id="l" gradientUnits="userSpaceOnUse" x1="496.66" y1="918.998" x2="483.297" y2="485.449" gradientTransform="matrix(-1 0 0 1 1279.6 0)"><stop offset=".121" stop-color="#fff"/><stop offset=".256" stop-color="#d0d2d2"/><stop offset=".592" stop-color="#616868"/><stop offset=".824" stop-color="#1b2424"/><stop offset=".931" stop-color="#000a0a"/></linearGradient><path fill="url(#l)" d="M792.02 622.512c.057-.074.108-.152.165-.23l-.199.026.034.204z"/><linearGradient id="m" gradientUnits="userSpaceOnUse" x1="633.786" y1="912.651" x2="620.526" y2="482.427" gradientTransform="matrix(-1 0 0 1 1279.6 0)"><stop offset=".121" stop-color="#fff"/><stop offset=".256" stop-color="#d0d2d2"/><stop offset=".592" stop-color="#616868"/><stop offset=".824" stop-color="#1b2424"/><stop offset=".931" stop-color="#000a0a"/></linearGradient><path fill="url(#m)" d="M654.372 638.129c.047-.06.095-.118.147-.186a1.05 1.05 0 01-.243-.066l-.233.041.329.211z"/><linearGradient id="n" gradientUnits="userSpaceOnUse" x1="671.84" y1="911.416" x2="658.585" y2="481.365" gradientTransform="matrix(-1 0 0 1 1279.6 0)"><stop offset=".121" stop-color="#fff"/><stop offset=".256" stop-color="#d0d2d2"/><stop offset=".592" stop-color="#616868"/><stop offset=".824" stop-color="#1b2424"/><stop offset=".931" stop-color="#000a0a"/></linearGradient><path fill="url(#n)" d="M616.601 625.367l.125-.086h-.294l.169.086z"/><linearGradient id="o" gradientUnits="userSpaceOnUse" x1="676.722" y1="911.329" x2="663.464" y2="481.199" gradientTransform="matrix(-1 0 0 1 1279.6 0)"><stop offset=".121" stop-color="#fff"/><stop offset=".256" stop-color="#d0d2d2"/><stop offset=".592" stop-color="#616868"/><stop offset=".824" stop-color="#1b2424"/><stop offset=".931" stop-color="#000a0a"/></linearGradient><path fill="url(#o)" d="M611.948 611.612l.126.122c.043-.008.121-.022.195-.078a.245.245 0 00.048-.1c-.022-.041-.083-.082-.052-.174l-.347.166.03.064z"/><linearGradient id="p" gradientUnits="userSpaceOnUse" x1="678.878" y1="911.305" x2="665.618" y2="481.09" gradientTransform="matrix(-1 0 0 1 1279.6 0)"><stop offset=".121" stop-color="#fff"/><stop offset=".256" stop-color="#d0d2d2"/><stop offset=".592" stop-color="#616868"/><stop offset=".824" stop-color="#1b2424"/><stop offset=".931" stop-color="#000a0a"/></linearGradient><path fill="url(#p)" d="M608.787 648.606c.052-.07.108-.142.165-.215-.33.067-.291.148-.165.215z"/><linearGradient id="q" gradientUnits="userSpaceOnUse" x1="483.604" y1="916.912" x2="470.301" y2="485.288" gradientTransform="matrix(-1 0 0 1 1279.6 0)"><stop offset=".121" stop-color="#fff"/><stop offset=".256" stop-color="#d0d2d2"/><stop offset=".592" stop-color="#616868"/><stop offset=".824" stop-color="#1b2424"/><stop offset=".931" stop-color="#000a0a"/></linearGradient><path fill="url(#q)" d="M806.773 566.118c.017.049.038.097.056.145.026-.081-.004-.118-.056-.145z"/><linearGradient id="r" gradientUnits="userSpaceOnUse" x1="805.673" y1="908.291" x2="792.378" y2="476.945" gradientTransform="matrix(-1 0 0 1 1279.6 0)"><stop offset=".121" stop-color="#fff"/><stop offset=".256" stop-color="#d0d2d2"/><stop offset=".592" stop-color="#616868"/><stop offset=".824" stop-color="#1b2424"/><stop offset=".931" stop-color="#000a0a"/></linearGradient><path fill="url(#r)" d="M483.717 588.584l.074.074c.017-.026.035-.049.052-.074h-.126z"/><linearGradient id="s" gradientUnits="userSpaceOnUse" x1="749.855" y1="569.533" x2="746.966" y2="475.828" gradientTransform="matrix(-1 0 0 1 1279.6 0)"><stop offset=".121" stop-color="#fff"/><stop offset=".256" stop-color="#d0d2d2"/><stop offset=".592" stop-color="#616868"/><stop offset=".824" stop-color="#1b2424"/><stop offset=".931" stop-color="#000a0a"/></linearGradient><path fill="url(#s)" d="M531.183 522.669l.008.012.004-.012z"/><linearGradient id="t" gradientUnits="userSpaceOnUse" x1="685.028" y1="915.95" x2="671.567" y2="479.199" gradientTransform="matrix(-1 0 0 1 1279.6 0)"><stop offset=".121" stop-color="#fff"/><stop offset=".256" stop-color="#d0d2d2"/><stop offset=".592" stop-color="#616868"/><stop offset=".824" stop-color="#1b2424"/><stop offset=".931" stop-color="#000a0a"/></linearGradient><path fill="url(#t)" d="M606.014 542.631l.061.049c.022-.045.048-.086.069-.126a1.54 1.54 0 00-.13.077z"/><linearGradient id="u" gradientUnits="userSpaceOnUse" x1="670.076" y1="648.98" x2="663.578" y2="438.142" gradientTransform="matrix(-1 0 0 1 1279.6 0)"><stop offset=".121" stop-color="#fff"/><stop offset=".256" stop-color="#d0d2d2"/><stop offset=".592" stop-color="#616868"/><stop offset=".824" stop-color="#1b2424"/><stop offset=".931" stop-color="#000a0a"/></linearGradient><path fill="url(#u)" d="M612.797 543.535a.171.171 0 00-.047.015l.017.011.03-.026z"/><linearGradient id="v" gradientUnits="userSpaceOnUse" x1="647.534" y1="619.982" x2="642.721" y2="463.807" gradientTransform="matrix(-1 0 0 1 1279.6 0)"><stop offset=".121" stop-color="#fff"/><stop offset=".256" stop-color="#d0d2d2"/><stop offset=".592" stop-color="#616868"/><stop offset=".824" stop-color="#1b2424"/><stop offset=".931" stop-color="#000a0a"/></linearGradient><path fill="url(#v)" d="M634.485 541.879l-.026-.004.018.02z"/><linearGradient id="w" gradientUnits="userSpaceOnUse" x1="676.784" y1="914.867" x2="663.351" y2="479.038" gradientTransform="matrix(-1 0 0 1 1279.6 0)"><stop offset=".121" stop-color="#fff"/><stop offset=".256" stop-color="#d0d2d2"/><stop offset=".592" stop-color="#616868"/><stop offset=".824" stop-color="#1b2424"/><stop offset=".931" stop-color="#000a0a"/></linearGradient><path fill="url(#w)" d="M612.187 611.846c.004-.016 0-.026.004-.041-.021-.008-.047-.019-.069-.026l.065.067z"/><path fill="#071219" d="M436.4 770.914H1280V390.175l-.566.586-5.347 4.141-3.917 3.036s3.367 2.938 7.997.98l1.683.326-1.393.967-2.817 1.967-3.71 3.39-1.793 1.631-1.653 1.51 3.637-.627 3.939-.68 1.617.833.343.18.567.294-2.104 2.283-3.724 3.396-3.437 3.13 3.236-.623 2.967-.577.533-.103-1.35 1.526-1.073 1.207-2.203 2.489-6.32 3.587h8.844l-3.37 4.247-3.271 2.896c-.036-.137-.073-.264-.097-.354-.036-.137-.06-.22-.06-.22s-.12.403-.3.983l-2.167 1.916 1.486.188c-.38 1.13-.779 2.21-1.013 2.529-.15.2-.204.557-.207.967-.01.747.156 1.674.264 2.187-.13.403-.237.863-.284 1.363l-1.51 1.25h1.2c-.144.323-.313.63-.507.854-.79.94 0 .91 0 1.64 0 .737-.003.881-.003.881s-.787.84-1.577 1.756l2.374-.307s-.794.617-.797 1.363c-.007.75-1.181.784-1.181.784s-.396.916-.789 1.227c-.4.307.393.307.393.307h.79l.787.149-1.05 2.244-1.714 1.586s.42-.066 1.057-.189l-.666 1.413-3.624 3.514a3.38 3.38 0 00-.063-.33c.12-.054.237-.104.347-.144.66-.26 0 0-.663-.517a1.319 1.319 0 01-.196-.44c.106-.183.399-.37.196-.836-.21-.494-.286-.567-.399-.624-.063-.033-.144-.057-.261-.149-.333-.257-.333-1.027-.406-1.597-.061-.46-.493-2.021-.644-2.554-.036-.116-.053-.18-.053-.18s-1.214 4.073-1.667 4.7c-.124.17-.17.466-.17.807-.007.626.13 1.399.22 1.833-.15.45-.26.986-.26 1.573-.157.486-.38.997-.66 1.33-.66.78 0 .753 0 1.37 0 .609-.004.729-.004.729s-.209.227-.506.561c-.237.26-.527.58-.811.916l1.98-.26s-.66.514-.664 1.144c0 .627-.989.653-.989.653s-.327.767-.66 1.023.333.257.333.257h.66l1.32.26-.66.573-.66.963-1.646 1.537c.076-.01.707-.116 1.547-.304-.137.947-.847 1.931-1.227 2.61-2.688 4.81-2.014 6.113-1.131 6.727-.109.037-.22.077-.323.117l-4.26-4.96c.167.05 5.054 1.506-.434-7.317-2.3-3.703 3.434.334 2.144-1.663a26.17 26.17 0 00-2.34-3.076 42.272 42.272 0 00-3.236-3.24c-2.574-2.327-2.574-6.983-2.574-6.983l3 .996s-1.477-4.956-2.833-6.083c.153.057.243.09.261.094-.051-.101-.867-1.71-1.284-3.323-.413-1.61 1.584-.097 1.714 0-.047-.084-.87-1.337-1.283-1.664-.431-.33 1.286 0 1.286 0s0-1.326-.86-2.319c-.856-1.004 0-.67 0-1.004v-1.33c0-.333-1.283-2.323-1.283-2.323h1.283s-.426-1-.856-1.663c-.396-.617-.423-.946-.767-1.523.084-.77.084-1.594-.116-2.28.163-.069.316-.133.456-.189.857-.33 0 0-.859-.663a1.89 1.89 0 01-.257-.574c.14-.239.517-.482.257-1.09-.273-.633-.373-.729-.521-.807-.083-.04-.187-.069-.34-.189-.427-.334-.427-1.334-.523-2.063-.08-.61-.644-2.627-.837-3.32l-.066-.236s-1.576 5.286-2.156 6.093c-.164.217-.224.607-.23 1.054-.006.807.174 1.816.29 2.37-.189.59-.34 1.28-.34 2.047-.203.626-.49 1.29-.85 1.723-.86 1.014 0 .974 0 1.773 0 .797-.004.953-.004.953s-.856.91-1.713 1.907l2.566-.327s-.85.66-.854 1.474c-.007.816-1.286.85-1.286.85s-.427.997-.86 1.33c-.12.097-.134.16-.097.207a2.334 2.334 0 01-.43-.267 1.874 1.874 0 01-.294-.667c.157-.279.597-.563.294-1.276-.323-.743-.44-.85-.61-.934-.097-.05-.21-.09-.394-.229-.503-.387-.503-1.55-.613-2.407-.09-.706-.746-3.066-.973-3.87-.051-.176-.077-.276-.077-.276s-1.84 6.167-2.526 7.11c-.187.253-.25.703-.26 1.227-.011.946.199 2.116.336 2.77a7.776 7.776 0 00-.393 2.387c-.244.727-.57 1.5-.997 2.007-1.003 1.184 0 1.14 0 2.07 0 .934-.01 1.113-.01 1.113s-.993 1.063-1.997 2.227l3.004-.387s-.997.773-1.007 1.724c-.004.953-1.493.989-1.493.989s-.504 1.167-1 1.554c-.5.39.496.39.496.39h1.004l2 .387-.997.867-1.003 1.46-.021.02-2.483 2.311s.993-.153 2.354-.464c-.207 1.434-1.276 2.927-1.85 3.954-.824 1.47-1.438 2.723-1.881 3.796-.159-.316-.819-1.68-1.173-3.046-.39-1.507 1.486-.094 1.606 0-.043-.077-.816-1.257-1.2-1.561-.406-.31 1.207 0 1.207 0s0-1.246-.81-2.18c-.804-.934 0-.627 0-.934v-1.25c0-.146-.254-.627-.534-1.097-.319-.547-.67-1.083-.67-1.083h1.204s-.397-.943-.804-1.563c-.37-.577-.394-.887-.717-1.424.077-.729.077-1.496-.106-2.143.146-.061.29-.124.423-.177.807-.311 0 0-.807-.624a1.74 1.74 0 01-.236-.536c.127-.23.483-.45.236-1.023-.26-.594-.347-.687-.486-.75-.08-.043-.173-.073-.316-.184-.4-.316-.4-1.25-.497-1.937-.073-.566-.6-2.47-.78-3.113l-.063-.224s-1.478 4.957-2.027 5.717c-.146.203-.206.567-.213.983-.004.764.166 1.71.27 2.23a6.22 6.22 0 00-.31 1.916c-.2.591-.467 1.21-.807 1.61-.807.953 0 .92 0 1.673v.004c0 .74-.004.883-.004.883s-.803.86-1.6 1.794l2.41-.311s-.807.627-.811 1.384c0 .767-1.203.797-1.203.797s-.396.939-.803 1.25c-.403.31.406.31.406.31h.797l1.613.313-.807.7-.807 1.17-2.01 1.873s.8-.12 1.89-.377c-.163 1.157-1.021 2.354-1.486 3.181-.237.423-.44.813-.634 1.193-.104-.601-.36-1.504-1.003-2.26-1.07-1.247 0-.83 0-1.247v-1.657c0-.413-1.607-2.906-1.607-2.906h1.607s-.537-1.243-1.07-2.076c-.497-.768-.533-1.181-.96-1.897.097-.913.106-1.88-.106-2.713-.011-.047-.021-.094-.034-.134.19-.086.387-.166.563-.233 1.07-.416 0 0-1.069-.833-.124-.16-.23-.399-.32-.713.177-.304.64-.601.32-1.36-.347-.797-.467-.913-.65-1-.106-.057-.233-.097-.42-.247-.54-.416-.54-1.663-.66-2.576-.1-.757-.797-3.28-1.036-4.144-.061-.184-.087-.293-.087-.293s-1.97 6.597-2.7 7.606c-.2.273-.273.753-.276 1.313-.01.649.083 1.396.184 2.03.057.356.119.683.173.933a8.296 8.296 0 00-.42 2.557c-.26.78-.61 1.601-1.07 2.137-1.069 1.273 0 1.227 0 2.227 0 .987-.007 1.184-.007 1.184s-1.063 1.14-2.133 2.38l3.21-.406s-1.07.823-1.077 1.843c-.003 1.017-1.6 1.057-1.6 1.057s-.533 1.247-1.07 1.66c-.533.414.537.414.537.414h1.07l2.14.416-1.07.931-1.069 1.563-2.677 2.487s1.066-.164 2.517-.49c-.217 1.53-1.363 3.12-1.98 4.227-2.366 4.233-3.127 6.79-3.087 8.396 0 .104.004.203.014.304.24 2.793 3.073 2.427 3.073 3.746l-.96 1.167c-5.977 2.22-11.047 4.443-14.423 6.57-.077-.783-.454-1.931-1.34-3.597-.107-.2-.224-.41-.344-.62-.04-.066-.077-.14-.113-.207a25.648 25.648 0 00-.85-1.887c-.12-.236-.24-.463-.367-.673.07-.22.356-.24.71-.167 1.014.193 2.62 1.073 1.89-.066a23.243 23.243 0 00-.883-1.267c-.964-1.3-2.157-2.634-3.693-4.094.43-.319 1.767.687 1.88.777-.054-.094-.99-1.527-1.464-1.903-.493-.374 1.467 0 1.467 0s0-1.511-.979-2.653c-.98-1.141 0-.761 0-1.141v-1.52c0-.377-1.467-2.66-1.467-2.66h1.467s-.487-1.137-.98-1.896c-.446-.704-.483-1.077-.876-1.737.093-.88.097-1.813-.124-2.603.174-.08.351-.153.514-.217.979-.384 0 0-.979-.757-.11-.15-.211-.373-.294-.657.163-.279.59-.55.294-1.246-.317-.724-.427-.834-.594-.917-.097-.047-.21-.087-.387-.22-.493-.38-.493-1.523-.604-2.36-.05-.42-.31-1.45-.557-2.363h.33s-.354-.816-.73-1.446c-.046-.16-.069-.25-.069-.25l-.026.087s0-.007-.007-.014c-.38-.594-.41-.91-.747-1.474.08-.75.084-1.547-.106-2.223.149-.067.297-.124.437-.184.837-.316 0 0-.83-.641a1.487 1.487 0 01-.246-.56c.13-.236.496-.47.246-1.06-.273-.617-.366-.714-.507-.784-.083-.04-.18-.069-.33-.187-.42-.326-.42-1.293-.517-2.01a9.427 9.427 0 00-.193-.92c-.196-.811-.493-1.854-.616-2.307-.04-.146-.066-.23-.066-.23s-.334 1.12-.747 2.397c-.474 1.456-1.05 3.116-1.356 3.526-.153.217-.214.593-.217 1.026-.007.787.17 1.767.28 2.311a6.446 6.446 0 00-.323 1.986c-.21.61-.483 1.257-.837 1.677-.83.983 0 .95 0 1.729 0 .773-.004.924-.004.924s-.826.887-1.663 1.856l2.504-.323s-.837.65-.841 1.437c-.003.797-1.25.827-1.25.827s-.413.97-.83 1.293c-.416.323.417.323.417.323h.837l1.667.327-.837.72-.83 1.217-2.09 1.943s.83-.13 1.963-.387c-.173 1.196-1.066 2.437-1.543 3.3-5.427 9.707 0 8.083 0 9.707l-2.924 3.553-1.063.644-.247.146a16.918 16.918 0 01-.594-2.743l-.013-.087c-.141-1.063-.141-1.779-.141-1.779l.067.02 3.779 1.25s-1.896-6.344-3.637-7.783c.2.066.32.113.334.12-.063-.134-1.11-2.197-1.644-4.257a.163.163 0 01-.01-.05h-.004c-.173-.703.04-.917.4-.887.627.047 1.707.854 1.807.934-.063-.101-1.11-1.71-1.646-2.12-.547-.427 1.649 0 1.649 0s0-1.707-1.097-2.987c-1.1-1.273 0-.85 0-1.273v-1.706c0-.424-1.646-2.98-1.646-2.98h1.646s-.553-1.279-1.1-2.126c-.504-.787-.54-1.214-.98-1.947.104-.986.107-2.043-.143-2.923.196-.087.393-.17.576-.24 1.094-.43 0 0-1.097-.856-.127-.16-.236-.41-.33-.727.177-.313.66-.617.33-1.397-.354-.813-.479-.933-.67-1.026-.11-.053-.236-.1-.43-.253-.55-.427-.55-1.703-.674-2.641a10.956 10.956 0 00-.13-.666c-.243-1.087-.74-2.88-.939-3.587-.057-.19-.087-.304-.087-.304s-.533 1.801-1.157 3.69c-.583 1.767-1.243 3.613-1.609 4.12-.207.276-.283.77-.29 1.347-.011 1.033.224 2.323.373 3.033a8.393 8.393 0 00-.434 2.623c-.267.8-.63 1.646-1.097 2.2-1.1 1.297 0 1.253 0 2.276 0 1.017-.003 1.217-.003 1.217s-1.097 1.167-2.196 2.447l3.296-.427s-1.097.853-1.1 1.893c-.007 1.044-1.644 1.084-1.644 1.084s-.553 1.279-1.1 1.71c-.547.427.547.427.547.427h1.1l2.196.42-1.097.953-1.1 1.606-2.743 2.55s1.09-.166 2.58-.506c-.227 1.573-1.4 3.21-2.03 4.343a45.52 45.52 0 00-.856 1.587c-1.044 2.014-1.67 3.6-2.007 4.854-.276-.367.08-.243.08-.396v-.671c0-.166-.65-1.176-.65-1.176h.65s-.217-.504-.434-.837c-.196-.311-.213-.48-.383-.773.036-.387.039-.804-.061-1.146.077-.037.157-.067.227-.094.434-.173 0 0-.427-.333a.743.743 0 01-.13-.294c.063-.119.26-.239.13-.553-.143-.316-.196-.367-.27-.4-.04-.026-.09-.043-.167-.106-.217-.16-.217-.667-.27-1.04-.037-.304-.32-1.323-.417-1.673l-.036-.12s-.797 2.673-1.091 3.076c-.08.113-.109.311-.109.53-.004.413.083.92.144 1.2a3.297 3.297 0 00-.167 1.033c-.106.316-.25.649-.437.866-.431.514 0 .497 0 .897 0 .402-.004.479-.004.479s-.427.463-.863.963l1.304-.163s-.437.334-.44.747c0 .413-.646.427-.646.427s-.217.503-.437.673c-.214.163.22.163.22.163h.437l.867.17-.437.381-.431.63-.6.55c-.446-.847-.917-1.557-1.373-1.94.2.077.333.124.347.13-.063-.133-1.16-2.293-1.717-4.446-.563-2.16 2.12-.14 2.29-.01-.063-.104-1.157-1.794-1.717-2.22-.573-.447 1.724 0 1.724 0s0-1.78-1.15-3.117a.605.605 0 01-.057-.073c-.061-.063-.106-.127-.146-.18-.79-1.023.203-.667.203-1.084v-1.779c0-.084-.061-.247-.163-.46-.427-.9-1.561-2.657-1.561-2.657h1.724s-.573-1.337-1.146-2.227c-.53-.823-.57-1.264-1.027-2.036.107-1.037.117-2.137-.149-3.054.206-.097.413-.18.6-.257 1.15-.443 0 0-1.146-.89-.134-.177-.25-.431-.343-.764.187-.326.689-.646.343-1.463-.37-.851-.5-.98-.693-1.07-.116-.06-.25-.106-.46-.264-.573-.446-.573-1.783-.703-2.77-.104-.807-.856-3.517-1.11-4.443-.06-.2-.093-.316-.093-.316s-2.11 7.083-2.896 8.163c-.214.297-.294.81-.304 1.41-.01 1.083.233 2.433.387 3.18a8.779 8.779 0 00-.447 2.736c-.279.841-.663 1.724-1.146 2.304-1.149 1.36 0 1.313 0 2.384 0 1.063-.007 1.267-.007 1.267s-1.143 1.227-2.29 2.56l3.443-.446s-1.146.893-1.153 1.979c-.003 1.097-1.717 1.141-1.717 1.141s-.193.446-.47.913c-.193.337-.437.68-.68.866-.01.007-.023.014-.033.023-.141.117-.153.197-.097.264.123.16.706.16.706.16h1.147l.5.093 1.796.351-1.146.996-1.149 1.677-.62.577-.417.39-1.773 1.646-.066.061.167-.03a41.749 41.749 0 002.536-.5c-.236 1.644-1.467 3.35-2.127 4.536-.96 1.721-1.673 3.184-2.187 4.427-.144.337-.26.653-.376.964-.051.14-.097.283-.147.42-.17.51-.3.97-.396 1.399-1.2 5.337 3.106 4.461 3.106 6.153l-4.02 4.897-5.17 3.116 7.467-.894-1.717 1.783-2.99 2.627a.717.717 0 01-.094-.213c.057-.107.224-.207.11-.471-.12-.27-.163-.313-.224-.34-.036-.023-.083-.04-.146-.083-.187-.146-.187-.573-.227-.89-.029-.264-.276-1.131-.359-1.427-.018-.061-.027-.101-.027-.101s-.673 2.271-.923 2.62c-.07.09-.101.254-.101.45-.003.347.07.78.127 1.017-.083.25-.144.547-.144.877a3.754 3.754 0 01-.223.51l-3.4 2.993h3.047c-.153.077-.347.084-.347.084s-.184.43-.373.566c-.181.146.189.146.189.146h.367l.739.144-.373.319-.366.537-.924.856s.367-.053.87-.167c-.077.53-.47 1.074-.684 1.454-.53.943-.816 1.633-.956 2.163-.051-.04-.104-.09-.157-.134-3.986-2.913 0-3.26 0-3.26s-1.11-2.227-2.656-4.283c-1.514-2.02 2.483-.083 2.649-.007l-2.649-3.083s2.656.86-.224-3.773c-1.187-1.91 1.77.177 1.11-.856-.667-1.027-1.547-2.061-2.88-3.257-.534-.483-.851-1.167-1.041-1.8h.311s-.253-.59-.537-1.094c-.06-.42-.06-.713-.06-.713l1.55.517s-.764-2.554-1.463-3.134c.08.027.127.044.137.044a9.454 9.454 0 01-.667-1.714c-.213-.826.82-.05.884 0-.023-.04-.447-.687-.66-.856-.224-.17.663 0 .663 0s0-.684-.443-1.196c-.443-.518 0-.347 0-.518v-.683c0-.177-.663-1.207-.663-1.207h.663s-.22-.513-.443-.854c-.203-.316-.217-.486-.394-.786.044-.396.044-.82-.06-1.177.083-.033.156-.066.233-.097.443-.17 0 0-.44-.34a.852.852 0 01-.133-.297c.069-.127.27-.25.133-.561-.146-.329-.193-.38-.27-.416-.044-.021-.097-.04-.174-.104-.224-.167-.224-.684-.27-1.06-.047-.317-.334-1.357-.431-1.717-.023-.077-.039-.12-.039-.12s-.808 2.729-1.114 3.146c-.079.106-.109.307-.116.54-.004.42.09.937.15 1.224a3.35 3.35 0 00-.174 1.053c-.106.327-.253.664-.439.891-.44.52 0 .506 0 .92v.486s-.44.474-.887.986l.949-.123c-.13.391-.263.757-.383 1.083-.167.061-.344.063-.344.063s-.223.523-.443.69c-.22.17.221.17.221.17h.146l-.03.054c-.13.18-.177.486-.177.85-.007.23.014.48.037.73l-.641.6s.283-.05.703-.137c.034.233.07.439.107.616-.184.397-.427.771-.587 1.061-1.95 3.483-1.26 4.217-.61 4.59a94.6 94.6 0 00-1.137 1.276l1.287-.16-1.09 1.324-1.99 1.203 1.877-.224c-.127.214-.28.434-.434.55-.347.273.35.273.35.273h.124l-3.023 2.66h2.763l-.896.84c.08-.01.74-.116 1.627-.316-.014.094-.04.18-.061.27l-.557.577-4.866 3.776s1.144.993 2.856.847c-.319.78-.507 1.417-.6 1.943l-3.144 2.867 3.674-.634c.496.447 1.146.577 1.347.947l-.817.886-3.763 3.427.54-.1-1.464.883 3.543-.423-1.513 1.7-2.396 1.363c-.606-.787-1.374-1.604-2.377-2.514-1.4-1.267-1.4-3.79-1.4-3.79l1.63.544s-.803-2.693-1.539-3.307c.083.029.133.053.143.053-.013-.033-.189-.38-.37-.837l.37.174-.54-.623a6.784 6.784 0 01-.156-.514c-.227-.87.86-.054.93 0-.023-.047-.47-.73-.696-.9-.233-.187.7 0 .7 0s0-.727-.471-1.267c-.463-.543 0-.359 0-.543v-.72c0-.181-.699-1.261-.699-1.261h.699s-.229-.546-.463-.903c-.214-.333-.23-.513-.417-.823.04-.42.047-.866-.06-1.239.083-.04.167-.074.24-.101.47-.18 0 0-.46-.363a.918.918 0 01-.141-.313c.077-.13.28-.26.141-.587-.15-.346-.204-.399-.287-.433-.043-.027-.094-.044-.184-.106-.229-.188-.229-.724-.283-1.124-.043-.326-.347-1.427-.453-1.797l-.037-.133s-.153.523-.356 1.156c-1.043-1.569-2.42-3.146-4.443-4.977-2.12-1.916-2.12-5.767-2.12-5.767l2.477.827s-1.223-4.094-2.34-5.021c.123.044.2.073.207.077-.037-.08-.71-1.414-1.054-2.747-.343-1.326 1.307-.083 1.413 0-.039-.066-.72-1.106-1.06-1.373-.354-.273 1.063 0 1.063 0s0-1.101-.707-1.92c-.71-.827 0-.547 0-.827v-1.093c0-.277-1.066-1.924-1.066-1.924h1.066s-.356-.823-.71-1.373c-.33-.507-.354-.78-.637-1.254.067-.64.07-1.316-.093-1.883.13-.061.256-.113.373-.16.71-.27 0 0-.71-.55a1.511 1.511 0 01-.207-.467c.117-.203.424-.403.207-.903-.224-.526-.304-.606-.423-.663-.074-.033-.154-.063-.28-.16-.356-.273-.356-1.101-.44-1.703-.06-.5-.523-2.174-.684-2.743-.039-.124-.06-.197-.06-.197s-1.3 4.37-1.783 5.037c-.13.177-.18.5-.187.866-.004.667.146 1.497.243 1.96a5.276 5.276 0 00-.283 1.687c-.174.521-.403 1.063-.707 1.424-.703.837 0 .807 0 1.467v.783s-.703.757-1.413 1.58l2.12-.277s-.707.547-.707 1.224c-.003.67-1.063.7-1.063.7s-.35.823-.71 1.097c-.347.273.36.273.36.273h.71l1.41.28-.707.613-.703 1.033-1.771 1.644a27.78 27.78 0 001.664-.327c-.146 1.017-.907 2.07-1.311 2.804-4.606 8.236 0 6.863 0 8.236l-2.479 3.017-3.193 1.923 4.604-.546-1.057 1.097-5.317 4.67h6.733l-2.126 2.196-3.717 2.877c-.117-.427-.214-.807-.283-1.044-.051-.176-.084-.276-.084-.276s-.113.391-.297.98c-2.71-2.627-2.717-7.61-2.717-7.61l3.341 1.104s-1.647-5.51-3.16-6.76c.173.057.28.104.293.104-.05-.11-.96-1.9-1.427-3.693-.463-1.79 1.761-.114 1.9-.004-.047-.09-.96-1.486-1.42-1.844-.48-.366 1.427 0 1.427 0s0-1.477-.954-2.59c-.953-1.106 0-.736 0-1.106v-1.477c0-.377-1.43-2.59-1.43-2.59h1.43s-.473-1.106-.953-1.851c-.439-.683-.473-1.05-.854-1.683.094-.86.098-1.777-.126-2.54a7.81 7.81 0 01.503-.207c.957-.377 0 0-.956-.743-.11-.146-.2-.36-.28-.637.15-.273.573-.54.28-1.21-.304-.71-.414-.813-.57-.894-.101-.05-.21-.087-.384-.217-.473-.373-.473-1.479-.583-2.296-.087-.674-.713-2.924-.923-3.69-.054-.167-.08-.267-.08-.267s-1.75 5.88-2.4 6.78c-.18.239-.246.673-.25 1.166-.01.903.19 2.023.32 2.644-.21.65-.377 1.42-.377 2.271-.23.693-.543 1.43-.946 1.909-.957 1.131 0 1.094 0 1.977 0 .887-.007 1.061-.007 1.061s-.95 1.017-1.903 2.123l2.856-.373s-.946.743-.953 1.65c-.004.906-1.43.939-1.43.939s-.474 1.106-.95 1.483c-.48.366.477.366.477.366h.953l1.903.367-.946.83-.957 1.39-2.387 2.221s.95-.15 2.243-.443c-.193 1.366-1.217 2.779-1.767 3.763-.833 1.493-1.434 2.75-1.866 3.816a4.806 4.806 0 01-.523-.909c-.044-.141-.09-.284-.12-.417-.253-.977.953-.063 1.03-.007-.03-.047-.527-.803-.777-1.003-.253-.2.777 0 .777 0s-.004-.724-.45-1.316l.85.283s-.587-1.954-1.27-3.181h.354s-.261-.6-.514-1.003c-.243-.373-.26-.573-.467-.917.054-.463.054-.96-.063-1.373.26.133.51.326.547.35a12.06 12.06 0 00-.311-.453.135.135 0 00.034-.017c.406-.16.159-.07-.214-.227-.13-.167-.257-.32-.354-.39-.283-.224.844 0 .844 0s0-.877-.563-1.534c-.563-.656 0-.437 0-.656v-.87c0-.217-.843-1.53-.843-1.53h.843s-.28-.656-.563-1.097c-.256-.399-.276-.619-.503-.996.057-.504.057-1.047-.07-1.497.101-.05.2-.086.294-.13.563-.217 0 0-.567-.434a1.256 1.256 0 01-.166-.38c.093-.156.343-.31.166-.717-.177-.416-.246-.477-.34-.52-.054-.03-.12-.054-.22-.134-.28-.216-.28-.87-.35-1.353-.047-.397-.417-1.727-.544-2.184-.026-.094-.05-.153-.05-.153s-1.03 3.474-1.417 4.007c-.106.143-.144.396-.149.687-.004.533.116 1.193.193 1.56a4.276 4.276 0 00-.221 1.347c-.14.41-.323.844-.566 1.13-.563.664 0 .647 0 1.167 0 .526-.003.627-.003.627s-.561.6-1.124 1.253l1.693-.217s-.566.434-.569.974c0 .533-.841.557-.841.557s-.283.653-.563.87c-.283.224.279.224.279.224h.563l1.13.216-.566.487-.563.826-1.41 1.307s.563-.086 1.327-.257c-.113.804-.717 1.644-1.043 2.228-3.667 6.553 0 5.463 0 6.553l-1.974 2.407-2.537 1.526 3.663-.437-.846.88-2.817 2.477c-.323-.729-.45-.85-.62-.94-.113-.05-.236-.096-.437-.246-.543-.42-.543-1.687-.67-2.623-.097-.764-.81-3.334-1.057-4.217l-.087-.301s-2 6.721-2.743 7.744c-.203.283-.276.77-.283 1.336-.003.287.014.597.037.9-.573-1.776-2.204-6.507-3.733-7.767.22.077.35.127.366.127-.066-.134-1.206-2.377-1.783-4.61-.58-2.24 2.2-.144 2.38-.007-.066-.109-1.203-1.863-1.78-2.307-.6-.463 1.787 0 1.787 0s0-1.854-1.196-3.236c-1.19-1.384 0-.927 0-1.384v-1.85c0-.464-1.784-3.236-1.784-3.236h1.784s-.591-1.384-1.19-2.311c-.55-.856-.587-1.313-1.066-2.113.113-1.07.12-2.213-.153-3.167.213-.097.43-.183.626-.267 1.193-.46 0 0-1.196-.923a2.484 2.484 0 01-.35-.79c.193-.344.717-.677.35-1.517-.38-.887-.517-1.021-.717-1.12-.12-.057-.253-.104-.474-.271-.596-.463-.596-1.85-.732-2.873-.107-.837-.887-3.646-1.157-4.606-.06-.207-.097-.327-.097-.327s-2.184 7.344-3.003 8.467c-.221.307-.304.847-.307 1.457-.01 1.13.24 2.526.399 3.304a9.114 9.114 0 00-.467 2.843c-.272.807-.64 1.65-1.1 2.253-.037-.053-.08-.106-.123-.159-1.023-1.19 0-.794 0-1.19v-1.587c0-.393-1.533-2.772-1.533-2.772h1.533s-.514-1.184-1.023-1.98c-.474-.733-.507-1.127-.913-1.813.097-.913.1-1.894-.131-2.717.181-.083.367-.156.534-.223 1.02-.4 0 0-1.023-.797a2.049 2.049 0 01-.3-.684c.163-.283.613-.57.3-1.297-.327-.757-.443-.87-.617-.953-.106-.054-.223-.094-.403-.233-.51-.396-.51-1.583-.627-2.46-.096-.724-.763-3.13-.993-3.957-.057-.177-.083-.276-.083-.276s-1.877 6.297-2.573 7.26c-.193.264-.26.721-.267 1.25-.017.964.203 2.164.34 2.83a7.875 7.875 0 00-.396 2.437c-.254.747-.59 1.537-1.023 2.051-1.023 1.203 0 1.166 0 2.116s-.004 1.13-.004 1.13-1.02 1.09-2.039 2.28l3.066-.394s-1.023.79-1.027 1.764c-.006.967-1.529 1.007-1.529 1.007s-.51 1.193-1.021 1.59c-.517.39.511.39.511.39h1.02l2.047.396-1.023.887-1.023 1.493-2.547 2.367c.12-.01 1.09-.167 2.394-.46-.207 1.463-1.304 2.983-1.894 4.036-6.644 11.887 0 9.907 0 11.887l-3.573 4.36-4.604 2.773 6.233-.743a.393.393 0 01-.033.05c-.073.11-.106.28-.116.479l-.971 1.011-7.666 6.729h6.937c-.01.097.29.101.29.101h.456l.921.177-.454.399-.467.677-1.149 1.066s.434-.066 1.03-.199l-.92.953-4.684 3.626c0-.006-.004-.013-.004-.013s0 .01-.006.026l-6.443 4.993c-.224-.387-.5-.753-.851-1.01-2.597-1.9 0-2.12 0-2.12s-.72-1.456-1.727-2.797c-.99-1.307 1.613-.05 1.727 0l-1.72-2.007c.106.03 1.656.454-.153-2.459-.771-1.247 1.153.109.72-.558-.427-.666-1.007-1.343-1.87-2.123-.307-.273-.503-.649-.633-1.017a5.442 5.442 0 00-.19-1.243c.037-.01.066-.026.094-.037l.873.287s-.076-.25-.19-.566c.367-.147.261-.137-.073-.204-.187-.493-.446-1.069-.689-1.276.053.023.08.033.087.033a6.31 6.31 0 01-.431-1.113c-.14-.54.53-.033.573-.003-.013-.023-.29-.447-.43-.557-.144-.113.43 0 .43 0s0-.447-.283-.78c-.29-.333 0-.227 0-.333v-.447c0-.113-.434-.783-.434-.783h.434s-.146-.34-.29-.56c-.133-.207-.144-.317-.26-.507.03-.264.03-.54-.037-.771.051-.022.104-.043.153-.066.287-.109 0 0-.29-.224a.435.435 0 01-.079-.187c.04-.083.166-.163.079-.366-.09-.214-.126-.25-.173-.273-.03-.017-.063-.023-.116-.06-.141-.114-.141-.447-.174-.697-.03-.2-.217-.88-.28-1.113-.017-.054-.022-.083-.022-.083s-.53 1.779-.73 2.05c-.054.07-.07.203-.07.354-.007.273.057.609.097.793-.023.063-.036.137-.053.207-.193-.987-.767-3.047-.98-3.804-.053-.193-.087-.297-.087-.297s-1.963 6.591-2.696 7.594c-.196.273-.27.757-.273 1.31-.014 1.011.214 2.264.356 2.96a8.287 8.287 0 00-.42 2.551c-.26.779-.609 1.603-1.066 2.14-1.07 1.267 0 1.22 0 2.224 0 .986-.003 1.173-.003 1.173s-1.067 1.146-2.137 2.387l3.206-.413s-1.066.83-1.069 1.843a.866.866 0 01-.127.417l-.417.384c-.463.239-1.06.253-1.06.253s-.533 1.247-1.067 1.663c-.533.414.534.414.534.414h1.069l1.283.246-.873.8 1.287-.256-.627.55-1.07 1.56-.35.33-.51.293a2.675 2.675 0 00-.127-.246c.033-.311.033-.634-.047-.91a.614.614 0 00.127-.054c.02-.003.036-.013.057-.017.26-.103.123-.05-.106-.137a.786.786 0 01-.233-.13.621.621 0 01-.104-.229.95.95 0 01.08-.106c.003-.011.01-.017.013-.023.044-.067.067-.16.011-.301-.11-.253-.15-.29-.21-.319-.03-.021-.07-.03-.134-.08-.167-.13-.167-.523-.213-.816-.027-.24-.25-1.047-.327-1.32l-.026-.094s-.627 2.101-.86 2.424c-.063.087-.086.24-.086.416-.007.324.069.721.109.94-.073.233-.13.51-.13.82-.087.243-.2.507-.344.683-.343.4 0 .387 0 .704v.376s-.343.36-.676.757l1.02-.13s-.344.264-.344.59c-.003.32-.51.337-.51.337s-.166.396-.343.53c-.167.13.177.13.177.13h.333l.687.127-.344.3-.343.496-.847.797s.337-.053.8-.163c-.073.493-.434 1-.63 1.347-2.017 3.606-.373 3.394-.057 3.82-.047.123-.09.253-.13.38l-1.01 1.223-1.534.927 2.034-.246-.034.199-.293.311-2.563 2.246h3.19c.007.007.013.023.02.034l-.137.14-.283.297-.569.583-3.75 2.91s1.363 1.193 3.239.396l.681.13-1.38.971-.324.22-2.126 1.939a44.398 44.398 0 00-3.233-3.33l-.017-.017c.153.037.313.087.479.141.004 0 .014.003.023.003.793.25 1.61.57 1.913.457.19-.061.184-.28-.137-.776-1.47-2.284-3.369-4.577-6.02-7.134-.146-1.066-.146-1.804-.146-1.804l3.593 1.197s-1.767-5.937-3.399-7.283c.183.063.3.106.313.113-.057-.124-1.037-2.054-1.534-3.983-.5-1.924 1.897-.12 2.051-.004-.057-.09-1.04-1.597-1.537-1.983-.514-.399 1.54 0 1.54 0s0-1.59-1.026-2.79c-1.027-1.187 0-.79 0-1.187v-1.597c0-.396-1.54-2.786-1.54-2.786h1.54s-.514-1.197-1.027-1.99c-.473-.74-.51-1.137-.92-1.823.097-.92.101-1.903-.137-2.73.19-.083.374-.159.544-.227 1.026-.399 0 0-1.03-.8-.113-.153-.22-.383-.304-.684.164-.286.617-.573.304-1.303-.327-.764-.446-.877-.623-.964-.097-.047-.22-.093-.403-.229-.511-.4-.511-1.597-.634-2.471-.09-.727-.763-3.153-.996-3.973-.047-.181-.08-.29-.08-.29s-.417 1.406-.934 2.99c-.413-.7-.49-1.137-.913-1.851.109-1.05.116-2.177-.15-3.109.207-.098.42-.184.613-.264 1.167-.45 0 0-1.173-.903-.137-.177-.25-.44-.344-.78.19-.33.7-.656.344-1.483-.374-.87-.507-.996-.704-1.093-.119-.061-.253-.104-.463-.267-.583-.46-.583-1.813-.72-2.817-.107-.823-.874-3.583-1.137-4.523-.057-.206-.094-.323-.094-.323s-2.146 7.204-2.943 8.311c-.22.296-.303.823-.307 1.43-.013 1.104.237 2.477.391 3.236a8.984 8.984 0 00-.45 2.79c-.29.854-.677 1.757-1.177 2.344-1.17 1.383 0 1.333 0 2.427 0 1.08-.004 1.286-.004 1.286s-1.166 1.25-2.329 2.607l3.51-.45s-1.177.906-1.181 2.017c-.003 1.109-1.75 1.16-1.75 1.16s-.579 1.354-1.166 1.807c-.59.453.587.453.587.453h1.163l2.347.457-1.177 1.017-1.17 1.703-2.92 2.72s1.159-.184 2.75-.54c-.237 1.674-1.49 3.413-2.17 4.62-2.313 4.15-3.214 6.813-3.347 8.59-.08-.04-.153-.08-.233-.146a.96.96 0 01-.157-.363c.084-.153.323-.304.157-.69-.177-.399-.237-.46-.33-.506-.05-.03-.113-.054-.214-.124-.273-.213-.273-.843-.333-1.313-.05-.383-.403-1.666-.53-2.103-.026-.101-.047-.15-.047-.15s-.996 3.354-1.369 3.867c-.097.14-.137.383-.137.666-.011.517.106 1.153.18 1.51a4.077 4.077 0 00-.213 1.29c-.131.4-.317.823-.544 1.097-.543.641 0 .624 0 1.131v.6s-.543.576-1.087 1.21l1.631-.21s-.544.427-.544.939c-.007.518-.816.537-.816.537s-.271.633-.547.847c-.267.207.276.207.276.207h.544l1.087.213-.544.474-.543.793-1.367 1.264s.544-.084 1.287-.25c-.104.693-.566 1.399-.887 1.943l-.563.336-.16.098.51-.058c-.42.761-.732 1.414-.96 1.967-.493 1.21-.586 1.987-.483 2.507.044.203.11.36.204.5.296.45.803.594 1.1.804l-.56.493-2.454 2.156a2.568 2.568 0 00-.293-.406c-.764-.896 0-.597 0-.896v-1.193c0-.297-1.149-2.084-1.149-2.084h1.149s-.384-.893-.764-1.489c-.359-.55-.383-.844-.689-1.357.023-.239.036-.479.043-.723.124.013.237.033.37.047 2.443.27.927 0 .927 0l-.866-1.601c.159-.07.173-.087.086-.109h.78s-.927-1.077-1.156-1.438c-.237-.363-.354-1.353-.354-1.353h1.51s-.81-1.08-.927-1.44c-.116-.363-.93-.993-.93-.993l-.93-1.887h1.393l-1.393-1.807-.234-1.98 1.164.724s-.29-1.797-1.28-2.52c-2.09-1.534 0-1.717 0-1.717s-.576-1.167-1.394-2.247c-.723-.977.977-.2 1.334-.033.033.014.053.026.06.03l-.063-.08-1.326-1.533c.086.023 1.34.363-.117-1.99-.623-1 .931.093.58-.45-.35-.536-.81-1.08-1.51-1.71-.403-.37-.577-.943-.64-1.366-.058-.301-.058-.523-.058-.523l.188.066.626.207s-.17-.574-.39-1.054c-.116-.254-.253-.49-.377-.597.027.014.051.02.061.02-.014-.04-.23-.466-.34-.896-.107-.42.387-.053.46-.007-.037-.053-.237-.359-.341-.443-.119-.086.348 0 .348 0s0-.356-.234-.63c-.232-.267 0-.177 0-.267v-.359c0-.091-.35-.631-.35-.631h.35s-.113-.272-.232-.449c-.107-.167-.11-.261-.21-.414.026-.21.026-.433-.027-.616.044-.021.08-.037.12-.054.236-.09 0 0-.229-.18a.562.562 0 01-.07-.156c.04-.067.14-.127.07-.294-.073-.166-.104-.196-.141-.217a.31.31 0 01-.093-.057c-.117-.086-.117-.356-.144-.553-.021-.167-.177-.714-.224-.903l-.02-.063s-.431 1.434-.587 1.653c-.043.057-.057.163-.057.283-.007.217.04.493.073.644-.05.16-.087.347-.087.553a1.57 1.57 0 01-.233.467c-.233.273 0 .267 0 .48v.257s-.233.25-.463.52l.696-.094s-.233.184-.233.4c0 .227-.347.233-.347.233s-.116.271-.233.36c-.119.086.117.086.117.086h.229l.467.094-.233.203-.233.337-.583.54s.233-.033.55-.106c-.05.333-.3.677-.433.913-1.511 2.707 0 2.257 0 2.707l-.811.986-1.047.63 1.507-.18-.343.363-1.74 1.533h2.2l-.693.72-2.557 1.98s.927.807 2.206.27l.467.087-1.163.813-1.977 1.797 2.093-.36.7.36-.587.637-1.97 1.796 1.856-.356-1.279 1.437-1.74.993h2.443l-.934 1.17-1.123.994a7.57 7.57 0 00-.023-.227c-.047-.384-.4-1.65-.521-2.087-.029-.094-.043-.15-.043-.15s-.993 3.33-1.36 3.84c-.103.134-.14.377-.14.657-.01.51.104 1.144.177 1.493-.12.366-.213.804-.213 1.286-.131.394-.308.811-.54 1.08-.534.644 0 .624 0 1.124v.597s-.534.573-1.077 1.199l1.617-.209s-.54.423-.54.93c-.004.513-.804.533-.804.533s-.273.63-.54.84c-.27.207.267.207.267.207h.543l1.074.21-.54.47-.534.787-1.35 1.256s.533-.09 1.267-.25c-.11.773-.687 1.574-.996 2.131-.197.35-.367.67-.518.973-1.35-1.22.421-1.373.421-1.373s-.584-1.174-1.403-2.26c-.797-1.061 1.313-.044 1.396-.004l-1.394-1.62c.087.023 1.35.363-.12-1.989-.623-1.011.937.086.583-.457-.347-.537-.816-1.08-1.513-1.717-.7-.63-.7-1.896-.7-1.896l.816.27s-.399-1.347-.77-1.649c.04.013.063.02.069.02a4.88 4.88 0 01-.35-.899c-.113-.434.434-.023.467 0-.017-.023-.236-.363-.351-.45-.116-.09.351 0 .351 0s0-.363-.233-.634c-.233-.27 0-.18 0-.27v-.36c0-.09-.354-.637-.354-.637h.354s-.117-.27-.233-.45c-.106-.166-.113-.256-.207-.409.023-.217.023-.437-.033-.62.047-.021.084-.044.12-.054.236-.093 0 0-.227-.18a.37.37 0 01-.07-.153c.033-.073.141-.134.07-.297-.073-.177-.104-.2-.144-.217-.023-.017-.053-.026-.09-.057-.12-.09-.12-.359-.144-.56-.023-.167-.177-.717-.227-.9-.01-.047-.02-.073-.02-.073s-.431 1.443-.59 1.66a.563.563 0 00-.061.286c-.003.224.047.494.08.644a1.769 1.769 0 00-.094.557 1.631 1.631 0 01-.227.474c-.236.27 0 .267 0 .479 0 .217-.01.254-.01.254s-.227.253-.46.523l.696-.09s-.227.18-.236.399c0 .227-.344.233-.344.233s-.116.271-.232.36c-.117.09.116.09.116.09h.233l.463.093-.227.2-.236.337-.543.51c-.137-.223-.271-.406-.41-.52.086.029.14.057.144.057-.023-.057-.478-.947-.7-1.84-.233-.887.873-.054.943 0-.03-.04-.483-.737-.71-.917-.233-.184.71 0 .71 0s0-.733-.474-1.283c-.47-.55 0-.367 0-.55v-.733c0-.184-.707-1.29-.707-1.29h.707s-.236-.547-.47-.914c-.224-.34-.237-.522-.427-.84.047-.427.05-.88-.061-1.26l.25-.104c.471-.183 0 0-.479-.363a.967.967 0 01-.137-.319c.073-.134.283-.264.137-.601-.146-.35-.203-.406-.283-.443a1.231 1.231 0 01-.19-.106c-.236-.187-.236-.736-.286-1.144-.047-.333-.354-1.446-.464-1.83l-.033-.133s-.873 2.92-1.196 3.366c-.087.124-.124.334-.124.577-.003.453.094 1.003.164 1.313-.107.323-.19.703-.19 1.13-.116.347-.27.713-.474.949-.47.557 0 .54 0 .98s-.003.52-.003.52-.467.511-.94 1.061l1.417-.184s-.474.367-.477.816c0 .45-.703.471-.703.471s-.237.547-.477.729c-.237.184.239.184.239.184h.474l.943.187-.474.41-.47.687-1.187 1.106s.474-.076 1.113-.223c-.063.439-.293.89-.53 1.286-.126.217-.25.417-.347.59-.59 1.047-.953 1.86-1.153 2.5-.863 2.724 1.153 2.261 1.153 3.004l-1.036 1.267-.617.753-2.133 1.287 3.076-.367-.706.733-3.557 3.12h4.5l-1.424 1.47-.25.19-4.96 3.844s1.896 1.649 4.5.557l.953.183-2.37 1.65-4.026 3.673 4.264-.739 1.416.739-1.18 1.284-3.403 3.097c-.496-.617-1.22-1.271-1.729-1.7-.804-1.374.523-.681 1.137-.544.823.33 1.522.667 1.606.704l-3.993-4.637s2.246.72 1.546-1.857h.54l-1.069-1.387a25.61 25.61 0 00-1.351-2.449c-1.79-2.874 2.663.263 1.66-1.287-.203-.323-.43-.653-.677-.979-.696-.938-1.536-1.9-2.597-2.934a1.601 1.601 0 00-.229-.351c-.497-.579 0-.39 0-.579v-.773c0-.091-.164-.391-.337-.687l3.163 1.963s-.6-3.713-2.483-6.29c-.42-.577-.903-1.097-1.463-1.5a14.303 14.303 0 01-.44-.333c-.033-.08-.069-.15-.104-.227a1.115 1.115 0 01-.06-.131c-.1-.193-.196-.383-.293-.557-.018-.029-.033-.06-.047-.083-.073-.417-.363-1.467-.471-1.847-.022-.083-.039-.133-.039-.133s-.08.263-.197.637a13.955 13.955 0 01-.673-1.827c.246-.193.55-.34.859-.457.21.13.391.267.424.287-.014-.021-.11-.167-.237-.351.66-.213 1.277-.267 1.277-.267s-.67-1.347-1.764-3.159c.037-.021.061-.051.061-.097v-1.034c0-.256-1-1.803-1-1.803h1s-.337-.776-.671-1.297c-.18-.28-.263-.49-.356-.7 1.247.417 2.601 1.07 2.721 1.124l-2.94-3.417c.08-.037.17-.077.247-.11.663-.253 0 0-.667-.513a1.296 1.296 0 01-.196-.443c.066-.124.213-.247.256-.447.903-.177 1.693-1.273-1.356-6.189-1.927-3.104 2.87.273 1.793-1.397-1.073-1.67-2.513-3.34-4.666-5.286-2.15-1.946-2.15-5.844-2.15-5.844l2.511.834s-1.24-4.15-2.377-5.087c.13.043.21.07.217.076-.037-.079-.724-1.437-1.07-2.783-.354-1.347 1.323-.083 1.434 0-.04-.066-.73-1.116-1.077-1.387-.356-.283 1.077 0 1.077 0s0-1.116-.714-1.949c-.72-.834 0-.557 0-.834v-1.113c0-.279-1.083-1.946-1.083-1.946h1.083s-.363-.84-.72-1.394c-.33-.517-.356-.793-.646-1.273.073-.644.073-1.333-.094-1.906.13-.061.26-.113.377-.164.72-.276 0 0-.717-.553a1.464 1.464 0 01-.213-.477c.116-.203.433-.41.213-.917-.227-.53-.31-.61-.434-.667-.069-.043-.153-.063-.283-.166-.359-.277-.359-1.113-.439-1.73-.067-.507-.537-2.193-.7-2.776-.033-.127-.054-.196-.054-.196s-.163.553-.399 1.303c-.434 1.363-1.097 3.36-1.414 3.797-.13.187-.183.507-.183.883-.007.268.022.557.053.837.047.443.13.863.187 1.15-.01.033-.022.066-.033.104a5.45 5.45 0 00-.25 1.606c-.17.52-.406 1.076-.713 1.437-.717.847 0 .82 0 1.49 0 .29 0 .474-.007.597v.193s-.087.104-.24.263c-.27.294-.727.801-1.189 1.341l.187-.027 1.963-.25s-.423.33-.616.79c-.061.141-.104.29-.104.443-.004.684-1.073.714-1.073.714s-.356.833-.717 1.109c-.36.283.36.283.36.283h.72l1.43.273-.713.627-.717 1.047-1.794 1.666c.084-.01.768-.119 1.684-.329-.066.439-.243.893-.46 1.323-.236.473-.52.92-.743 1.296-.043.08-.083.15-.127.221-1.163 2.09-1.75 3.563-1.963 4.626v.004c-.44 2.14.59 2.609 1.32 3.007.359.193.643.366.643.71l-1.276 1.557-.227.276-1.007 1.227-3.233 1.946 2.797-.329 1.873-.221-1.08 1.107-1.5 1.319-3.883 3.414h6.823l-.297.307-.67.693-1.193 1.227-.877.683-6.093 4.727-.924.714s.707.616 1.894 1.033c1.214.424 2.937.64 4.927-.2l1.437.28-3.59 2.5-1.3 1.187-3.021 2.753c-.536-1.232-1.163-2.39-1.773-2.89.184.061.29.104.307.11-.057-.117-1.017-2.004-1.5-3.887-.486-1.88 1.851-.117 2.004-.004-.057-.097-1.017-1.563-1.5-1.939-.504-.387 1.503 0 1.503 0s0-1.557-1.003-2.727c-1.004-1.164 0-.773 0-1.164v-1.553c0-.394-1.504-2.724-1.504-2.724h1.504s-.5-1.167-1.004-1.939c-.46-.724-.496-1.107-.899-1.78.097-.903.104-1.863-.13-2.67.187-.084.363-.153.529-.217 1.004-.39 0 0-1.003-.78-.116-.149-.214-.376-.297-.67.157-.283.604-.563.297-1.27-.32-.743-.437-.86-.604-.943-.104-.05-.22-.087-.403-.23-.503-.387-.503-1.553-.613-2.41-.047-.373-.257-1.213-.467-2.036a84.285 84.285 0 00-.506-1.844c-.054-.177-.081-.279-.081-.279s-.126.42-.329 1.066c-.113.366-.247.81-.4 1.283-.236.736-.503 1.543-.764 2.293-.396 1.146-.79 2.146-1.033 2.487-.007.003-.01.006-.01.02-.117.163-.18.407-.22.7a3.402 3.402 0 01-.184-.7c-.03-.133-.047-.27-.066-.41-.05-.41-.087-.84-.134-1.22-.02-.15-.06-.367-.12-.63-.246-1.144-.796-3.11-1.01-3.877-.06-.203-.09-.316-.09-.316s-1.066 3.576-1.98 6.066c-.04.127-.09.257-.133.387-.03.066-.054.13-.077.19-.01-.033-.026-.094-.063-.19-.013-.05-.033-.113-.053-.184a48.111 48.111 0 00-.84-2.413c-.724-1.943-1.761-4.32-2.754-5.137.207.066.33.117.344.12-.061-.134-1.134-2.236-1.67-4.347-.547-2.1 2.066-.127 2.233 0-.061-.104-1.134-1.746-1.677-2.173-.557-.434 1.684 0 1.684 0s0-1.737-1.127-3.044c-1.113-1.303 0-.87 0-1.303v-1.744c0-.43-1.681-3.043-1.681-3.043h1.681s-.557-1.3-1.113-2.167a6.199 6.199 0 01-.287-.496c-.27-.521-.377-.907-.727-1.497.106-1.007.117-2.08-.144-2.979.203-.091.407-.174.59-.247 1.124-.437 0 0-1.119-.87-.131-.17-.24-.42-.334-.746.181-.32.677-.63.334-1.431-.36-.83-.49-.953-.677-1.047-.113-.053-.243-.096-.447-.256-.557-.431-.557-1.74-.687-2.7-.104-.79-.836-3.434-1.09-4.344l-.09-.303s-2.057 6.916-2.827 7.97c-.21.29-.286.793-.293 1.373-.01 1.063.227 2.377.377 3.104a8.642 8.642 0 00-.437 2.677c-.273.816-.647 1.68-1.124 2.247-1.12 1.323 0 1.279 0 2.326 0 1.04-.007 1.24-.007 1.24s-1.113 1.189-2.236 2.5l3.367-.434s-1.124.867-1.131 1.93c-.003 1.067-1.673 1.113-1.673 1.113s-.563 1.301-1.123 1.737c-.561.434.56.434.56.434h1.123l2.244.439-1.124.974-1.12 1.63-1.677 1.563-1.126 1.047s.47-.074 1.217-.221c.399-.076.883-.18 1.42-.3-.113.767-.44 1.547-.827 2.28-.416.803-.91 1.55-1.25 2.156-3.39 6.061-3.63 8.837-2.91 10.29.061.124.124.23.197.34.92 1.323 2.713 1.334 2.713 2.414l-2.633 3.199v-.1c0-.42-1.627-2.946-1.627-2.946h1.627s-.464-1.08-.964-1.91a2.16 2.16 0 00-.12-.2c-.503-.78-.54-1.196-.973-1.92.02-.184.033-.367.043-.557.057-.807.021-1.623-.187-2.337.196-.09.394-.166.573-.24 1.09-.42 0 0-1.087-.84-.127-.166-.236-.41-.323-.729.174-.304.657-.61.323-1.38a8.217 8.217 0 00-.26-.563c-.17-.307-.27-.387-.4-.45-.106-.05-.232-.097-.43-.247-.3-.233-.434-.72-.51-1.273-.07-.439-.097-.926-.157-1.343-.043-.363-.227-1.123-.433-1.917-.067-.25-.134-.51-.203-.76-.167-.627-.327-1.196-.417-1.53l-.09-.3s-.137.47-.357 1.18c-.106.351-.236.754-.376 1.197-.087.297-.19.606-.297.923-.604 1.854-1.323 3.896-1.707 4.424-.196.276-.276.767-.279 1.336-.014 1.021.216 2.297.363 3a8.315 8.315 0 00-.424 2.594c-.27.79-.623 1.63-1.087 2.177-1.086 1.283 0 1.247 0 2.253 0 1.007-.006 1.2-.006 1.2s-1.08 1.16-2.167 2.424l3.26-.42s-1.087.84-1.093 1.873c-.004 1.03-1.624 1.076-1.624 1.076s-.543 1.261-1.086 1.681c-.544.42.543.42.543.42h1.087l2.173.423-1.087.947-1.086 1.583-2.717 2.526s1.076-.166 2.553-.5c-.223 1.554-1.383 3.17-2.01 4.294-.083.14-.153.279-.233.42a12.593 12.593 0 00-.477-.45c-.304-.41-.64-.827-1.007-1.247-.693-1.333-.7-2.943-.7-2.943l1.697.567s-.837-2.804-1.606-3.437c.086.026.14.05.153.053-.033-.06-.494-.974-.73-1.88-.229-.913.896-.06.967 0-.023-.05-.486-.757-.72-.94-.247-.189.729 0 .729 0s0-.753-.49-1.319c-.486-.561 0-.37 0-.561v-.757c0-.183-.727-1.313-.727-1.313h.727s-.239-.567-.486-.94c-.224-.35-.236-.536-.437-.86.054-.439.054-.903-.061-1.289.084-.04.174-.074.257-.107.487-.189 0 0-.486-.38a.844.844 0 01-.14-.323c.073-.137.286-.273.14-.616-.156-.357-.21-.41-.29-.45-.054-.023-.106-.044-.193-.11-.247-.189-.247-.757-.3-1.17-.043-.343-.36-1.486-.474-1.88l-.036-.127s-.811 2.721-1.174 3.36a2.121 2.121 0 00-.246-.34c-.671-.783 0-.523 0-.783v-1.047c0-.257-1.007-1.83-1.007-1.83h1.007s-.33-.783-.671-1.3c-.313-.487-.333-.744-.603-1.197.066-.606.069-1.25-.09-1.786.123-.061.243-.11.356-.15.677-.263 0 0-.674-.526a1.257 1.257 0 01-.2-.45c.107-.187.407-.38.2-.85-.22-.5-.293-.58-.406-.634-.066-.033-.146-.063-.271-.156-.333-.261-.333-1.044-.416-1.62-.054-.477-.5-2.063-.65-2.606-.03-.117-.05-.188-.05-.188s-1.24 4.153-1.7 4.79c-.123.167-.17.478-.177.82-.003.644.137 1.43.224 1.87-.146.457-.26 1-.26 1.606-.167.49-.391 1.007-.674 1.347-.673.8 0 .773 0 1.403 0 .617-.003.74-.003.74s-.67.717-1.347 1.5l2.023-.26s-.674.523-.677 1.163c-.007.637-1.011.667-1.011.667s-.336.783-.67 1.04c-.336.263.334.263.334.263h.677l1.347.264-.674.587-.663.963-.01.014-1.684 1.569s.667-.106 1.58-.307a1.252 1.252 0 01-.033.171c-.188.909-.847 1.833-1.21 2.489-4.377 7.834 0 6.523 0 7.834l-2.03 2.473-.327.396-3.033 1.827 2.257-.27 2.12-.25-1.007 1.046-4.7 4.127H777.5a3.05 3.05 0 01-1.279-.573 1.126 1.126 0 01-.117-.187 2.44 2.44 0 01-.213-.554c.153-.273.536-.54.42-1.113a1.217 1.217 0 00-.09-.3c-.357-.827-.484-.95-.677-1.04-.11-.057-.237-.1-.437-.254-.334-.256-.471-.826-.547-1.446a21.363 21.363 0 01-.063-.523c-.023-.246-.047-.49-.077-.71-.069-.587-.496-2.193-.81-3.343-.106-.394-.203-.733-.264-.96l-.093-.304s-.12.403-.32 1.033c-.316 1.04-.83 2.68-1.333 4.113-.443 1.276-.877 2.384-1.147 2.754-.21.286-.286.786-.293 1.366-.007.646.08 1.394.184 2.04h-9.061c-.307-.44-.307-1.073-.307-1.073l.533.18s-.263-.88-.506-1.08a.151.151 0 00.05.017c-.007-.017-.157-.3-.227-.586-.073-.264.223-.061.293-.011-.023-.04-.146-.233-.217-.286-.076-.061.227 0 .227 0s0-.237-.153-.413c-.149-.181 0-.12 0-.181v-.236c0-.054-.227-.407-.227-.407h.227s-.073-.176-.149-.296c-.073-.11-.077-.167-.134-.267.01-.141.014-.29-.023-.41.027-.007.057-.023.08-.033.153-.057 0 0-.153-.117a.339.339 0 01-.043-.1c.023-.047.09-.087.043-.197-.047-.106-.066-.126-.093-.137-.014-.013-.03-.017-.057-.036-.077-.063-.077-.236-.097-.367-.011-.106-.11-.463-.144-.59l-.017-.04s-.277.934-.38 1.08c-.03.037-.04.106-.04.184a1.94 1.94 0 00.05.42c-.033.11-.061.23-.061.367a.872.872 0 01-.152.303c-.15.18 0 .177 0 .313v.173s-.15.157-.304.337l.456-.053s-.152.109-.152.256c0 .147-.228.15-.228.15s-.076.18-.153.236c-.073.061.077.061.077.061h.153l.303.057-.152.133-.15.224-.38.354s.149-.023.356-.066c-.03.217-.193.437-.28.6-.609 1.094-.467 1.396-.27 1.54h-.41l-6.507.417s-.563-.247-1.554-.641a14.039 14.039 0 00-1.439-1.47c-.99-.9-.99-2.687-.99-2.687l1.157.38s-.57-1.9-1.091-2.333c.058.02.097.033.101.033a6.906 6.906 0 01-.49-1.271c-.163-.606.563-.073.646-.017-.047-.076-.336-.513-.483-.627-.163-.13.49 0 .49 0s0-.513-.33-.896c-.323-.383 0-.253 0-.383v-.514c0-.123-.497-.89-.497-.89h.497s-.16-.387-.323-.641c-.156-.236-.167-.363-.303-.583.036-.3.036-.613-.037-.877.017-.006.03-.017.043-.023h.004a.105.105 0 00.04-.017c.006 0 .013-.003.017-.003.003 0 .007-.007.01-.007.02-.007.037-.01.053-.02.337-.134 0 0-.323-.257a.593.593 0 01-.1-.224c.054-.093.2-.187.1-.417-.106-.243-.146-.283-.199-.31a.594.594 0 01-.13-.073c-.164-.134-.164-.514-.2-.797-.033-.233-.247-1.007-.327-1.273-.013-.06-.023-.093-.023-.093s-.606 2.029-.83 2.347c-.06.083-.086.233-.086.399-.007.313.069.7.109.914-.069.229-.13.489-.13.783-.08.243-.187.496-.326.663-.334.39 0 .377 0 .684 0 .31-.004.363-.004.363s-.33.35-.659.736l.989-.127s-.326.254-.33.57c0 .311-.493.327-.493.327s-.166.383-.326.506c-.164.13.16.13.16.13h.329l.66.124-.326.29-.334.479-.826.767s.33-.05.78-.149c-.07.473-.42.963-.607 1.3-.723 1.287-.956 2.066-.953 2.563-.45-.144-.917-.283-1.387-.427a34.11 34.11 0 00-1.613-2.844c-2.477-3.993 3.703.36 2.313-1.786-.85-1.327-1.877-2.646-3.19-4.047-.08-.094-.166-.18-.253-.273-.76-.79-1.606-1.62-2.566-2.486a6.26 6.26 0 01-.443-.45c-2.327-2.613-2.327-7.077-2.327-7.077l3.233 1.077s-1.59-5.34-3.057-6.554c.163.061.264.101.28.101-.05-.107-.93-1.844-1.38-3.577-.447-1.733 1.703-.106 1.843-.003-.053-.087-.937-1.443-1.383-1.79-.46-.356 1.387 0 1.387 0s0-.29-.084-.707c-.106-.51-.33-1.206-.84-1.797-.923-1.076 0-.716 0-1.076v-1.434c0-.359-1.383-2.51-1.383-2.51h1.383s-.463-1.07-.923-1.787c-.424-.67-.457-1.02-.827-1.64.084-.833.087-1.717-.123-2.457.17-.076.333-.143.49-.203.92-.356 0 0-.931-.717-.106-.14-.192-.35-.27-.616.146-.264.554-.521.27-1.177-.293-.684-.399-.79-.557-.863-.093-.05-.199-.083-.366-.21-.46-.36-.46-1.437-.566-2.227-.084-.657-.688-2.83-.897-3.577-.046-.16-.076-.25-.076-.25s-1.693 5.693-2.327 6.563c-.17.24-.233.657-.236 1.137-.01.87.18 1.95.307 2.55-.087.271-.17.563-.223.877a6.577 6.577 0 00-.137 1.33c-.228.673-.534 1.387-.927 1.85-.921 1.097 0 1.063 0 1.917 0 .86-.007 1.026-.007 1.026s-.914.983-1.844 2.061l2.777-.36s-.927.717-.934 1.594c-.004.873-1.377.913-1.377.913s-.467 1.073-.927 1.434c-.463.356.46.356.46.356h.93l1.848.36-.927.803-.921 1.347-.779.727-1.533 1.42s.92-.14 2.173-.43c-.189 1.327-1.18 2.703-1.713 3.656-.037.073-.073.134-.11.21-.01-.02-.02-.033-.03-.053-.213-.327-.227-.507-.406-.811.04-.413.04-.85-.066-1.217a2.61 2.61 0 01.243-.1c.457-.177 0 0-.46-.356a1.012 1.012 0 01-.137-.304c.08-.133.28-.257.137-.583-.144-.337-.197-.394-.273-.427-.047-.023-.101-.043-.184-.106a.021.021 0 01-.013-.017c-.214-.197-.214-.703-.268-1.084-.04-.323-.343-1.396-.443-1.767a6.31 6.31 0 00-.036-.126s-.84 2.816-1.157 3.246c-.069.106-.103.28-.113.49v.073c-.003.43.091.967.154 1.264a3.387 3.387 0 00-.184 1.097c-.113.33-.261.68-.453.913-.457.536 0 .523 0 .95 0 .42-.004.503-.004.503s-.453.49-.913 1.017l1.37-.173s-.453.354-.457.793c0 .427-.687.45-.687.45s-.227.533-.457.703c-.227.18.23.18.23.18h.46l.91.177-.453.403-.457.66-1.144 1.07s.453-.077 1.077-.214c-.097.65-.584 1.334-.851 1.804-2.977 5.32 0 4.437 0 5.32l-1.6 1.956-2.061 1.237 1.823-.217-.383.233 1.333-.163-.486.5-3.43 3.013h4.143c-1.206.663-2.227 1.547-3 2.69l-.866.763h.073l-2.41 1.867s.667.58 1.75.81a50.54 50.54 0 00-.847 3.384l-.83.76-.986.9 1.537-.264a48.815 48.815 0 00-.291 1.62l-2.159 1.673s.643.547 1.736 1.044l-.06.437-.308.28.277-.054c-.134.953-.257 1.92-.37 2.887l-2.193 1.243h2.04c-.14 1.163-.276 2.334-.423 3.507l-1.851 1.644.196.023-.893.81 1.13-.196 1.149-.197c-.113.86-.236 1.724-.366 2.59l-1.003.83a13.823 13.823 0 00-.971-1.653 9.931 9.931 0 00-.663-.87c-.523-1.517-1.446-3.846-2.32-4.573.157.054.247.087.254.097-.04-.097-.733-1.463-1.16-2.92a8.023 8.023 0 011.497-.383c.039.029.073.057.086.063a.736.736 0 00-.047-.07c.211-.03.344-.043.344-.043s-.307-.61-.85-1.597c.293.043.557.093.557.093s0-1.293-.84-2.267c-.834-.97 0-.65 0-.97v-1.3c0-.324-1.254-2.267-1.254-2.267h1.254s-.221-.517-.507-1.051c.866.363 1.533.687 1.63.73l-1.907-2.22-.773-.897c.051-.649.03-1.31-.13-1.883.15-.066.301-.134.434-.184.84-.323 0 0-.833-.649-.097-.124-.181-.317-.247-.561.1-.177.337-.356.334-.689.18-.9-.234-2.561-1.964-5.554-.113-.42-.22-.804-.283-1.033-.04-.144-.066-.23-.066-.23s-.051.177-.134.45c-.07-.116-.13-.224-.207-.34-2.387-3.84 3.561.35 2.23-1.72-1.337-2.07-3.117-4.137-5.787-6.557a5.31 5.31 0 01-.727-.79c-1.939-2.54-1.939-6.447-1.939-6.447l3.113 1.03s-1.537-5.14-2.943-6.304c.156.054.253.094.27.097-.05-.103-.896-1.776-1.333-3.443-.427-1.673 1.644-.109 1.773-.003-.047-.083-.896-1.39-1.323-1.724-.45-.34 1.33 0 1.33 0s0-1.38-.887-2.413c-.894-1.033 0-.693 0-1.033v-1.384c0-.343-1.337-2.409-1.337-2.409h1.337s-.443-1.034-.894-1.728c-.403-.633-.437-.979-.793-1.576.083-.8.086-1.65-.117-2.363.157-.073.32-.14.467-.2.894-.34 0 0-.89-.687-.104-.134-.19-.333-.264-.597.146-.247.536-.5.264-1.13-.283-.657-.391-.757-.537-.823-.09-.051-.193-.084-.354-.207-.443-.35-.443-1.383-.543-2.144-.084-.626-.667-2.723-.863-3.443-.047-.156-.07-.243-.07-.243s-1.637 5.48-2.243 6.32c-.167.227-.227.627-.233 1.09-.01.844.177 1.887.3 2.46a6.955 6.955 0 00-.35 2.123c-.214.65-.51 1.334-.89 1.783-.887 1.051 0 1.017 0 1.847 0 .82-.007.983-.007.983s-.88.943-1.773 1.98l2.67-.34s-.89.687-.896 1.529c0 .844-1.323.877-1.323.877s-.45 1.037-.894 1.387c-.443.34.443.34.443.34h.894l.097.021c-.184.597-.674 2.203-1.097 3.319l-.547.514-.68.63s.306-.047.8-.14c-.021.03-.04.063-.057.09-.12.16-.167.457-.167.793-.01.61.12 1.347.213 1.78-.126.207-.239.403-.343.577-2.88 5.153-2.894 7.307-2.181 8.39a.092.092 0 01-.02.023c-.25.189.07.236.23.25.413.439.942.67 1.353.906l-.6.874-1.64 1.52s.649-.093 1.543-.3c-.023.13-.054.264-.09.396l-1.714 2.08-4 2.417 3.63-.437c-.517 1.109-.779 1.959-.883 2.616l-4.974 4.37h5.554c.06.02.13.043.196.06l-1.224 1.49-2.953 1.78 3.75-.443-1.573 1.434.03-.007-7.776 6.033s2.313 2.013 5.776 1.71l-4.787 3.71s.957.826 2.497 1.149l-5.27 4.811 5.073-.873-3.61 3.293 5.89-1.02.397.206-1.188 2.526-5.677 5.177 1.511-.293-.28.257 5.236-1.014-3.597 4.061-4.913 2.786h1.347l-3.747 2.137h7.584l-.927 1.167-4.587 4.063 2.5.323-5.02 4.446 3.239.413-1.699 1.417h3.637l-.114.783-.937 1.813-5.456 4.54h3.213l-1.653 3.523-2.486 2.413-2.703-3.146s4.279 1.383-.356-6.083c-1.914-3.084 2.853.276 1.783-1.384a21.296 21.296 0 00-2.19-2.82c4.22.397.477-.27.477-.27l-3.09-5.69h3.09s-2.793-3.239-3.727-4.586a13.869 13.869 0 00-.507-1.007c-.526-1.46-.786-3.677-.786-3.677h.56c.054.036.094.066.106.073-.003-.007-.026-.037-.053-.073h4.406s-2.703-3.594-3.09-4.79c-.217-.69-1.2-1.667-2-2.377-.083-.196-.38-.859-.687-1.326-.327-.514-.351-.783-.641-1.264.074-.64.074-1.32-.093-1.9.133-.057.264-.103.377-.153.713-.276 0 0-.714-.55a1.548 1.548 0 01-.213-.477c.116-.203.433-.403.213-.913-.18-.413-.264-.547-.356-.617h2.57l-4.631-5.986-.772-6.58 3.859 2.396s-.96-5.973-4.243-8.38c-6.947-5.087 0-5.689 0-5.689s-1.934-3.887-4.634-7.474c-2.643-3.521 4.33-.15 4.624-.01l-4.624-5.377s4.634 1.497-.387-6.587c-2.066-3.336 3.087.3 1.931-1.493-1.16-1.797-2.7-3.59-5.014-5.69-2.323-2.093-2.323-6.283-2.323-6.283l2.707.903s-1.33-4.463-2.557-5.477c.14.047.223.08.236.08-.043-.083-.78-1.536-1.157-2.983-.37-1.446 1.427-.093 1.543-.003-.043-.073-.78-1.203-1.157-1.493-.387-.301 1.16 0 1.16 0s0-1.197-.777-2.094c-.77-.9 0-.6 0-.9v-1.196c0-.3-1.157-2.093-1.157-2.093h1.157s-.383-.897-.77-1.497c-.353-.554-.38-.85-.69-1.366.073-.693.077-1.434-.1-2.057.14-.061.28-.117.403-.171.773-.3 0 0-.77-.597a1.534 1.534 0 01-.227-.517c.127-.216.463-.43.227-.979-.247-.57-.333-.657-.466-.72-.08-.037-.164-.067-.307-.174-.387-.304-.387-1.196-.47-1.86-.073-.543-.58-2.363-.753-2.986l-.06-.21s-1.417 4.753-1.946 5.483c-.137.196-.197.543-.197.943-.01.729.153 1.633.253 2.14a6.029 6.029 0 00-.297 1.837c-.19.563-.447 1.16-.77 1.547-.777.913 0 .883 0 1.6s-.006.851-.006.851-.771.826-1.54 1.723l2.316-.296s-.77.596-.776 1.333c-.003.729-1.153.76-1.153.76s-.387.896-.777 1.196c-.387.301.39.301.39.301h.77l1.547.3-.77.67-.777 1.123-1.93 1.8s.767-.119 1.82-.359c-.163 1.106-.986 2.253-1.437 3.05-5.013 8.974 0 7.477 0 8.974l-2.697 3.293-3.473 2.097 5.013-.6-1.157 1.196-5.787 5.087h7.33l-2.316 2.396-8.49 6.58s3.086 2.69 7.333.896l1.546.3-3.86 2.69-6.563 5.99 6.95-1.197 2.313 1.197-1.926 2.093-6.563 5.983 6.177-1.196-4.25 4.79-5.784 3.286h8.104l-3.09 3.891-5.4 4.79 4.63.6-.387 2.69-3.443 2.863c-.083-.471-.28-1.167-.787-1.75-.84-.98 0-.657 0-.98v-1.3c0-.327-1.257-2.28-1.257-2.28H611s-.42-.974-.84-1.627c-.383-.6-.414-.926-.75-1.489.08-.754.086-1.557-.113-2.233.153-.066.307-.13.446-.184.837-.326 0 0-.84-.65-.1-.13-.184-.316-.253-.56.137-.236.507-.47.253-1.066-.27-.624-.367-.717-.513-.783-.083-.047-.18-.08-.327-.197-.42-.323-.42-1.303-.517-2.02-.077-.59-.627-2.573-.813-3.243-.047-.15-.07-.233-.07-.233s-1.54 5.173-2.116 5.963c-.153.217-.213.597-.224 1.03-.003.793.173 1.776.287 2.323-.19.57-.327 1.25-.327 2-.21.616-.483 1.26-.84 1.684-.837.996 0 .963 0 1.743 0 .779-.007.93-.007.93s-.83.894-1.677 1.873l2.523-.326s-.84.646-.847 1.446c-.003.797-1.253.83-1.253.83s-.423.98-.84 1.304c-.423.323.417.323.417.323h.847l1.677.323-.84.733-.837 1.224-2.103 1.949s.833-.126 1.977-.387c-.177 1.207-1.073 2.45-1.56 3.317-4.677 8.37-1.336 8.376-.287 9.227 0 .043-.007.083-.007.127-.167.5-.393 1.036-.69 1.386a1.743 1.743 0 00-.22.32.528.528 0 00-.083.273l-1.646 2.01-.97.59-.187.11-2.624 1.587 5.457-.657-1.26 1.307-4.953 4.351-1.344 1.18h6.617c-.28.563-.626 1.09-.86 1.507-.277.497-.513.95-.727 1.373l-.043.09-1.467 1.134-3.78 2.934-3.52 2.727s2.313 2.023 5.74 1.583c.7-.083 1.45-.27 2.233-.604l.497.097-1.35 1.646-.177.107-2.937 1.77 1.203-.144-6.89 6.287 6.05-1.037c-.074.141-.164.271-.217.377-1.13 2.014 0 1.681 0 2.014l-.61.743-.78.47 1.127-.137-.26.271-1.303 1.146h.894l-4.05 3.137s.43.37 1.18.724l-1.19 1.08 2.836-.547c.327.06.68.093 1.05.097l-.2.213-1.467 1.347 1.383-.27-.957 1.073-1.297.743h1.817l-.333.423-.553.624-.32.286-4.54 2.577c-.53-1.2-1.14-2.33-1.73-2.82.173.063.283.106.3.106-.053-.113-.99-1.953-1.47-3.79-.47-1.84 1.813-.116 1.957-.003-.057-.094-.99-1.526-1.463-1.894-.493-.38 1.467 0 1.467 0s0-1.517-.98-2.66c-.98-1.143 0-.76 0-1.143v-1.514c0-.377-1.467-2.653-1.467-2.653h1.467s-.487-1.146-.98-1.903c-.447-.7-.48-1.077-.877-1.733.097-.884.104-1.82-.123-2.604.18-.08.35-.149.513-.217.98-.38 0 0-.977-.76-.113-.15-.213-.366-.29-.653.157-.276.59-.547.29-1.247-.313-.723-.43-.833-.593-.913-.1-.05-.213-.087-.39-.227-.487-.373-.487-1.517-.597-2.354-.093-.693-.737-2.996-.954-3.79l-.08-.27s-1.797 6.04-2.47 6.957c-.177.253-.247.696-.25 1.203-.01.927.193 2.073.33 2.706-.22.67-.383 1.46-.383 2.341-.24.709-.563 1.466-.983 1.956-.98 1.16 0 1.123 0 2.03 0 .913-.003 1.09-.003 1.09s-.977 1.04-1.953 2.18l2.94-.38s-.983.754-.987 1.69c-.007.927-1.463.967-1.463.967s-.49 1.137-.98 1.52c-.49.38.49.38.49.38h.977l1.963.374-.983.856-.98 1.427-2.447 2.273s.97-.15 2.303-.45c-.203 1.406-1.25 2.859-1.813 3.873-.377.667-.704 1.29-.994 1.873-5.32-4.14.45-4.64.45-4.64s-1.687-3.406-4.057-6.557c-2.32-3.083 3.796-.127 4.05-.007l-4.05-4.713s4.057 1.313-.337-5.767c-1.82-2.92 2.707.263 1.687-1.313-1.014-1.57-2.37-3.144-4.4-4.98-2.023-1.833-2.023-5.503-2.023-5.503l2.367.783s-1.164-3.91-2.24-4.79c.124.04.197.066.207.073-.04-.087-.687-1.354-1.013-2.623-.327-1.267 1.25-.077 1.35 0-.033-.063-.68-1.057-1.01-1.311-.34-.267 1.017 0 1.017 0s0-1.05-.677-1.833c-.68-.783 0-.526 0-.783v-1.057c0-.257-1.017-1.833-1.017-1.833h1.017s-.34-.784-.68-1.311c-.31-.483-.333-.743-.604-1.2.063-.606.067-1.253-.086-1.796.12-.054.24-.104.354-.154.676-.26 0 0-.674-.52-.08-.1-.15-.25-.2-.45.106-.189.403-.38.2-.859-.22-.504-.296-.577-.413-.634-.066-.033-.143-.06-.263-.153-.337-.264-.337-1.047-.42-1.63-.06-.477-.5-2.07-.654-2.62-.037-.113-.056-.184-.056-.184s-1.24 4.17-1.7 4.807c-.126.17-.177.477-.18.83-.006.644.133 1.431.227 1.874a5.17 5.17 0 00-.26 1.613c-.167.489-.39 1.01-.684 1.353-.673.801 0 .771 0 1.4v.747s-.673.72-1.347 1.51l2.03-.264s-.684.53-.684 1.167c-.003.646-1.01.667-1.01.667s-.337.789-.673 1.046c-.343.267.336.267.336.267h.674l1.356.264-.684.587-.673.983-1.69 1.573s.673-.101 1.59-.311c-.14.974-.863 1.974-1.253 2.674-4.394 7.863 0 6.553 0 7.863l-2.363 2.887-3.047 1.83 4.397-.523-1.014 1.05-5.07 4.457h6.423l-2.03 2.097-7.443 5.77s2.71 2.36 6.43.787l1.354.26-3.387 2.363-5.743 5.24 6.083-1.047 2.03 1.047-1.693 1.837-5.747 5.239 5.41-1.047-3.72 4.2-2.68 1.521-2.39 1.359h7.104l-2.707 3.407-4.737 4.196 4.057.523-.337 2.36-4.736 3.933h4.063l-2.707 5.244-2.707 5.763-.34.33a31.886 31.886 0 00-1.807-2.693c-1.724-2.29 2.823-.093 3.01-.003l-3.01-3.507s3.013.977-.25-4.28c-1.347-2.173 2.01.193 1.256-.977-.756-1.167-1.76-2.333-3.267-3.7-1.507-1.359-1.507-4.09-1.507-4.09l1.76.587s-.867-2.9-1.664-3.56l.15.05c-.023-.054-.507-1-.747-1.94-.247-.943.927-.06 1.003-.007-.03-.04-.51-.779-.753-.967-.25-.199.753 0 .753 0s0-.779-.503-1.366c-.5-.58 0-.387 0-.58v-.783c0-.19-.75-1.36-.75-1.36h.75s-.25-.586-.5-.973c-.233-.363-.25-.551-.45-.894.046-.45.05-.93-.067-1.337.094-.04.177-.076.267-.11.5-.196 0 0-.506-.387a1.029 1.029 0 01-.144-.333c.077-.144.297-.283.144-.644-.16-.369-.22-.423-.303-.47a.82.82 0 01-.2-.11c-.25-.199-.25-.779-.307-1.213-.013-.144-.083-.427-.167-.75-.014-.057-.034-.12-.047-.184-.1-.399-.217-.803-.273-1.007-.023-.09-.04-.143-.04-.143s-.066.227-.173.563c-.05.17-.11.366-.176.576-.3.937-.71 2.153-.92 2.434-.086.13-.123.354-.13.616-.003.47.104 1.061.173 1.387-.113.347-.2.747-.2 1.197-.12.373-.29.76-.503 1.01-.5.593 0 .569 0 1.043v.55s-.5.537-1 1.124l1.503-.2s-.503.396-.503.866c-.003.487-.75.504-.75.504s-.25.583-.503.773c-.25.199.253.199.253.199h.5l1.003.193-.503.438-.5.729-1.253 1.17s.497-.076 1.177-.233c-.1.724-.637 1.467-.927 1.987-3.27 5.843 0 4.866 0 5.843l-1.76 2.144-2.26 1.356 3.263-.387-.753.776-3.763 3.313h4.767l-1.503 1.554-5.526 4.287s2.01 1.756 4.773.586l1.003.193-2.51 1.754-4.27 3.893 4.52-.776 1.51.776-1.26 1.363-4.267 3.894 4.017-.776-2.763 3.116-3.767 2.141h2.133a75.498 75.498 0 01-7.34 5.55c-14.383 9.59-24.997 7.087-49.31 22.93-5.578 3.639-13.785 9.292-23.128 15.845zm812.813-288.693c-1.22.417-2.319.761-3.283 1.014-.063-.083-.127-.177-.189-.26-2.104-2.8 1.269-1.674 3.472-.754zm-466.107 99.33h3.73l-.87.897-2.86-.897zM535.583 716.408c3.176-.507 7.56-1 11.437-.717.703.057 1.28.113 1.763.18-3.316 2.59-6.293 3.193-10.82 2.85a4.261 4.261 0 00-.56-.5c-1.007-.74-1.563-1.336-1.82-1.813zm738.374-328.261H1280v-5.31l-6.043 5.31zm2.103-6.203l3.94-.47v-1.997l-.15.184-3.79 2.283z"/></g></switch></svg>