<svg xmlns="http://www.w3.org/2000/svg" width="1280" height="800"><switch><g><linearGradient id="a" gradientUnits="userSpaceOnUse" x1="943.798" y1="391.764" x2="941.77" y2="517.51" gradientTransform="matrix(-1 0 0 1 1279.6 0)"><stop offset="0" stop-color="#fff"/><stop offset=".02" stop-color="#acc8ff"/><stop offset=".03" stop-color="#84aeff"/><stop offset=".144" stop-color="#77a0e2"/><stop offset=".333" stop-color="#648cb9"/><stop offset=".517" stop-color="#547c98"/><stop offset=".693" stop-color="#4a7181"/><stop offset=".858" stop-color="#436a73"/><stop offset="1" stop-color="#41686e"/></linearGradient><path fill="url(#a)" d="M2.908 594.945c.255.193-.752 0-.752 0s0 .161.052.396c.057.267.18.626.445.93.511.566 0 .373 0 .566v.759c0 .18.767 1.326.767 1.326h-.767s.255.566.511.938c.242.346.256.539.455.87-.043.428-.057.897.071 1.298-.1.028-.185.069-.27.097-.511.193 0 0 .511.387.057.069.1.18.142.317-.085.139-.298.276-.142.622.156.358.213.414.298.455.057.028.113.042.199.111.255.192.255.759.312 1.173.042.346.383 1.506.497 1.892.028.083.042.139.042.139s.923-3.011 1.263-3.466c.1-.124.142-.346.142-.594 0-.47-.1-1.036-.17-1.354.113-.331.199-.731.199-1.16.114-.358.284-.745.497-.98.511-.579 0-.565 0-1.021 0-.441.014-.538.014-.538s.497-.512 1.008-1.077l-1.519.18s.497-.373.511-.843c0-.456.752-.483.752-.483s.038-.087.104-.207c.004-.005.004-.009.009-.014.099-.18.241-.414.397-.524.241-.193-.255-.193-.255-.193H7.72l-1.008-.193.497-.414.511-.719 1.263-1.132s-.497.068-1.192.221c.114-.69.653-1.422.937-1.919 3.293-5.676 0-4.736 0-5.676l1.774-2.085 2.285-1.325-3.293.386.752-.759 3.804-3.218H9.239l1.519-1.519 5.38-4.019.185-.138s-.469-.387-1.249-.663c.042-.124.085-.276.142-.414.596.455.979.842 1.206 1.174.114.138.185.262.228.387.014.138.042.262.056.372-.014.263-.17.47-.369.622l-1.235-.4s.099.331.27.787c-.298.068-.525.082-.525.082s.909 1.754 2.243 3.604c.057.166.1.331.156.497.227.856-.88.055-.951 0 .028.041.482.718.709.884.17.138-.27.083-.525.041a15.757 15.757 0 01-1.619-.662l2.044 2.292c-.071.027-.142.041-.142.11v.704c0 .014.014.042.014.056-.426.248-.582 1.049.866 3.41 0 .249.015.483.085.704-.085.028-.17.069-.256.097-.468.18 0 0 .483.359.014.027.028.055.057.083-.482.055-1.774-.69-1.292.027.511.76 1.15 1.519 1.987 2.348a.101.101 0 01.014.055c.042.332.354 1.409.454 1.782l.042.124s.156-.525.369-1.146c.057.056.1.097.156.138 1.406 1.229 1.406 3.66 1.406 3.66l-1.632-.512s.809 2.597 1.547 3.177a2.12 2.12 0 00-.142-.042c.014.056.468.897.695 1.74.213.773-.695.18-.908.027.071.124.454.69.667.842.241.18-.696 0-.696 0s0 .69.469 1.216c.468.524 0 .358 0 .524v.704c0 .097.255.511.44.829.047.073.09.138.123.193l.132.193h-.695s.227.524.468.869c.213.318.227.497.412.801-.042.4-.042.829.057 1.188-.085.042-.156.069-.241.111-.468.165 0 0 .469.345a.943.943 0 01.142.29c-.085.139-.284.263-.142.58.142.331.199.387.284.414.042.027.1.041.185.11.227.166.227.69.284 1.077.043.317.341 1.381.454 1.74.015.082.029.124.029.124s.866-2.775 1.178-3.189c.085-.124.127-.318.127-.553 0-.428-.099-.952-.156-1.243.1-.317.185-.676.185-1.076.043-.139.1-.29.17-.429.085-.179.185-.345.284-.47.468-.538 0-.511 0-.938 0-.414.014-.497.014-.497l.052-.056c.133-.138.497-.52.871-.938l-1.391.166s.455-.346.469-.773c0-.429.695-.442.695-.442s.227-.524.468-.69c.228-.18-.241-.18-.241-.18h-.468l-.923-.179.455-.387.468-.649 1.164-1.049s-.455.068-1.093.207c.1-.649.596-1.313.866-1.781 3.038-5.22 0-4.35 0-5.22l1.632-1.92 2.101-1.215-3.038.346.71-.705 3.492-2.954h-1.945c.199-.58.412-1.16.54-1.326.071-.097.1-.263.1-.47 0-.262-.043-.58-.085-.828l3.492-2.61s-.866-.718-2.243-.855c.128-.4.625-1.961 1.036-3.011l2.129-1.878-1.562.263c0-.524-.128-1.174-.199-1.532.085-.276.17-.595.199-.926.014-.138.028-.276.028-.414.142-.414.341-.856.582-1.133.341-.372.284-.538.185-.689l.313-.276-.426.083c-.029-.083-.071-.166-.071-.29 0-.525.014-.622.014-.622s.582-.607 1.164-1.256l-1.235.151 1.419-.828-1.022.124 2.484-1.367h-1.604c.085-.11.17-.207.241-.263.298-.221-.284-.221-.284-.221h-.085l1.249-1.063h-2.086l.34-.469 1.462-1.313s-.553.083-1.306.249l2.299-1.975-.127-.014.908-.677c.071.124.142.263.228.373.184.29.198.441.369.704-.042.359-.042.731.043 1.049l-.213.083c-.411.152 0 0 .412.304.043.069.085.152.128.263-.071.11-.255.221-.128.511.128.29.185.332.256.359.028.027.085.041.156.097.199.151.199.607.256.952.028.276.298 1.202.397 1.52.014.069.028.11.028.11s.752-2.431 1.022-2.803c.085-.097.113-.276.113-.483 0-.373-.085-.829-.142-1.091.099-.263.17-.58.17-.939.099-.29.227-.594.397-.787.412-.47 0-.455 0-.814v-.442s.298-.304.639-.662c.127.18.298.387.412.47.227.165-.681 0-.681 0s0 .676.454 1.188c.454.511 0 .345 0 .511v.677c0 .165.681 1.188.681 1.188h-.681s.227.511.454.842c.213.317.227.483.412.773-.042.4-.057.814.057 1.174-.085.027-.17.055-.241.097-.454.166 0 0 .454.331a.69.69 0 01.128.29c-.071.124-.27.249-.128.553.142.331.199.372.27.414.042.027.099.041.185.097.227.18.227.677.27 1.063.042.304.341 1.325.44 1.685l.042.124s.838-2.692 1.15-3.107c.071-.11.114-.317.114-.538 0-.414-.1-.925-.156-1.215.099-.29.185-.649.185-1.036.099-.317.255-.663.454-.884.454-.511 0-.497 0-.897v-.483s.454-.469.908-.98l-1.362.166s.454-.331.454-.745c0-.415.682-.442.682-.442s.113-.248.255-.456c.014.042.042.069.057.125-.057.083-.199.179-.1.414.114.248.142.276.213.304.029.014.071.027.128.083.17.124.17.511.213.787.028.234.255 1.008.327 1.271.014.068.028.097.028.097l.355-1.091c.042.068.085.124.113.193.284.4.298.621.54 1.008-.057.511-.057 1.049.071 1.505a1.398 1.398 0 01-.312.124c-.582.221 0 0 .596.442.071.097.127.221.17.387-.1.151-.355.317-.17.718.184.428.255.483.354.538.057.028.128.042.228.125.298.221.298.883.369 1.366.057.4.44 1.754.568 2.21.028.097.057.151.057.151s1.079-3.507 1.49-4.046c.1-.138.142-.4.142-.69.014-.538-.114-1.201-.199-1.574.085-.248.142-.524.184-.828 1.349.456 3.308-5.703 4.784-8.146.497.621 1.107 1.256 1.874 1.946.028.4.057.843.085 1.34.241.18.482.234.71.193a8.5 8.5 0 01.312.952c.284 1.05-1.064.056-1.164 0 .029.028.256.373.497.677l-.397-.124s.071.234.185.58c-.156-.027-.284-.056-.284-.056s0 .87.582 1.52c.582.662 0 .441 0 .662v.87c0 .207.88 1.52.88 1.52h-.88s.298.648.582 1.077c.213.317.27.524.397.759v.4c0 .042.042.152.114.263-.014.29 0 .566.057.842h-.17s.042.111.128.263c-.085.027-.156.056-.227.083-.469.18-.185.069.255.263a.88.88 0 01.227.124c.014.014.014.027.028.041.114.166.17.29.213.415-.099.151-.312.304-.142.676.17.4.241.483.34.525 0 .055 0 .124.014.179l-.213.083c-.426.152 0 0 .412.318.057.055.1.151.128.262-.071.11-.255.221-.128.511.142.304.185.346.256.373.042.027.099.042.17.097.014.014.014.041.029.056.057.234.142.511.213.787 0 .041.014.097.014.124.042.29.312 1.242.397 1.561.028.068.042.11.042.11s.767-2.485 1.05-2.858c.085-.11.114-.29.114-.497 0-.249-.043-.539-.085-.787.1-.221.185-.4.256-.497.113-.139.142-.387.156-.69 0-.207-.028-.429-.057-.649.057-.097.114-.193.17-.262.199-.235.199-.346.156-.456-.057-.097-.156-.18-.156-.373v-.441s.071-.083.185-.193c.014.027.042.041.071.068.284.235.511.525.696.829.994 1.532.994 3.59.994 3.59l-1.973-.635s.965 3.135 1.859 3.853a.682.682 0 00-.17-.056c.028.056.568 1.077.837 2.1.284 1.021-1.036.055-1.121 0 .028.055.568.842.852 1.049.27.207-.852 0-.852 0s0 .843.568 1.478c.553.636 0 .414 0 .636v.828c0 .221.837 1.478.837 1.478h-.837s.284.635.553 1.049c.27.401.284.608.511.967-.057.483-.057 1.009.071 1.45-.099.041-.199.083-.298.11-.554.221 0 0 .568.428a.969.969 0 01.17.359c-.099.151-.34.304-.17.69.184.4.241.47.34.511.057.028.128.042.227.124.284.208.284.843.341 1.299.057.387.426 1.671.554 2.112.028.083.042.138.042.138s1.036-3.341 1.419-3.853c.1-.138.142-.386.142-.662 0-.511-.114-1.146-.185-1.506.127-.372.213-.814.213-1.298.142-.387.327-.814.568-1.091.568-.635 0-.621 0-1.118v-.607s.568-.58 1.121-1.201l-1.689.207s.568-.414.568-.939c0-.511.837-.538.837-.538s.284-.622.568-.843c.284-.207-.284-.207-.284-.207h-.553l-1.136-.207.568-.47.568-.801 1.405-1.257s-.567.083-1.32.249c.114-.773.71-1.588 1.036-2.141 3.549-6.117.227-5.316.014-6.228-.014-.027-.014-.069-.014-.097l1.973-2.306.681-.4c.071.166.128.345.17.524a.603.603 0 01.028.207c-.255-.083-.582-.29-.695-.373.028.069.185.29.355.512a2.832 2.832 0 01-.625-.346c.029.042.455.677.696.856-.227-.014-.454-.069-.454-.069v.124c-.128-.014-.242-.041-.242-.041s0 .621.398 1.132c.014.042.042.069.071.097.468.539 0 .359 0 .539v.69c0 .18.71 1.242.71 1.242h-.71s.227.525.468.87c.213.332.227.497.426.801-.057.415-.057.843.057 1.216-.085.027-.17.068-.241.097-.483.179 0 0 .468.358.042.056.085.152.128.263a2.97 2.97 0 01-.228.097c-.354.138-.213.083.071.165a.434.434 0 00.028.346c.142.346.199.387.284.428.028.014.071.042.128.069-.042.097-.057.207.014.373.156.331.227.4.298.456.014.096.014.207.029.289.042.332.354 1.395.454 1.768.028.069.042.125.042.125s.042-.166.128-.4c.113.511.326 1.229.412 1.532.028.083.042.138.042.138s.965-3.12 1.334-3.604c.099-.124.127-.359.127-.621.014-.483-.099-1.077-.17-1.409.114-.345.199-.759.199-1.201.142-.372.313-.773.54-1.021.525-.607 0-.58 0-1.05v-.565s.525-.539 1.05-1.133l-1.192.152c.1-.097.185-.193.27-.304l-.369.055c.127-.166.241-.359.241-.58 0-.4.554-.483.724-.497.284.553.582 1.036.866 1.271-.1-.027-.17-.056-.17-.056.028.056.582 1.119.866 2.183.284 1.049-1.079.055-1.164 0 .029.055.596.883.88 1.091.284.221-.88 0-.88 0s0 .87.582 1.532c.582.649 0 .428 0 .649v.87c0 .221.88 1.532.88 1.532h-.88s.298.663.582 1.091c.27.4.298.621.525 1.008-.057.497-.057 1.036.085 1.491a7.227 7.227 0 00-.312.125c-.582.221 0 0 .582.441a.934.934 0 01.17.373c-.085.151-.341.317-.17.718.184.414.255.483.354.524.057.028.128.056.228.125.298.221.298.884.369 1.367.042.386.426 1.726.568 2.168l.042.165s1.065-3.479 1.477-4.004c.099-.152.142-.4.142-.69.014-.539-.113-1.201-.184-1.561.127-.387.227-.843.227-1.354.142-.4.327-.842.582-1.118.582-.677 0-.649 0-1.174v-.621s.582-.607 1.164-1.257l-1.746.221s.582-.441.582-.98c0-.524.88-.552.88-.552s.284-.663.582-.87c.284-.221-.298-.221-.298-.221h-.582l-1.164-.222.582-.482.582-.829 1.462-1.312s-.582.083-1.377.262c.128-.801.752-1.643 1.079-2.223.255-.442.468-.828.667-1.201v-.014l.014.014c.185.166.326.317.525.483 1.689 1.478 1.689 4.433 1.689 4.433l-1.973-.636s.979 3.148 1.874 3.853c-.099-.027-.17-.055-.17-.055.029.068.568 1.091.837 2.099.27 1.021-1.036.069-1.121.014.028.041.568.843.837 1.05.284.207-.837 0-.837 0s0 .842.554 1.478c.567.621 0 .414 0 .621v.842c0 .222.852 1.478.852 1.478h-.852s.284.636.567 1.063c.256.387.284.594.511.953-.057.497-.057 1.008.071 1.449-.099.042-.213.083-.298.125-.568.207 0 0 .568.414.057.083.113.207.156.359-.085.165-.327.317-.156.704.17.4.241.455.34.497.057.027.114.055.213.124.284.221.284.842.355 1.312.042.387.412 1.671.54 2.099.028.097.057.152.057.152s1.022-3.342 1.419-3.853c.1-.151.142-.387.142-.677 0-.511-.114-1.146-.185-1.505a3.98 3.98 0 00.213-1.298c.142-.387.327-.814.568-1.077.568-.649 0-.621 0-1.132v-.608s.568-.58 1.122-1.201l-1.689.207s.568-.428.568-.938.852-.539.852-.539.27-.635.554-.842-.284-.207-.284-.207h-.554l-1.136-.222.568-.469.568-.787 1.405-1.271s-.554.083-1.32.262c.114-.787.71-1.588 1.036-2.153 3.663-6.324 0-5.275 0-6.324l1.263-1.491.71-.829 2.541-1.478-3.663.428.838-.842 4.229-3.59h-5.351l1.689-1.685.326-.235c1.292 1.05 2.711 2.555 4.912 1.367.511.773 1.149 1.533 1.93 2.348.412.483.88.967 1.434 1.491.284.704.653 1.464 1.022 1.795.014.027.042.042.057.056a.352.352 0 01-.1-.042h-.014c-.028-.014-.042-.014-.042-.014l.014.014c.042.097.497.953.724 1.795.228.884-.908.056-.979.015.015.027.199.289.398.538l-.611-.207s.043.166.128.414l-.454-.138s.454 1.464 1.022 2.651v.179c0 .18.738 1.271.738 1.271h-.738s.241.553.497.911c.213.332.228.512.426.829v.014c-.199-.014-.397-.056-.397-.056s0 .166.057.4c-.057-.027-.114-.068-.128-.068.029.055.1.151.185.262.057.207.17.429.341.636 0 .027 0 .041.014.055-.1.042-.185.083-.255.11-.043.015-.071.028-.085.028-.127-.014-.227-.028-.227-.028s0 .87.582 1.52c.596.662 0 .441 0 .662v.87c0 .222.88 1.52.88 1.52h-.88s.298.648.582 1.091c-.042.014-.028.027.028.041.241.373.27.594.497.953-.057.511-.057 1.049.085 1.505-.114.042-.213.083-.313.124-.582.222 0 0 .582.429.071.083.128.221.17.373-.085.165-.34.317-.17.718.185.414.255.483.355.524.057.027.128.056.227.138.298.208.298.87.369 1.354.042.387.426 1.713.554 2.168.028.097.057.152.057.152s1.064-3.466 1.462-3.991c.114-.138.156-.4.156-.69 0-.524-.114-1.188-.199-1.561.128-.372.227-.828.227-1.339.142-.4.341-.843.582-1.118.582-.663 0-.649 0-1.174 0-.525.014-.622.014-.622s.568-.594 1.164-1.256l-1.76.221s.582-.429.596-.967c0-.538.866-.552.866-.552s.298-.663.582-.87c.298-.222-.284-.222-.284-.222h-.596l-1.164-.221.27-.221c.127-.027.241-.041.241-.041s.241-.553.482-.732c.085-.055.085-.097.042-.124l.128-.193 1.32-1.174c.185.207.383.4.611.553 3.506 2.485 0 2.775 0 2.775s.965 1.905 2.342 3.659c1.334 1.712-2.2.068-2.342 0l2.342 2.623s-2.342-.731.199 3.218c1.051 1.63-1.576-.152-.979.731.582.87 1.363 1.754 2.541 2.775 1.164 1.022 1.164 3.066 1.164 3.066l-1.363-.429s.681 2.168 1.292 2.665a3.207 3.207 0 00-.113-.041c.014.041.397.759.582 1.464.17.648-.582.138-.752.027.071.124.383.58.554.704.199.138-.582 0-.582 0s0 .58.383 1.021c.397.442 0 .29 0 .442v.58c0 .151.596 1.021.596 1.021h-.596s.199.442.397.732c.185.275.199.414.354.662-.042.346-.042.704.043 1.008-.071.028-.142.056-.199.083-.397.152 0 0 .383.29.057.056.085.139.113.249-.057.11-.227.221-.113.483.127.275.17.317.241.358.042.014.085.027.156.083.199.138.199.58.241.911.028.263.284 1.146.383 1.45.014.069.028.11.028.11s.709-2.334.979-2.679c.071-.097.099-.276.099-.47.014-.358-.071-.801-.127-1.035a2.91 2.91 0 00.156-.897c.1-.276.228-.566.383-.76.397-.442 0-.428 0-.787 0-.346.014-.414.014-.414s.383-.4.781-.843l-1.178.152s.383-.29.397-.649c0-.358.582-.372.582-.372s.199-.442.383-.595c.199-.138-.185-.138-.185-.138h-.397l-.781-.152.383-.317.397-.552.979-.884s-.397.055-.923.18c.085-.539.497-1.105.724-1.492 2.541-4.391 0-3.659 0-4.391l1.377-1.602 1.746-1.022-2.442.276.085-.165.412-.4 2.924-2.486h-3.109c.042-.207.071-.428.071-.662l.497-.512 4.301-3.217s-1.561-1.312-3.705-.428l-.625-.133.042-.166 1.746-1.173 2.37-2.085c.142.027.397.082.667.275.057.083.113.207.156.359-.085.138-.327.29-.156.663.17.387.227.441.326.483.057.027.114.055.213.124.27.207.27.814.341 1.271.042.373.397 1.602.525 2.029.028.083.042.139.042.139s.994-3.231 1.377-3.729c.099-.138.127-.373.142-.635 0-.498-.113-1.119-.184-1.464.113-.359.213-.773.213-1.243.127-.387.312-.787.54-1.063.539-.621 0-.594 0-1.077v-.579s.539-.566 1.093-1.174l-1.632.207s.54-.414.54-.911c0-.498.823-.525.823-.525s.27-.607.54-.814c.27-.193-.27-.193-.27-.193h-.554l-1.079-.207.54-.456.539-.772 1.363-1.216s-.54.083-1.278.249c.114-.76.696-1.533 1.008-2.085.1-.166.185-.318.27-.47.255-.47.468-.897.639-1.284.241.441.71 1.132.71 1.132h-.838s.014.028.042.097c.085.18.298.636.511.953.256.387.284.594.497.953-.043.497-.057 1.008.085 1.436-.114.056-.213.083-.298.124-.568.207 0 0 .553.415a.94.94 0 01.17.358c-.085.152-.341.304-.17.69.185.4.256.47.341.511.057.028.128.042.227.125.284.207.284.828.341 1.298.057.372.412 1.657.54 2.085.028.097.057.151.057.151s1.022-3.327 1.405-3.838c.099-.139.142-.387.142-.663.015-.511-.113-1.146-.185-1.491.128-.373.213-.801.213-1.284.142-.4.326-.815.567-1.091.554-.636 0-.622 0-1.119v-.428c.043.027.071.069.114.11a.422.422 0 01.113.11c1.562 1.478 1.562 4.239 1.562 4.239l-1.945-.621s.951 3.093 1.832 3.797a.719.719 0 00-.17-.055c.042.055.568 1.063.837 2.071.27.994-1.022.055-1.107 0 .028.041.553.828.823 1.035.284.207-.823 0-.823 0s0 .829.553 1.45c.554.621 0 .414 0 .621v.829c0 .207.823 1.449.823 1.449h-.823s.27.622.554 1.036c.255.387.27.594.497.952-.057.483-.057.994.071 1.423l-.298.124c-.553.207 0 0 .568.414.057.083.114.193.156.359-.085.138-.327.29-.156.677s.241.455.327.497c.057.027.127.041.227.124.27.207.27.828.341 1.284.042.373.412 1.644.539 2.071l.043.152s1.022-3.301 1.391-3.812c.114-.138.142-.373.156-.649 0-.511-.113-1.132-.199-1.478.128-.372.227-.801.227-1.284.128-.386.313-.801.554-1.063.554-.636 0-.622 0-1.119v-.594s.554-.565 1.107-1.188l-1.661.207s.554-.414.554-.925.823-.524.823-.524.284-.622.568-.829c.27-.207-.284-.207-.284-.207h-.553l-1.107-.207.554-.47.554-.772 1.391-1.257s-.553.083-1.306.248c.114-.759.709-1.56 1.022-2.112.625-1.077 1.022-1.919 1.278-2.61.326.332.681.663 1.093 1.022 1.334 1.16 1.334 3.493 1.334 3.493l-1.562-.497s.767 2.485 1.476 3.038a10.594 10.594 0 01-.127-.041c.014.041.44.855.653 1.656.213.746-.653.166-.852.028.071.11.44.662.639.801.213.165-.667 0-.667 0s0 .677.44 1.174 0 .331 0 .497v.662c0 .166.667 1.16.667 1.16h-.667s.227.511.44.843c.213.304.227.469.397.759-.028.387-.042.787.071 1.133-.085.041-.17.068-.241.097-.44.165 0 0 .44.331.057.069.1.166.142.29-.071.124-.27.249-.142.553.156.317.199.358.27.4a.396.396 0 01.185.097c.227.165.227.662.27 1.035.042.29.326 1.313.44 1.657.014.069.028.11.028.11s.823-2.638 1.122-3.038c.085-.11.113-.304.113-.538.014-.4-.085-.897-.142-1.188.099-.29.17-.636.17-1.022.114-.304.256-.635.44-.855.454-.511 0-.497 0-.884v-.483s.454-.456.894-.953l-1.334.166s.44-.331.44-.746c.014-.4.667-.414.667-.414s.227-.497.454-.677c.213-.165-.227-.165-.227-.165h-.44l-.895-.166.44-.373.454-.621 1.107-.994s-.44.069-1.05.193c.1-.607.568-1.257.823-1.698 2.896-4.985 0-4.156 0-4.985l1.562-1.836 2.001-1.16-2.896.331.681-.662 3.336-2.831h-4.23l1.334-1.326 4.429-3.313.369.428s-2.612-.814.185 3.549c.014.014.014.027.028.042 1.178 1.836-1.746-.152-1.093.828.667.98 1.533 1.961 2.853 3.106 1.306 1.146 1.306 3.438 1.306 3.438l-1.533-.497s.766 2.444 1.448 2.997a.623.623 0 00-.127-.042c.028.042.439.843.653 1.63.198.718-.653.165-.838.027.057.11.426.648.625.787.213.165-.667 0-.667 0s0 .663.44 1.146c.44.498 0 .332 0 .498v.648c0 .166.667 1.146.667 1.146h-.667s.227.497.44.814c.198.304.213.47.397.76-.043.372-.043.772.057 1.118-.085.027-.156.069-.227.097-.44.151 0 0 .426.317a.943.943 0 01.142.29c-.071.11-.27.234-.142.539.142.304.199.358.27.386.042.028.1.042.17.097.227.166.227.649.27 1.022.043.29.327 1.284.426 1.629.028.069.042.11.042.11s.795-2.596 1.093-2.996c.085-.11.113-.29.113-.511.015-.4-.085-.897-.142-1.174.099-.29.17-.621.17-1.008.113-.304.255-.636.44-.843.44-.497 0-.483 0-.87v-.469s.44-.456.88-.939l-1.32.152s.44-.317.44-.719c0-.165.113-.248.241-.317.014.042.014.069.028.11.17.373.227.429.313.47.057.027.113.056.213.124.255.193.255.787.327 1.216.042.358.383 1.546.497 1.961.028.082.042.138.042.138s.284-.911.596-1.823c.142.525.313 1.133.397 1.409l.042.151s1.051-3.383 1.434-3.907c.114-.139.142-.387.156-.663 0-.041-.014-.083-.014-.124.114-.276.199-.483.27-.566.071-.11.1-.276.114-.483 0-.359-.085-.814-.142-1.063.085-.275.156-.58.156-.925.1-.29.227-.594.397-.787.412-.456 0-.441 0-.801s.014-.428.014-.428.397-.415.795-.87l-.738.097a25.7 25.7 0 00.88-.953l-.781.097c.17-.124.44-.138.44-.138s.199-.456.397-.607c.213-.139-.199-.139-.199-.139h-.397l-.426-.083c.028-.055-.014-.083-.085-.097.198-.304.766-.317.766-.317s.284-.635.568-.856c.27-.193-.185-.207-.27-.207l.454-.4s-.397.056-.951.18c.085-.553.511-1.132.752-1.532.199-.346.355-.649.497-.926l.099-.097s-.042.014-.071.014c.468-.938.625-1.574.625-2.016 0-.414-.142-.649-.341-.814.568-1.105.895-1.947 1.05-2.582l1.349-.802-1.263.152c.028-.4-.057-.69-.185-.925l2.456-2.071h-2.001l.951-.566-1.945.221 1.079-1.257 2.569-1.491-.88.097.61-.455c2.427 2.002 5.422 4.087 7.211.497.781 1.436 1.562 2.845 2.371 4.128-.17.056-.511-.179-.625-.262.071.124.355.538.511.648.185.139-.54 0-.54 0s0 .553.369.953c.355.4 0 .263 0 .4v.539c0 .138.54.952.54.952h-.54s.17.4.355.677c.142.207.17.331.255.497.028.042.042.083.071.124-.042.304-.042.649.043.926a.988.988 0 01-.185.068c-.369.139 0 0 .355.276a.62.62 0 01.113.235c-.057.097-.213.193-.113.441.113.263.156.29.227.331.028.015.071.028.142.069.185.138.185.539.213.843.042.248.27 1.063.354 1.353.014.056.028.097.028.097s.667-2.154.909-2.485c.071-.083.1-.248.1-.428 0-.317-.071-.732-.114-.967a2.83 2.83 0 00.127-.828c.043-.11.085-.222.142-.332.057-.11.114-.207.185-.29l.255.249c.696.677 1.448 1.215 2.214 1.561a5.16 5.16 0 002.129.428c.113.428.27.994.341 1.243l.042.124s.213-.704.468-1.45c.256-.041.511-.124.767-.207l.653.746s-3.492-1.091.298 4.791c1.562 2.417-2.328-.221-1.462 1.077.88 1.312 2.044 2.624 3.79 4.143 1.746 1.533 1.746 4.57 1.746 4.57l-2.03-.648s.994 3.244 1.93 3.977c-.113-.027-.17-.056-.184-.056.028.069.582 1.119.866 2.183.284 1.049-1.064.055-1.164 0 .042.041.596.869.88 1.076.284.222-.88 0-.88 0s0 .87.582 1.533c.582.649 0 .428 0 .649v.869c0 .222.88 1.533.88 1.533h-.88s.298.648.582 1.077c.27.414.298.621.525 1.008-.057.497-.057 1.035.071 1.491l-.298.124c-.582.207 0 0 .582.429.071.083.128.221.17.372-.099.166-.355.318-.17.719.185.414.255.483.355.524.057.027.128.056.227.124.298.222.298.87.355 1.354.057.4.44 1.726.568 2.182.028.097.042.152.042.152s1.079-3.466 1.476-3.991c.1-.151.142-.4.142-.69.014-.524-.113-1.188-.185-1.561.128-.372.227-.828.227-1.339.142-.4.327-.843.582-1.119.582-.662 0-.648 0-1.159v-.621s.582-.608 1.164-1.257l-1.746.221s.582-.441.582-.98c0-.524.866-.552.866-.552s.298-.649.582-.87c.298-.222-.284-.222-.284-.222h-.582l-1.164-.207.582-.497.582-.814 1.349-1.215c.127.248.142.635.185.938.042.332.34 1.395.454 1.768.014.069.028.124.028.124s.866-2.803 1.192-3.23c.085-.11.113-.318.127-.553 0-.428-.099-.953-.17-1.257.113-.304.185-.676.185-1.076.113-.332.27-.677.468-.912.482-.538 0-.511 0-.938 0-.414.014-.497.014-.497s.468-.483.937-1.009l-1.419.166s.468-.345.482-.773c0-.441.695-.455.695-.455s.242-.525.469-.704c.241-.166-.227-.166-.227-.166h-.469l-.951-.18.468-.4.482-.663 1.164-1.049s-.454.068-1.093.207c.057-.456.341-.939.596-1.34l.852-.511-.596.069s.014 0 .014-.014c1.064-1.837 1.377-2.914 1.349-3.591l.695-.594h-.852c-.355-.635-1.192-.621-1.192-1.077l1.646-1.933 2.115-1.229-2.555.29 3.463-2.582s-.199-.166-.554-.359l.27-.221.553-.469h-2.867a4.986 4.986 0 00-1.434 0h-.17l1.405-1.409.738-.552.042.165c.44-.621 1.491.608 2.796 2.141 2.058 2.444 4.755 5.606 6.657 3.093.071.249.142.525.213.773-.023-.009-.033-.019-.038-.019.009.014.033.046.052.088.071.221.128.4.156.524.028.097.042.139.042.139l.085-.276c.099.097.185.193.241.248.199.139-.596 0-.596 0s0 .58.397 1.022c.397.441 0 .304 0 .441v.594c0 .152.596 1.021.596 1.021h-.596s.199.442.397.746c.185.263.199.414.355.663-.042.345-.042.704.042 1.008a.792.792 0 01-.199.083c-.397.151 0 0 .397.304.042.055.071.138.113.248-.071.11-.241.222-.113.483.113.276.17.317.227.359.042.014.085.027.156.083.199.151.199.594.241.911.042.263.298 1.16.383 1.464.028.068.028.11.028.11s.724-2.334.994-2.692c.071-.097.1-.276.1-.47.014-.359-.071-.801-.128-1.05.085-.262.156-.565.156-.897.099-.276.227-.58.397-.773.383-.441 0-.428 0-.773v-.428s.383-.4.78-.842l-1.178.151s.397-.304.397-.663c0-.358.582-.372.582-.372s.198-.442.397-.594c.199-.139-.199-.139-.199-.139h-.397l-.781-.151.397-.332.383-.552.994-.884s-.397.069-.923.18c.071-.539.497-1.105.724-1.492.794-1.366 1.093-2.236 1.121-2.816.057-.773-.354-1.008-.695-1.188 1.958-2.029 3.605-3.493 5.167-1.547-.596-.027-1.434.263-.567 2.307.27.621.695 1.408 1.334 2.402 1.505 2.348-2.257-.207-1.405 1.05.837 1.271 1.973 2.526 3.662 4.004 1.689 1.478 1.689 4.433 1.689 4.433l-1.973-.635s.965 3.134 1.859 3.853a.682.682 0 00-.17-.056c.028.056.568 1.077.852 2.099.27 1.022-1.051.069-1.136 0 .042.056.568.843.852 1.05.284.207-.852 0-.852 0s0 .843.568 1.478 0 .414 0 .635v.843c0 .207.837 1.478.837 1.478h-.837s.284.621.568 1.05c.255.386.27.593.497.966-.057.483-.057 1.009.071 1.437l-.298.124c-.554.207 0 0 .568.414a.934.934 0 01.17.373c-.099.152-.34.304-.17.69.185.4.241.456.34.497.057.027.128.056.227.124.284.222.284.843.341 1.313.057.386.426 1.67.554 2.099l.042.151s1.036-3.341 1.419-3.853c.1-.138.142-.387.142-.676.014-.512-.114-1.146-.185-1.492.128-.372.227-.814.227-1.298.128-.4.313-.814.554-1.091.568-.648 0-.621 0-1.132v-.594s.568-.58 1.136-1.216l-1.689.208s.554-.415.554-.939c.014-.511.852-.538.852-.538s.284-.622.568-.843c.27-.207-.284-.207-.284-.207h-.568l-1.122-.207.554-.47.568-.801 1.405-1.257s-.554.083-1.32.249c.114-.773.724-1.588 1.037-2.141 1.533-2.638 1.774-3.977 1.561-4.736 1.476 2.541 3.023-3.466 4.883 1.05 2.3-10.315 1.931-4.916 2.385 1.215.767-7.401.54-1.588.185-.234.994-1.464 1.817-2.582 2.526-3.397.185.456.497 1.036.979 1.781 1.065 1.671-1.604-.138-1.007.76.596.897 1.405 1.795 2.597 2.845 1.207 1.035 1.207 3.135 1.207 3.135l-1.405-.442s.696 2.224 1.334 2.734a.653.653 0 00-.128-.042c.029.042.412.773.596 1.491.185.677-.596.152-.766.028.057.11.397.594.567.718.199.152-.596 0-.596 0s0 .607.397 1.05c.397.455 0 .304 0 .455v.594c0 .152.596 1.05.596 1.05h-.596s.199.456.397.745c.185.276.199.429.369.69-.042.346-.042.719.043 1.022-.071.027-.142.068-.213.083-.397.151 0 0 .412.304a.77.77 0 01.114.262c-.057.111-.241.207-.114.483.128.29.17.332.242.359.042.027.085.041.156.097.199.151.199.594.242.925.042.276.298 1.188.397 1.491.014.069.028.11.028.11s.738-2.375 1.008-2.747c.071-.097.099-.263.099-.47.014-.359-.071-.814-.127-1.063.085-.262.156-.58.156-.925.1-.276.227-.58.397-.773.397-.456 0-.442 0-.801v-.429s.397-.414.809-.855l-1.207.151s.397-.304.397-.677c0-.358.596-.372.596-.372s.199-.442.397-.594c1.136 1.657 2.583 2.679 4.06 2.996 2.313.483 4.67-.787 5.933-4.005.014 0 .014 0 .028.015.255.193.255.759.313 1.173.042.346.383 1.492.497 1.893.028.082.042.138.042.138s.923-3.01 1.278-3.479c.085-.124.127-.346.127-.594 0-.456-.099-1.036-.17-1.354.114-.331.199-.731.199-1.16.127-.358.284-.731.511-.98.142-.179.199-.304.213-.4 2.016-.014 4.244 2.858 5.124-1.381.71-.345 4.415.607 6.189 1.893 0 .027 0 .055.014.082.042.305.327 1.313.426 1.657l.043.124s.142-.455.312-1.008a.837.837 0 01.128.387c-.213-2.485 5.224-6.048 7.509-2.278 1.249-.76 2.144-.635 2.953-.552.099.207.284.594.482.883.256.373.27.58.497.939-.057.47-.057.98.071 1.408a2.392 2.392 0 01-.298.11c-.553.207 0 0 .554.415.071.082.114.207.17.358-.099.152-.341.304-.17.677.185.387.242.456.341.497.042.027.113.041.213.124.27.207.27.815.341 1.271.042.373.412 1.63.525 2.058.029.097.057.151.057.151s1.008-3.272 1.376-3.783c.114-.138.142-.373.142-.648.014-.18-.014-.373-.028-.566.142-.387.284-.69.369-.814.085-.125.128-.318.128-.553 0-.428-.1-.967-.156-1.257l.085-.331c.057-.11.128-.193.185-.276.44-.497.185-.594.071-.855.085-.208.185-.387.313-.539.383-.428.142-.497.042-.731.199-.207.44-.47.682-.746l-.724.083v-.041s.468-.483.937-1.009l-1.292.152c.114-.4.809-.428.809-.428s.27-.608.554-.815c.199-.151-.042-.193-.185-.207.085-.166.227-.373.355-.469.227-.18-.241-.18-.241-.18h-.469l-.426-.069c.17-.373.341-.718.497-1.063l.639-.566c.27.76.767 2.003 1.249 2.375-.085-.027-.128-.041-.142-.041.028.056.44.843.653 1.63.199.718-.639.165-.837.027.071.11.426.648.625.787.213.165-.653 0-.653 0s0 .663.44 1.146c.426.497 0 .332 0 .497v.649c0 .166.653 1.146.653 1.146h-.653s.213.482.426.814c.213.304.227.47.397.745-.043.387-.043.787.057 1.119-.085.041-.156.068-.227.097-.44.165 0 0 .44.331.042.056.085.152.127.276-.071.124-.27.234-.127.538.127.304.185.359.255.387.042.027.1.042.17.097.227.166.227.663.27 1.022.043.29.327 1.284.426 1.629.028.069.042.11.042.11s.795-2.596 1.093-2.996c.085-.097.114-.29.114-.511.014-.4-.085-.897-.142-1.16.1-.29.17-.635.17-1.008.113-.304.255-.636.44-.843.44-.497 0-.483 0-.884v-.455s.44-.456.866-.939l-1.306.152s.44-.318.44-.719.653-.414.653-.414.213-.497.44-.663c.213-.165-.228-.165-.228-.165h-.426l-.88-.152.44-.372.44-.608 1.093-.979s-.44.055-1.037.192c.1-.607.554-1.242.81-1.671.326-.552.567-1.021.752-1.436.114.455.298 1.091.369 1.367.028.068.042.124.042.124s.88-2.872 1.221-3.3c.085-.125.114-.332.128-.58 0-.442-.1-.98-.17-1.284.042-.125.085-.276.114-.415.781 1.146 1.817 2.293 3.35 3.632 1.604 1.395 1.604 4.198 1.604 4.198l-1.874-.607s.923 2.982 1.774 3.659c-.1-.028-.156-.056-.156-.056.028.056.54 1.036.795 2.002.255.967-.994.056-1.064 0 .028.042.54.802.795.994.27.193-.795 0-.795 0s0 .802.525 1.396c.54.607 0 .4 0 .607v.801c0 .193.809 1.395.809 1.395h-.809s.27.594.54.994c.241.373.27.566.482.911-.057.47-.057.967.071 1.381-.1.042-.199.083-.284.11-.539.193 0 0 .54.401.057.082.114.192.156.345-.085.138-.327.29-.156.649.17.386.227.441.313.482.057.028.113.042.213.125.27.193.27.801.326 1.242.057.359.397 1.574.525 1.988.028.097.042.139.042.139s.979-3.176 1.349-3.659c.099-.139.128-.359.142-.636 0-.483-.113-1.091-.184-1.422a4.07 4.07 0 00.213-1.229c.127-.373.298-.773.525-1.036.54-.607 0-.594 0-1.063 0-.483.014-.58.014-.58s.525-.538 1.065-1.146l-1.604.207s.525-.4.539-.897c0-.483.795-.511.795-.511s.27-.594.54-.802c.255-.193-.27-.193-.27-.193h-.54l-1.064-.192.525-.456.54-.746 1.334-1.201s-.525.083-1.249.234c.1-.731.682-1.505.979-2.029 3.478-6.007 0-4.999 0-6.007l1.874-2.195 2.413-1.395-3.478.4.795-.801 4.017-3.397h-5.082l1.604-1.602 2.47-1.851c.17-.041.327-.082.497-.11-.028.056-.028.125.014.207.099.249.142.276.199.305.028.014.071.027.127.068.17.124.17.511.213.787.028.221.242.98.327 1.243.014.055.014.083.014.083s.426-1.354.696-2.003c.241.608.653 1.381 1.292 2.375.085.483.113.87.127 1.091-.482 0-1.419-.469-1.533-.275l-.397-.139s.951 3.094 1.831 3.783c-.099-.027-.156-.055-.17-.055.028.069.568 1.063.837 2.071.256.994-1.022.056-1.107 0 .028.041.554.828.823 1.035.284.208-.823 0-.823 0s0 .815.554 1.437c.553.621 0 .414 0 .621v.829c0 .207.823 1.449.823 1.449h-.823s.27.622.553 1.036c.242.387.27.58.483.938-.042.483-.042.994.085 1.423a3.219 3.219 0 00-.298.124c-.554.193 0 0 .554.4.057.083.113.207.17.359-.099.151-.34.304-.17.677.184.4.241.455.34.497.042.027.114.055.213.124.27.207.27.828.341 1.284.042.373.412 1.629.54 2.071.028.083.042.138.042.138s.468-1.532.894-2.665c.142.359.781 1.313.781 1.313h-.809s.27.607.54 1.008c.255.372.27.58.482.925-.057.47-.057.98.071 1.395-.1.042-.199.083-.284.11-.54.207 0 0 .54.414.071.069.113.193.17.346-.1.152-.327.29-.17.663.17.387.241.441.326.483.057.027.128.055.213.124.284.207.284.814.341 1.257.043.372.397 1.602.525 2.029.028.083.042.139.042.139s.994-3.218 1.363-3.715c.099-.139.142-.373.142-.635.014-.498-.1-1.105-.185-1.45.128-.359.213-.773.213-1.243.142-.387.312-.787.553-1.049.54-.622 0-.608 0-1.091v-.58s.156-.166.397-.4c.185-.207.426-.483.682-.76l-1.632.207s.553-.414.553-.911.809-.511.809-.511.057-.139.156-.304c2.456 2.029-.568 2.278-.568 2.278s.951 1.85 2.286 3.576c1.32 1.671-2.144.069-2.286 0l2.286 2.568s-2.286-.718.199 3.134c1.022 1.603-1.533-.138-.951.719.568.856 1.334 1.712 2.484 2.706 1.136 1.008 1.136 3.011 1.136 3.011l-1.334-.429s.667 2.127 1.264 2.61l-.114-.042c.028.042.383.732.568 1.423s-.695.041-.752 0c.014.041.383.58.568.718s-.582 0-.582 0 0 .566.383.994c.383.429 0 .29 0 .429v.579c0 .139.582.994.582.994h-.582s.199.429.383.719c.185.262.199.4.341.648-.029.332-.029.69.057.98a2.87 2.87 0 00-.199.083c-.383.138 0 0 .383.29a.75.75 0 01.113.234c-.071.11-.227.207-.113.47.113.276.156.317.227.346.042.027.085.041.156.082.184.152.184.58.227.898 0 .014 0 .041.014.055.057.304.27 1.077.355 1.367.028.055.028.097.028.097s.27-.87.54-1.615c.17-.456.326-.87.425-.995.071-.097.1-.262.1-.455.014-.346-.071-.787-.128-1.021.085-.249.156-.553.156-.884.085-.263.213-.553.383-.732.383-.441 0-.428 0-.759v-.415s.383-.387.767-.814l-1.15.138s.383-.289.383-.635.568-.359.568-.359.199-.428.383-.58c.185-.138-.185-.138-.185-.138h-.383l-.767-.138.383-.332.383-.524.951-.87s-.383.069-.895.18c.071-.524.483-1.077.696-1.464 2.484-4.28 0-3.563 0-4.28l1.348-1.574 1.718-.994-2.484.29.568-.58 2.867-2.431h-3.634l1.149-1.132 4.202-3.148s-1.519-1.284-3.62-.428l-.767-.139 1.902-1.284 3.25-2.858-3.435.566-1.15-.566.951-.994 3.25-2.858-3.052.566 2.101-2.278 2.867-1.574h-4.017l1.533-1.864 2.669-2.278-2.286-.29.185-1.284 2.683-2.141h-2.299l1.533-2.858.525-1.076c1.221.676 2.626 2.319 3.847 2.83.554.76 1.278 1.533 2.286 2.403.057.068.127.124.185.192.071.193.185.4.34.595.483.524 0 .345 0 .524v.718c0 .138.426.801.625 1.104l-1.344-.437c.038.133.696 2.246 1.315 2.729-.071-.015-.113-.028-.127-.042.014.042.213.4.383.856a.543.543 0 01-.128.055c-.397.152-.142.056.241.222.028.124.071.248.1.372.184.663-.596.139-.767.028.099.138.412.58.568.718.199.152-.596 0-.596 0s0 .594.397 1.05c.397.441 0 .29 0 .441v.594c0 .152.61 1.05.61 1.05h-.61s.199.455.397.745c.184.276.199.429.369.69-.043.346-.043.719.042 1.021-.071.028-.142.056-.199.083-.412.152 0 0 .397.304a.68.68 0 01.113.263c-.057.11-.241.207-.113.483.127.29.17.331.241.359.042.027.085.041.156.097.199.138.199.594.241.925.042.276.298 1.174.397 1.491.014.069.028.11.028.11s.738-2.389 1.008-2.748c.071-.097.1-.275.1-.469.014-.359-.071-.815-.128-1.063a3.02 3.02 0 00.156-.925c.099-.276.227-.58.397-.773.397-.456 0-.442 0-.801v-.429s.397-.414.795-.855l-1.192.151s.397-.304.397-.663c0-.372.596-.387.596-.387s.199-.455.412-.593c.199-.152-.213-.152-.213-.152h-.213c.156-.497.383-1.174.596-1.74.028.069.071.125.099.18.199.29.213.442.369.704-.028.359-.042.746.057 1.063-.071.027-.142.069-.213.097-.412.151 0 0 .412.304.042.056.085.152.128.263-.071.11-.256.221-.128.511s.185.345.255.373a.537.537 0 01.156.097c.213.151.213.607.256.952.042.29.312 1.229.397 1.547l.043.11s.752-2.458 1.036-2.831c.085-.11.113-.289.113-.497 0-.372-.085-.842-.142-1.104a2.8 2.8 0 00.17-.952c.029-.111.085-.235.142-.346.156.276.327.497.483.621-.085-.027-.142-.041-.142-.041.028.055.468.897.695 1.726.213.773-.681.18-.894.028.057.124.454.69.653.842.241.18-.695 0-.695 0s0 .69.468 1.216c.468.524 0 .345 0 .524v.69c0 .166.695 1.215.695 1.215h-.695s.227.511.468.856c.213.331.227.497.412.801-.042.4-.042.828.057 1.188-.085.027-.156.069-.242.097-.468.166 0 0 .469.345a.678.678 0 01.127.305c-.071.124-.27.248-.127.565.142.332.199.373.284.414.042.028.1.042.17.097.241.18.241.704.298 1.077.042.317.34 1.367.44 1.74.028.069.042.11.042.11s.852-2.748 1.164-3.176c.085-.11.127-.304.127-.539 0-.428-.099-.952-.156-1.242.099-.304.17-.663.17-1.063.127-.331.27-.677.468-.897.468-.524 0-.511 0-.925v-.497s.468-.47.922-.994l-1.391.179s.468-.345.468-.773c0-.428.695-.441.695-.441s.227-.524.468-.69c.228-.18-.241-.18-.241-.18h-.454l-.937-.165.468-.4.468-.649 1.15-1.036s-.455.069-1.079.208c.085-.649.582-1.313.852-1.768.922-1.588 1.292-2.61 1.334-3.287.128-1.546-1.334-1.312-1.334-1.905l1.632-1.919 2.086-1.202-3.023.346.696-.69 3.478-2.955h-4.4l.738-.731.653-.649 4.329-3.245v.428c0 .152.61 1.05.61 1.05h-.61s.199.456.412.76c.17.262.199.414.327.635.014.014.014.028.028.042-.042.358-.042.731.057 1.035-.071.042-.142.069-.213.097-.412.139 0 0 .397.29.043.069.085.152.128.263-.071.11-.241.221-.128.497.128.29.185.331.242.358.042.028.099.042.17.097.199.152.199.594.242.926.042.276.298 1.201.397 1.505.014.069.028.11.028.11s.738-2.389 1.008-2.762c.085-.097.113-.276.113-.47 0-.372-.085-.828-.142-1.077.071-.192.113-.4.127-.621.071.125.156.29.241.414.17.249.185.373.327.608-.042.304-.042.635.042.911-.071.027-.127.055-.185.069-.354.138 0 0 .355.262.028.056.071.139.1.235-.057.096-.213.193-.1.428.114.262.142.29.213.317.028.027.071.042.142.083.17.138.17.524.213.828.028.235.27 1.036.341 1.313.014.068.028.096.028.096s.653-2.099.894-2.43c.071-.083.085-.234.1-.414 0-.317-.071-.718-.128-.939.085-.234.142-.511.142-.814.085-.249.199-.524.355-.69.354-.4 0-.387 0-.704v-.387s.27-.263.567-.594c.043-.056.1-.11.142-.166l-1.064.139s.355-.263.355-.594c0-.318.525-.332.525-.332s.185-.4.355-.538c.185-.124-.17-.124-.17-.124h-.355l-.709-.139.355-.29.354-.497.88-.801s-.355.056-.823.166c.071-.497.44-1.008.653-1.354 2.299-3.977 0-3.313 0-3.977l.482-.566c.937.607 2.001 1.754 3.478 2.168 1.987-9.155 4.13-4.226 5.408-2.886-.567-.139-1.292-.497-.908.083a12.83 12.83 0 001.363 1.712c-.525-.138-1.15-.428-.809.097.681 1.021 1.604 2.044 2.966 3.231.469.414.781.966.979 1.519.042.359.042.594.042.594l-1.675-.538s.114.372.298.869c.071.208.156.429.255.663l-.128-.041s.781 2.54 1.505 3.12a1.22 1.22 0 00-.128-.041c.014.027.17.331.341.76-.142.262-.88-.276-.951-.318.028.042.497.719.724.897.241.18-.724 0-.724 0s0 .69.468 1.229c-.057-.014-.099-.014-.099-.014s0 .262.113.58v.704c0 .083.17.387.341.677v.414c0 .027.028.097.071.165h-.412s.242.539.483.898c.028.041.057.082.085.138h-.227s.241.511.468.843c.029.055.057.11.085.151-.014.317 0 .636.071.911-.085.028-.17.069-.241.097-.482.18 0 0 .468.359.015 0 .015.014.015.014.014.138.028.276.057.387 0 .014-.014.027-.028.041-.071.028-.142.069-.199.083-.341.139-.185.069.113.166 0 .069.014.124.042.207.156.346.213.387.298.428l.014.014c-.057.083-.1.193-.014.387.142.318.199.373.27.415.042.014.1.027.17.082.014.111.028.222.042.318.043.331.355 1.422.469 1.781.014.082.028.138.028.138s.014-.027.028-.069c.071.249.128.47.17.608.014.068.028.11.028.11s.837-2.707 1.15-3.121c.085-.11.113-.304.127-.538 0-.415-.099-.926-.156-1.216a3.252 3.252 0 00.171-1.049c.114-.317.27-.663.469-.884.454-.512 0-.497 0-.912v-.275a.33.33 0 00.057-.263c.114-.124.482-.511.852-.925l-1.05.138v-.221s.468-.497.951-1.036l-.085.014c.071-.151.241-.469.412-.594.227-.165-.227-.165-.227-.165h-.454l-.062-.014-.45-.083c.118-.124.322-.18.464-.203.095-.014.161-.018.161-.018s.242-.539.483-.719-.241-.18-.241-.18h-.341l1.121-1.008s-.454.069-1.079.207c.057-.317.199-.648.369-.952l.653-.58s-.127.027-.34.055c.057-.082.127-.179.17-.262 1.363-2.348 1.477-3.425 1.192-4.005-.014-.027-.028-.041-.042-.068.341-1.188.042-1.686-.355-1.975l.473-.563.322-.377.062-.032 1.997-1.155-1.533.17-1.064.12a.163.163 0 01.071-.069c.113-.097.028-.124-.071-.138l.369-.433.127-.147.114-.097 2.101-1.215-.767.082 1.789-1.519h-.113c1.036-.428 2.115-.897 3.222-1.215.227-.18.482-.29.752-.387-.468.787-2.129.925-2.129.925s1.419 2.748 3.393 5.275c1.93 2.472-3.166.097-3.378 0l1.434 1.615 1.945 2.168s-3.393-1.05.284 4.64c1.505 2.348-2.257-.207-1.419 1.063.842 1.238 1.945 2.494 3.61 3.931.019.022.043.041.066.06.388.341.691.76.918 1.206.137.263.251.529.341.796a8.324 8.324 0 01.431 2.431l-1.377-.442-.596-.192s.099.321.26.782c.35.98.989 2.591 1.599 3.07-.099-.028-.156-.056-.17-.056.028.069.568 1.091.838 2.099.284 1.022-1.037.069-1.122.014.028.042.568.843.852 1.05.27.207-.852 0-.852 0s0 .843.568 1.478c.113.124.17.207.199.276.156.276-.199.18-.199.345v.843c0 .221.837 1.478.837 1.478h-.837s.284.635.554 1.063c.27.386.284.594.511.952-.057.497-.057 1.008.071 1.45l-.298.124c-.554.207 0 0 .568.414a.934.934 0 01.17.373c-.099.152-.34.304-.17.69.185.4.241.456.34.497.057.027.128.056.227.124.284.222.284.843.341 1.313.057.387.426 1.671.554 2.099.028.097.042.152.042.152s1.036-3.342 1.419-3.854c.1-.151.142-.386.142-.676.014-.512-.114-1.146-.185-1.506.128-.372.227-.801.227-1.298.128-.387.313-.814.554-1.077.568-.648 0-.621 0-1.132v-.607s.341-.346.767-.787c.113-.139.241-.276.369-.414l-1.619.193-.071.014s.014 0 .028-.014c.1-.097.525-.483.525-.926.014-.511.852-.538.852-.538s.284-.636.568-.843c.27-.207-.284-.207-.284-.207h-.568l-1.122-.207.554-.483.568-.787 1.405-1.271s-.554.083-1.32.263c.114-.787.724-1.588 1.036-2.154 2.257-3.894 1.746-4.984 1.008-5.496.313-.925.667-1.892.866-2.153.114-.139.156-.4.156-.69 0-.097-.014-.207-.014-.318l2.499-1.449-2.669.304c0-.028-.014-.056-.014-.083a3.7 3.7 0 00.185-.925l3.918-3.301h-3.293v-.014s.582-.594 1.164-1.243l-1.746.222s.554-.415.582-.939l.767-.565c.057-.015.1-.015.1-.015s.028-.041.057-.11l3.336-2.485a8.295 8.295 0 01.354 2.099l-1.859-.594s.923 2.941 1.76 3.618a.696.696 0 00-.17-.056c.028.056.54 1.009.795 1.961.255.953-.979.069-1.05 0 .028.056.525.801.781.994.27.193-.795 0-.795 0s0 .787.539 1.381c.525.58 0 .387 0 .58v.801c0 .193.781 1.367.781 1.367h-.781s.256.594.525.994c.241.359.255.553.468.897-.057.456-.057.939.071 1.354-.1.041-.199.083-.284.11-.525.193 0 0 .525.4.071.069.113.193.156.332-.071.151-.313.289-.156.648.17.373.241.442.326.483a.628.628 0 01.213.11c.256.193.256.787.327 1.229.042.359.383 1.547.511 1.961.014.097.042.139.042.139s.965-3.135 1.32-3.604c.1-.138.142-.358.142-.635 0-.47-.113-1.077-.185-1.395.128-.359.213-.76.213-1.216.128-.372.298-.773.525-1.021.062-.069.109-.134.142-.188.27-.419-.142-.446-.142-.875v-.552s.473-.483.965-1.041c.028-.027.057-.06.085-.092l-.071.01-1.505.184s.525-.4.525-.884.795-.497.795-.497.109-.248.255-.474c.081-.125.17-.244.27-.313.27-.193-.27-.193-.27-.193h-.525l-1.05-.207.525-.441.525-.732 1.32-1.188s-.525.083-1.235.235c.1-.732.667-1.491.979-2.003 2.422-4.197 1.415-4.92.62-5.339h-.005c-.326-.175-.615-.295-.615-.585l.227-.262.497-.58 1.122-1.326.241-.138c.1.414.185.828.241 1.257a27.47 27.47 0 01.426 3.576c.27 4.309 2.257 10.688 5.905 10.232.185.289.213.455.383.731-.043.373-.043.787.057 1.132-.085.028-.156.069-.227.097-.44.166 0 0 .44.332.042.055.1.151.128.276-.071.124-.27.248-.128.552s.185.359.27.387c.043.027.085.042.17.097.227.166.227.663.27 1.035.042.305.326 1.299.426 1.644l.042.124s.809-2.637 1.121-3.037c.071-.11.1-.29.114-.525 0-.4-.099-.897-.156-1.174.1-.289.17-.635.17-1.021.114-.304.255-.635.454-.855.44-.498 0-.483 0-.885v-.469s.44-.456.88-.953l-.767.097c.331-.409.662-.856.994-1.325 3.038-4.359 5.777-10.688 8.147-7.471.076.134.175.313.303.521.085.151.184.322.293.501.213.47.44 1.022.653 1.685.213.097.412.152.625.249l.383.497c1.083 1.39-.928.645-1.917.226a8.134 8.134 0 01-.497-.226l.354.396 2.059 2.311s-2.428-.745.198 3.314c1.079 1.685-1.618-.152-1.007.76.61.897 1.405 1.809 2.612 2.858 1.221 1.049 1.221 3.161 1.221 3.161l-1.419-.455s.695 2.251 1.334 2.762a3.207 3.207 0 00-.113-.041c.014.041.397.772.596 1.491.184.677-.596.151-.781.041.099.138.412.58.582.718.199.152-.61 0-.61 0s0 .607.412 1.05c.397.456 0 .304 0 .456v.607c0 .138.596 1.049.596 1.049h-.596s.199.456.397.746c.184.29.198.428.354.69-.028.345-.028.718.057 1.035l-.213.083c-.397.152 0 0 .412.304a.786.786 0 01.113.263c-.071.11-.241.221-.113.483.127.29.17.331.241.373.042.014.085.027.156.082.199.152.199.608.241.939.042.276.312 1.188.397 1.505.014.069.028.097.028.097s.738-2.389 1.022-2.748c.071-.11.099-.276.099-.483 0-.358-.085-.814-.127-1.076.085-.263.156-.58.156-.926.099-.276.227-.58.397-.773.397-.455 0-.441 0-.801v-.428s.397-.414.809-.87l-1.207.152s.397-.304.397-.677c0-.359.61-.387.61-.387s.199-.442.398-.594c.199-.152-.199-.152-.199-.152h-.412l-.794-.151.397-.332.397-.565 1.008-.912s-.397.069-.937.18c.071-.552.511-1.132.738-1.532 2.626-4.516 0-3.756 0-4.516l1.419-1.657.904-.524.899-.524-1.311.151-1.301.152.596-.607.099-.088 2.342-1.97c.255.483.525.911.795 1.118-.1-.027-.17-.056-.185-.056.042.069.61 1.16.908 2.237.284 1.091-1.107.069-1.207 0 .043.056.61.911.909 1.133.246.179-.521.064-.805.019-.066-.01-.104-.019-.104-.019s0 .019.005.046c.005.193.076.938.591 1.514.61.677 0 .456 0 .677v.897c0 .235.909 1.574.909 1.574h-.909s.313.677.61 1.119c.27.428.298.648.54 1.035-.042.41-.062.843.005 1.225.014.105.038.212.066.309-.099.055-.213.097-.312.138-.596.221 0 0 .596.441.004.01.009.015.019.023.062.092.114.212.166.363l-.024.037c-.113.156-.331.327-.161.709.199.428.27.483.369.538.047.023.1.037.18.083a.666.666 0 00.062.042c.298.234.298.897.369 1.395.042.414.44 1.781.582 2.251.029.097.043.151.043.151s1.107-3.563 1.519-4.115c.114-.151.156-.414.156-.704 0-.552-.128-1.229-.199-1.602.128-.4.227-.87.227-1.395.156-.414.341-.856.596-1.16.61-.677 0-.663 0-1.201 0-.524.014-.635.014-.635s.596-.622 1.192-1.298l-1.803.234s.596-.456.61-1.008c0-.539.895-.566.895-.566s.298-.677.596-.897c.312-.221-.298-.221-.298-.221h-.596l-1.207-.235.596-.497.61-.842 1.505-1.354s-.596.097-1.419.263c.127-.829.766-1.685 1.121-2.278 3.904-6.739 0-5.62 0-6.739l2.101-2.472 2.683-1.574c-.028 0-.042.015-.071.015l-1.803.207c-.128.014-.256.041-.383.041-.014-.47-.028-.911-.028-1.298l1.774-1.505c.057 0 .128-.042.17-.152l1.859-1.574h-1.703c.057-6.228 3.066 1.16 3.066-.745.085-.222.185-.815.313-1.574a.664.664 0 01.142.138c1.022.884 1.022 2.665 1.022 2.665l-1.192-.373s.596 1.892 1.135 2.334c-.071-.027-.099-.041-.113-.041.028.041.34.607.497 1.215 0 .014.014.041.014.055.156.539-.44.166-.625.042-.028-.028-.042-.042-.057-.042 0 0 .014.014.028.042.099.124.355.483.482.594.17.124-.511 0-.511 0s0 .511.341.897c.34.387 0 .248 0 .387v.497c0 .138.511.897.511.897h-.511s.17.387.34.635c.156.235.17.359.313.58-.028.304-.042.622.042.884-.057.027-.128.042-.185.069-.341.124 0 0 .341.248a.47.47 0 01.099.222c-.042.097-.199.193-.099.428.113.234.156.276.213.304.028.014.071.027.128.069.17.124.17.511.213.801.028.221.255.994.34 1.271.014.055.014.083.014.083s.639-2.03.866-2.334c.057-.083.085-.234.085-.4a5.06 5.06 0 00-.113-.911 2.53 2.53 0 00.142-.787c.071-.235.185-.497.341-.663.341-.387 0-.373 0-.677v-.359s.341-.358.681-.731l-1.022.124s.341-.248.341-.565c0-.318.511-.332.511-.332s.17-.373.341-.511c.17-.124-.17-.124-.17-.124h-.34l-.682-.125.341-.289.341-.47.44-.4.412-.373s-.341.056-.809.152c.071-.47.44-.953.639-1.299 2.214-3.824 0-3.176 0-3.824l1.192-1.395 1.533-.897-2.214.262.511-.511 2.555-2.168h-3.236l1.022-1.021 3.747-2.804s-1.362-1.146-3.236-.387l-.681-.124 1.703-1.146.937-.829c.951.483 1.675 2.017 1.803 5.247 6.189-7.346 6.572-1.174 8.034-3.7a5.592 5.592 0 001.803-.042 5.69 5.69 0 001.784-.681c1.363-.797 2.484-2.09 3.539-3.42.369.4 0 .276 0 .414v.553c0 .138.554.966.554.966h-.554s.185.4.369.677c.17.263.185.4.327.636-.028.317-.028.662.057.952a1.538 1.538 0 01-.199.069c-.369.138 0 0 .369.276a.71.71 0 01.114.248c-.057.097-.228.193-.114.442.114.262.156.304.227.331.028.027.071.042.142.083.185.138.185.553.227.856.028.262.27 1.091.355 1.381a.3.3 0 01.028.097s.681-2.196.937-2.527c.071-.097.1-.248.1-.441 0-.332-.085-.746-.128-.98.085-.235.142-.525.142-.843.085-.263.213-.538.369-.718.369-.428 0-.414 0-.732v-.4s.369-.372.738-.787l-1.107.139s.369-.276.369-.621c0-.332.554-.346.554-.346s.185-.414.369-.553c.185-.138-.184-.138-.184-.138h-.369l-.738-.138.369-.318.369-.511.922-.828s-.369.055-.866.166c3.25-1.644 6.359-2.1 10.76-4.612 6.373 1.464 9.657 4.055 13.234-3.061.166-.327.331-.682.497-1.055.076-.161.151-.326.223-.497 0-.005.004-.005.004-.009.284-.631.549-1.321.833-2.076a75.123 75.123 0 001.774-1.5c1.296-1.114 2.494-2.191 3.605-3.131 1.415-1.201 2.702-2.182 3.889-2.762 1.325-.653 2.527-.805 3.662-.202.194.106.379.23.568.378.322.253.634.565.951.962 3.222-1.377 6.34-2.688 9.297-3.922l3.847-1.588c.459-.188.913-.378 1.363-.562 3.525-1.459 6.742-2.771 9.539-3.898 2.484-1.004 4.642-1.869 6.388-2.564 3.203-1.274 5.039-1.992 5.039-1.992l3.487-.875.53-.134 1.268-.322 14.256-3.595 14.768-3.724 3.852-.971 6.908-1.744 7.778-1.961H2.067v127.442c.583 1.274.586 2.674.586 2.674l-.586-.188v2.441c.164.274.333.502.5.633a7.062 7.062 0 00-.156-.041c.014.027.185.345.369.787.128.317.284.704.383 1.091.242.925-.937.069-1.008.014.03.032.512.751.753.93zM510.309 523.1c.128-1.16.426-.718.752 0h-.752zm-11.016 12.855c.412-.248.767-.58 1.079-.967.142.787.142 1.367.142 1.367l-1.221-.4zm-2.923 2.21l.402-.405.805-.811.709-.529.199-.146c.042-.015.085-.015.128-.028.095.281.227.64.374 1.022l.1.248c.09.212.18.433.279.649h-2.996zm-31.186-12.069l.795-.786.071-.069c.071.234.142.483.213.731l-1.079.124zm-10.717 3.383c.228-.456.525-.897.724-1.243.327.332.681.663 1.079 1.008a5.747 5.747 0 00-1.803.235zm-55.259 5.207l1.789-1.216c.497.193 1.008.636 1.533 1.091a4.357 4.357 0 00-2.399.29l-.923-.165zm-7.907 15.671s.412-.304.412-.69c0-.11.057-.18.127-.234.071.317.114.607.142.842l-.681.082zm-4.585 3.577l.397-.331c.042.152.085.29.127.428l-.524-.097zm-57.275-6.407c0-.069.014-.125.014-.193.128-.346.284-.705.482-.939.114-.124.17-.221.199-.29.142.235.284.483.469.76 1.008 1.573-.497.814-1.164.662zm-9.141 4.267c.312-.607.625-1.174.937-1.713a6.58 6.58 0 01.455 2.154l-1.022-.317.156-.138s-.156.014-.383.068l-.143-.054zm-43.507 13.919l.397-.346.327-.456c.17.346.369.649.568.953-.042 0-.085-.014-.085-.014h-.412l-.795-.137zm-18.523-13.091l.553-.648c.241.482.482 1.008.71 1.629.028.069.057.11.085.166-.469-.623-1.348-.636-1.348-1.147zm-21.747-1.257c.057-.193.128-.428.213-.69.057.152.1.29.142.442.1.387-.128.36-.355.248zm-17.857 19.953c.085-.565.426-1.146.724-1.643a.941.941 0 01.1.234c-.071.124-.284.249-.142.566.156.345.213.387.284.428.042.027.1.042.185.097.028.028.042.056.057.083-.214.042-.654.111-1.208.235zm-50.192-23.999c.057-.165.1-.345.142-.552l.667-.594c.639 1.188 1.263 1.768 1.859 1.864-.411.249-2.058-.455-2.668-.718zm-2.612 1.41l.809-.553c.795.18 1.434-.041 1.76-.773l1.164 1.298c-.738-.207-1.718-.262-2.839.193l-.894-.165zm-24.869 2.678l.937-1.091c.142.331.298.731.397 1.132.256.962-.913.156-1.103.019.052.073.204.29.364.521-.311-.167-.595-.291-.595-.581zm-6.529 12.621v.814c0 .068.085.234.185.428l-1.164.221c.256-.552.454-1.021.582-1.422l.482-.538c.369.455-.085.304-.085.497zm-.426-2.872c.099.138.27.358.412.552h-.724c-.028-.027-.057-.055-.085-.069l.397-.483zm.043-.069l.695-.829c.085.222.156.47.228.719.212.8-.568.344-.923.11zm-1.107 7.705s-.54.083-1.278.234c.028-.138.071-.276.128-.428l.582-.607 2.541-2.237c.17.276.327.511.327.511h-.809s.27.607.54 1.022c.255.372.27.58.482.925a4.95 4.95 0 000 .911l-2.896.47-.327-.166.71-.635zm-15.303-1.229c.057-.414.256-.842.483-1.242.185.359.397.704.667 1.021-.241.042-.638.11-1.15.221zm-11-12.966c.085-.069.17-.11.27-.18.227-.262.44-.469.653-.648.128.221.256.455.412.704.183.663-.711.317-1.335.124zm-24.798 6.393c-.228.041-.554.097-.951.18.071-.483.355-.967.61-1.409.156.428.27.843.341 1.229zm-.965 1.064l.994-.884c.127.718.127 1.242.127 1.242l-1.121-.358zm-1.122 1.242l.54-.441.028-.042c.071.207.156.415.241.636l-.809-.153zm-6.018-1.768l.852-.842.185-.166c.127.207.255.373.383.47-.071-.027-.128-.042-.142-.056.014.028.099.18.199.414l-1.477.18zm-.27-4.432l1.249-1.242c.199.428.327.855.397 1.242h-1.107l-.298-.097s.014.042.028.097h-.269zm-28.006-.649l.454-.387.454-.635.071-.056c.042.097.085.193.156.331-.029.29-.029.607.057.87-.043.014-.071.027-.114.042h-.17l-.908-.165zm-4.854-.373s.397-.304.397-.677c.015-.372.625-.387.625-.387s.099-.221.227-.414c.142.317.312.746.426 1.174.142.511-.227.4-.525.234.029-.027.043-.055.071-.083l-.17.028c-.142-.083-.255-.166-.284-.18.014.014.071.097.142.193l-.909.112zm0-1.974l.397-.345.17-.235c.029 0 .057-.014.1-.014.156.263.313.483.468.621-.085-.027-.127-.055-.142-.055.015.014.043.083.085.18h-.27l-.808-.152zm-4.443 2.844c.454-.897.724-1.616.852-2.182.057.18.156.373.312.552.412.456 0 .304 0 .456v.621c0 .152.61 1.063.61 1.063h-.411a3.972 3.972 0 00-1.363-.51zm-5.834 19.926s.383-.29.383-.649c.014-.193.17-.29.327-.331.085.304.17.607.241.87l-.951.11zm-3.152 6.407l1.207-1.216.014.014c.042.014.085.028.156.083.199.152.199.594.241.911 0 .056.028.125.042.208h-1.66zM13.71 566.804h-.412l-1.008-.608s.028.18.085.456a.392.392 0 00-.185 0l-.922-.456 1.263-1.325.142-.124c.142.29.326.594.539.938v.249c.001.124.484.841.498.87zm-3.208 4.874l2.526-1.698.483-.414c.284.469.639.925 1.064 1.284v.068c.014.139.099.456.185.746-.837-.234-1.959-.317-3.25.207l-1.008-.193z"/><linearGradient id="b" gradientUnits="userSpaceOnUse" x1="1251.238" y1="396.112" x2="1249.203" y2="522.284" gradientTransform="matrix(-1 0 0 1 1279.6 0)"><stop offset="0" stop-color="#fff"/><stop offset=".02" stop-color="#acc8ff"/><stop offset=".03" stop-color="#84aeff"/><stop offset=".144" stop-color="#77a0e2"/><stop offset=".333" stop-color="#648cb9"/><stop offset=".517" stop-color="#547c98"/><stop offset=".693" stop-color="#4a7181"/><stop offset=".858" stop-color="#436a73"/><stop offset="1" stop-color="#41686e"/></linearGradient><path fill="url(#b)" d="M31.437 577.184l-.014-.047-.063-.219-.231.251c.104.002.207.006.308.015z"/><linearGradient id="c" gradientUnits="userSpaceOnUse" x1="1233.716" y1="397.047" x2="1231.695" y2="522.321" gradientTransform="matrix(-1 0 0 1 1279.6 0)"><stop offset="0" stop-color="#fff"/><stop offset=".02" stop-color="#acc8ff"/><stop offset=".03" stop-color="#84aeff"/><stop offset=".144" stop-color="#77a0e2"/><stop offset=".333" stop-color="#648cb9"/><stop offset=".517" stop-color="#547c98"/><stop offset=".693" stop-color="#4a7181"/><stop offset=".858" stop-color="#436a73"/><stop offset="1" stop-color="#41686e"/></linearGradient><path fill="url(#c)" d="M48.518 558.073l-.045-.067-.029.067h.074z"/><linearGradient id="d" gradientUnits="userSpaceOnUse" x1="1163.398" y1="396.161" x2="1161.381" y2="521.249" gradientTransform="matrix(-1 0 0 1 1279.6 0)"><stop offset="0" stop-color="#fff"/><stop offset=".02" stop-color="#acc8ff"/><stop offset=".03" stop-color="#84aeff"/><stop offset=".144" stop-color="#77a0e2"/><stop offset=".333" stop-color="#648cb9"/><stop offset=".517" stop-color="#547c98"/><stop offset=".693" stop-color="#4a7181"/><stop offset=".858" stop-color="#436a73"/><stop offset="1" stop-color="#41686e"/></linearGradient><path fill="url(#d)" d="M118.908 558.931l-.102-.199-.062.072c0 .048.016.087.029.127h.135z"/><linearGradient id="e" gradientUnits="userSpaceOnUse" x1="1163.192" y1="395.082" x2="1161.162" y2="520.991" gradientTransform="matrix(-1 0 0 1 1279.6 0)"><stop offset="0" stop-color="#fff"/><stop offset=".02" stop-color="#acc8ff"/><stop offset=".03" stop-color="#84aeff"/><stop offset=".144" stop-color="#77a0e2"/><stop offset=".333" stop-color="#648cb9"/><stop offset=".517" stop-color="#547c98"/><stop offset=".693" stop-color="#4a7181"/><stop offset=".858" stop-color="#436a73"/><stop offset="1" stop-color="#41686e"/></linearGradient><path fill="url(#e)" d="M119.299 565.068l-.073-.602c-.071.135-.151.278-.23.42l.303.182z"/><linearGradient id="f" gradientUnits="userSpaceOnUse" x1="1146.968" y1="395.198" x2="1144.941" y2="520.831" gradientTransform="matrix(-1 0 0 1 1279.6 0)"><stop offset="0" stop-color="#fff"/><stop offset=".02" stop-color="#acc8ff"/><stop offset=".03" stop-color="#84aeff"/><stop offset=".144" stop-color="#77a0e2"/><stop offset=".333" stop-color="#648cb9"/><stop offset=".517" stop-color="#547c98"/><stop offset=".693" stop-color="#4a7181"/><stop offset=".858" stop-color="#436a73"/><stop offset="1" stop-color="#41686e"/></linearGradient><path fill="url(#f)" d="M135.561 569.611c-.009-.03-.007-.065-.015-.097l-.217.191a4.53 4.53 0 00.232-.094z"/><linearGradient id="g" gradientUnits="userSpaceOnUse" x1="1126.683" y1="394.709" x2="1124.655" y2="520.458" gradientTransform="matrix(-1 0 0 1 1279.6 0)"><stop offset="0" stop-color="#fff"/><stop offset=".02" stop-color="#acc8ff"/><stop offset=".03" stop-color="#84aeff"/><stop offset=".144" stop-color="#77a0e2"/><stop offset=".333" stop-color="#648cb9"/><stop offset=".517" stop-color="#547c98"/><stop offset=".693" stop-color="#4a7181"/><stop offset=".858" stop-color="#436a73"/><stop offset="1" stop-color="#41686e"/></linearGradient><path fill="url(#g)" d="M155.791 556.617a20.815 20.815 0 01-.418-.682l-.114.134c0 .267.239.397.532.548z"/><linearGradient id="h" gradientUnits="userSpaceOnUse" x1="1104.334" y1="394.796" x2="1102.311" y2="520.217" gradientTransform="matrix(-1 0 0 1 1279.6 0)"><stop offset="0" stop-color="#fff"/><stop offset=".02" stop-color="#acc8ff"/><stop offset=".03" stop-color="#84aeff"/><stop offset=".144" stop-color="#77a0e2"/><stop offset=".333" stop-color="#648cb9"/><stop offset=".517" stop-color="#547c98"/><stop offset=".693" stop-color="#4a7181"/><stop offset=".858" stop-color="#436a73"/><stop offset="1" stop-color="#41686e"/></linearGradient><path fill="url(#h)" d="M178.116 565.495l-.006.009-.199.166c.071-.027.143-.056.218-.088-.008-.027-.006-.06-.013-.087z"/><linearGradient id="i" gradientUnits="userSpaceOnUse" x1="1104.443" y1="393.951" x2="1102.41" y2="519.993" gradientTransform="matrix(-1 0 0 1 1279.6 0)"><stop offset="0" stop-color="#fff"/><stop offset=".02" stop-color="#acc8ff"/><stop offset=".03" stop-color="#84aeff"/><stop offset=".144" stop-color="#77a0e2"/><stop offset=".333" stop-color="#648cb9"/><stop offset=".517" stop-color="#547c98"/><stop offset=".693" stop-color="#4a7181"/><stop offset=".858" stop-color="#436a73"/><stop offset="1" stop-color="#41686e"/></linearGradient><path fill="url(#i)" d="M178.187 565.966a1.584 1.584 0 00-.453-.147l-.062.052.515.095z"/><linearGradient id="j" gradientUnits="userSpaceOnUse" x1="925.097" y1="391.999" x2="923.075" y2="517.341" gradientTransform="matrix(-1 0 0 1 1279.6 0)"><stop offset="0" stop-color="#fff"/><stop offset=".02" stop-color="#acc8ff"/><stop offset=".03" stop-color="#84aeff"/><stop offset=".144" stop-color="#77a0e2"/><stop offset=".333" stop-color="#648cb9"/><stop offset=".517" stop-color="#547c98"/><stop offset=".693" stop-color="#4a7181"/><stop offset=".858" stop-color="#436a73"/><stop offset="1" stop-color="#41686e"/></linearGradient><path fill="url(#j)" d="M357.443 558.763a3.9 3.9 0 01-.262-.296l-.241.201.503.095z"/><linearGradient id="k" gradientUnits="userSpaceOnUse" x1="890.742" y1="391.233" x2="888.718" y2="516.719" gradientTransform="matrix(-1 0 0 1 1279.6 0)"><stop offset="0" stop-color="#fff"/><stop offset=".02" stop-color="#acc8ff"/><stop offset=".03" stop-color="#84aeff"/><stop offset=".144" stop-color="#77a0e2"/><stop offset=".333" stop-color="#648cb9"/><stop offset=".517" stop-color="#547c98"/><stop offset=".693" stop-color="#4a7181"/><stop offset=".858" stop-color="#436a73"/><stop offset="1" stop-color="#41686e"/></linearGradient><path fill="url(#k)" d="M391.424 548.235l-.132.11.198.037c-.022-.048-.042-.098-.066-.147z"/><linearGradient id="l" gradientUnits="userSpaceOnUse" x1="893.672" y1="388.618" x2="891.614" y2="516.192" gradientTransform="matrix(-1 0 0 1 1279.6 0)"><stop offset="0" stop-color="#fff"/><stop offset=".02" stop-color="#acc8ff"/><stop offset=".03" stop-color="#84aeff"/><stop offset=".144" stop-color="#77a0e2"/><stop offset=".333" stop-color="#648cb9"/><stop offset=".517" stop-color="#547c98"/><stop offset=".693" stop-color="#4a7181"/><stop offset=".858" stop-color="#436a73"/><stop offset="1" stop-color="#41686e"/></linearGradient><path fill="url(#l)" d="M388.6 551.752l-.049-.075-.033.075h.082z"/><linearGradient id="m" gradientUnits="userSpaceOnUse" x1="890.117" y1="394.373" x2="888.133" y2="517.387" gradientTransform="matrix(-1 0 0 1 1279.6 0)"><stop offset="0" stop-color="#fff"/><stop offset=".02" stop-color="#acc8ff"/><stop offset=".03" stop-color="#84aeff"/><stop offset=".144" stop-color="#77a0e2"/><stop offset=".333" stop-color="#648cb9"/><stop offset=".517" stop-color="#547c98"/><stop offset=".693" stop-color="#4a7181"/><stop offset=".858" stop-color="#436a73"/><stop offset="1" stop-color="#41686e"/></linearGradient><path fill="url(#m)" d="M392.011 550.794v-.019l-.014.014.014.005z"/><linearGradient id="n" gradientUnits="userSpaceOnUse" x1="873.167" y1="500.904" x2="872.033" y2="571.208" gradientTransform="matrix(-1 0 0 1 1279.6 0)"><stop offset="0" stop-color="#fff"/><stop offset=".02" stop-color="#acc8ff"/><stop offset=".03" stop-color="#84aeff"/><stop offset=".144" stop-color="#77a0e2"/><stop offset=".333" stop-color="#648cb9"/><stop offset=".517" stop-color="#547c98"/><stop offset=".693" stop-color="#4a7181"/><stop offset=".858" stop-color="#436a73"/><stop offset="1" stop-color="#41686e"/></linearGradient><path fill="url(#n)" d="M407.001 536.056l-.011.008.018-.001z"/><linearGradient id="o" gradientUnits="userSpaceOnUse" x1="874.813" y1="390.398" x2="872.782" y2="516.359" gradientTransform="matrix(-1 0 0 1 1279.6 0)"><stop offset="0" stop-color="#fff"/><stop offset=".02" stop-color="#acc8ff"/><stop offset=".03" stop-color="#84aeff"/><stop offset=".144" stop-color="#77a0e2"/><stop offset=".333" stop-color="#648cb9"/><stop offset=".517" stop-color="#547c98"/><stop offset=".693" stop-color="#4a7181"/><stop offset=".858" stop-color="#436a73"/><stop offset="1" stop-color="#41686e"/></linearGradient><path fill="url(#o)" d="M407.377 538.857s-.124-.186-.251-.391a3.69 3.69 0 00-.135.327c0 .022-.005.041-.006.063h.392z"/><linearGradient id="p" gradientUnits="userSpaceOnUse" x1="772.961" y1="390.722" x2="770.958" y2="514.916" gradientTransform="matrix(-1 0 0 1 1279.6 0)"><stop offset="0" stop-color="#fff"/><stop offset=".02" stop-color="#acc8ff"/><stop offset=".03" stop-color="#84aeff"/><stop offset=".144" stop-color="#77a0e2"/><stop offset=".333" stop-color="#648cb9"/><stop offset=".517" stop-color="#547c98"/><stop offset=".693" stop-color="#4a7181"/><stop offset=".858" stop-color="#436a73"/><stop offset="1" stop-color="#41686e"/></linearGradient><path fill="url(#p)" d="M509.065 527.765a4.591 4.591 0 00-.388.006l-.044.044.432-.05z"/><g><linearGradient id="q" gradientUnits="userSpaceOnUse" x1="796.122" y1="909.703" x2="782.8" y2="477.47" gradientTransform="matrix(-1 0 0 1 1279.6 0)"><stop offset=".121" stop-color="#fff"/><stop offset=".256" stop-color="#d0d2d2"/><stop offset=".592" stop-color="#616868"/><stop offset=".824" stop-color="#1b2424"/><stop offset=".931" stop-color="#000a0a"/></linearGradient><path fill="url(#q)" d="M495.473 524.154s-.086.026-.225.052l.1.082.125-.134z"/><linearGradient id="r" gradientUnits="userSpaceOnUse" x1="798.604" y1="910.183" x2="785.262" y2="477.309" gradientTransform="matrix(-1 0 0 1 1279.6 0)"><stop offset=".121" stop-color="#fff"/><stop offset=".256" stop-color="#d0d2d2"/><stop offset=".592" stop-color="#616868"/><stop offset=".824" stop-color="#1b2424"/><stop offset=".931" stop-color="#000a0a"/></linearGradient><path fill="url(#r)" d="M492.723 526.921l.082.063.091-.096z"/><linearGradient id="s" gradientUnits="userSpaceOnUse" x1="856.874" y1="906.488" x2="843.601" y2="475.854" gradientTransform="matrix(-1 0 0 1 1279.6 0)"><stop offset=".121" stop-color="#fff"/><stop offset=".256" stop-color="#d0d2d2"/><stop offset=".592" stop-color="#616868"/><stop offset=".824" stop-color="#1b2424"/><stop offset=".931" stop-color="#000a0a"/></linearGradient><path fill="url(#s)" d="M434.736 514.988c.065-.107.134-.219.208-.333-.147.077-.291.122-.291.24l.083.093z"/><linearGradient id="t" gradientUnits="userSpaceOnUse" x1="947.871" y1="906.176" x2="934.518" y2="472.939" gradientTransform="matrix(-1 0 0 1 1279.6 0)"><stop offset=".121" stop-color="#fff"/><stop offset=".256" stop-color="#d0d2d2"/><stop offset=".592" stop-color="#616868"/><stop offset=".824" stop-color="#1b2424"/><stop offset=".931" stop-color="#000a0a"/></linearGradient><path fill="url(#t)" d="M343.847 510.521c.043.06.087.115.139.16.048-.122-.078-.118-.139-.16z"/><linearGradient id="u" gradientUnits="userSpaceOnUse" x1="947.48" y1="902.343" x2="934.256" y2="473.317" gradientTransform="matrix(-1 0 0 1 1279.6 0)"><stop offset=".121" stop-color="#fff"/><stop offset=".256" stop-color="#d0d2d2"/><stop offset=".592" stop-color="#616868"/><stop offset=".824" stop-color="#1b2424"/><stop offset=".931" stop-color="#000a0a"/></linearGradient><path fill="url(#u)" d="M344.016 512.377l.238.2c.026-.2-.086-.237-.238-.2z"/><linearGradient id="v" gradientUnits="userSpaceOnUse" x1="978.081" y1="902.12" x2="964.834" y2="472.337" gradientTransform="matrix(-1 0 0 1 1279.6 0)"><stop offset=".121" stop-color="#fff"/><stop offset=".256" stop-color="#d0d2d2"/><stop offset=".592" stop-color="#616868"/><stop offset=".824" stop-color="#1b2424"/><stop offset=".931" stop-color="#000a0a"/></linearGradient><path fill="url(#v)" d="M314.089 498.037c-.073-.015-.151-.029-.229-.048a1.1 1.1 0 00.057.233c.056-.062.112-.121.172-.185z"/><linearGradient id="w" gradientUnits="userSpaceOnUse" x1="1285.484" y1="892.971" x2="1272.239" y2="463.227" gradientTransform="matrix(-1 0 0 1 1279.6 0)"><stop offset=".121" stop-color="#fff"/><stop offset=".256" stop-color="#d0d2d2"/><stop offset=".592" stop-color="#616868"/><stop offset=".824" stop-color="#1b2424"/><stop offset=".931" stop-color="#000a0a"/></linearGradient><path fill="url(#w)" d="M7.299 466.347l-.078.033c.022.07.048.148.078.229a1.272 1.272 0 010-.262z"/><linearGradient id="x" gradientUnits="userSpaceOnUse" x1="1043.193" y1="901.291" x2="1029.911" y2="470.358" gradientTransform="matrix(-1 0 0 1 1279.6 0)"><stop offset=".121" stop-color="#fff"/><stop offset=".256" stop-color="#d0d2d2"/><stop offset=".592" stop-color="#616868"/><stop offset=".824" stop-color="#1b2424"/><stop offset=".931" stop-color="#000a0a"/></linearGradient><path fill="url(#x)" d="M249.134 489.034c.104-.137.19-.289.264-.44l-.03-.004-.429.204h-.004l-.087.04.187.134.099.066z"/><linearGradient id="y" gradientUnits="userSpaceOnUse" x1="1110.766" y1="899.554" x2="1097.475" y2="468.349" gradientTransform="matrix(-1 0 0 1 1279.6 0)"><stop offset=".121" stop-color="#fff"/><stop offset=".256" stop-color="#d0d2d2"/><stop offset=".592" stop-color="#616868"/><stop offset=".824" stop-color="#1b2424"/><stop offset=".931" stop-color="#000a0a"/></linearGradient><path fill="url(#y)" d="M181.449 486.294l.204.133c.013-.056.026-.11.043-.174l-.247.041z"/><linearGradient id="z" gradientUnits="userSpaceOnUse" x1="1160.744" y1="896.731" x2="1147.498" y2="466.957" gradientTransform="matrix(-1 0 0 1 1279.6 0)"><stop offset=".121" stop-color="#fff"/><stop offset=".256" stop-color="#d0d2d2"/><stop offset=".592" stop-color="#616868"/><stop offset=".824" stop-color="#1b2424"/><stop offset=".931" stop-color="#000a0a"/></linearGradient><path fill="url(#z)" d="M129.461 546.809l.351.223a1.085 1.085 0 00-.187-.252l-.164.029z"/><linearGradient id="A" gradientUnits="userSpaceOnUse" x1="1164.765" y1="897.361" x2="1151.492" y2="466.744" gradientTransform="matrix(-1 0 0 1 1279.6 0)"><stop offset=".121" stop-color="#fff"/><stop offset=".256" stop-color="#d0d2d2"/><stop offset=".592" stop-color="#616868"/><stop offset=".824" stop-color="#1b2424"/><stop offset=".931" stop-color="#000a0a"/></linearGradient><path fill="url(#A)" d="M127.4 504.504c-.229.011-.546.093-.867.192-.017.008-.034.011-.052.019l.035.026.308.407.078.066.056-.081c.139-.203.29-.418.442-.629z"/><linearGradient id="B" gradientUnits="userSpaceOnUse" x1="955.62" y1="902.337" x2="942.392" y2="473.159" gradientTransform="matrix(-1 0 0 1 1279.6 0)"><stop offset=".121" stop-color="#fff"/><stop offset=".256" stop-color="#d0d2d2"/><stop offset=".592" stop-color="#616868"/><stop offset=".824" stop-color="#1b2424"/><stop offset=".931" stop-color="#000a0a"/></linearGradient><path fill="url(#B)" d="M334.426 564.326a.89.89 0 01.117-.107c.104-.07-.13-.052-.308-.026l.191.133z"/><linearGradient id="C" gradientUnits="userSpaceOnUse" x1="943.123" y1="903.607" x2="929.86" y2="473.287" gradientTransform="matrix(-1 0 0 1 1279.6 0)"><stop offset=".121" stop-color="#fff"/><stop offset=".256" stop-color="#d0d2d2"/><stop offset=".592" stop-color="#616868"/><stop offset=".824" stop-color="#1b2424"/><stop offset=".931" stop-color="#000a0a"/></linearGradient><path fill="url(#C)" d="M346.767 566.955c.057.104.108.204.16.308.026-.159-.035-.259-.16-.308z"/><linearGradient id="D" gradientUnits="userSpaceOnUse" x1="1141.999" y1="898.399" x2="1128.718" y2="467.491" gradientTransform="matrix(-1 0 0 1 1279.6 0)"><stop offset=".121" stop-color="#fff"/><stop offset=".256" stop-color="#d0d2d2"/><stop offset=".592" stop-color="#616868"/><stop offset=".824" stop-color="#1b2424"/><stop offset=".931" stop-color="#000a0a"/></linearGradient><path fill="url(#D)" d="M151.05 459.555l.147.163c.009-.13.009-.208.009-.208l-.156.045z"/><linearGradient id="E" gradientUnits="userSpaceOnUse" x1="1014.443" y1="902.509" x2="1001.15" y2="471.212" gradientTransform="matrix(-1 0 0 1 1279.6 0)"><stop offset=".121" stop-color="#fff"/><stop offset=".256" stop-color="#d0d2d2"/><stop offset=".592" stop-color="#616868"/><stop offset=".824" stop-color="#1b2424"/><stop offset=".931" stop-color="#000a0a"/></linearGradient><path fill="url(#E)" d="M277.934 483.516l.234.167a.895.895 0 01.035-.118c-.078-.012-.169-.03-.269-.049z"/><linearGradient id="F" gradientUnits="userSpaceOnUse" x1="772.283" y1="908.766" x2="759.018" y2="478.368" gradientTransform="matrix(-1 0 0 1 1279.6 0)"><stop offset=".121" stop-color="#fff"/><stop offset=".256" stop-color="#d0d2d2"/><stop offset=".592" stop-color="#616868"/><stop offset=".824" stop-color="#1b2424"/><stop offset=".931" stop-color="#000a0a"/></linearGradient><path fill="url(#F)" d="M518.829 528.843l.242.171c.035-.03.065-.056.095-.074.165-.12-.06-.123-.337-.097z"/><linearGradient id="G" gradientUnits="userSpaceOnUse" x1="708.59" y1="908.111" x2="695.414" y2="480.627" gradientTransform="matrix(-1 0 0 1 1279.6 0)"><stop offset=".121" stop-color="#fff"/><stop offset=".256" stop-color="#d0d2d2"/><stop offset=".592" stop-color="#616868"/><stop offset=".824" stop-color="#1b2424"/><stop offset=".931" stop-color="#000a0a"/></linearGradient><path fill="url(#G)" d="M582.373 536.628c.009.06.026.122.048.185.039-.052.083-.1.125-.151a5.911 5.911 0 00-.173-.034z"/><linearGradient id="H" gradientUnits="userSpaceOnUse" x1="685.087" y1="911.526" x2="671.814" y2="480.908" gradientTransform="matrix(-1 0 0 1 1279.6 0)"><stop offset=".121" stop-color="#fff"/><stop offset=".256" stop-color="#d0d2d2"/><stop offset=".592" stop-color="#616868"/><stop offset=".824" stop-color="#1b2424"/><stop offset=".931" stop-color="#000a0a"/></linearGradient><path fill="url(#H)" d="M605.949 542.579c.026-.037.057-.078.091-.118-.091-.019-.195-.033-.303-.056l.212.174z"/><linearGradient id="I" gradientUnits="userSpaceOnUse" x1="656.585" y1="913.276" x2="643.28" y2="481.588" gradientTransform="matrix(-1 0 0 1 1279.6 0)"><stop offset=".121" stop-color="#fff"/><stop offset=".256" stop-color="#d0d2d2"/><stop offset=".592" stop-color="#616868"/><stop offset=".824" stop-color="#1b2424"/><stop offset=".931" stop-color="#000a0a"/></linearGradient><path fill="url(#I)" d="M634.208 545.627l.229.219c.017-.074.03-.148.047-.219h-.276z"/><linearGradient id="J" gradientUnits="userSpaceOnUse" x1="645.254" y1="913.713" x2="631.948" y2="481.995" gradientTransform="matrix(-1 0 0 1 1279.6 0)"><stop offset=".121" stop-color="#fff"/><stop offset=".256" stop-color="#d0d2d2"/><stop offset=".592" stop-color="#616868"/><stop offset=".824" stop-color="#1b2424"/><stop offset=".931" stop-color="#000a0a"/></linearGradient><path fill="url(#J)" d="M646.154 527.702l.126.138c.021-.104.039-.204.057-.301-.096.049-.183.082-.183.163z"/><linearGradient id="K" gradientUnits="userSpaceOnUse" x1="614.082" y1="912.047" x2="600.866" y2="483.273" gradientTransform="matrix(-1 0 0 1 1279.6 0)"><stop offset=".121" stop-color="#fff"/><stop offset=".256" stop-color="#d0d2d2"/><stop offset=".592" stop-color="#616868"/><stop offset=".824" stop-color="#1b2424"/><stop offset=".931" stop-color="#000a0a"/></linearGradient><path fill="url(#K)" d="M676.727 544.872l.138.141.078-.141z"/><linearGradient id="L" gradientUnits="userSpaceOnUse" x1="558.483" y1="916.618" x2="545.159" y2="484.323" gradientTransform="matrix(-1 0 0 1 1279.6 0)"><stop offset=".121" stop-color="#fff"/><stop offset=".256" stop-color="#d0d2d2"/><stop offset=".592" stop-color="#616868"/><stop offset=".824" stop-color="#1b2424"/><stop offset=".931" stop-color="#000a0a"/></linearGradient><path fill="url(#L)" d="M732.011 563.526c.025-.041.052-.082.073-.122l-.16-.022c.03.044.06.096.087.144z"/><linearGradient id="M" gradientUnits="userSpaceOnUse" x1="532.252" y1="914.535" x2="519.035" y2="485.715" gradientTransform="matrix(-1 0 0 1 1279.6 0)"><stop offset=".121" stop-color="#fff"/><stop offset=".256" stop-color="#d0d2d2"/><stop offset=".592" stop-color="#616868"/><stop offset=".824" stop-color="#1b2424"/><stop offset=".931" stop-color="#000a0a"/></linearGradient><path fill="url(#M)" d="M758.472 557.464l-.238.04.139.111c.034-.052.065-.103.099-.151z"/><linearGradient id="N" gradientUnits="userSpaceOnUse" x1="531.117" y1="916.163" x2="517.841" y2="485.435" gradientTransform="matrix(-1 0 0 1 1279.6 0)"><stop offset=".121" stop-color="#fff"/><stop offset=".256" stop-color="#d0d2d2"/><stop offset=".592" stop-color="#616868"/><stop offset=".824" stop-color="#1b2424"/><stop offset=".931" stop-color="#000a0a"/></linearGradient><path fill="url(#N)" d="M759.521 554.297c.073.074.146.152.225.233-.001-.17-.092-.237-.225-.233z"/><linearGradient id="O" gradientUnits="userSpaceOnUse" x1="483.745" y1="917.269" x2="470.479" y2="486.871" gradientTransform="matrix(-1 0 0 1 1279.6 0)"><stop offset=".121" stop-color="#fff"/><stop offset=".256" stop-color="#d0d2d2"/><stop offset=".592" stop-color="#616868"/><stop offset=".824" stop-color="#1b2424"/><stop offset=".931" stop-color="#000a0a"/></linearGradient><path fill="url(#O)" d="M806.535 574.98h-.261l.229.215c.015-.073.023-.147.032-.215z"/><linearGradient id="P" gradientUnits="userSpaceOnUse" x1="511.303" y1="916.401" x2="498.039" y2="486.077" gradientTransform="matrix(-1 0 0 1 1279.6 0)"><stop offset=".121" stop-color="#fff"/><stop offset=".256" stop-color="#d0d2d2"/><stop offset=".592" stop-color="#616868"/><stop offset=".824" stop-color="#1b2424"/><stop offset=".931" stop-color="#000a0a"/></linearGradient><path fill="url(#P)" d="M779.155 566.489c.013-.052.025-.115.043-.186l-.221.041.178.145z"/><linearGradient id="Q" gradientUnits="userSpaceOnUse" x1="496.66" y1="918.998" x2="483.297" y2="485.449" gradientTransform="matrix(-1 0 0 1 1279.6 0)"><stop offset=".121" stop-color="#fff"/><stop offset=".256" stop-color="#d0d2d2"/><stop offset=".592" stop-color="#616868"/><stop offset=".824" stop-color="#1b2424"/><stop offset=".931" stop-color="#000a0a"/></linearGradient><path fill="url(#Q)" d="M792.02 622.512c.057-.074.108-.152.165-.23l-.199.026.034.204z"/><linearGradient id="R" gradientUnits="userSpaceOnUse" x1="633.786" y1="912.651" x2="620.526" y2="482.427" gradientTransform="matrix(-1 0 0 1 1279.6 0)"><stop offset=".121" stop-color="#fff"/><stop offset=".256" stop-color="#d0d2d2"/><stop offset=".592" stop-color="#616868"/><stop offset=".824" stop-color="#1b2424"/><stop offset=".931" stop-color="#000a0a"/></linearGradient><path fill="url(#R)" d="M654.372 638.129c.047-.06.095-.118.147-.186a1.05 1.05 0 01-.243-.066l-.233.041.329.211z"/><linearGradient id="S" gradientUnits="userSpaceOnUse" x1="671.84" y1="911.416" x2="658.585" y2="481.365" gradientTransform="matrix(-1 0 0 1 1279.6 0)"><stop offset=".121" stop-color="#fff"/><stop offset=".256" stop-color="#d0d2d2"/><stop offset=".592" stop-color="#616868"/><stop offset=".824" stop-color="#1b2424"/><stop offset=".931" stop-color="#000a0a"/></linearGradient><path fill="url(#S)" d="M616.601 625.367l.125-.086h-.294l.169.086z"/><linearGradient id="T" gradientUnits="userSpaceOnUse" x1="676.722" y1="911.329" x2="663.464" y2="481.199" gradientTransform="matrix(-1 0 0 1 1279.6 0)"><stop offset=".121" stop-color="#fff"/><stop offset=".256" stop-color="#d0d2d2"/><stop offset=".592" stop-color="#616868"/><stop offset=".824" stop-color="#1b2424"/><stop offset=".931" stop-color="#000a0a"/></linearGradient><path fill="url(#T)" d="M611.948 611.612l.126.122c.043-.008.121-.022.195-.078a.245.245 0 00.048-.1c-.022-.041-.083-.082-.052-.174l-.347.166.03.064z"/><linearGradient id="U" gradientUnits="userSpaceOnUse" x1="678.878" y1="911.305" x2="665.618" y2="481.09" gradientTransform="matrix(-1 0 0 1 1279.6 0)"><stop offset=".121" stop-color="#fff"/><stop offset=".256" stop-color="#d0d2d2"/><stop offset=".592" stop-color="#616868"/><stop offset=".824" stop-color="#1b2424"/><stop offset=".931" stop-color="#000a0a"/></linearGradient><path fill="url(#U)" d="M608.787 648.606c.052-.07.108-.142.165-.215-.33.067-.291.148-.165.215z"/><linearGradient id="V" gradientUnits="userSpaceOnUse" x1="483.604" y1="916.912" x2="470.301" y2="485.288" gradientTransform="matrix(-1 0 0 1 1279.6 0)"><stop offset=".121" stop-color="#fff"/><stop offset=".256" stop-color="#d0d2d2"/><stop offset=".592" stop-color="#616868"/><stop offset=".824" stop-color="#1b2424"/><stop offset=".931" stop-color="#000a0a"/></linearGradient><path fill="url(#V)" d="M806.773 566.118c.017.049.038.097.056.145.026-.081-.004-.118-.056-.145z"/><linearGradient id="W" gradientUnits="userSpaceOnUse" x1="882.921" y1="901.995" x2="873.294" y2="589.643" gradientTransform="matrix(-1 0 0 1 1279.6 0)"><stop offset=".121" stop-color="#fff"/><stop offset=".256" stop-color="#d0d2d2"/><stop offset=".592" stop-color="#616868"/><stop offset=".824" stop-color="#1b2424"/><stop offset=".931" stop-color="#000a0a"/></linearGradient><path fill="url(#W)" d="M408.868 507.222c-.004-.011 0-.025-.004-.036l-.039-.004.043.04z"/><linearGradient id="X" gradientUnits="userSpaceOnUse" x1="824.437" y1="902.049" x2="812.884" y2="527.227" gradientTransform="matrix(-1 0 0 1 1279.6 0)"><stop offset=".121" stop-color="#fff"/><stop offset=".256" stop-color="#d0d2d2"/><stop offset=".592" stop-color="#616868"/><stop offset=".824" stop-color="#1b2424"/><stop offset=".931" stop-color="#000a0a"/></linearGradient><path fill="url(#X)" d="M466.317 537.109l.061.044a.952.952 0 00.126-.044h-.187z"/><linearGradient id="Y" gradientUnits="userSpaceOnUse" x1="805.673" y1="908.291" x2="792.378" y2="476.945" gradientTransform="matrix(-1 0 0 1 1279.6 0)"><stop offset=".121" stop-color="#fff"/><stop offset=".256" stop-color="#d0d2d2"/><stop offset=".592" stop-color="#616868"/><stop offset=".824" stop-color="#1b2424"/><stop offset=".931" stop-color="#000a0a"/></linearGradient><path fill="url(#Y)" d="M483.717 588.584l.074.074c.017-.026.035-.049.052-.074h-.126z"/><linearGradient id="Z" gradientUnits="userSpaceOnUse" x1="796.574" y1="898.257" x2="788.872" y2="648.375" gradientTransform="matrix(-1 0 0 1 1279.6 0)"><stop offset=".121" stop-color="#fff"/><stop offset=".256" stop-color="#d0d2d2"/><stop offset=".592" stop-color="#616868"/><stop offset=".824" stop-color="#1b2424"/><stop offset=".931" stop-color="#000a0a"/></linearGradient><path fill="url(#Z)" d="M494.559 525.125l-.065-.012.044.033z"/><linearGradient id="aa" gradientUnits="userSpaceOnUse" x1="749.855" y1="569.533" x2="746.966" y2="475.828" gradientTransform="matrix(-1 0 0 1 1279.6 0)"><stop offset=".121" stop-color="#fff"/><stop offset=".256" stop-color="#d0d2d2"/><stop offset=".592" stop-color="#616868"/><stop offset=".824" stop-color="#1b2424"/><stop offset=".931" stop-color="#000a0a"/></linearGradient><path fill="url(#aa)" d="M531.183 522.669l.008.012.004-.012z"/><linearGradient id="ab" gradientUnits="userSpaceOnUse" x1="685.028" y1="915.95" x2="671.567" y2="479.199" gradientTransform="matrix(-1 0 0 1 1279.6 0)"><stop offset=".121" stop-color="#fff"/><stop offset=".256" stop-color="#d0d2d2"/><stop offset=".592" stop-color="#616868"/><stop offset=".824" stop-color="#1b2424"/><stop offset=".931" stop-color="#000a0a"/></linearGradient><path fill="url(#ab)" d="M606.014 542.631l.061.049c.022-.045.048-.086.069-.126a1.54 1.54 0 00-.13.077z"/><linearGradient id="ac" gradientUnits="userSpaceOnUse" x1="670.076" y1="648.98" x2="663.578" y2="438.142" gradientTransform="matrix(-1 0 0 1 1279.6 0)"><stop offset=".121" stop-color="#fff"/><stop offset=".256" stop-color="#d0d2d2"/><stop offset=".592" stop-color="#616868"/><stop offset=".824" stop-color="#1b2424"/><stop offset=".931" stop-color="#000a0a"/></linearGradient><path fill="url(#ac)" d="M612.797 543.535a.171.171 0 00-.047.015l.017.011.03-.026z"/><linearGradient id="ad" gradientUnits="userSpaceOnUse" x1="647.534" y1="619.982" x2="642.721" y2="463.807" gradientTransform="matrix(-1 0 0 1 1279.6 0)"><stop offset=".121" stop-color="#fff"/><stop offset=".256" stop-color="#d0d2d2"/><stop offset=".592" stop-color="#616868"/><stop offset=".824" stop-color="#1b2424"/><stop offset=".931" stop-color="#000a0a"/></linearGradient><path fill="url(#ad)" d="M634.485 541.879l-.026-.004.018.02z"/><linearGradient id="ae" gradientUnits="userSpaceOnUse" x1="676.784" y1="914.867" x2="663.351" y2="479.038" gradientTransform="matrix(-1 0 0 1 1279.6 0)"><stop offset=".121" stop-color="#fff"/><stop offset=".256" stop-color="#d0d2d2"/><stop offset=".592" stop-color="#616868"/><stop offset=".824" stop-color="#1b2424"/><stop offset=".931" stop-color="#000a0a"/></linearGradient><path fill="url(#ae)" d="M612.187 611.846c.004-.016 0-.026.004-.041-.021-.008-.047-.019-.069-.026l.065.067z"/><linearGradient id="af" gradientUnits="userSpaceOnUse" x1="961.845" y1="578.714" x2="956.309" y2="399.112" gradientTransform="matrix(-1 0 0 1 1279.6 0)"><stop offset=".121" stop-color="#fff"/><stop offset=".256" stop-color="#d0d2d2"/><stop offset=".592" stop-color="#616868"/><stop offset=".824" stop-color="#1b2424"/><stop offset=".931" stop-color="#000a0a"/></linearGradient><path fill="url(#af)" d="M320.539 488.89l-.03.004.022.019c.004-.009.008-.016.008-.023z"/><linearGradient id="ag" gradientUnits="userSpaceOnUse" x1="936.6" y1="528.185" x2="935.637" y2="496.949" gradientTransform="matrix(-1 0 0 1 1279.6 0)"><stop offset=".121" stop-color="#fff"/><stop offset=".256" stop-color="#d0d2d2"/><stop offset=".592" stop-color="#616868"/><stop offset=".824" stop-color="#1b2424"/><stop offset=".931" stop-color="#000a0a"/></linearGradient><path fill="url(#ag)" d="M343.483 512.566v-.003h-.004z"/><linearGradient id="ah" gradientUnits="userSpaceOnUse" x1="946.925" y1="652.014" x2="939.223" y2="402.132" gradientTransform="matrix(-1 0 0 1 1279.6 0)"><stop offset=".121" stop-color="#fff"/><stop offset=".256" stop-color="#d0d2d2"/><stop offset=".592" stop-color="#616868"/><stop offset=".824" stop-color="#1b2424"/><stop offset=".931" stop-color="#000a0a"/></linearGradient><path fill="url(#ah)" d="M336.505 527.043l.026.03c.004-.008.013-.019.018-.03h-.044z"/><linearGradient id="ai" gradientUnits="userSpaceOnUse" x1="955.533" y1="900.475" x2="942.389" y2="474.015" gradientTransform="matrix(-1 0 0 1 1279.6 0)"><stop offset=".121" stop-color="#fff"/><stop offset=".256" stop-color="#d0d2d2"/><stop offset=".592" stop-color="#616868"/><stop offset=".824" stop-color="#1b2424"/><stop offset=".931" stop-color="#000a0a"/></linearGradient><path fill="url(#ai)" d="M334.374 567.748c.004-.063.004-.1.004-.1l-.086.025-.022.008.009.007.095.06z"/><linearGradient id="aj" gradientUnits="userSpaceOnUse" x1="982.002" y1="902.801" x2="968.764" y2="473.317" gradientTransform="matrix(-1 0 0 1 1279.6 0)"><stop offset=".121" stop-color="#fff"/><stop offset=".256" stop-color="#d0d2d2"/><stop offset=".592" stop-color="#616868"/><stop offset=".824" stop-color="#1b2424"/><stop offset=".931" stop-color="#000a0a"/></linearGradient><path fill="url(#aj)" d="M310.317 491.146v-.048l-.061-.008z"/><linearGradient id="ak" gradientUnits="userSpaceOnUse" x1="1000.036" y1="902.196" x2="986.766" y2="471.642" gradientTransform="matrix(-1 0 0 1 1279.6 0)"><stop offset=".121" stop-color="#fff"/><stop offset=".256" stop-color="#d0d2d2"/><stop offset=".592" stop-color="#616868"/><stop offset=".824" stop-color="#1b2424"/><stop offset=".931" stop-color="#000a0a"/></linearGradient><path fill="url(#ak)" d="M291.925 502.896s-.052.015-.108.019l.056.037.052-.056z"/><linearGradient id="al" gradientUnits="userSpaceOnUse" x1="1000.406" y1="904.56" x2="987.65" y2="490.694" gradientTransform="matrix(-1 0 0 1 1279.6 0)"><stop offset=".121" stop-color="#fff"/><stop offset=".256" stop-color="#d0d2d2"/><stop offset=".592" stop-color="#616868"/><stop offset=".824" stop-color="#1b2424"/><stop offset=".931" stop-color="#000a0a"/></linearGradient><path fill="url(#al)" d="M291.553 502.744l.052.034c-.004-.016-.004-.034-.004-.052-.018.007-.036.015-.048.018z"/><linearGradient id="am" gradientUnits="userSpaceOnUse" x1="985.341" y1="545.299" x2="982.693" y2="459.402" gradientTransform="matrix(-1 0 0 1 1279.6 0)"><stop offset=".121" stop-color="#fff"/><stop offset=".256" stop-color="#d0d2d2"/><stop offset=".592" stop-color="#616868"/><stop offset=".824" stop-color="#1b2424"/><stop offset=".931" stop-color="#000a0a"/></linearGradient><path fill="url(#am)" d="M295.577 502.345l.008.007c.004-.003.004-.003.004-.011-.004.004-.008.004-.012.004z"/><linearGradient id="an" gradientUnits="userSpaceOnUse" x1="1025.924" y1="613.717" x2="1018.944" y2="387.262" gradientTransform="matrix(-1 0 0 1 1279.6 0)"><stop offset=".121" stop-color="#fff"/><stop offset=".256" stop-color="#d0d2d2"/><stop offset=".592" stop-color="#616868"/><stop offset=".824" stop-color="#1b2424"/><stop offset=".931" stop-color="#000a0a"/></linearGradient><path fill="url(#an)" d="M257.169 500.489l.021-.022-.047-.007z"/><linearGradient id="ao" gradientUnits="userSpaceOnUse" x1="1135.324" y1="899.705" x2="1122.016" y2="467.937" gradientTransform="matrix(-1 0 0 1 1279.6 0)"><stop offset=".121" stop-color="#fff"/><stop offset=".256" stop-color="#d0d2d2"/><stop offset=".592" stop-color="#616868"/><stop offset=".824" stop-color="#1b2424"/><stop offset=".931" stop-color="#000a0a"/></linearGradient><path fill="url(#ao)" d="M157.365 472.572l.087.056c.021-.029.043-.056.065-.081l-.152.025z"/><linearGradient id="ap" gradientUnits="userSpaceOnUse" x1="1083.433" y1="640.631" x2="1080.063" y2="531.308" gradientTransform="matrix(-1 0 0 1 1279.6 0)"><stop offset=".121" stop-color="#fff"/><stop offset=".256" stop-color="#d0d2d2"/><stop offset=".592" stop-color="#616868"/><stop offset=".824" stop-color="#1b2424"/><stop offset=".931" stop-color="#000a0a"/></linearGradient><path fill="url(#ap)" d="M197.839 585.954l.017.015.009-.011z"/><linearGradient id="aq" gradientUnits="userSpaceOnUse" x1="1084.039" y1="680.975" x2="1078.022" y2="485.755" gradientTransform="matrix(-1 0 0 1 1279.6 0)"><stop offset=".121" stop-color="#fff"/><stop offset=".256" stop-color="#d0d2d2"/><stop offset=".592" stop-color="#616868"/><stop offset=".824" stop-color="#1b2424"/><stop offset=".931" stop-color="#000a0a"/></linearGradient><path fill="url(#aq)" d="M198.554 583.34l.03.025v-.014z"/><linearGradient id="ar" gradientUnits="userSpaceOnUse" x1="1094.043" y1="900.076" x2="1080.77" y2="469.435" gradientTransform="matrix(-1 0 0 1 1279.6 0)"><stop offset=".121" stop-color="#fff"/><stop offset=".256" stop-color="#d0d2d2"/><stop offset=".592" stop-color="#616868"/><stop offset=".824" stop-color="#1b2424"/><stop offset=".931" stop-color="#000a0a"/></linearGradient><path fill="url(#ar)" d="M195.968 560.574l.017.104c.03-.033.057-.07.087-.104h-.104z"/><linearGradient id="as" gradientUnits="userSpaceOnUse" x1="1136.685" y1="900.563" x2="1123.349" y2="467.885" gradientTransform="matrix(-1 0 0 1 1279.6 0)"><stop offset=".121" stop-color="#fff"/><stop offset=".256" stop-color="#d0d2d2"/><stop offset=".592" stop-color="#616868"/><stop offset=".824" stop-color="#1b2424"/><stop offset=".931" stop-color="#000a0a"/></linearGradient><path fill="url(#as)" d="M154.637 520.732l.021-.022c0-.037.004-.07.004-.104l-.074-.011c.018.045.031.09.049.137z"/><linearGradient id="at" gradientUnits="userSpaceOnUse" x1="1168.334" y1="909.064" x2="1158.707" y2="596.713" gradientTransform="matrix(-1 0 0 1 1279.6 0)"><stop offset=".121" stop-color="#fff"/><stop offset=".256" stop-color="#d0d2d2"/><stop offset=".592" stop-color="#616868"/><stop offset=".824" stop-color="#1b2424"/><stop offset=".931" stop-color="#000a0a"/></linearGradient><path fill="url(#at)" d="M123.67 506.015c.017-.011.03-.025.043-.037-.021.008-.035.012-.047.019 0 .007.004.014.004.018z"/></g></g></switch></svg>